G04 #@! TF.GenerationSoftware,KiCad,Pcbnew,5.0.2-bee76a0~70~ubuntu18.04.1*
G04 #@! TF.CreationDate,2021-06-01T15:08:51-05:00*
G04 #@! TF.ProjectId,CO2_sensorboard_slave,434f325f-7365-46e7-936f-72626f617264,rev?*
G04 #@! TF.SameCoordinates,Original*
G04 #@! TF.FileFunction,Legend,Top*
G04 #@! TF.FilePolarity,Positive*
%FSLAX46Y46*%
G04 Gerber Fmt 4.6, Leading zero omitted, Abs format (unit mm)*
G04 Created by KiCad (PCBNEW 5.0.2-bee76a0~70~ubuntu18.04.1) date Tue 01 Jun 2021 03:08:51 PM CDT*
%MOMM*%
%LPD*%
G01*
G04 APERTURE LIST*
%ADD10C,0.125000*%
%ADD11C,0.250000*%
%ADD12C,0.300000*%
%ADD13C,0.200000*%
%ADD14C,0.120000*%
%ADD15C,0.150000*%
G04 APERTURE END LIST*
D10*
X54477457Y-89513457D02*
X54977457Y-89513457D01*
X54501266Y-89513457D02*
X54477457Y-89465838D01*
X54477457Y-89370600D01*
X54501266Y-89322980D01*
X54525076Y-89299171D01*
X54572695Y-89275361D01*
X54715552Y-89275361D01*
X54763171Y-89299171D01*
X54786980Y-89322980D01*
X54810790Y-89370600D01*
X54810790Y-89465838D01*
X54786980Y-89513457D01*
X54477457Y-88846790D02*
X54810790Y-88846790D01*
X54477457Y-89061076D02*
X54739361Y-89061076D01*
X54786980Y-89037266D01*
X54810790Y-88989647D01*
X54810790Y-88918219D01*
X54786980Y-88870600D01*
X54763171Y-88846790D01*
X54810790Y-88608695D02*
X54477457Y-88608695D01*
X54525076Y-88608695D02*
X54501266Y-88584885D01*
X54477457Y-88537266D01*
X54477457Y-88465838D01*
X54501266Y-88418219D01*
X54548885Y-88394409D01*
X54810790Y-88394409D01*
X54548885Y-88394409D02*
X54501266Y-88370600D01*
X54477457Y-88322980D01*
X54477457Y-88251552D01*
X54501266Y-88203933D01*
X54548885Y-88180123D01*
X54810790Y-88180123D01*
X54477457Y-87942028D02*
X54977457Y-87942028D01*
X54501266Y-87942028D02*
X54477457Y-87894409D01*
X54477457Y-87799171D01*
X54501266Y-87751552D01*
X54525076Y-87727742D01*
X54572695Y-87703933D01*
X54715552Y-87703933D01*
X54763171Y-87727742D01*
X54786980Y-87751552D01*
X54810790Y-87799171D01*
X54810790Y-87894409D01*
X54786980Y-87942028D01*
D11*
X77060976Y-92521761D02*
X77203833Y-92569380D01*
X77441928Y-92569380D01*
X77537166Y-92521761D01*
X77584785Y-92474142D01*
X77632404Y-92378904D01*
X77632404Y-92283666D01*
X77584785Y-92188428D01*
X77537166Y-92140809D01*
X77441928Y-92093190D01*
X77251452Y-92045571D01*
X77156214Y-91997952D01*
X77108595Y-91950333D01*
X77060976Y-91855095D01*
X77060976Y-91759857D01*
X77108595Y-91664619D01*
X77156214Y-91617000D01*
X77251452Y-91569380D01*
X77489547Y-91569380D01*
X77632404Y-91617000D01*
X78441928Y-92521761D02*
X78346690Y-92569380D01*
X78156214Y-92569380D01*
X78060976Y-92521761D01*
X78013357Y-92426523D01*
X78013357Y-92045571D01*
X78060976Y-91950333D01*
X78156214Y-91902714D01*
X78346690Y-91902714D01*
X78441928Y-91950333D01*
X78489547Y-92045571D01*
X78489547Y-92140809D01*
X78013357Y-92236047D01*
X78918119Y-91902714D02*
X78918119Y-92569380D01*
X78918119Y-91997952D02*
X78965738Y-91950333D01*
X79060976Y-91902714D01*
X79203833Y-91902714D01*
X79299071Y-91950333D01*
X79346690Y-92045571D01*
X79346690Y-92569380D01*
X79775261Y-92521761D02*
X79870500Y-92569380D01*
X80060976Y-92569380D01*
X80156214Y-92521761D01*
X80203833Y-92426523D01*
X80203833Y-92378904D01*
X80156214Y-92283666D01*
X80060976Y-92236047D01*
X79918119Y-92236047D01*
X79822880Y-92188428D01*
X79775261Y-92093190D01*
X79775261Y-92045571D01*
X79822880Y-91950333D01*
X79918119Y-91902714D01*
X80060976Y-91902714D01*
X80156214Y-91950333D01*
X80775261Y-92569380D02*
X80680023Y-92521761D01*
X80632404Y-92474142D01*
X80584785Y-92378904D01*
X80584785Y-92093190D01*
X80632404Y-91997952D01*
X80680023Y-91950333D01*
X80775261Y-91902714D01*
X80918119Y-91902714D01*
X81013357Y-91950333D01*
X81060976Y-91997952D01*
X81108595Y-92093190D01*
X81108595Y-92378904D01*
X81060976Y-92474142D01*
X81013357Y-92521761D01*
X80918119Y-92569380D01*
X80775261Y-92569380D01*
X81537166Y-92569380D02*
X81537166Y-91902714D01*
X81537166Y-92093190D02*
X81584785Y-91997952D01*
X81632404Y-91950333D01*
X81727642Y-91902714D01*
X81822880Y-91902714D01*
X83251452Y-92045571D02*
X83394309Y-92093190D01*
X83441928Y-92140809D01*
X83489547Y-92236047D01*
X83489547Y-92378904D01*
X83441928Y-92474142D01*
X83394309Y-92521761D01*
X83299071Y-92569380D01*
X82918119Y-92569380D01*
X82918119Y-91569380D01*
X83251452Y-91569380D01*
X83346690Y-91617000D01*
X83394309Y-91664619D01*
X83441928Y-91759857D01*
X83441928Y-91855095D01*
X83394309Y-91950333D01*
X83346690Y-91997952D01*
X83251452Y-92045571D01*
X82918119Y-92045571D01*
X84060976Y-92569380D02*
X83965738Y-92521761D01*
X83918119Y-92474142D01*
X83870500Y-92378904D01*
X83870500Y-92093190D01*
X83918119Y-91997952D01*
X83965738Y-91950333D01*
X84060976Y-91902714D01*
X84203833Y-91902714D01*
X84299071Y-91950333D01*
X84346690Y-91997952D01*
X84394309Y-92093190D01*
X84394309Y-92378904D01*
X84346690Y-92474142D01*
X84299071Y-92521761D01*
X84203833Y-92569380D01*
X84060976Y-92569380D01*
X85251452Y-92569380D02*
X85251452Y-92045571D01*
X85203833Y-91950333D01*
X85108595Y-91902714D01*
X84918119Y-91902714D01*
X84822880Y-91950333D01*
X85251452Y-92521761D02*
X85156214Y-92569380D01*
X84918119Y-92569380D01*
X84822880Y-92521761D01*
X84775261Y-92426523D01*
X84775261Y-92331285D01*
X84822880Y-92236047D01*
X84918119Y-92188428D01*
X85156214Y-92188428D01*
X85251452Y-92140809D01*
X85727642Y-92569380D02*
X85727642Y-91902714D01*
X85727642Y-92093190D02*
X85775261Y-91997952D01*
X85822880Y-91950333D01*
X85918119Y-91902714D01*
X86013357Y-91902714D01*
X86775261Y-92569380D02*
X86775261Y-91569380D01*
X86775261Y-92521761D02*
X86680023Y-92569380D01*
X86489547Y-92569380D01*
X86394309Y-92521761D01*
X86346690Y-92474142D01*
X86299071Y-92378904D01*
X86299071Y-92093190D01*
X86346690Y-91997952D01*
X86394309Y-91950333D01*
X86489547Y-91902714D01*
X86680023Y-91902714D01*
X86775261Y-91950333D01*
X88013357Y-92188428D02*
X88775261Y-92188428D01*
X77680023Y-94319380D02*
X77346690Y-93843190D01*
X77108595Y-94319380D02*
X77108595Y-93319380D01*
X77489547Y-93319380D01*
X77584785Y-93367000D01*
X77632404Y-93414619D01*
X77680023Y-93509857D01*
X77680023Y-93652714D01*
X77632404Y-93747952D01*
X77584785Y-93795571D01*
X77489547Y-93843190D01*
X77108595Y-93843190D01*
X78060976Y-94271761D02*
X78203833Y-94319380D01*
X78441928Y-94319380D01*
X78537166Y-94271761D01*
X78584785Y-94224142D01*
X78632404Y-94128904D01*
X78632404Y-94033666D01*
X78584785Y-93938428D01*
X78537166Y-93890809D01*
X78441928Y-93843190D01*
X78251452Y-93795571D01*
X78156214Y-93747952D01*
X78108595Y-93700333D01*
X78060976Y-93605095D01*
X78060976Y-93509857D01*
X78108595Y-93414619D01*
X78156214Y-93367000D01*
X78251452Y-93319380D01*
X78489547Y-93319380D01*
X78632404Y-93367000D01*
X79489547Y-93652714D02*
X79489547Y-94319380D01*
X79251452Y-93271761D02*
X79013357Y-93986047D01*
X79632404Y-93986047D01*
X80156214Y-93747952D02*
X80060976Y-93700333D01*
X80013357Y-93652714D01*
X79965738Y-93557476D01*
X79965738Y-93509857D01*
X80013357Y-93414619D01*
X80060976Y-93367000D01*
X80156214Y-93319380D01*
X80346690Y-93319380D01*
X80441928Y-93367000D01*
X80489547Y-93414619D01*
X80537166Y-93509857D01*
X80537166Y-93557476D01*
X80489547Y-93652714D01*
X80441928Y-93700333D01*
X80346690Y-93747952D01*
X80156214Y-93747952D01*
X80060976Y-93795571D01*
X80013357Y-93843190D01*
X79965738Y-93938428D01*
X79965738Y-94128904D01*
X80013357Y-94224142D01*
X80060976Y-94271761D01*
X80156214Y-94319380D01*
X80346690Y-94319380D01*
X80441928Y-94271761D01*
X80489547Y-94224142D01*
X80537166Y-94128904D01*
X80537166Y-93938428D01*
X80489547Y-93843190D01*
X80441928Y-93795571D01*
X80346690Y-93747952D01*
X81441928Y-93319380D02*
X80965738Y-93319380D01*
X80918119Y-93795571D01*
X80965738Y-93747952D01*
X81060976Y-93700333D01*
X81299071Y-93700333D01*
X81394309Y-93747952D01*
X81441928Y-93795571D01*
X81489547Y-93890809D01*
X81489547Y-94128904D01*
X81441928Y-94224142D01*
X81394309Y-94271761D01*
X81299071Y-94319380D01*
X81060976Y-94319380D01*
X80965738Y-94271761D01*
X80918119Y-94224142D01*
X83013357Y-93795571D02*
X83156214Y-93843190D01*
X83203833Y-93890809D01*
X83251452Y-93986047D01*
X83251452Y-94128904D01*
X83203833Y-94224142D01*
X83156214Y-94271761D01*
X83060976Y-94319380D01*
X82680023Y-94319380D01*
X82680023Y-93319380D01*
X83013357Y-93319380D01*
X83108595Y-93367000D01*
X83156214Y-93414619D01*
X83203833Y-93509857D01*
X83203833Y-93605095D01*
X83156214Y-93700333D01*
X83108595Y-93747952D01*
X83013357Y-93795571D01*
X82680023Y-93795571D01*
X83680023Y-94319380D02*
X83680023Y-93652714D01*
X83680023Y-93843190D02*
X83727642Y-93747952D01*
X83775261Y-93700333D01*
X83870500Y-93652714D01*
X83965738Y-93652714D01*
X84680023Y-94271761D02*
X84584785Y-94319380D01*
X84394309Y-94319380D01*
X84299071Y-94271761D01*
X84251452Y-94176523D01*
X84251452Y-93795571D01*
X84299071Y-93700333D01*
X84394309Y-93652714D01*
X84584785Y-93652714D01*
X84680023Y-93700333D01*
X84727642Y-93795571D01*
X84727642Y-93890809D01*
X84251452Y-93986047D01*
X85584785Y-94319380D02*
X85584785Y-93795571D01*
X85537166Y-93700333D01*
X85441928Y-93652714D01*
X85251452Y-93652714D01*
X85156214Y-93700333D01*
X85584785Y-94271761D02*
X85489547Y-94319380D01*
X85251452Y-94319380D01*
X85156214Y-94271761D01*
X85108595Y-94176523D01*
X85108595Y-94081285D01*
X85156214Y-93986047D01*
X85251452Y-93938428D01*
X85489547Y-93938428D01*
X85584785Y-93890809D01*
X86060976Y-94319380D02*
X86060976Y-93319380D01*
X86156214Y-93938428D02*
X86441928Y-94319380D01*
X86441928Y-93652714D02*
X86060976Y-94033666D01*
X87013357Y-94319380D02*
X86918119Y-94271761D01*
X86870500Y-94224142D01*
X86822880Y-94128904D01*
X86822880Y-93843190D01*
X86870500Y-93747952D01*
X86918119Y-93700333D01*
X87013357Y-93652714D01*
X87156214Y-93652714D01*
X87251452Y-93700333D01*
X87299071Y-93747952D01*
X87346690Y-93843190D01*
X87346690Y-94128904D01*
X87299071Y-94224142D01*
X87251452Y-94271761D01*
X87156214Y-94319380D01*
X87013357Y-94319380D01*
X88203833Y-93652714D02*
X88203833Y-94319380D01*
X87775261Y-93652714D02*
X87775261Y-94176523D01*
X87822880Y-94271761D01*
X87918119Y-94319380D01*
X88060976Y-94319380D01*
X88156214Y-94271761D01*
X88203833Y-94224142D01*
X88537166Y-93652714D02*
X88918119Y-93652714D01*
X88680023Y-93319380D02*
X88680023Y-94176523D01*
X88727642Y-94271761D01*
X88822880Y-94319380D01*
X88918119Y-94319380D01*
X77918119Y-95307476D02*
X77822880Y-95259857D01*
X77632404Y-95259857D01*
X77537166Y-95307476D01*
X77441928Y-95402714D01*
X77394309Y-95497952D01*
X77394309Y-95688428D01*
X77441928Y-95783666D01*
X77537166Y-95878904D01*
X77632404Y-95926523D01*
X77822880Y-95926523D01*
X77918119Y-95878904D01*
X77727642Y-94926523D02*
X77489547Y-94974142D01*
X77251452Y-95117000D01*
X77108595Y-95355095D01*
X77060976Y-95593190D01*
X77108595Y-95831285D01*
X77251452Y-96069380D01*
X77489547Y-96212238D01*
X77727642Y-96259857D01*
X77965738Y-96212238D01*
X78203833Y-96069380D01*
X78346690Y-95831285D01*
X78394309Y-95593190D01*
X78346690Y-95355095D01*
X78203833Y-95117000D01*
X77965738Y-94974142D01*
X77727642Y-94926523D01*
X78727642Y-95069380D02*
X78965738Y-96069380D01*
X79156214Y-95355095D01*
X79346690Y-96069380D01*
X79584785Y-95069380D01*
X80346690Y-96021761D02*
X80251452Y-96069380D01*
X80060976Y-96069380D01*
X79965738Y-96021761D01*
X79918119Y-95926523D01*
X79918119Y-95545571D01*
X79965738Y-95450333D01*
X80060976Y-95402714D01*
X80251452Y-95402714D01*
X80346690Y-95450333D01*
X80394309Y-95545571D01*
X80394309Y-95640809D01*
X79918119Y-95736047D01*
X80775261Y-96021761D02*
X80870500Y-96069380D01*
X81060976Y-96069380D01*
X81156214Y-96021761D01*
X81203833Y-95926523D01*
X81203833Y-95878904D01*
X81156214Y-95783666D01*
X81060976Y-95736047D01*
X80918119Y-95736047D01*
X80822880Y-95688428D01*
X80775261Y-95593190D01*
X80775261Y-95545571D01*
X80822880Y-95450333D01*
X80918119Y-95402714D01*
X81060976Y-95402714D01*
X81156214Y-95450333D01*
X81775261Y-96069380D02*
X81680023Y-96021761D01*
X81632404Y-95926523D01*
X81632404Y-95069380D01*
X82537166Y-96021761D02*
X82441928Y-96069380D01*
X82251452Y-96069380D01*
X82156214Y-96021761D01*
X82108595Y-95926523D01*
X82108595Y-95545571D01*
X82156214Y-95450333D01*
X82251452Y-95402714D01*
X82441928Y-95402714D01*
X82537166Y-95450333D01*
X82584785Y-95545571D01*
X82584785Y-95640809D01*
X82108595Y-95736047D01*
X82918119Y-95402714D02*
X83156214Y-96069380D01*
X83394309Y-95402714D02*
X83156214Y-96069380D01*
X83060976Y-96307476D01*
X83013357Y-96355095D01*
X82918119Y-96402714D01*
X84394309Y-95069380D02*
X84965738Y-95069380D01*
X84680023Y-96069380D02*
X84680023Y-95069380D01*
X85299071Y-95974142D02*
X85346690Y-96021761D01*
X85299071Y-96069380D01*
X85251452Y-96021761D01*
X85299071Y-95974142D01*
X85299071Y-96069380D01*
X86537166Y-96069380D02*
X86537166Y-95069380D01*
X86537166Y-95545571D02*
X87108595Y-95545571D01*
X87108595Y-96069380D02*
X87108595Y-95069380D01*
X87727642Y-96069380D02*
X87632404Y-96021761D01*
X87584785Y-95974142D01*
X87537166Y-95878904D01*
X87537166Y-95593190D01*
X87584785Y-95497952D01*
X87632404Y-95450333D01*
X87727642Y-95402714D01*
X87870500Y-95402714D01*
X87965738Y-95450333D01*
X88013357Y-95497952D01*
X88060976Y-95593190D01*
X88060976Y-95878904D01*
X88013357Y-95974142D01*
X87965738Y-96021761D01*
X87870500Y-96069380D01*
X87727642Y-96069380D01*
X88489547Y-95402714D02*
X88489547Y-96069380D01*
X88489547Y-95497952D02*
X88537166Y-95450333D01*
X88632404Y-95402714D01*
X88775261Y-95402714D01*
X88870500Y-95450333D01*
X88918119Y-95545571D01*
X88918119Y-96069380D01*
X89775261Y-96021761D02*
X89680023Y-96069380D01*
X89489547Y-96069380D01*
X89394309Y-96021761D01*
X89346690Y-95926523D01*
X89346690Y-95545571D01*
X89394309Y-95450333D01*
X89489547Y-95402714D01*
X89680023Y-95402714D01*
X89775261Y-95450333D01*
X89822880Y-95545571D01*
X89822880Y-95640809D01*
X89346690Y-95736047D01*
X90156214Y-95402714D02*
X90394309Y-96069380D01*
X90632404Y-95402714D02*
X90394309Y-96069380D01*
X90299071Y-96307476D01*
X90251452Y-96355095D01*
X90156214Y-96402714D01*
X91441928Y-96021761D02*
X91346690Y-96069380D01*
X91156214Y-96069380D01*
X91060976Y-96021761D01*
X91013357Y-95974142D01*
X90965738Y-95878904D01*
X90965738Y-95593190D01*
X91013357Y-95497952D01*
X91060976Y-95450333D01*
X91156214Y-95402714D01*
X91346690Y-95402714D01*
X91441928Y-95450333D01*
X92299071Y-95402714D02*
X92299071Y-96069380D01*
X91870500Y-95402714D02*
X91870500Y-95926523D01*
X91918119Y-96021761D01*
X92013357Y-96069380D01*
X92156214Y-96069380D01*
X92251452Y-96021761D01*
X92299071Y-95974142D01*
X92632404Y-95402714D02*
X93013357Y-95402714D01*
X92775261Y-95069380D02*
X92775261Y-95926523D01*
X92822880Y-96021761D01*
X92918119Y-96069380D01*
X93013357Y-96069380D01*
X93203833Y-95402714D02*
X93584785Y-95402714D01*
X93346690Y-95069380D02*
X93346690Y-95926523D01*
X93394309Y-96021761D01*
X93489547Y-96069380D01*
X93584785Y-96069380D01*
X77013357Y-97152714D02*
X77251452Y-97819380D01*
X77489547Y-97152714D01*
X78394309Y-97819380D02*
X77822880Y-97819380D01*
X78108595Y-97819380D02*
X78108595Y-96819380D01*
X78013357Y-96962238D01*
X77918119Y-97057476D01*
X77822880Y-97105095D01*
X79537166Y-96914619D02*
X79584785Y-96867000D01*
X79680023Y-96819380D01*
X79918119Y-96819380D01*
X80013357Y-96867000D01*
X80060976Y-96914619D01*
X80108595Y-97009857D01*
X80108595Y-97105095D01*
X80060976Y-97247952D01*
X79489547Y-97819380D01*
X80108595Y-97819380D01*
X80727642Y-96819380D02*
X80822880Y-96819380D01*
X80918119Y-96867000D01*
X80965738Y-96914619D01*
X81013357Y-97009857D01*
X81060976Y-97200333D01*
X81060976Y-97438428D01*
X81013357Y-97628904D01*
X80965738Y-97724142D01*
X80918119Y-97771761D01*
X80822880Y-97819380D01*
X80727642Y-97819380D01*
X80632404Y-97771761D01*
X80584785Y-97724142D01*
X80537166Y-97628904D01*
X80489547Y-97438428D01*
X80489547Y-97200333D01*
X80537166Y-97009857D01*
X80584785Y-96914619D01*
X80632404Y-96867000D01*
X80727642Y-96819380D01*
X81441928Y-96914619D02*
X81489547Y-96867000D01*
X81584785Y-96819380D01*
X81822880Y-96819380D01*
X81918119Y-96867000D01*
X81965738Y-96914619D01*
X82013357Y-97009857D01*
X82013357Y-97105095D01*
X81965738Y-97247952D01*
X81394309Y-97819380D01*
X82013357Y-97819380D01*
X82965738Y-97819380D02*
X82394309Y-97819380D01*
X82680023Y-97819380D02*
X82680023Y-96819380D01*
X82584785Y-96962238D01*
X82489547Y-97057476D01*
X82394309Y-97105095D01*
D10*
X50329285Y-70347809D02*
X50329285Y-70847809D01*
X50329285Y-70657333D02*
X50281666Y-70681142D01*
X50186428Y-70681142D01*
X50138809Y-70657333D01*
X50115000Y-70633523D01*
X50091190Y-70585904D01*
X50091190Y-70443047D01*
X50115000Y-70395428D01*
X50138809Y-70371619D01*
X50186428Y-70347809D01*
X50281666Y-70347809D01*
X50329285Y-70371619D01*
X49662619Y-70347809D02*
X49662619Y-70847809D01*
X49662619Y-70371619D02*
X49710238Y-70347809D01*
X49805476Y-70347809D01*
X49853095Y-70371619D01*
X49876904Y-70395428D01*
X49900714Y-70443047D01*
X49900714Y-70585904D01*
X49876904Y-70633523D01*
X49853095Y-70657333D01*
X49805476Y-70681142D01*
X49710238Y-70681142D01*
X49662619Y-70657333D01*
X49543571Y-70300190D02*
X49162619Y-70300190D01*
X48853095Y-70371619D02*
X48900714Y-70347809D01*
X48995952Y-70347809D01*
X49043571Y-70371619D01*
X49067380Y-70419238D01*
X49067380Y-70609714D01*
X49043571Y-70657333D01*
X48995952Y-70681142D01*
X48900714Y-70681142D01*
X48853095Y-70657333D01*
X48829285Y-70609714D01*
X48829285Y-70562095D01*
X49067380Y-70514476D01*
X48615000Y-70681142D02*
X48615000Y-70347809D01*
X48615000Y-70633523D02*
X48591190Y-70657333D01*
X48543571Y-70681142D01*
X48472142Y-70681142D01*
X48424523Y-70657333D01*
X48400714Y-70609714D01*
X48400714Y-70347809D01*
X67450571Y-67867190D02*
X67474380Y-67891000D01*
X67498190Y-67962428D01*
X67498190Y-68010047D01*
X67474380Y-68081476D01*
X67426761Y-68129095D01*
X67379142Y-68152904D01*
X67283904Y-68176714D01*
X67212476Y-68176714D01*
X67117238Y-68152904D01*
X67069619Y-68129095D01*
X67022000Y-68081476D01*
X66998190Y-68010047D01*
X66998190Y-67962428D01*
X67022000Y-67891000D01*
X67045809Y-67867190D01*
X67498190Y-67652904D02*
X66998190Y-67652904D01*
X67236285Y-67652904D02*
X67236285Y-67367190D01*
X67498190Y-67367190D02*
X66998190Y-67367190D01*
X67164857Y-66914809D02*
X67498190Y-66914809D01*
X66974380Y-67033857D02*
X67331523Y-67152904D01*
X67331523Y-66843380D01*
X67545809Y-66771952D02*
X67545809Y-66391000D01*
X67474380Y-66081476D02*
X67498190Y-66129095D01*
X67498190Y-66224333D01*
X67474380Y-66271952D01*
X67426761Y-66295761D01*
X67236285Y-66295761D01*
X67188666Y-66271952D01*
X67164857Y-66224333D01*
X67164857Y-66129095D01*
X67188666Y-66081476D01*
X67236285Y-66057666D01*
X67283904Y-66057666D01*
X67331523Y-66295761D01*
X67164857Y-65843380D02*
X67498190Y-65843380D01*
X67212476Y-65843380D02*
X67188666Y-65819571D01*
X67164857Y-65771952D01*
X67164857Y-65700523D01*
X67188666Y-65652904D01*
X67236285Y-65629095D01*
X67498190Y-65629095D01*
X72617780Y-89783314D02*
X72641590Y-89711885D01*
X72641590Y-89592838D01*
X72617780Y-89545219D01*
X72593971Y-89521409D01*
X72546352Y-89497600D01*
X72498733Y-89497600D01*
X72451114Y-89521409D01*
X72427304Y-89545219D01*
X72403495Y-89592838D01*
X72379685Y-89688076D01*
X72355876Y-89735695D01*
X72332066Y-89759504D01*
X72284447Y-89783314D01*
X72236828Y-89783314D01*
X72189209Y-89759504D01*
X72165400Y-89735695D01*
X72141590Y-89688076D01*
X72141590Y-89569028D01*
X72165400Y-89497600D01*
X72689209Y-89402361D02*
X72689209Y-89021409D01*
X72617780Y-88926171D02*
X72641590Y-88854742D01*
X72641590Y-88735695D01*
X72617780Y-88688076D01*
X72593971Y-88664266D01*
X72546352Y-88640457D01*
X72498733Y-88640457D01*
X72451114Y-88664266D01*
X72427304Y-88688076D01*
X72403495Y-88735695D01*
X72379685Y-88830933D01*
X72355876Y-88878552D01*
X72332066Y-88902361D01*
X72284447Y-88926171D01*
X72236828Y-88926171D01*
X72189209Y-88902361D01*
X72165400Y-88878552D01*
X72141590Y-88830933D01*
X72141590Y-88711885D01*
X72165400Y-88640457D01*
X72641590Y-88426171D02*
X72141590Y-88426171D01*
X72141590Y-88307123D01*
X72165400Y-88235695D01*
X72213019Y-88188076D01*
X72260638Y-88164266D01*
X72355876Y-88140457D01*
X72427304Y-88140457D01*
X72522542Y-88164266D01*
X72570161Y-88188076D01*
X72617780Y-88235695D01*
X72641590Y-88307123D01*
X72641590Y-88426171D01*
X72498733Y-87949980D02*
X72498733Y-87711885D01*
X72641590Y-87997600D02*
X72141590Y-87830933D01*
X72641590Y-87664266D01*
X75233980Y-89771409D02*
X75257790Y-89699980D01*
X75257790Y-89580933D01*
X75233980Y-89533314D01*
X75210171Y-89509504D01*
X75162552Y-89485695D01*
X75114933Y-89485695D01*
X75067314Y-89509504D01*
X75043504Y-89533314D01*
X75019695Y-89580933D01*
X74995885Y-89676171D01*
X74972076Y-89723790D01*
X74948266Y-89747600D01*
X74900647Y-89771409D01*
X74853028Y-89771409D01*
X74805409Y-89747600D01*
X74781600Y-89723790D01*
X74757790Y-89676171D01*
X74757790Y-89557123D01*
X74781600Y-89485695D01*
X75305409Y-89390457D02*
X75305409Y-89009504D01*
X75233980Y-88914266D02*
X75257790Y-88842838D01*
X75257790Y-88723790D01*
X75233980Y-88676171D01*
X75210171Y-88652361D01*
X75162552Y-88628552D01*
X75114933Y-88628552D01*
X75067314Y-88652361D01*
X75043504Y-88676171D01*
X75019695Y-88723790D01*
X74995885Y-88819028D01*
X74972076Y-88866647D01*
X74948266Y-88890457D01*
X74900647Y-88914266D01*
X74853028Y-88914266D01*
X74805409Y-88890457D01*
X74781600Y-88866647D01*
X74757790Y-88819028D01*
X74757790Y-88699980D01*
X74781600Y-88628552D01*
X75210171Y-88128552D02*
X75233980Y-88152361D01*
X75257790Y-88223790D01*
X75257790Y-88271409D01*
X75233980Y-88342838D01*
X75186361Y-88390457D01*
X75138742Y-88414266D01*
X75043504Y-88438076D01*
X74972076Y-88438076D01*
X74876838Y-88414266D01*
X74829219Y-88390457D01*
X74781600Y-88342838D01*
X74757790Y-88271409D01*
X74757790Y-88223790D01*
X74781600Y-88152361D01*
X74805409Y-88128552D01*
X75257790Y-87676171D02*
X75257790Y-87914266D01*
X74757790Y-87914266D01*
X62521380Y-68160857D02*
X62545190Y-68089428D01*
X62545190Y-67970380D01*
X62521380Y-67922761D01*
X62497571Y-67898952D01*
X62449952Y-67875142D01*
X62402333Y-67875142D01*
X62354714Y-67898952D01*
X62330904Y-67922761D01*
X62307095Y-67970380D01*
X62283285Y-68065619D01*
X62259476Y-68113238D01*
X62235666Y-68137047D01*
X62188047Y-68160857D01*
X62140428Y-68160857D01*
X62092809Y-68137047D01*
X62069000Y-68113238D01*
X62045190Y-68065619D01*
X62045190Y-67946571D01*
X62069000Y-67875142D01*
X62545190Y-67660857D02*
X62045190Y-67660857D01*
X62283285Y-67660857D02*
X62283285Y-67375142D01*
X62545190Y-67375142D02*
X62045190Y-67375142D01*
X62045190Y-67208476D02*
X62045190Y-66922761D01*
X62545190Y-67065619D02*
X62045190Y-67065619D01*
X62521380Y-66541809D02*
X62545190Y-66589428D01*
X62545190Y-66684666D01*
X62521380Y-66732285D01*
X62497571Y-66756095D01*
X62449952Y-66779904D01*
X62307095Y-66779904D01*
X62259476Y-66756095D01*
X62235666Y-66732285D01*
X62211857Y-66684666D01*
X62211857Y-66589428D01*
X62235666Y-66541809D01*
X62545190Y-66256095D02*
X62521380Y-66303714D01*
X62473761Y-66327523D01*
X62045190Y-66327523D01*
X62545190Y-66065619D02*
X62045190Y-66065619D01*
X62354714Y-66018000D02*
X62545190Y-65875142D01*
X62211857Y-65875142D02*
X62402333Y-66065619D01*
X60108380Y-68081476D02*
X60132190Y-68010047D01*
X60132190Y-67891000D01*
X60108380Y-67843380D01*
X60084571Y-67819571D01*
X60036952Y-67795761D01*
X59989333Y-67795761D01*
X59941714Y-67819571D01*
X59917904Y-67843380D01*
X59894095Y-67891000D01*
X59870285Y-67986238D01*
X59846476Y-68033857D01*
X59822666Y-68057666D01*
X59775047Y-68081476D01*
X59727428Y-68081476D01*
X59679809Y-68057666D01*
X59656000Y-68033857D01*
X59632190Y-67986238D01*
X59632190Y-67867190D01*
X59656000Y-67795761D01*
X60132190Y-67581476D02*
X59632190Y-67581476D01*
X59870285Y-67581476D02*
X59870285Y-67295761D01*
X60132190Y-67295761D02*
X59632190Y-67295761D01*
X59632190Y-67129095D02*
X59632190Y-66843380D01*
X60132190Y-66986238D02*
X59632190Y-66986238D01*
X60132190Y-66462428D02*
X59632190Y-66462428D01*
X60108380Y-66462428D02*
X60132190Y-66510047D01*
X60132190Y-66605285D01*
X60108380Y-66652904D01*
X60084571Y-66676714D01*
X60036952Y-66700523D01*
X59894095Y-66700523D01*
X59846476Y-66676714D01*
X59822666Y-66652904D01*
X59798857Y-66605285D01*
X59798857Y-66510047D01*
X59822666Y-66462428D01*
X60132190Y-66010047D02*
X59870285Y-66010047D01*
X59822666Y-66033857D01*
X59798857Y-66081476D01*
X59798857Y-66176714D01*
X59822666Y-66224333D01*
X60108380Y-66010047D02*
X60132190Y-66057666D01*
X60132190Y-66176714D01*
X60108380Y-66224333D01*
X60060761Y-66248142D01*
X60013142Y-66248142D01*
X59965523Y-66224333D01*
X59941714Y-66176714D01*
X59941714Y-66057666D01*
X59917904Y-66010047D01*
X59798857Y-65843380D02*
X59798857Y-65652904D01*
X59632190Y-65771952D02*
X60060761Y-65771952D01*
X60108380Y-65748142D01*
X60132190Y-65700523D01*
X60132190Y-65652904D01*
X64154698Y-89479960D02*
X64188370Y-89479960D01*
X64255713Y-89513632D01*
X64289385Y-89547304D01*
X64323057Y-89614647D01*
X64323057Y-89681991D01*
X64306221Y-89732498D01*
X64255713Y-89816678D01*
X64205206Y-89867185D01*
X64121026Y-89917693D01*
X64070519Y-89934529D01*
X64003175Y-89934529D01*
X63935832Y-89900857D01*
X63902160Y-89867185D01*
X63868488Y-89799842D01*
X63868488Y-89766170D01*
X64036847Y-89294765D02*
X63683294Y-89648319D01*
X63851652Y-89479960D02*
X63649622Y-89277930D01*
X63834817Y-89092735D02*
X63481263Y-89446288D01*
X63279233Y-89008556D02*
X63514935Y-88772853D01*
X63228725Y-89227422D02*
X63565443Y-89059063D01*
X63346576Y-88840197D01*
X63447591Y-88638166D02*
X63178217Y-88368792D01*
X62908843Y-88166762D02*
X62723649Y-88351956D01*
X62706813Y-88402464D01*
X62723649Y-88452972D01*
X62790992Y-88520315D01*
X62841500Y-88537151D01*
X62892008Y-88183598D02*
X62942515Y-88200434D01*
X63026695Y-88284613D01*
X63043530Y-88335121D01*
X63026695Y-88385628D01*
X62993023Y-88419300D01*
X62942515Y-88436136D01*
X62892008Y-88419300D01*
X62807828Y-88335121D01*
X62757321Y-88318285D01*
X62504782Y-88234105D02*
X62740485Y-87998403D01*
X62538454Y-88200434D02*
X62504782Y-88200434D01*
X62454275Y-88183598D01*
X62403767Y-88133090D01*
X62386931Y-88082582D01*
X62403767Y-88032075D01*
X62588962Y-87846880D01*
X62269080Y-87526999D02*
X62083886Y-87712193D01*
X62067050Y-87762701D01*
X62083886Y-87813208D01*
X62151229Y-87880552D01*
X62201737Y-87897388D01*
X62252244Y-87543834D02*
X62302752Y-87560670D01*
X62386931Y-87644850D01*
X62403767Y-87695357D01*
X62386931Y-87745865D01*
X62353260Y-87779537D01*
X62302752Y-87796373D01*
X62252244Y-87779537D01*
X62168065Y-87695357D01*
X62117557Y-87678521D01*
X58608190Y-68018000D02*
X58108190Y-68018000D01*
X58108190Y-67827523D01*
X58132000Y-67779904D01*
X58155809Y-67756095D01*
X58203428Y-67732285D01*
X58274857Y-67732285D01*
X58322476Y-67756095D01*
X58346285Y-67779904D01*
X58370095Y-67827523D01*
X58370095Y-68018000D01*
X58655809Y-67637047D02*
X58655809Y-67256095D01*
X58608190Y-66922761D02*
X58346285Y-66922761D01*
X58298666Y-66946571D01*
X58274857Y-66994190D01*
X58274857Y-67089428D01*
X58298666Y-67137047D01*
X58584380Y-66922761D02*
X58608190Y-66970380D01*
X58608190Y-67089428D01*
X58584380Y-67137047D01*
X58536761Y-67160857D01*
X58489142Y-67160857D01*
X58441523Y-67137047D01*
X58417714Y-67089428D01*
X58417714Y-66970380D01*
X58393904Y-66922761D01*
X58274857Y-66684666D02*
X58608190Y-66684666D01*
X58322476Y-66684666D02*
X58298666Y-66660857D01*
X58274857Y-66613238D01*
X58274857Y-66541809D01*
X58298666Y-66494190D01*
X58346285Y-66470380D01*
X58608190Y-66470380D01*
X58608190Y-66018000D02*
X58346285Y-66018000D01*
X58298666Y-66041809D01*
X58274857Y-66089428D01*
X58274857Y-66184666D01*
X58298666Y-66232285D01*
X58584380Y-66018000D02*
X58608190Y-66065619D01*
X58608190Y-66184666D01*
X58584380Y-66232285D01*
X58536761Y-66256095D01*
X58489142Y-66256095D01*
X58441523Y-66232285D01*
X58417714Y-66184666D01*
X58417714Y-66065619D01*
X58393904Y-66018000D01*
D11*
X89235190Y-82853380D02*
X89568523Y-83853380D01*
X89901857Y-82853380D01*
X90235190Y-83853380D02*
X90235190Y-83186714D01*
X90235190Y-82853380D02*
X90187571Y-82901000D01*
X90235190Y-82948619D01*
X90282809Y-82901000D01*
X90235190Y-82853380D01*
X90235190Y-82948619D01*
X90711380Y-83186714D02*
X90711380Y-83853380D01*
X90711380Y-83281952D02*
X90759000Y-83234333D01*
X90854238Y-83186714D01*
X90997095Y-83186714D01*
X91092333Y-83234333D01*
X91139952Y-83329571D01*
X91139952Y-83853380D01*
X56103309Y-83889240D02*
X56541042Y-83451507D01*
X56574713Y-83956583D01*
X56675729Y-83855568D01*
X56776744Y-83821896D01*
X56844087Y-83821896D01*
X56945103Y-83855568D01*
X57113461Y-84023927D01*
X57147133Y-84124942D01*
X57147133Y-84192286D01*
X57113461Y-84293301D01*
X56911431Y-84495331D01*
X56810416Y-84529003D01*
X56743072Y-84529003D01*
X56743072Y-83249477D02*
X57685881Y-83720881D01*
X57214477Y-82778072D01*
X57382835Y-82609713D02*
X57820568Y-82171981D01*
X57854240Y-82677057D01*
X57955255Y-82576042D01*
X58056270Y-82542370D01*
X58123614Y-82542370D01*
X58224629Y-82576042D01*
X58392988Y-82744400D01*
X58426660Y-82845416D01*
X58426660Y-82912759D01*
X58392988Y-83013774D01*
X58190957Y-83215805D01*
X58089942Y-83249477D01*
X58022599Y-83249477D01*
X61604714Y-83567666D02*
X62080904Y-83567666D01*
X61509476Y-83853380D02*
X61842809Y-82853380D01*
X62176142Y-83853380D01*
X62699952Y-82853380D02*
X62795190Y-82853380D01*
X62890428Y-82901000D01*
X62938047Y-82948619D01*
X62985666Y-83043857D01*
X63033285Y-83234333D01*
X63033285Y-83472428D01*
X62985666Y-83662904D01*
X62938047Y-83758142D01*
X62890428Y-83805761D01*
X62795190Y-83853380D01*
X62699952Y-83853380D01*
X62604714Y-83805761D01*
X62557095Y-83758142D01*
X62509476Y-83662904D01*
X62461857Y-83472428D01*
X62461857Y-83234333D01*
X62509476Y-83043857D01*
X62557095Y-82948619D01*
X62604714Y-82901000D01*
X62699952Y-82853380D01*
X59694820Y-84124942D02*
X59122400Y-84023927D01*
X59290759Y-84529003D02*
X58583652Y-83821896D01*
X58853026Y-83552522D01*
X58954042Y-83518851D01*
X59021385Y-83518851D01*
X59122400Y-83552522D01*
X59223416Y-83653538D01*
X59257087Y-83754553D01*
X59257087Y-83821896D01*
X59223416Y-83922912D01*
X58954042Y-84192286D01*
X59627477Y-83451507D02*
X59863179Y-83215805D01*
X60334583Y-83485179D02*
X59997866Y-83821896D01*
X59290759Y-83114790D01*
X59627477Y-82778072D01*
X60502942Y-82576042D02*
X60267240Y-82811744D01*
X60637629Y-83182133D02*
X59930522Y-82475026D01*
X60267240Y-82138309D01*
X64144714Y-83567666D02*
X64620904Y-83567666D01*
X64049476Y-83853380D02*
X64382809Y-82853380D01*
X64716142Y-83853380D01*
X65573285Y-83853380D02*
X65001857Y-83853380D01*
X65287571Y-83853380D02*
X65287571Y-82853380D01*
X65192333Y-82996238D01*
X65097095Y-83091476D01*
X65001857Y-83139095D01*
X66684714Y-83567666D02*
X67160904Y-83567666D01*
X66589476Y-83853380D02*
X66922809Y-82853380D01*
X67256142Y-83853380D01*
X67541857Y-82948619D02*
X67589476Y-82901000D01*
X67684714Y-82853380D01*
X67922809Y-82853380D01*
X68018047Y-82901000D01*
X68065666Y-82948619D01*
X68113285Y-83043857D01*
X68113285Y-83139095D01*
X68065666Y-83281952D01*
X67494238Y-83853380D01*
X68113285Y-83853380D01*
X71764714Y-83567666D02*
X72240904Y-83567666D01*
X71669476Y-83853380D02*
X72002809Y-82853380D01*
X72336142Y-83853380D01*
X73098047Y-83186714D02*
X73098047Y-83853380D01*
X72859952Y-82805761D02*
X72621857Y-83520047D01*
X73240904Y-83520047D01*
X74304714Y-83567666D02*
X74780904Y-83567666D01*
X74209476Y-83853380D02*
X74542809Y-82853380D01*
X74876142Y-83853380D01*
X75685666Y-82853380D02*
X75209476Y-82853380D01*
X75161857Y-83329571D01*
X75209476Y-83281952D01*
X75304714Y-83234333D01*
X75542809Y-83234333D01*
X75638047Y-83281952D01*
X75685666Y-83329571D01*
X75733285Y-83424809D01*
X75733285Y-83662904D01*
X75685666Y-83758142D01*
X75638047Y-83805761D01*
X75542809Y-83853380D01*
X75304714Y-83853380D01*
X75209476Y-83805761D01*
X75161857Y-83758142D01*
X76844714Y-83567666D02*
X77320904Y-83567666D01*
X76749476Y-83853380D02*
X77082809Y-82853380D01*
X77416142Y-83853380D01*
X78178047Y-82853380D02*
X77987571Y-82853380D01*
X77892333Y-82901000D01*
X77844714Y-82948619D01*
X77749476Y-83091476D01*
X77701857Y-83281952D01*
X77701857Y-83662904D01*
X77749476Y-83758142D01*
X77797095Y-83805761D01*
X77892333Y-83853380D01*
X78082809Y-83853380D01*
X78178047Y-83805761D01*
X78225666Y-83758142D01*
X78273285Y-83662904D01*
X78273285Y-83424809D01*
X78225666Y-83329571D01*
X78178047Y-83281952D01*
X78082809Y-83234333D01*
X77892333Y-83234333D01*
X77797095Y-83281952D01*
X77749476Y-83329571D01*
X77701857Y-83424809D01*
X79384714Y-83567666D02*
X79860904Y-83567666D01*
X79289476Y-83853380D02*
X79622809Y-82853380D01*
X79956142Y-83853380D01*
X80194238Y-82853380D02*
X80860904Y-82853380D01*
X80432333Y-83853380D01*
X82448523Y-82853380D02*
X81972333Y-82853380D01*
X81924714Y-83329571D01*
X81972333Y-83281952D01*
X82067571Y-83234333D01*
X82305666Y-83234333D01*
X82400904Y-83281952D01*
X82448523Y-83329571D01*
X82496142Y-83424809D01*
X82496142Y-83662904D01*
X82448523Y-83758142D01*
X82400904Y-83805761D01*
X82305666Y-83853380D01*
X82067571Y-83853380D01*
X81972333Y-83805761D01*
X81924714Y-83758142D01*
X82781857Y-82853380D02*
X83115190Y-83853380D01*
X83448523Y-82853380D01*
X85111656Y-84108106D02*
X84539236Y-84007091D01*
X84707595Y-84512167D02*
X84000488Y-83805061D01*
X84269862Y-83535687D01*
X84370877Y-83502015D01*
X84438221Y-83502015D01*
X84539236Y-83535687D01*
X84640251Y-83636702D01*
X84673923Y-83737717D01*
X84673923Y-83805061D01*
X84640251Y-83906076D01*
X84370877Y-84175450D01*
X85347358Y-83805061D02*
X85482045Y-83737717D01*
X85650404Y-83569358D01*
X85684076Y-83468343D01*
X85684076Y-83400999D01*
X85650404Y-83299984D01*
X85583061Y-83232641D01*
X85482045Y-83198969D01*
X85414702Y-83198969D01*
X85313687Y-83232641D01*
X85145328Y-83333656D01*
X85044312Y-83367328D01*
X84976969Y-83367328D01*
X84875954Y-83333656D01*
X84808610Y-83266312D01*
X84774938Y-83165297D01*
X84774938Y-83097954D01*
X84808610Y-82996938D01*
X84976969Y-82828580D01*
X85111656Y-82761236D01*
X85280015Y-82525534D02*
X85684076Y-82121473D01*
X86189152Y-83030610D02*
X85482045Y-82323503D01*
X86826698Y-83586194D02*
X86725683Y-83619866D01*
X86624668Y-83720881D01*
X86557324Y-83855568D01*
X86557324Y-83990255D01*
X86590996Y-84091270D01*
X86692011Y-84259629D01*
X86793026Y-84360644D01*
X86961385Y-84461660D01*
X87062400Y-84495331D01*
X87197087Y-84495331D01*
X87331774Y-84427988D01*
X87399118Y-84360644D01*
X87466461Y-84225957D01*
X87466461Y-84158614D01*
X87230759Y-83922912D01*
X87096072Y-84057599D01*
X87836851Y-83922912D02*
X87129744Y-83215805D01*
X88240912Y-83518851D01*
X87533805Y-82811744D01*
X88577629Y-83182133D02*
X87870522Y-82475026D01*
X88038881Y-82306668D01*
X88173568Y-82239324D01*
X88308255Y-82239324D01*
X88409270Y-82272996D01*
X88577629Y-82374011D01*
X88678644Y-82475026D01*
X88779660Y-82643385D01*
X88813331Y-82744400D01*
X88813331Y-82879087D01*
X88745988Y-83013774D01*
X88577629Y-83182133D01*
X69224714Y-83567666D02*
X69700904Y-83567666D01*
X69129476Y-83853380D02*
X69462809Y-82853380D01*
X69796142Y-83853380D01*
X70034238Y-82853380D02*
X70653285Y-82853380D01*
X70319952Y-83234333D01*
X70462809Y-83234333D01*
X70558047Y-83281952D01*
X70605666Y-83329571D01*
X70653285Y-83424809D01*
X70653285Y-83662904D01*
X70605666Y-83758142D01*
X70558047Y-83805761D01*
X70462809Y-83853380D01*
X70177095Y-83853380D01*
X70081857Y-83805761D01*
X70034238Y-83758142D01*
X54160251Y-84579511D02*
X53453145Y-83872404D01*
X53621503Y-83704045D01*
X53756190Y-83636702D01*
X53890877Y-83636702D01*
X53991893Y-83670374D01*
X54160251Y-83771389D01*
X54261267Y-83872404D01*
X54362282Y-84040763D01*
X54395954Y-84141778D01*
X54395954Y-84276465D01*
X54328610Y-84411152D01*
X54160251Y-84579511D01*
X55237748Y-83502015D02*
X54833687Y-83906076D01*
X55035717Y-83704045D02*
X54328610Y-82996938D01*
X54362282Y-83165297D01*
X54362282Y-83299984D01*
X54328610Y-83401000D01*
X54766343Y-82559206D02*
X55204076Y-82121473D01*
X55237748Y-82626549D01*
X55338763Y-82525534D01*
X55439778Y-82491862D01*
X55507122Y-82491862D01*
X55608137Y-82525534D01*
X55776496Y-82693893D01*
X55810167Y-82794908D01*
X55810167Y-82862251D01*
X55776496Y-82963267D01*
X55574465Y-83165297D01*
X55473450Y-83198969D01*
X55406106Y-83198969D01*
X55237748Y-71808488D02*
X55944854Y-72515595D01*
X55776496Y-72683954D01*
X55641809Y-72751297D01*
X55507122Y-72751297D01*
X55406106Y-72717625D01*
X55237748Y-72616610D01*
X55136732Y-72515595D01*
X55035717Y-72347236D01*
X55002045Y-72246221D01*
X55002045Y-72111534D01*
X55069389Y-71976847D01*
X55237748Y-71808488D01*
X54160251Y-72885984D02*
X54564312Y-72481923D01*
X54362282Y-72683954D02*
X55069389Y-73391061D01*
X55035717Y-73222702D01*
X55035717Y-73088015D01*
X55069389Y-72987000D01*
X54530641Y-73795122D02*
X54530641Y-73862465D01*
X54496969Y-73963480D01*
X54328610Y-74131839D01*
X54227595Y-74165511D01*
X54160251Y-74165511D01*
X54059236Y-74131839D01*
X53991893Y-74064496D01*
X53924549Y-73929809D01*
X53924549Y-73121687D01*
X53486816Y-73559419D01*
X73217095Y-72534619D02*
X73217095Y-73534619D01*
X72979000Y-73534619D01*
X72836142Y-73487000D01*
X72740904Y-73391761D01*
X72693285Y-73296523D01*
X72645666Y-73106047D01*
X72645666Y-72963190D01*
X72693285Y-72772714D01*
X72740904Y-72677476D01*
X72836142Y-72582238D01*
X72979000Y-72534619D01*
X73217095Y-72534619D01*
X71740904Y-73534619D02*
X72217095Y-73534619D01*
X72264714Y-73058428D01*
X72217095Y-73106047D01*
X72121857Y-73153666D01*
X71883761Y-73153666D01*
X71788523Y-73106047D01*
X71740904Y-73058428D01*
X71693285Y-72963190D01*
X71693285Y-72725095D01*
X71740904Y-72629857D01*
X71788523Y-72582238D01*
X71883761Y-72534619D01*
X72121857Y-72534619D01*
X72217095Y-72582238D01*
X72264714Y-72629857D01*
X75630095Y-72534619D02*
X75630095Y-73534619D01*
X75392000Y-73534619D01*
X75249142Y-73487000D01*
X75153904Y-73391761D01*
X75106285Y-73296523D01*
X75058666Y-73106047D01*
X75058666Y-72963190D01*
X75106285Y-72772714D01*
X75153904Y-72677476D01*
X75249142Y-72582238D01*
X75392000Y-72534619D01*
X75630095Y-72534619D01*
X74201523Y-73201285D02*
X74201523Y-72534619D01*
X74439619Y-73582238D02*
X74677714Y-72867952D01*
X74058666Y-72867952D01*
X65597095Y-72534619D02*
X65597095Y-73534619D01*
X65359000Y-73534619D01*
X65216142Y-73487000D01*
X65120904Y-73391761D01*
X65073285Y-73296523D01*
X65025666Y-73106047D01*
X65025666Y-72963190D01*
X65073285Y-72772714D01*
X65120904Y-72677476D01*
X65216142Y-72582238D01*
X65359000Y-72534619D01*
X65597095Y-72534619D01*
X64454238Y-73106047D02*
X64549476Y-73153666D01*
X64597095Y-73201285D01*
X64644714Y-73296523D01*
X64644714Y-73344142D01*
X64597095Y-73439380D01*
X64549476Y-73487000D01*
X64454238Y-73534619D01*
X64263761Y-73534619D01*
X64168523Y-73487000D01*
X64120904Y-73439380D01*
X64073285Y-73344142D01*
X64073285Y-73296523D01*
X64120904Y-73201285D01*
X64168523Y-73153666D01*
X64263761Y-73106047D01*
X64454238Y-73106047D01*
X64549476Y-73058428D01*
X64597095Y-73010809D01*
X64644714Y-72915571D01*
X64644714Y-72725095D01*
X64597095Y-72629857D01*
X64549476Y-72582238D01*
X64454238Y-72534619D01*
X64263761Y-72534619D01*
X64168523Y-72582238D01*
X64120904Y-72629857D01*
X64073285Y-72725095D01*
X64073285Y-72915571D01*
X64120904Y-73010809D01*
X64168523Y-73058428D01*
X64263761Y-73106047D01*
X68137095Y-72534619D02*
X68137095Y-73534619D01*
X67899000Y-73534619D01*
X67756142Y-73487000D01*
X67660904Y-73391761D01*
X67613285Y-73296523D01*
X67565666Y-73106047D01*
X67565666Y-72963190D01*
X67613285Y-72772714D01*
X67660904Y-72677476D01*
X67756142Y-72582238D01*
X67899000Y-72534619D01*
X68137095Y-72534619D01*
X67232333Y-73534619D02*
X66565666Y-73534619D01*
X66994238Y-72534619D01*
X63057095Y-72534619D02*
X63057095Y-73534619D01*
X62819000Y-73534619D01*
X62676142Y-73487000D01*
X62580904Y-73391761D01*
X62533285Y-73296523D01*
X62485666Y-73106047D01*
X62485666Y-72963190D01*
X62533285Y-72772714D01*
X62580904Y-72677476D01*
X62676142Y-72582238D01*
X62819000Y-72534619D01*
X63057095Y-72534619D01*
X62009476Y-72534619D02*
X61819000Y-72534619D01*
X61723761Y-72582238D01*
X61676142Y-72629857D01*
X61580904Y-72772714D01*
X61533285Y-72963190D01*
X61533285Y-73344142D01*
X61580904Y-73439380D01*
X61628523Y-73487000D01*
X61723761Y-73534619D01*
X61914238Y-73534619D01*
X62009476Y-73487000D01*
X62057095Y-73439380D01*
X62104714Y-73344142D01*
X62104714Y-73106047D01*
X62057095Y-73010809D01*
X62009476Y-72963190D01*
X61914238Y-72915571D01*
X61723761Y-72915571D01*
X61628523Y-72963190D01*
X61580904Y-73010809D01*
X61533285Y-73106047D01*
X57777748Y-71808488D02*
X58484854Y-72515595D01*
X58316496Y-72683954D01*
X58181809Y-72751297D01*
X58047122Y-72751297D01*
X57946106Y-72717625D01*
X57777748Y-72616610D01*
X57676732Y-72515595D01*
X57575717Y-72347236D01*
X57542045Y-72246221D01*
X57542045Y-72111534D01*
X57609389Y-71976847D01*
X57777748Y-71808488D01*
X56700251Y-72885984D02*
X57104312Y-72481923D01*
X56902282Y-72683954D02*
X57609389Y-73391061D01*
X57575717Y-73222702D01*
X57575717Y-73088015D01*
X57609389Y-72987000D01*
X56026816Y-73559419D02*
X56430877Y-73155358D01*
X56228847Y-73357389D02*
X56935954Y-74064496D01*
X56902282Y-73896137D01*
X56902282Y-73761450D01*
X56935954Y-73660435D01*
X70677095Y-72534619D02*
X70677095Y-73534619D01*
X70439000Y-73534619D01*
X70296142Y-73487000D01*
X70200904Y-73391761D01*
X70153285Y-73296523D01*
X70105666Y-73106047D01*
X70105666Y-72963190D01*
X70153285Y-72772714D01*
X70200904Y-72677476D01*
X70296142Y-72582238D01*
X70439000Y-72534619D01*
X70677095Y-72534619D01*
X69248523Y-73534619D02*
X69439000Y-73534619D01*
X69534238Y-73487000D01*
X69581857Y-73439380D01*
X69677095Y-73296523D01*
X69724714Y-73106047D01*
X69724714Y-72725095D01*
X69677095Y-72629857D01*
X69629476Y-72582238D01*
X69534238Y-72534619D01*
X69343761Y-72534619D01*
X69248523Y-72582238D01*
X69200904Y-72629857D01*
X69153285Y-72725095D01*
X69153285Y-72963190D01*
X69200904Y-73058428D01*
X69248523Y-73106047D01*
X69343761Y-73153666D01*
X69534238Y-73153666D01*
X69629476Y-73106047D01*
X69677095Y-73058428D01*
X69724714Y-72963190D01*
X78297095Y-72534619D02*
X78297095Y-73534619D01*
X78059000Y-73534619D01*
X77916142Y-73487000D01*
X77820904Y-73391761D01*
X77773285Y-73296523D01*
X77725666Y-73106047D01*
X77725666Y-72963190D01*
X77773285Y-72772714D01*
X77820904Y-72677476D01*
X77916142Y-72582238D01*
X78059000Y-72534619D01*
X78297095Y-72534619D01*
X77392333Y-73534619D02*
X76773285Y-73534619D01*
X77106619Y-73153666D01*
X76963761Y-73153666D01*
X76868523Y-73106047D01*
X76820904Y-73058428D01*
X76773285Y-72963190D01*
X76773285Y-72725095D01*
X76820904Y-72629857D01*
X76868523Y-72582238D01*
X76963761Y-72534619D01*
X77249476Y-72534619D01*
X77344714Y-72582238D01*
X77392333Y-72629857D01*
X60317748Y-71808488D02*
X61024854Y-72515595D01*
X60856496Y-72683954D01*
X60721809Y-72751297D01*
X60587122Y-72751297D01*
X60486106Y-72717625D01*
X60317748Y-72616610D01*
X60216732Y-72515595D01*
X60115717Y-72347236D01*
X60082045Y-72246221D01*
X60082045Y-72111534D01*
X60149389Y-71976847D01*
X60317748Y-71808488D01*
X59240251Y-72885984D02*
X59644312Y-72481923D01*
X59442282Y-72683954D02*
X60149389Y-73391061D01*
X60115717Y-73222702D01*
X60115717Y-73088015D01*
X60149389Y-72987000D01*
X59509625Y-74030824D02*
X59442282Y-74098167D01*
X59341267Y-74131839D01*
X59273923Y-74131839D01*
X59172908Y-74098167D01*
X59004549Y-73997152D01*
X58836190Y-73828793D01*
X58735175Y-73660435D01*
X58701503Y-73559419D01*
X58701503Y-73492076D01*
X58735175Y-73391061D01*
X58802519Y-73323717D01*
X58903534Y-73290045D01*
X58970877Y-73290045D01*
X59071893Y-73323717D01*
X59240251Y-73424732D01*
X59408610Y-73593091D01*
X59509625Y-73761450D01*
X59543297Y-73862465D01*
X59543297Y-73929809D01*
X59509625Y-74030824D01*
X80837095Y-72534619D02*
X80837095Y-73534619D01*
X80599000Y-73534619D01*
X80456142Y-73487000D01*
X80360904Y-73391761D01*
X80313285Y-73296523D01*
X80265666Y-73106047D01*
X80265666Y-72963190D01*
X80313285Y-72772714D01*
X80360904Y-72677476D01*
X80456142Y-72582238D01*
X80599000Y-72534619D01*
X80837095Y-72534619D01*
X79884714Y-73439380D02*
X79837095Y-73487000D01*
X79741857Y-73534619D01*
X79503761Y-73534619D01*
X79408523Y-73487000D01*
X79360904Y-73439380D01*
X79313285Y-73344142D01*
X79313285Y-73248904D01*
X79360904Y-73106047D01*
X79932333Y-72534619D01*
X79313285Y-72534619D01*
X83531301Y-72801805D02*
X83632316Y-72768133D01*
X83733331Y-72667118D01*
X83800675Y-72532431D01*
X83800675Y-72397744D01*
X83767003Y-72296729D01*
X83665988Y-72128370D01*
X83564973Y-72027355D01*
X83396614Y-71926339D01*
X83295599Y-71892668D01*
X83160912Y-71892668D01*
X83026225Y-71960011D01*
X82958881Y-72027355D01*
X82891538Y-72162042D01*
X82891538Y-72229385D01*
X83127240Y-72465087D01*
X83261927Y-72330400D01*
X82521148Y-72465087D02*
X83228255Y-73172194D01*
X82117087Y-72869148D01*
X82824194Y-73576255D01*
X81780370Y-73205866D02*
X82487477Y-73912973D01*
X82319118Y-74081331D01*
X82184431Y-74148675D01*
X82049744Y-74148675D01*
X81948729Y-74115003D01*
X81780370Y-74013988D01*
X81679355Y-73912973D01*
X81578339Y-73744614D01*
X81544668Y-73643599D01*
X81544668Y-73508912D01*
X81612011Y-73374225D01*
X81780370Y-73205866D01*
X85373343Y-72279893D02*
X85945763Y-72380908D01*
X85777404Y-71875832D02*
X86484511Y-72582938D01*
X86215137Y-72852312D01*
X86114122Y-72885984D01*
X86046778Y-72885984D01*
X85945763Y-72852312D01*
X85844748Y-72751297D01*
X85811076Y-72650282D01*
X85811076Y-72582938D01*
X85844748Y-72481923D01*
X86114122Y-72212549D01*
X85137641Y-72582938D02*
X85002954Y-72650282D01*
X84834595Y-72818641D01*
X84800923Y-72919656D01*
X84800923Y-72987000D01*
X84834595Y-73088015D01*
X84901938Y-73155358D01*
X85002954Y-73189030D01*
X85070297Y-73189030D01*
X85171312Y-73155358D01*
X85339671Y-73054343D01*
X85440687Y-73020671D01*
X85508030Y-73020671D01*
X85609045Y-73054343D01*
X85676389Y-73121687D01*
X85710061Y-73222702D01*
X85710061Y-73290045D01*
X85676389Y-73391061D01*
X85508030Y-73559419D01*
X85373343Y-73626763D01*
X85204984Y-73862465D02*
X84800923Y-74266526D01*
X84295847Y-73357389D02*
X85002954Y-74064496D01*
X87885666Y-72534619D02*
X88219000Y-73010809D01*
X88457095Y-72534619D02*
X88457095Y-73534619D01*
X88076142Y-73534619D01*
X87980904Y-73487000D01*
X87933285Y-73439380D01*
X87885666Y-73344142D01*
X87885666Y-73201285D01*
X87933285Y-73106047D01*
X87980904Y-73058428D01*
X88076142Y-73010809D01*
X88457095Y-73010809D01*
X87552333Y-73534619D02*
X86885666Y-72534619D01*
X86885666Y-73534619D02*
X87552333Y-72534619D01*
X91020904Y-73534619D02*
X90449476Y-73534619D01*
X90735190Y-72534619D02*
X90735190Y-73534619D01*
X90211380Y-73534619D02*
X89544714Y-72534619D01*
X89544714Y-73534619D02*
X90211380Y-72534619D01*
D12*
X89281571Y-53603428D02*
X89210142Y-53746285D01*
X89138714Y-53817714D01*
X88995857Y-53889142D01*
X88567285Y-53889142D01*
X88424428Y-53817714D01*
X88353000Y-53746285D01*
X88281571Y-53603428D01*
X88281571Y-53389142D01*
X88353000Y-53246285D01*
X88424428Y-53174857D01*
X88567285Y-53103428D01*
X88995857Y-53103428D01*
X89138714Y-53174857D01*
X89210142Y-53246285D01*
X89281571Y-53389142D01*
X89281571Y-53603428D01*
X88281571Y-52460571D02*
X89781571Y-52460571D01*
X88353000Y-52460571D02*
X88281571Y-52317714D01*
X88281571Y-52032000D01*
X88353000Y-51889142D01*
X88424428Y-51817714D01*
X88567285Y-51746285D01*
X88995857Y-51746285D01*
X89138714Y-51817714D01*
X89210142Y-51889142D01*
X89281571Y-52032000D01*
X89281571Y-52317714D01*
X89210142Y-52460571D01*
X88281571Y-51317714D02*
X88281571Y-50746285D01*
X87781571Y-51103428D02*
X89067285Y-51103428D01*
X89210142Y-51032000D01*
X89281571Y-50889142D01*
X89281571Y-50746285D01*
X89138714Y-50246285D02*
X89210142Y-50174857D01*
X89281571Y-50246285D01*
X89210142Y-50317714D01*
X89138714Y-50246285D01*
X89281571Y-50246285D01*
X90831571Y-55746285D02*
X92331571Y-55746285D01*
X90903000Y-55746285D02*
X90831571Y-55603428D01*
X90831571Y-55317714D01*
X90903000Y-55174857D01*
X90974428Y-55103428D01*
X91117285Y-55032000D01*
X91545857Y-55032000D01*
X91688714Y-55103428D01*
X91760142Y-55174857D01*
X91831571Y-55317714D01*
X91831571Y-55603428D01*
X91760142Y-55746285D01*
X91831571Y-54174857D02*
X91760142Y-54317714D01*
X91688714Y-54389142D01*
X91545857Y-54460571D01*
X91117285Y-54460571D01*
X90974428Y-54389142D01*
X90903000Y-54317714D01*
X90831571Y-54174857D01*
X90831571Y-53960571D01*
X90903000Y-53817714D01*
X90974428Y-53746285D01*
X91117285Y-53674857D01*
X91545857Y-53674857D01*
X91688714Y-53746285D01*
X91760142Y-53817714D01*
X91831571Y-53960571D01*
X91831571Y-54174857D01*
X91831571Y-52817714D02*
X91760142Y-52960571D01*
X91617285Y-53032000D01*
X90331571Y-53032000D01*
X91688714Y-52246285D02*
X91760142Y-52174857D01*
X91831571Y-52246285D01*
X91760142Y-52317714D01*
X91688714Y-52246285D01*
X91831571Y-52246285D01*
X91831571Y-50889142D02*
X90331571Y-50889142D01*
X91760142Y-50889142D02*
X91831571Y-51032000D01*
X91831571Y-51317714D01*
X91760142Y-51460571D01*
X91688714Y-51532000D01*
X91545857Y-51603428D01*
X91117285Y-51603428D01*
X90974428Y-51532000D01*
X90903000Y-51460571D01*
X90831571Y-51317714D01*
X90831571Y-51032000D01*
X90903000Y-50889142D01*
X91831571Y-50174857D02*
X90831571Y-50174857D01*
X90331571Y-50174857D02*
X90403000Y-50246285D01*
X90474428Y-50174857D01*
X90403000Y-50103428D01*
X90331571Y-50174857D01*
X90474428Y-50174857D01*
X90831571Y-49603428D02*
X91831571Y-49246285D01*
X90831571Y-48889142D01*
X91688714Y-48317714D02*
X91760142Y-48246285D01*
X91831571Y-48317714D01*
X91760142Y-48389142D01*
X91688714Y-48317714D01*
X91831571Y-48317714D01*
D13*
X47968000Y-54699000D02*
X47968000Y-55715000D01*
X50254000Y-54699000D02*
X47968000Y-54699000D01*
X53429000Y-52540000D02*
X50254000Y-54699000D01*
X55588000Y-52540000D02*
X53429000Y-52540000D01*
X55588000Y-55842000D02*
X55588000Y-52540000D01*
X57874000Y-58509000D02*
X55588000Y-55842000D01*
X57874000Y-68796000D02*
X57874000Y-58509000D01*
X48095000Y-68796000D02*
X57874000Y-68796000D01*
X47968000Y-55588000D02*
X48095000Y-68796000D01*
X68923000Y-57620000D02*
X79591000Y-57620000D01*
X68923000Y-71463000D02*
X68923000Y-57620000D01*
X79591000Y-71463000D02*
X68923000Y-71463000D01*
X79591000Y-57620000D02*
X79591000Y-71463000D01*
X93180000Y-60795000D02*
X100546000Y-60795000D01*
X93180000Y-48984000D02*
X93180000Y-60795000D01*
X100673000Y-48984000D02*
X93180000Y-48984000D01*
X100673000Y-51651000D02*
X100673000Y-48984000D01*
X99022000Y-52667000D02*
X100673000Y-51651000D01*
X99022000Y-56223000D02*
X99022000Y-52667000D01*
X100546000Y-57239000D02*
X99022000Y-56223000D01*
X100546000Y-60795000D02*
X100546000Y-57239000D01*
X83909000Y-62192000D02*
X84163000Y-62192000D01*
X83909000Y-60922000D02*
X83909000Y-62192000D01*
X84163000Y-60922000D02*
X83909000Y-60922000D01*
D14*
G04 #@! TO.C,A1*
X88989000Y-71844000D02*
X91529000Y-71844000D01*
X91529000Y-71844000D02*
X91529000Y-69174000D01*
X88989000Y-69174000D02*
X50759000Y-69174000D01*
X94199000Y-69174000D02*
X91529000Y-69174000D01*
X91529000Y-84544000D02*
X91529000Y-87214000D01*
X91529000Y-84544000D02*
X53429000Y-84544000D01*
X53429000Y-84544000D02*
X53429000Y-87214000D01*
X88989000Y-71844000D02*
X88989000Y-69174000D01*
X88989000Y-71844000D02*
X53429000Y-71844000D01*
X53429000Y-71844000D02*
X53429000Y-69174000D01*
X50759000Y-69174000D02*
X50759000Y-87214000D01*
X50759000Y-87214000D02*
X94199000Y-87214000D01*
X94199000Y-87214000D02*
X94199000Y-69174000D01*
G04 #@! TO.C,C1*
X54198252Y-66458000D02*
X53675748Y-66458000D01*
X54198252Y-65038000D02*
X53675748Y-65038000D01*
G04 #@! TO.C,C2*
X77103000Y-62707252D02*
X77103000Y-62184748D01*
X78523000Y-62707252D02*
X78523000Y-62184748D01*
G04 #@! TO.C,C3*
X54266000Y-55840252D02*
X54266000Y-55317748D01*
X52846000Y-55840252D02*
X52846000Y-55317748D01*
G04 #@! TO.C,C4*
X72217748Y-62140000D02*
X72740252Y-62140000D01*
X72217748Y-60720000D02*
X72740252Y-60720000D01*
G04 #@! TO.C,C5*
X89986852Y-60184200D02*
X89464348Y-60184200D01*
X89986852Y-58764200D02*
X89464348Y-58764200D01*
G04 #@! TO.C,D1*
X101818000Y-52865000D02*
X101818000Y-53795000D01*
X101818000Y-56025000D02*
X101818000Y-55095000D01*
X101818000Y-56025000D02*
X104978000Y-56025000D01*
X101818000Y-52865000D02*
X103278000Y-52865000D01*
G04 #@! TO.C,J1*
X83660000Y-53900000D02*
X83660000Y-48700000D01*
X60740000Y-53900000D02*
X83660000Y-53900000D01*
X58140000Y-48700000D02*
X83660000Y-48700000D01*
X60740000Y-53900000D02*
X60740000Y-51300000D01*
X60740000Y-51300000D02*
X58140000Y-51300000D01*
X58140000Y-51300000D02*
X58140000Y-48700000D01*
X59470000Y-53900000D02*
X58140000Y-53900000D01*
X58140000Y-53900000D02*
X58140000Y-52570000D01*
G04 #@! TO.C,R1*
X49925000Y-60929252D02*
X49925000Y-60406748D01*
X51345000Y-60929252D02*
X51345000Y-60406748D01*
G04 #@! TO.C,R2*
X78523000Y-66502748D02*
X78523000Y-67025252D01*
X77103000Y-66502748D02*
X77103000Y-67025252D01*
G04 #@! TO.C,R3*
X81294000Y-60025748D02*
X81294000Y-60548252D01*
X82714000Y-60025748D02*
X82714000Y-60548252D01*
G04 #@! TO.C,R4*
X81294000Y-66502748D02*
X81294000Y-67025252D01*
X82714000Y-66502748D02*
X82714000Y-67025252D01*
G04 #@! TO.C,R5*
X97617748Y-57926000D02*
X98140252Y-57926000D01*
X97617748Y-59346000D02*
X98140252Y-59346000D01*
G04 #@! TO.C,R6*
X96280000Y-54706252D02*
X96280000Y-54183748D01*
X97700000Y-54706252D02*
X97700000Y-54183748D01*
G04 #@! TO.C,R7*
X98013252Y-50052000D02*
X97490748Y-50052000D01*
X98013252Y-51472000D02*
X97490748Y-51472000D01*
G04 #@! TO.C,R8*
X103728252Y-59346000D02*
X103205748Y-59346000D01*
X103728252Y-57926000D02*
X103205748Y-57926000D01*
G04 #@! TO.C,R9*
X103728252Y-50052000D02*
X103205748Y-50052000D01*
X103728252Y-51472000D02*
X103205748Y-51472000D01*
G04 #@! TO.C,U1*
X52454000Y-59768000D02*
X52454000Y-61568000D01*
X55674000Y-61568000D02*
X55674000Y-59118000D01*
G04 #@! TO.C,U2*
X73379000Y-63630000D02*
X70929000Y-63630000D01*
X71579000Y-66850000D02*
X73379000Y-66850000D01*
D15*
G04 #@! TO.C,U3*
X85847200Y-60937800D02*
X85847200Y-60987800D01*
X89997200Y-60937800D02*
X89997200Y-61082800D01*
X89997200Y-66087800D02*
X89997200Y-65942800D01*
X85847200Y-66087800D02*
X85847200Y-65942800D01*
X85847200Y-60937800D02*
X89997200Y-60937800D01*
X85847200Y-66087800D02*
X89997200Y-66087800D01*
X85847200Y-60987800D02*
X84447200Y-60987800D01*
G04 #@! TO.C,J2*
X96042000Y-78131000D02*
X116752000Y-78131000D01*
X96042000Y-62001000D02*
X96042000Y-78131000D01*
X116752000Y-62001000D02*
X96042000Y-62001000D01*
X116752000Y-78131000D02*
X116752000Y-62001000D01*
G04 #@! TO.C,J3*
X116752000Y-97308000D02*
X116752000Y-81178000D01*
X116752000Y-81178000D02*
X96042000Y-81178000D01*
X96042000Y-81178000D02*
X96042000Y-97308000D01*
X96042000Y-97308000D02*
X116752000Y-97308000D01*
D14*
G04 #@! TO.C,C6*
X61951800Y-91940748D02*
X61951800Y-92463252D01*
X63371800Y-91940748D02*
X63371800Y-92463252D01*
G04 #@! TO.C,C7*
X61926400Y-96832052D02*
X61926400Y-96309548D01*
X63346400Y-96832052D02*
X63346400Y-96309548D01*
G04 #@! TO.C,J4*
X75692000Y-97155000D02*
X65532000Y-97155000D01*
X75692000Y-98425000D02*
X75692000Y-90805000D01*
X75692000Y-90805000D02*
X65532000Y-90805000D01*
X65532000Y-90805000D02*
X65532000Y-98425000D01*
X65532000Y-98425000D02*
X75692000Y-98425000D01*
G04 #@! TO.C,R10*
X58539748Y-92228600D02*
X59062252Y-92228600D01*
X58539748Y-93648600D02*
X59062252Y-93648600D01*
G04 #@! TO.C,U4*
X59269200Y-94986200D02*
X57469200Y-94986200D01*
X57469200Y-98206200D02*
X59919200Y-98206200D01*
G04 #@! TO.C,C1*
D15*
X53770333Y-67755142D02*
X53722714Y-67802761D01*
X53579857Y-67850380D01*
X53484619Y-67850380D01*
X53341761Y-67802761D01*
X53246523Y-67707523D01*
X53198904Y-67612285D01*
X53151285Y-67421809D01*
X53151285Y-67278952D01*
X53198904Y-67088476D01*
X53246523Y-66993238D01*
X53341761Y-66898000D01*
X53484619Y-66850380D01*
X53579857Y-66850380D01*
X53722714Y-66898000D01*
X53770333Y-66945619D01*
X54722714Y-67850380D02*
X54151285Y-67850380D01*
X54437000Y-67850380D02*
X54437000Y-66850380D01*
X54341761Y-66993238D01*
X54246523Y-67088476D01*
X54151285Y-67136095D01*
G04 #@! TO.C,C2*
X77646333Y-60009142D02*
X77598714Y-60056761D01*
X77455857Y-60104380D01*
X77360619Y-60104380D01*
X77217761Y-60056761D01*
X77122523Y-59961523D01*
X77074904Y-59866285D01*
X77027285Y-59675809D01*
X77027285Y-59532952D01*
X77074904Y-59342476D01*
X77122523Y-59247238D01*
X77217761Y-59152000D01*
X77360619Y-59104380D01*
X77455857Y-59104380D01*
X77598714Y-59152000D01*
X77646333Y-59199619D01*
X78027285Y-59199619D02*
X78074904Y-59152000D01*
X78170142Y-59104380D01*
X78408238Y-59104380D01*
X78503476Y-59152000D01*
X78551095Y-59199619D01*
X78598714Y-59294857D01*
X78598714Y-59390095D01*
X78551095Y-59532952D01*
X77979666Y-60104380D01*
X78598714Y-60104380D01*
G04 #@! TO.C,C3*
X52263142Y-55745666D02*
X52310761Y-55793285D01*
X52358380Y-55936142D01*
X52358380Y-56031380D01*
X52310761Y-56174238D01*
X52215523Y-56269476D01*
X52120285Y-56317095D01*
X51929809Y-56364714D01*
X51786952Y-56364714D01*
X51596476Y-56317095D01*
X51501238Y-56269476D01*
X51406000Y-56174238D01*
X51358380Y-56031380D01*
X51358380Y-55936142D01*
X51406000Y-55793285D01*
X51453619Y-55745666D01*
X51358380Y-55412333D02*
X51358380Y-54793285D01*
X51739333Y-55126619D01*
X51739333Y-54983761D01*
X51786952Y-54888523D01*
X51834571Y-54840904D01*
X51929809Y-54793285D01*
X52167904Y-54793285D01*
X52263142Y-54840904D01*
X52310761Y-54888523D01*
X52358380Y-54983761D01*
X52358380Y-55269476D01*
X52310761Y-55364714D01*
X52263142Y-55412333D01*
G04 #@! TO.C,C4*
X72312333Y-60137142D02*
X72264714Y-60184761D01*
X72121857Y-60232380D01*
X72026619Y-60232380D01*
X71883761Y-60184761D01*
X71788523Y-60089523D01*
X71740904Y-59994285D01*
X71693285Y-59803809D01*
X71693285Y-59660952D01*
X71740904Y-59470476D01*
X71788523Y-59375238D01*
X71883761Y-59280000D01*
X72026619Y-59232380D01*
X72121857Y-59232380D01*
X72264714Y-59280000D01*
X72312333Y-59327619D01*
X73169476Y-59565714D02*
X73169476Y-60232380D01*
X72931380Y-59184761D02*
X72693285Y-59899047D01*
X73312333Y-59899047D01*
G04 #@! TO.C,C5*
X89558933Y-58104142D02*
X89511314Y-58151761D01*
X89368457Y-58199380D01*
X89273219Y-58199380D01*
X89130361Y-58151761D01*
X89035123Y-58056523D01*
X88987504Y-57961285D01*
X88939885Y-57770809D01*
X88939885Y-57627952D01*
X88987504Y-57437476D01*
X89035123Y-57342238D01*
X89130361Y-57247000D01*
X89273219Y-57199380D01*
X89368457Y-57199380D01*
X89511314Y-57247000D01*
X89558933Y-57294619D01*
X90463695Y-57199380D02*
X89987504Y-57199380D01*
X89939885Y-57675571D01*
X89987504Y-57627952D01*
X90082742Y-57580333D01*
X90320838Y-57580333D01*
X90416076Y-57627952D01*
X90463695Y-57675571D01*
X90511314Y-57770809D01*
X90511314Y-58008904D01*
X90463695Y-58104142D01*
X90416076Y-58151761D01*
X90320838Y-58199380D01*
X90082742Y-58199380D01*
X89987504Y-58151761D01*
X89939885Y-58104142D01*
G04 #@! TO.C,D1*
X105649904Y-54897380D02*
X105649904Y-53897380D01*
X105888000Y-53897380D01*
X106030857Y-53945000D01*
X106126095Y-54040238D01*
X106173714Y-54135476D01*
X106221333Y-54325952D01*
X106221333Y-54468809D01*
X106173714Y-54659285D01*
X106126095Y-54754523D01*
X106030857Y-54849761D01*
X105888000Y-54897380D01*
X105649904Y-54897380D01*
X107173714Y-54897380D02*
X106602285Y-54897380D01*
X106888000Y-54897380D02*
X106888000Y-53897380D01*
X106792761Y-54040238D01*
X106697523Y-54135476D01*
X106602285Y-54183095D01*
G04 #@! TO.C,J1*
X56592380Y-51633333D02*
X57306666Y-51633333D01*
X57449523Y-51680952D01*
X57544761Y-51776190D01*
X57592380Y-51919047D01*
X57592380Y-52014285D01*
X57592380Y-50633333D02*
X57592380Y-51204761D01*
X57592380Y-50919047D02*
X56592380Y-50919047D01*
X56735238Y-51014285D01*
X56830476Y-51109523D01*
X56878095Y-51204761D01*
G04 #@! TO.C,R1*
X49437380Y-60834666D02*
X48961190Y-61168000D01*
X49437380Y-61406095D02*
X48437380Y-61406095D01*
X48437380Y-61025142D01*
X48485000Y-60929904D01*
X48532619Y-60882285D01*
X48627857Y-60834666D01*
X48770714Y-60834666D01*
X48865952Y-60882285D01*
X48913571Y-60929904D01*
X48961190Y-61025142D01*
X48961190Y-61406095D01*
X49437380Y-59882285D02*
X49437380Y-60453714D01*
X49437380Y-60168000D02*
X48437380Y-60168000D01*
X48580238Y-60263238D01*
X48675476Y-60358476D01*
X48723095Y-60453714D01*
G04 #@! TO.C,R2*
X75741333Y-68740380D02*
X75408000Y-68264190D01*
X75169904Y-68740380D02*
X75169904Y-67740380D01*
X75550857Y-67740380D01*
X75646095Y-67788000D01*
X75693714Y-67835619D01*
X75741333Y-67930857D01*
X75741333Y-68073714D01*
X75693714Y-68168952D01*
X75646095Y-68216571D01*
X75550857Y-68264190D01*
X75169904Y-68264190D01*
X76122285Y-67835619D02*
X76169904Y-67788000D01*
X76265142Y-67740380D01*
X76503238Y-67740380D01*
X76598476Y-67788000D01*
X76646095Y-67835619D01*
X76693714Y-67930857D01*
X76693714Y-68026095D01*
X76646095Y-68168952D01*
X76074666Y-68740380D01*
X76693714Y-68740380D01*
G04 #@! TO.C,R3*
X83742333Y-58834380D02*
X83409000Y-58358190D01*
X83170904Y-58834380D02*
X83170904Y-57834380D01*
X83551857Y-57834380D01*
X83647095Y-57882000D01*
X83694714Y-57929619D01*
X83742333Y-58024857D01*
X83742333Y-58167714D01*
X83694714Y-58262952D01*
X83647095Y-58310571D01*
X83551857Y-58358190D01*
X83170904Y-58358190D01*
X84075666Y-57834380D02*
X84694714Y-57834380D01*
X84361380Y-58215333D01*
X84504238Y-58215333D01*
X84599476Y-58262952D01*
X84647095Y-58310571D01*
X84694714Y-58405809D01*
X84694714Y-58643904D01*
X84647095Y-58739142D01*
X84599476Y-58786761D01*
X84504238Y-58834380D01*
X84218523Y-58834380D01*
X84123285Y-58786761D01*
X84075666Y-58739142D01*
G04 #@! TO.C,R4*
X83869333Y-68613380D02*
X83536000Y-68137190D01*
X83297904Y-68613380D02*
X83297904Y-67613380D01*
X83678857Y-67613380D01*
X83774095Y-67661000D01*
X83821714Y-67708619D01*
X83869333Y-67803857D01*
X83869333Y-67946714D01*
X83821714Y-68041952D01*
X83774095Y-68089571D01*
X83678857Y-68137190D01*
X83297904Y-68137190D01*
X84726476Y-67946714D02*
X84726476Y-68613380D01*
X84488380Y-67565761D02*
X84250285Y-68280047D01*
X84869333Y-68280047D01*
G04 #@! TO.C,R5*
X94410333Y-59088380D02*
X94077000Y-58612190D01*
X93838904Y-59088380D02*
X93838904Y-58088380D01*
X94219857Y-58088380D01*
X94315095Y-58136000D01*
X94362714Y-58183619D01*
X94410333Y-58278857D01*
X94410333Y-58421714D01*
X94362714Y-58516952D01*
X94315095Y-58564571D01*
X94219857Y-58612190D01*
X93838904Y-58612190D01*
X95315095Y-58088380D02*
X94838904Y-58088380D01*
X94791285Y-58564571D01*
X94838904Y-58516952D01*
X94934142Y-58469333D01*
X95172238Y-58469333D01*
X95267476Y-58516952D01*
X95315095Y-58564571D01*
X95362714Y-58659809D01*
X95362714Y-58897904D01*
X95315095Y-58993142D01*
X95267476Y-59040761D01*
X95172238Y-59088380D01*
X94934142Y-59088380D01*
X94838904Y-59040761D01*
X94791285Y-58993142D01*
G04 #@! TO.C,R6*
X94410333Y-54770380D02*
X94077000Y-54294190D01*
X93838904Y-54770380D02*
X93838904Y-53770380D01*
X94219857Y-53770380D01*
X94315095Y-53818000D01*
X94362714Y-53865619D01*
X94410333Y-53960857D01*
X94410333Y-54103714D01*
X94362714Y-54198952D01*
X94315095Y-54246571D01*
X94219857Y-54294190D01*
X93838904Y-54294190D01*
X95267476Y-53770380D02*
X95077000Y-53770380D01*
X94981761Y-53818000D01*
X94934142Y-53865619D01*
X94838904Y-54008476D01*
X94791285Y-54198952D01*
X94791285Y-54579904D01*
X94838904Y-54675142D01*
X94886523Y-54722761D01*
X94981761Y-54770380D01*
X95172238Y-54770380D01*
X95267476Y-54722761D01*
X95315095Y-54675142D01*
X95362714Y-54579904D01*
X95362714Y-54341809D01*
X95315095Y-54246571D01*
X95267476Y-54198952D01*
X95172238Y-54151333D01*
X94981761Y-54151333D01*
X94886523Y-54198952D01*
X94838904Y-54246571D01*
X94791285Y-54341809D01*
G04 #@! TO.C,R7*
X94410333Y-51341380D02*
X94077000Y-50865190D01*
X93838904Y-51341380D02*
X93838904Y-50341380D01*
X94219857Y-50341380D01*
X94315095Y-50389000D01*
X94362714Y-50436619D01*
X94410333Y-50531857D01*
X94410333Y-50674714D01*
X94362714Y-50769952D01*
X94315095Y-50817571D01*
X94219857Y-50865190D01*
X93838904Y-50865190D01*
X94743666Y-50341380D02*
X95410333Y-50341380D01*
X94981761Y-51341380D01*
G04 #@! TO.C,R8*
X106348333Y-59088380D02*
X106015000Y-58612190D01*
X105776904Y-59088380D02*
X105776904Y-58088380D01*
X106157857Y-58088380D01*
X106253095Y-58136000D01*
X106300714Y-58183619D01*
X106348333Y-58278857D01*
X106348333Y-58421714D01*
X106300714Y-58516952D01*
X106253095Y-58564571D01*
X106157857Y-58612190D01*
X105776904Y-58612190D01*
X106919761Y-58516952D02*
X106824523Y-58469333D01*
X106776904Y-58421714D01*
X106729285Y-58326476D01*
X106729285Y-58278857D01*
X106776904Y-58183619D01*
X106824523Y-58136000D01*
X106919761Y-58088380D01*
X107110238Y-58088380D01*
X107205476Y-58136000D01*
X107253095Y-58183619D01*
X107300714Y-58278857D01*
X107300714Y-58326476D01*
X107253095Y-58421714D01*
X107205476Y-58469333D01*
X107110238Y-58516952D01*
X106919761Y-58516952D01*
X106824523Y-58564571D01*
X106776904Y-58612190D01*
X106729285Y-58707428D01*
X106729285Y-58897904D01*
X106776904Y-58993142D01*
X106824523Y-59040761D01*
X106919761Y-59088380D01*
X107110238Y-59088380D01*
X107205476Y-59040761D01*
X107253095Y-58993142D01*
X107300714Y-58897904D01*
X107300714Y-58707428D01*
X107253095Y-58612190D01*
X107205476Y-58564571D01*
X107110238Y-58516952D01*
G04 #@! TO.C,R9*
X106221333Y-51087380D02*
X105888000Y-50611190D01*
X105649904Y-51087380D02*
X105649904Y-50087380D01*
X106030857Y-50087380D01*
X106126095Y-50135000D01*
X106173714Y-50182619D01*
X106221333Y-50277857D01*
X106221333Y-50420714D01*
X106173714Y-50515952D01*
X106126095Y-50563571D01*
X106030857Y-50611190D01*
X105649904Y-50611190D01*
X106697523Y-51087380D02*
X106888000Y-51087380D01*
X106983238Y-51039761D01*
X107030857Y-50992142D01*
X107126095Y-50849285D01*
X107173714Y-50658809D01*
X107173714Y-50277857D01*
X107126095Y-50182619D01*
X107078476Y-50135000D01*
X106983238Y-50087380D01*
X106792761Y-50087380D01*
X106697523Y-50135000D01*
X106649904Y-50182619D01*
X106602285Y-50277857D01*
X106602285Y-50515952D01*
X106649904Y-50611190D01*
X106697523Y-50658809D01*
X106792761Y-50706428D01*
X106983238Y-50706428D01*
X107078476Y-50658809D01*
X107126095Y-50611190D01*
X107173714Y-50515952D01*
G04 #@! TO.C,U1*
X56416380Y-61429904D02*
X57225904Y-61429904D01*
X57321142Y-61382285D01*
X57368761Y-61334666D01*
X57416380Y-61239428D01*
X57416380Y-61048952D01*
X57368761Y-60953714D01*
X57321142Y-60906095D01*
X57225904Y-60858476D01*
X56416380Y-60858476D01*
X57416380Y-59858476D02*
X57416380Y-60429904D01*
X57416380Y-60144190D02*
X56416380Y-60144190D01*
X56559238Y-60239428D01*
X56654476Y-60334666D01*
X56702095Y-60429904D01*
G04 #@! TO.C,U2*
X71717095Y-67232380D02*
X71717095Y-68041904D01*
X71764714Y-68137142D01*
X71812333Y-68184761D01*
X71907571Y-68232380D01*
X72098047Y-68232380D01*
X72193285Y-68184761D01*
X72240904Y-68137142D01*
X72288523Y-68041904D01*
X72288523Y-67232380D01*
X72717095Y-67327619D02*
X72764714Y-67280000D01*
X72859952Y-67232380D01*
X73098047Y-67232380D01*
X73193285Y-67280000D01*
X73240904Y-67327619D01*
X73288523Y-67422857D01*
X73288523Y-67518095D01*
X73240904Y-67660952D01*
X72669476Y-68232380D01*
X73288523Y-68232380D01*
G04 #@! TO.C,U3*
X87160295Y-62914380D02*
X87160295Y-63723904D01*
X87207914Y-63819142D01*
X87255533Y-63866761D01*
X87350771Y-63914380D01*
X87541247Y-63914380D01*
X87636485Y-63866761D01*
X87684104Y-63819142D01*
X87731723Y-63723904D01*
X87731723Y-62914380D01*
X88112676Y-62914380D02*
X88731723Y-62914380D01*
X88398390Y-63295333D01*
X88541247Y-63295333D01*
X88636485Y-63342952D01*
X88684104Y-63390571D01*
X88731723Y-63485809D01*
X88731723Y-63723904D01*
X88684104Y-63819142D01*
X88636485Y-63866761D01*
X88541247Y-63914380D01*
X88255533Y-63914380D01*
X88160295Y-63866761D01*
X88112676Y-63819142D01*
G04 #@! TO.C,J2*
X105414380Y-70399333D02*
X106128666Y-70399333D01*
X106271523Y-70446952D01*
X106366761Y-70542190D01*
X106414380Y-70685047D01*
X106414380Y-70780285D01*
X105509619Y-69970761D02*
X105462000Y-69923142D01*
X105414380Y-69827904D01*
X105414380Y-69589809D01*
X105462000Y-69494571D01*
X105509619Y-69446952D01*
X105604857Y-69399333D01*
X105700095Y-69399333D01*
X105842952Y-69446952D01*
X106414380Y-70018380D01*
X106414380Y-69399333D01*
G04 #@! TO.C,J3*
X105414380Y-89576333D02*
X106128666Y-89576333D01*
X106271523Y-89623952D01*
X106366761Y-89719190D01*
X106414380Y-89862047D01*
X106414380Y-89957285D01*
X105414380Y-89195380D02*
X105414380Y-88576333D01*
X105795333Y-88909666D01*
X105795333Y-88766809D01*
X105842952Y-88671571D01*
X105890571Y-88623952D01*
X105985809Y-88576333D01*
X106223904Y-88576333D01*
X106319142Y-88623952D01*
X106366761Y-88671571D01*
X106414380Y-88766809D01*
X106414380Y-89052523D01*
X106366761Y-89147761D01*
X106319142Y-89195380D01*
G04 #@! TO.C,C6*
X62444333Y-90095342D02*
X62396714Y-90142961D01*
X62253857Y-90190580D01*
X62158619Y-90190580D01*
X62015761Y-90142961D01*
X61920523Y-90047723D01*
X61872904Y-89952485D01*
X61825285Y-89762009D01*
X61825285Y-89619152D01*
X61872904Y-89428676D01*
X61920523Y-89333438D01*
X62015761Y-89238200D01*
X62158619Y-89190580D01*
X62253857Y-89190580D01*
X62396714Y-89238200D01*
X62444333Y-89285819D01*
X63301476Y-89190580D02*
X63111000Y-89190580D01*
X63015761Y-89238200D01*
X62968142Y-89285819D01*
X62872904Y-89428676D01*
X62825285Y-89619152D01*
X62825285Y-90000104D01*
X62872904Y-90095342D01*
X62920523Y-90142961D01*
X63015761Y-90190580D01*
X63206238Y-90190580D01*
X63301476Y-90142961D01*
X63349095Y-90095342D01*
X63396714Y-90000104D01*
X63396714Y-89762009D01*
X63349095Y-89666771D01*
X63301476Y-89619152D01*
X63206238Y-89571533D01*
X63015761Y-89571533D01*
X62920523Y-89619152D01*
X62872904Y-89666771D01*
X62825285Y-89762009D01*
G04 #@! TO.C,C7*
X64746142Y-96737466D02*
X64793761Y-96785085D01*
X64841380Y-96927942D01*
X64841380Y-97023180D01*
X64793761Y-97166038D01*
X64698523Y-97261276D01*
X64603285Y-97308895D01*
X64412809Y-97356514D01*
X64269952Y-97356514D01*
X64079476Y-97308895D01*
X63984238Y-97261276D01*
X63889000Y-97166038D01*
X63841380Y-97023180D01*
X63841380Y-96927942D01*
X63889000Y-96785085D01*
X63936619Y-96737466D01*
X63841380Y-96404133D02*
X63841380Y-95737466D01*
X64841380Y-96166038D01*
G04 #@! TO.C,J4*
X70304066Y-91324180D02*
X70304066Y-92038466D01*
X70256447Y-92181323D01*
X70161209Y-92276561D01*
X70018352Y-92324180D01*
X69923114Y-92324180D01*
X71208828Y-91657514D02*
X71208828Y-92324180D01*
X70970733Y-91276561D02*
X70732638Y-91990847D01*
X71351685Y-91990847D01*
G04 #@! TO.C,R10*
X58158142Y-91740980D02*
X57824809Y-91264790D01*
X57586714Y-91740980D02*
X57586714Y-90740980D01*
X57967666Y-90740980D01*
X58062904Y-90788600D01*
X58110523Y-90836219D01*
X58158142Y-90931457D01*
X58158142Y-91074314D01*
X58110523Y-91169552D01*
X58062904Y-91217171D01*
X57967666Y-91264790D01*
X57586714Y-91264790D01*
X59110523Y-91740980D02*
X58539095Y-91740980D01*
X58824809Y-91740980D02*
X58824809Y-90740980D01*
X58729571Y-90883838D01*
X58634333Y-90979076D01*
X58539095Y-91026695D01*
X59729571Y-90740980D02*
X59824809Y-90740980D01*
X59920047Y-90788600D01*
X59967666Y-90836219D01*
X60015285Y-90931457D01*
X60062904Y-91121933D01*
X60062904Y-91360028D01*
X60015285Y-91550504D01*
X59967666Y-91645742D01*
X59920047Y-91693361D01*
X59824809Y-91740980D01*
X59729571Y-91740980D01*
X59634333Y-91693361D01*
X59586714Y-91645742D01*
X59539095Y-91550504D01*
X59491476Y-91360028D01*
X59491476Y-91121933D01*
X59539095Y-90931457D01*
X59586714Y-90836219D01*
X59634333Y-90788600D01*
X59729571Y-90740980D01*
G04 #@! TO.C,U4*
X54595780Y-97383504D02*
X55405304Y-97383504D01*
X55500542Y-97335885D01*
X55548161Y-97288266D01*
X55595780Y-97193028D01*
X55595780Y-97002552D01*
X55548161Y-96907314D01*
X55500542Y-96859695D01*
X55405304Y-96812076D01*
X54595780Y-96812076D01*
X54929114Y-95907314D02*
X55595780Y-95907314D01*
X54548161Y-96145409D02*
X55262447Y-96383504D01*
X55262447Y-95764457D01*
G04 #@! TD*
M02*
