G04 #@! TF.GenerationSoftware,KiCad,Pcbnew,5.0.2-bee76a0~70~ubuntu18.04.1*
G04 #@! TF.CreationDate,2021-06-01T15:08:51-05:00*
G04 #@! TF.ProjectId,CO2_sensorboard_slave,434f325f-7365-46e7-936f-72626f617264,rev?*
G04 #@! TF.SameCoordinates,Original*
G04 #@! TF.FileFunction,Copper,L1,Top*
G04 #@! TF.FilePolarity,Positive*
%FSLAX46Y46*%
G04 Gerber Fmt 4.6, Leading zero omitted, Abs format (unit mm)*
G04 Created by KiCad (PCBNEW 5.0.2-bee76a0~70~ubuntu18.04.1) date Tue 01 Jun 2021 03:08:51 PM CDT*
%MOMM*%
%LPD*%
G01*
G04 APERTURE LIST*
G04 #@! TA.AperFunction,ComponentPad*
%ADD10R,1.600000X1.600000*%
G04 #@! TD*
G04 #@! TA.AperFunction,ComponentPad*
%ADD11O,1.600000X1.600000*%
G04 #@! TD*
G04 #@! TA.AperFunction,Conductor*
%ADD12C,0.100000*%
G04 #@! TD*
G04 #@! TA.AperFunction,SMDPad,CuDef*
%ADD13C,1.150000*%
G04 #@! TD*
G04 #@! TA.AperFunction,SMDPad,CuDef*
%ADD14R,1.900000X0.800000*%
G04 #@! TD*
G04 #@! TA.AperFunction,ComponentPad*
%ADD15R,1.700000X1.700000*%
G04 #@! TD*
G04 #@! TA.AperFunction,ComponentPad*
%ADD16O,1.700000X1.700000*%
G04 #@! TD*
G04 #@! TA.AperFunction,SMDPad,CuDef*
%ADD17R,0.650000X1.560000*%
G04 #@! TD*
G04 #@! TA.AperFunction,SMDPad,CuDef*
%ADD18R,1.560000X0.650000*%
G04 #@! TD*
G04 #@! TA.AperFunction,SMDPad,CuDef*
%ADD19R,1.550000X0.600000*%
G04 #@! TD*
G04 #@! TA.AperFunction,ComponentPad*
%ADD20C,2.540000*%
G04 #@! TD*
G04 #@! TA.AperFunction,ComponentPad*
%ADD21C,1.524000*%
G04 #@! TD*
G04 #@! TA.AperFunction,ComponentPad*
%ADD22C,6.000000*%
G04 #@! TD*
G04 #@! TA.AperFunction,ComponentPad*
%ADD23R,3.000000X3.000000*%
G04 #@! TD*
G04 #@! TA.AperFunction,ComponentPad*
%ADD24C,3.000000*%
G04 #@! TD*
G04 #@! TA.AperFunction,ViaPad*
%ADD25C,0.800000*%
G04 #@! TD*
G04 #@! TA.AperFunction,Conductor*
%ADD26C,0.250000*%
G04 #@! TD*
G04 #@! TA.AperFunction,Conductor*
%ADD27C,0.400000*%
G04 #@! TD*
G04 #@! TA.AperFunction,Conductor*
%ADD28C,0.254000*%
G04 #@! TD*
G04 APERTURE END LIST*
D10*
G04 #@! TO.P,A1,1*
G04 #@! TO.N,N/C*
X90259000Y-70574000D03*
D11*
G04 #@! TO.P,A1,17*
X57239000Y-85814000D03*
G04 #@! TO.P,A1,2*
X87719000Y-70574000D03*
G04 #@! TO.P,A1,18*
X59779000Y-85814000D03*
G04 #@! TO.P,A1,3*
X85179000Y-70574000D03*
G04 #@! TO.P,A1,19*
G04 #@! TO.N,CH4_ana*
X62319000Y-85814000D03*
G04 #@! TO.P,A1,4*
G04 #@! TO.N,GND*
X82639000Y-70574000D03*
G04 #@! TO.P,A1,20*
G04 #@! TO.N,N/C*
X64859000Y-85814000D03*
G04 #@! TO.P,A1,5*
G04 #@! TO.N,Net-(A1-Pad5)*
X80099000Y-70574000D03*
G04 #@! TO.P,A1,21*
G04 #@! TO.N,N/C*
X67399000Y-85814000D03*
G04 #@! TO.P,A1,6*
G04 #@! TO.N,Net-(A1-Pad6)*
X77559000Y-70574000D03*
G04 #@! TO.P,A1,22*
G04 #@! TO.N,N/C*
X69939000Y-85814000D03*
G04 #@! TO.P,A1,7*
X75019000Y-70574000D03*
G04 #@! TO.P,A1,23*
G04 #@! TO.N,S_SDA*
X72479000Y-85814000D03*
G04 #@! TO.P,A1,8*
G04 #@! TO.N,N/C*
X72479000Y-70574000D03*
G04 #@! TO.P,A1,24*
G04 #@! TO.N,S_SCL*
X75019000Y-85814000D03*
G04 #@! TO.P,A1,9*
G04 #@! TO.N,Net-(A1-Pad9)*
X69939000Y-70574000D03*
G04 #@! TO.P,A1,25*
G04 #@! TO.N,N/C*
X77559000Y-85814000D03*
G04 #@! TO.P,A1,10*
G04 #@! TO.N,CH4_en*
X67399000Y-70574000D03*
G04 #@! TO.P,A1,26*
G04 #@! TO.N,N/C*
X80099000Y-85814000D03*
G04 #@! TO.P,A1,11*
X64859000Y-70574000D03*
G04 #@! TO.P,A1,27*
G04 #@! TO.N,+5V*
X82639000Y-85814000D03*
G04 #@! TO.P,A1,12*
G04 #@! TO.N,SHTclk*
X62319000Y-70574000D03*
G04 #@! TO.P,A1,28*
G04 #@! TO.N,N/C*
X85179000Y-85814000D03*
G04 #@! TO.P,A1,13*
G04 #@! TO.N,SHTdata*
X59779000Y-70574000D03*
G04 #@! TO.P,A1,29*
G04 #@! TO.N,GND*
X87719000Y-85814000D03*
G04 #@! TO.P,A1,14*
G04 #@! TO.N,P_ana*
X57239000Y-70574000D03*
G04 #@! TO.P,A1,30*
G04 #@! TO.N,VCC*
X90259000Y-85814000D03*
G04 #@! TO.P,A1,15*
G04 #@! TO.N,bd_en*
X54699000Y-70574000D03*
G04 #@! TO.P,A1,16*
G04 #@! TO.N,pump_en*
X54699000Y-85814000D03*
G04 #@! TD*
D12*
G04 #@! TO.N,+5V*
G04 #@! TO.C,C1*
G36*
X55311505Y-65049204D02*
X55335773Y-65052804D01*
X55359572Y-65058765D01*
X55382671Y-65067030D01*
X55404850Y-65077520D01*
X55425893Y-65090132D01*
X55445599Y-65104747D01*
X55463777Y-65121223D01*
X55480253Y-65139401D01*
X55494868Y-65159107D01*
X55507480Y-65180150D01*
X55517970Y-65202329D01*
X55526235Y-65225428D01*
X55532196Y-65249227D01*
X55535796Y-65273495D01*
X55537000Y-65297999D01*
X55537000Y-66198001D01*
X55535796Y-66222505D01*
X55532196Y-66246773D01*
X55526235Y-66270572D01*
X55517970Y-66293671D01*
X55507480Y-66315850D01*
X55494868Y-66336893D01*
X55480253Y-66356599D01*
X55463777Y-66374777D01*
X55445599Y-66391253D01*
X55425893Y-66405868D01*
X55404850Y-66418480D01*
X55382671Y-66428970D01*
X55359572Y-66437235D01*
X55335773Y-66443196D01*
X55311505Y-66446796D01*
X55287001Y-66448000D01*
X54636999Y-66448000D01*
X54612495Y-66446796D01*
X54588227Y-66443196D01*
X54564428Y-66437235D01*
X54541329Y-66428970D01*
X54519150Y-66418480D01*
X54498107Y-66405868D01*
X54478401Y-66391253D01*
X54460223Y-66374777D01*
X54443747Y-66356599D01*
X54429132Y-66336893D01*
X54416520Y-66315850D01*
X54406030Y-66293671D01*
X54397765Y-66270572D01*
X54391804Y-66246773D01*
X54388204Y-66222505D01*
X54387000Y-66198001D01*
X54387000Y-65297999D01*
X54388204Y-65273495D01*
X54391804Y-65249227D01*
X54397765Y-65225428D01*
X54406030Y-65202329D01*
X54416520Y-65180150D01*
X54429132Y-65159107D01*
X54443747Y-65139401D01*
X54460223Y-65121223D01*
X54478401Y-65104747D01*
X54498107Y-65090132D01*
X54519150Y-65077520D01*
X54541329Y-65067030D01*
X54564428Y-65058765D01*
X54588227Y-65052804D01*
X54612495Y-65049204D01*
X54636999Y-65048000D01*
X55287001Y-65048000D01*
X55311505Y-65049204D01*
X55311505Y-65049204D01*
G37*
D13*
G04 #@! TD*
G04 #@! TO.P,C1,1*
G04 #@! TO.N,+5V*
X54962000Y-65748000D03*
D12*
G04 #@! TO.N,GND*
G04 #@! TO.C,C1*
G36*
X53261505Y-65049204D02*
X53285773Y-65052804D01*
X53309572Y-65058765D01*
X53332671Y-65067030D01*
X53354850Y-65077520D01*
X53375893Y-65090132D01*
X53395599Y-65104747D01*
X53413777Y-65121223D01*
X53430253Y-65139401D01*
X53444868Y-65159107D01*
X53457480Y-65180150D01*
X53467970Y-65202329D01*
X53476235Y-65225428D01*
X53482196Y-65249227D01*
X53485796Y-65273495D01*
X53487000Y-65297999D01*
X53487000Y-66198001D01*
X53485796Y-66222505D01*
X53482196Y-66246773D01*
X53476235Y-66270572D01*
X53467970Y-66293671D01*
X53457480Y-66315850D01*
X53444868Y-66336893D01*
X53430253Y-66356599D01*
X53413777Y-66374777D01*
X53395599Y-66391253D01*
X53375893Y-66405868D01*
X53354850Y-66418480D01*
X53332671Y-66428970D01*
X53309572Y-66437235D01*
X53285773Y-66443196D01*
X53261505Y-66446796D01*
X53237001Y-66448000D01*
X52586999Y-66448000D01*
X52562495Y-66446796D01*
X52538227Y-66443196D01*
X52514428Y-66437235D01*
X52491329Y-66428970D01*
X52469150Y-66418480D01*
X52448107Y-66405868D01*
X52428401Y-66391253D01*
X52410223Y-66374777D01*
X52393747Y-66356599D01*
X52379132Y-66336893D01*
X52366520Y-66315850D01*
X52356030Y-66293671D01*
X52347765Y-66270572D01*
X52341804Y-66246773D01*
X52338204Y-66222505D01*
X52337000Y-66198001D01*
X52337000Y-65297999D01*
X52338204Y-65273495D01*
X52341804Y-65249227D01*
X52347765Y-65225428D01*
X52356030Y-65202329D01*
X52366520Y-65180150D01*
X52379132Y-65159107D01*
X52393747Y-65139401D01*
X52410223Y-65121223D01*
X52428401Y-65104747D01*
X52448107Y-65090132D01*
X52469150Y-65077520D01*
X52491329Y-65067030D01*
X52514428Y-65058765D01*
X52538227Y-65052804D01*
X52562495Y-65049204D01*
X52586999Y-65048000D01*
X53237001Y-65048000D01*
X53261505Y-65049204D01*
X53261505Y-65049204D01*
G37*
D13*
G04 #@! TD*
G04 #@! TO.P,C1,2*
G04 #@! TO.N,GND*
X52912000Y-65748000D03*
D12*
G04 #@! TO.N,VCC*
G04 #@! TO.C,C2*
G36*
X78287505Y-62897204D02*
X78311773Y-62900804D01*
X78335572Y-62906765D01*
X78358671Y-62915030D01*
X78380850Y-62925520D01*
X78401893Y-62938132D01*
X78421599Y-62952747D01*
X78439777Y-62969223D01*
X78456253Y-62987401D01*
X78470868Y-63007107D01*
X78483480Y-63028150D01*
X78493970Y-63050329D01*
X78502235Y-63073428D01*
X78508196Y-63097227D01*
X78511796Y-63121495D01*
X78513000Y-63145999D01*
X78513000Y-63796001D01*
X78511796Y-63820505D01*
X78508196Y-63844773D01*
X78502235Y-63868572D01*
X78493970Y-63891671D01*
X78483480Y-63913850D01*
X78470868Y-63934893D01*
X78456253Y-63954599D01*
X78439777Y-63972777D01*
X78421599Y-63989253D01*
X78401893Y-64003868D01*
X78380850Y-64016480D01*
X78358671Y-64026970D01*
X78335572Y-64035235D01*
X78311773Y-64041196D01*
X78287505Y-64044796D01*
X78263001Y-64046000D01*
X77362999Y-64046000D01*
X77338495Y-64044796D01*
X77314227Y-64041196D01*
X77290428Y-64035235D01*
X77267329Y-64026970D01*
X77245150Y-64016480D01*
X77224107Y-64003868D01*
X77204401Y-63989253D01*
X77186223Y-63972777D01*
X77169747Y-63954599D01*
X77155132Y-63934893D01*
X77142520Y-63913850D01*
X77132030Y-63891671D01*
X77123765Y-63868572D01*
X77117804Y-63844773D01*
X77114204Y-63820505D01*
X77113000Y-63796001D01*
X77113000Y-63145999D01*
X77114204Y-63121495D01*
X77117804Y-63097227D01*
X77123765Y-63073428D01*
X77132030Y-63050329D01*
X77142520Y-63028150D01*
X77155132Y-63007107D01*
X77169747Y-62987401D01*
X77186223Y-62969223D01*
X77204401Y-62952747D01*
X77224107Y-62938132D01*
X77245150Y-62925520D01*
X77267329Y-62915030D01*
X77290428Y-62906765D01*
X77314227Y-62900804D01*
X77338495Y-62897204D01*
X77362999Y-62896000D01*
X78263001Y-62896000D01*
X78287505Y-62897204D01*
X78287505Y-62897204D01*
G37*
D13*
G04 #@! TD*
G04 #@! TO.P,C2,1*
G04 #@! TO.N,VCC*
X77813000Y-63471000D03*
D12*
G04 #@! TO.N,GND*
G04 #@! TO.C,C2*
G36*
X78287505Y-60847204D02*
X78311773Y-60850804D01*
X78335572Y-60856765D01*
X78358671Y-60865030D01*
X78380850Y-60875520D01*
X78401893Y-60888132D01*
X78421599Y-60902747D01*
X78439777Y-60919223D01*
X78456253Y-60937401D01*
X78470868Y-60957107D01*
X78483480Y-60978150D01*
X78493970Y-61000329D01*
X78502235Y-61023428D01*
X78508196Y-61047227D01*
X78511796Y-61071495D01*
X78513000Y-61095999D01*
X78513000Y-61746001D01*
X78511796Y-61770505D01*
X78508196Y-61794773D01*
X78502235Y-61818572D01*
X78493970Y-61841671D01*
X78483480Y-61863850D01*
X78470868Y-61884893D01*
X78456253Y-61904599D01*
X78439777Y-61922777D01*
X78421599Y-61939253D01*
X78401893Y-61953868D01*
X78380850Y-61966480D01*
X78358671Y-61976970D01*
X78335572Y-61985235D01*
X78311773Y-61991196D01*
X78287505Y-61994796D01*
X78263001Y-61996000D01*
X77362999Y-61996000D01*
X77338495Y-61994796D01*
X77314227Y-61991196D01*
X77290428Y-61985235D01*
X77267329Y-61976970D01*
X77245150Y-61966480D01*
X77224107Y-61953868D01*
X77204401Y-61939253D01*
X77186223Y-61922777D01*
X77169747Y-61904599D01*
X77155132Y-61884893D01*
X77142520Y-61863850D01*
X77132030Y-61841671D01*
X77123765Y-61818572D01*
X77117804Y-61794773D01*
X77114204Y-61770505D01*
X77113000Y-61746001D01*
X77113000Y-61095999D01*
X77114204Y-61071495D01*
X77117804Y-61047227D01*
X77123765Y-61023428D01*
X77132030Y-61000329D01*
X77142520Y-60978150D01*
X77155132Y-60957107D01*
X77169747Y-60937401D01*
X77186223Y-60919223D01*
X77204401Y-60902747D01*
X77224107Y-60888132D01*
X77245150Y-60875520D01*
X77267329Y-60865030D01*
X77290428Y-60856765D01*
X77314227Y-60850804D01*
X77338495Y-60847204D01*
X77362999Y-60846000D01*
X78263001Y-60846000D01*
X78287505Y-60847204D01*
X78287505Y-60847204D01*
G37*
D13*
G04 #@! TD*
G04 #@! TO.P,C2,2*
G04 #@! TO.N,GND*
X77813000Y-61421000D03*
D12*
G04 #@! TO.N,GND*
G04 #@! TO.C,C3*
G36*
X54030505Y-53980204D02*
X54054773Y-53983804D01*
X54078572Y-53989765D01*
X54101671Y-53998030D01*
X54123850Y-54008520D01*
X54144893Y-54021132D01*
X54164599Y-54035747D01*
X54182777Y-54052223D01*
X54199253Y-54070401D01*
X54213868Y-54090107D01*
X54226480Y-54111150D01*
X54236970Y-54133329D01*
X54245235Y-54156428D01*
X54251196Y-54180227D01*
X54254796Y-54204495D01*
X54256000Y-54228999D01*
X54256000Y-54879001D01*
X54254796Y-54903505D01*
X54251196Y-54927773D01*
X54245235Y-54951572D01*
X54236970Y-54974671D01*
X54226480Y-54996850D01*
X54213868Y-55017893D01*
X54199253Y-55037599D01*
X54182777Y-55055777D01*
X54164599Y-55072253D01*
X54144893Y-55086868D01*
X54123850Y-55099480D01*
X54101671Y-55109970D01*
X54078572Y-55118235D01*
X54054773Y-55124196D01*
X54030505Y-55127796D01*
X54006001Y-55129000D01*
X53105999Y-55129000D01*
X53081495Y-55127796D01*
X53057227Y-55124196D01*
X53033428Y-55118235D01*
X53010329Y-55109970D01*
X52988150Y-55099480D01*
X52967107Y-55086868D01*
X52947401Y-55072253D01*
X52929223Y-55055777D01*
X52912747Y-55037599D01*
X52898132Y-55017893D01*
X52885520Y-54996850D01*
X52875030Y-54974671D01*
X52866765Y-54951572D01*
X52860804Y-54927773D01*
X52857204Y-54903505D01*
X52856000Y-54879001D01*
X52856000Y-54228999D01*
X52857204Y-54204495D01*
X52860804Y-54180227D01*
X52866765Y-54156428D01*
X52875030Y-54133329D01*
X52885520Y-54111150D01*
X52898132Y-54090107D01*
X52912747Y-54070401D01*
X52929223Y-54052223D01*
X52947401Y-54035747D01*
X52967107Y-54021132D01*
X52988150Y-54008520D01*
X53010329Y-53998030D01*
X53033428Y-53989765D01*
X53057227Y-53983804D01*
X53081495Y-53980204D01*
X53105999Y-53979000D01*
X54006001Y-53979000D01*
X54030505Y-53980204D01*
X54030505Y-53980204D01*
G37*
D13*
G04 #@! TD*
G04 #@! TO.P,C3,2*
G04 #@! TO.N,GND*
X53556000Y-54554000D03*
D12*
G04 #@! TO.N,Net-(C3-Pad1)*
G04 #@! TO.C,C3*
G36*
X54030505Y-56030204D02*
X54054773Y-56033804D01*
X54078572Y-56039765D01*
X54101671Y-56048030D01*
X54123850Y-56058520D01*
X54144893Y-56071132D01*
X54164599Y-56085747D01*
X54182777Y-56102223D01*
X54199253Y-56120401D01*
X54213868Y-56140107D01*
X54226480Y-56161150D01*
X54236970Y-56183329D01*
X54245235Y-56206428D01*
X54251196Y-56230227D01*
X54254796Y-56254495D01*
X54256000Y-56278999D01*
X54256000Y-56929001D01*
X54254796Y-56953505D01*
X54251196Y-56977773D01*
X54245235Y-57001572D01*
X54236970Y-57024671D01*
X54226480Y-57046850D01*
X54213868Y-57067893D01*
X54199253Y-57087599D01*
X54182777Y-57105777D01*
X54164599Y-57122253D01*
X54144893Y-57136868D01*
X54123850Y-57149480D01*
X54101671Y-57159970D01*
X54078572Y-57168235D01*
X54054773Y-57174196D01*
X54030505Y-57177796D01*
X54006001Y-57179000D01*
X53105999Y-57179000D01*
X53081495Y-57177796D01*
X53057227Y-57174196D01*
X53033428Y-57168235D01*
X53010329Y-57159970D01*
X52988150Y-57149480D01*
X52967107Y-57136868D01*
X52947401Y-57122253D01*
X52929223Y-57105777D01*
X52912747Y-57087599D01*
X52898132Y-57067893D01*
X52885520Y-57046850D01*
X52875030Y-57024671D01*
X52866765Y-57001572D01*
X52860804Y-56977773D01*
X52857204Y-56953505D01*
X52856000Y-56929001D01*
X52856000Y-56278999D01*
X52857204Y-56254495D01*
X52860804Y-56230227D01*
X52866765Y-56206428D01*
X52875030Y-56183329D01*
X52885520Y-56161150D01*
X52898132Y-56140107D01*
X52912747Y-56120401D01*
X52929223Y-56102223D01*
X52947401Y-56085747D01*
X52967107Y-56071132D01*
X52988150Y-56058520D01*
X53010329Y-56048030D01*
X53033428Y-56039765D01*
X53057227Y-56033804D01*
X53081495Y-56030204D01*
X53105999Y-56029000D01*
X54006001Y-56029000D01*
X54030505Y-56030204D01*
X54030505Y-56030204D01*
G37*
D13*
G04 #@! TD*
G04 #@! TO.P,C3,1*
G04 #@! TO.N,Net-(C3-Pad1)*
X53556000Y-56604000D03*
D12*
G04 #@! TO.N,GND*
G04 #@! TO.C,C4*
G36*
X73853505Y-60731204D02*
X73877773Y-60734804D01*
X73901572Y-60740765D01*
X73924671Y-60749030D01*
X73946850Y-60759520D01*
X73967893Y-60772132D01*
X73987599Y-60786747D01*
X74005777Y-60803223D01*
X74022253Y-60821401D01*
X74036868Y-60841107D01*
X74049480Y-60862150D01*
X74059970Y-60884329D01*
X74068235Y-60907428D01*
X74074196Y-60931227D01*
X74077796Y-60955495D01*
X74079000Y-60979999D01*
X74079000Y-61880001D01*
X74077796Y-61904505D01*
X74074196Y-61928773D01*
X74068235Y-61952572D01*
X74059970Y-61975671D01*
X74049480Y-61997850D01*
X74036868Y-62018893D01*
X74022253Y-62038599D01*
X74005777Y-62056777D01*
X73987599Y-62073253D01*
X73967893Y-62087868D01*
X73946850Y-62100480D01*
X73924671Y-62110970D01*
X73901572Y-62119235D01*
X73877773Y-62125196D01*
X73853505Y-62128796D01*
X73829001Y-62130000D01*
X73178999Y-62130000D01*
X73154495Y-62128796D01*
X73130227Y-62125196D01*
X73106428Y-62119235D01*
X73083329Y-62110970D01*
X73061150Y-62100480D01*
X73040107Y-62087868D01*
X73020401Y-62073253D01*
X73002223Y-62056777D01*
X72985747Y-62038599D01*
X72971132Y-62018893D01*
X72958520Y-61997850D01*
X72948030Y-61975671D01*
X72939765Y-61952572D01*
X72933804Y-61928773D01*
X72930204Y-61904505D01*
X72929000Y-61880001D01*
X72929000Y-60979999D01*
X72930204Y-60955495D01*
X72933804Y-60931227D01*
X72939765Y-60907428D01*
X72948030Y-60884329D01*
X72958520Y-60862150D01*
X72971132Y-60841107D01*
X72985747Y-60821401D01*
X73002223Y-60803223D01*
X73020401Y-60786747D01*
X73040107Y-60772132D01*
X73061150Y-60759520D01*
X73083329Y-60749030D01*
X73106428Y-60740765D01*
X73130227Y-60734804D01*
X73154495Y-60731204D01*
X73178999Y-60730000D01*
X73829001Y-60730000D01*
X73853505Y-60731204D01*
X73853505Y-60731204D01*
G37*
D13*
G04 #@! TD*
G04 #@! TO.P,C4,2*
G04 #@! TO.N,GND*
X73504000Y-61430000D03*
D12*
G04 #@! TO.N,Net-(C4-Pad1)*
G04 #@! TO.C,C4*
G36*
X71803505Y-60731204D02*
X71827773Y-60734804D01*
X71851572Y-60740765D01*
X71874671Y-60749030D01*
X71896850Y-60759520D01*
X71917893Y-60772132D01*
X71937599Y-60786747D01*
X71955777Y-60803223D01*
X71972253Y-60821401D01*
X71986868Y-60841107D01*
X71999480Y-60862150D01*
X72009970Y-60884329D01*
X72018235Y-60907428D01*
X72024196Y-60931227D01*
X72027796Y-60955495D01*
X72029000Y-60979999D01*
X72029000Y-61880001D01*
X72027796Y-61904505D01*
X72024196Y-61928773D01*
X72018235Y-61952572D01*
X72009970Y-61975671D01*
X71999480Y-61997850D01*
X71986868Y-62018893D01*
X71972253Y-62038599D01*
X71955777Y-62056777D01*
X71937599Y-62073253D01*
X71917893Y-62087868D01*
X71896850Y-62100480D01*
X71874671Y-62110970D01*
X71851572Y-62119235D01*
X71827773Y-62125196D01*
X71803505Y-62128796D01*
X71779001Y-62130000D01*
X71128999Y-62130000D01*
X71104495Y-62128796D01*
X71080227Y-62125196D01*
X71056428Y-62119235D01*
X71033329Y-62110970D01*
X71011150Y-62100480D01*
X70990107Y-62087868D01*
X70970401Y-62073253D01*
X70952223Y-62056777D01*
X70935747Y-62038599D01*
X70921132Y-62018893D01*
X70908520Y-61997850D01*
X70898030Y-61975671D01*
X70889765Y-61952572D01*
X70883804Y-61928773D01*
X70880204Y-61904505D01*
X70879000Y-61880001D01*
X70879000Y-60979999D01*
X70880204Y-60955495D01*
X70883804Y-60931227D01*
X70889765Y-60907428D01*
X70898030Y-60884329D01*
X70908520Y-60862150D01*
X70921132Y-60841107D01*
X70935747Y-60821401D01*
X70952223Y-60803223D01*
X70970401Y-60786747D01*
X70990107Y-60772132D01*
X71011150Y-60759520D01*
X71033329Y-60749030D01*
X71056428Y-60740765D01*
X71080227Y-60734804D01*
X71104495Y-60731204D01*
X71128999Y-60730000D01*
X71779001Y-60730000D01*
X71803505Y-60731204D01*
X71803505Y-60731204D01*
G37*
D13*
G04 #@! TD*
G04 #@! TO.P,C4,1*
G04 #@! TO.N,Net-(C4-Pad1)*
X71454000Y-61430000D03*
D12*
G04 #@! TO.N,+5V*
G04 #@! TO.C,C5*
G36*
X91100105Y-58775404D02*
X91124373Y-58779004D01*
X91148172Y-58784965D01*
X91171271Y-58793230D01*
X91193450Y-58803720D01*
X91214493Y-58816332D01*
X91234199Y-58830947D01*
X91252377Y-58847423D01*
X91268853Y-58865601D01*
X91283468Y-58885307D01*
X91296080Y-58906350D01*
X91306570Y-58928529D01*
X91314835Y-58951628D01*
X91320796Y-58975427D01*
X91324396Y-58999695D01*
X91325600Y-59024199D01*
X91325600Y-59924201D01*
X91324396Y-59948705D01*
X91320796Y-59972973D01*
X91314835Y-59996772D01*
X91306570Y-60019871D01*
X91296080Y-60042050D01*
X91283468Y-60063093D01*
X91268853Y-60082799D01*
X91252377Y-60100977D01*
X91234199Y-60117453D01*
X91214493Y-60132068D01*
X91193450Y-60144680D01*
X91171271Y-60155170D01*
X91148172Y-60163435D01*
X91124373Y-60169396D01*
X91100105Y-60172996D01*
X91075601Y-60174200D01*
X90425599Y-60174200D01*
X90401095Y-60172996D01*
X90376827Y-60169396D01*
X90353028Y-60163435D01*
X90329929Y-60155170D01*
X90307750Y-60144680D01*
X90286707Y-60132068D01*
X90267001Y-60117453D01*
X90248823Y-60100977D01*
X90232347Y-60082799D01*
X90217732Y-60063093D01*
X90205120Y-60042050D01*
X90194630Y-60019871D01*
X90186365Y-59996772D01*
X90180404Y-59972973D01*
X90176804Y-59948705D01*
X90175600Y-59924201D01*
X90175600Y-59024199D01*
X90176804Y-58999695D01*
X90180404Y-58975427D01*
X90186365Y-58951628D01*
X90194630Y-58928529D01*
X90205120Y-58906350D01*
X90217732Y-58885307D01*
X90232347Y-58865601D01*
X90248823Y-58847423D01*
X90267001Y-58830947D01*
X90286707Y-58816332D01*
X90307750Y-58803720D01*
X90329929Y-58793230D01*
X90353028Y-58784965D01*
X90376827Y-58779004D01*
X90401095Y-58775404D01*
X90425599Y-58774200D01*
X91075601Y-58774200D01*
X91100105Y-58775404D01*
X91100105Y-58775404D01*
G37*
D13*
G04 #@! TD*
G04 #@! TO.P,C5,1*
G04 #@! TO.N,+5V*
X90750600Y-59474200D03*
D12*
G04 #@! TO.N,GND*
G04 #@! TO.C,C5*
G36*
X89050105Y-58775404D02*
X89074373Y-58779004D01*
X89098172Y-58784965D01*
X89121271Y-58793230D01*
X89143450Y-58803720D01*
X89164493Y-58816332D01*
X89184199Y-58830947D01*
X89202377Y-58847423D01*
X89218853Y-58865601D01*
X89233468Y-58885307D01*
X89246080Y-58906350D01*
X89256570Y-58928529D01*
X89264835Y-58951628D01*
X89270796Y-58975427D01*
X89274396Y-58999695D01*
X89275600Y-59024199D01*
X89275600Y-59924201D01*
X89274396Y-59948705D01*
X89270796Y-59972973D01*
X89264835Y-59996772D01*
X89256570Y-60019871D01*
X89246080Y-60042050D01*
X89233468Y-60063093D01*
X89218853Y-60082799D01*
X89202377Y-60100977D01*
X89184199Y-60117453D01*
X89164493Y-60132068D01*
X89143450Y-60144680D01*
X89121271Y-60155170D01*
X89098172Y-60163435D01*
X89074373Y-60169396D01*
X89050105Y-60172996D01*
X89025601Y-60174200D01*
X88375599Y-60174200D01*
X88351095Y-60172996D01*
X88326827Y-60169396D01*
X88303028Y-60163435D01*
X88279929Y-60155170D01*
X88257750Y-60144680D01*
X88236707Y-60132068D01*
X88217001Y-60117453D01*
X88198823Y-60100977D01*
X88182347Y-60082799D01*
X88167732Y-60063093D01*
X88155120Y-60042050D01*
X88144630Y-60019871D01*
X88136365Y-59996772D01*
X88130404Y-59972973D01*
X88126804Y-59948705D01*
X88125600Y-59924201D01*
X88125600Y-59024199D01*
X88126804Y-58999695D01*
X88130404Y-58975427D01*
X88136365Y-58951628D01*
X88144630Y-58928529D01*
X88155120Y-58906350D01*
X88167732Y-58885307D01*
X88182347Y-58865601D01*
X88198823Y-58847423D01*
X88217001Y-58830947D01*
X88236707Y-58816332D01*
X88257750Y-58803720D01*
X88279929Y-58793230D01*
X88303028Y-58784965D01*
X88326827Y-58779004D01*
X88351095Y-58775404D01*
X88375599Y-58774200D01*
X89025601Y-58774200D01*
X89050105Y-58775404D01*
X89050105Y-58775404D01*
G37*
D13*
G04 #@! TD*
G04 #@! TO.P,C5,2*
G04 #@! TO.N,GND*
X88700600Y-59474200D03*
D14*
G04 #@! TO.P,D1,1*
G04 #@! TO.N,Net-(D1-Pad1)*
X104078000Y-55395000D03*
G04 #@! TO.P,D1,2*
G04 #@! TO.N,Net-(D1-Pad2)*
X104078000Y-53495000D03*
G04 #@! TO.P,D1,3*
G04 #@! TO.N,GND*
X101078000Y-54445000D03*
G04 #@! TD*
D15*
G04 #@! TO.P,J1,1*
G04 #@! TO.N,Net-(C3-Pad1)*
X59470000Y-52570000D03*
D16*
G04 #@! TO.P,J1,2*
G04 #@! TO.N,GND*
X59470000Y-50030000D03*
G04 #@! TO.P,J1,3*
G04 #@! TO.N,Net-(C3-Pad1)*
X62010000Y-52570000D03*
G04 #@! TO.P,J1,4*
G04 #@! TO.N,GND*
X62010000Y-50030000D03*
G04 #@! TO.P,J1,5*
G04 #@! TO.N,CH4_ana*
X64550000Y-52570000D03*
G04 #@! TO.P,J1,6*
G04 #@! TO.N,GND*
X64550000Y-50030000D03*
G04 #@! TO.P,J1,7*
G04 #@! TO.N,P_ana*
X67090000Y-52570000D03*
G04 #@! TO.P,J1,8*
G04 #@! TO.N,GND*
X67090000Y-50030000D03*
G04 #@! TO.P,J1,9*
G04 #@! TO.N,SHTdata*
X69630000Y-52570000D03*
G04 #@! TO.P,J1,10*
G04 #@! TO.N,GND*
X69630000Y-50030000D03*
G04 #@! TO.P,J1,11*
G04 #@! TO.N,SHTclk*
X72170000Y-52570000D03*
G04 #@! TO.P,J1,12*
G04 #@! TO.N,GND*
X72170000Y-50030000D03*
G04 #@! TO.P,J1,13*
G04 #@! TO.N,S_SCL*
X74710000Y-52570000D03*
G04 #@! TO.P,J1,14*
G04 #@! TO.N,GND*
X74710000Y-50030000D03*
G04 #@! TO.P,J1,15*
G04 #@! TO.N,S_SDA*
X77250000Y-52570000D03*
G04 #@! TO.P,J1,16*
G04 #@! TO.N,GND*
X77250000Y-50030000D03*
G04 #@! TO.P,J1,17*
G04 #@! TO.N,Net-(C4-Pad1)*
X79790000Y-52570000D03*
G04 #@! TO.P,J1,18*
X79790000Y-50030000D03*
G04 #@! TO.P,J1,19*
X82330000Y-52570000D03*
G04 #@! TO.P,J1,20*
X82330000Y-50030000D03*
G04 #@! TD*
D12*
G04 #@! TO.N,+5V*
G04 #@! TO.C,R1*
G36*
X51109505Y-61119204D02*
X51133773Y-61122804D01*
X51157572Y-61128765D01*
X51180671Y-61137030D01*
X51202850Y-61147520D01*
X51223893Y-61160132D01*
X51243599Y-61174747D01*
X51261777Y-61191223D01*
X51278253Y-61209401D01*
X51292868Y-61229107D01*
X51305480Y-61250150D01*
X51315970Y-61272329D01*
X51324235Y-61295428D01*
X51330196Y-61319227D01*
X51333796Y-61343495D01*
X51335000Y-61367999D01*
X51335000Y-62018001D01*
X51333796Y-62042505D01*
X51330196Y-62066773D01*
X51324235Y-62090572D01*
X51315970Y-62113671D01*
X51305480Y-62135850D01*
X51292868Y-62156893D01*
X51278253Y-62176599D01*
X51261777Y-62194777D01*
X51243599Y-62211253D01*
X51223893Y-62225868D01*
X51202850Y-62238480D01*
X51180671Y-62248970D01*
X51157572Y-62257235D01*
X51133773Y-62263196D01*
X51109505Y-62266796D01*
X51085001Y-62268000D01*
X50184999Y-62268000D01*
X50160495Y-62266796D01*
X50136227Y-62263196D01*
X50112428Y-62257235D01*
X50089329Y-62248970D01*
X50067150Y-62238480D01*
X50046107Y-62225868D01*
X50026401Y-62211253D01*
X50008223Y-62194777D01*
X49991747Y-62176599D01*
X49977132Y-62156893D01*
X49964520Y-62135850D01*
X49954030Y-62113671D01*
X49945765Y-62090572D01*
X49939804Y-62066773D01*
X49936204Y-62042505D01*
X49935000Y-62018001D01*
X49935000Y-61367999D01*
X49936204Y-61343495D01*
X49939804Y-61319227D01*
X49945765Y-61295428D01*
X49954030Y-61272329D01*
X49964520Y-61250150D01*
X49977132Y-61229107D01*
X49991747Y-61209401D01*
X50008223Y-61191223D01*
X50026401Y-61174747D01*
X50046107Y-61160132D01*
X50067150Y-61147520D01*
X50089329Y-61137030D01*
X50112428Y-61128765D01*
X50136227Y-61122804D01*
X50160495Y-61119204D01*
X50184999Y-61118000D01*
X51085001Y-61118000D01*
X51109505Y-61119204D01*
X51109505Y-61119204D01*
G37*
D13*
G04 #@! TD*
G04 #@! TO.P,R1,1*
G04 #@! TO.N,+5V*
X50635000Y-61693000D03*
D12*
G04 #@! TO.N,Net-(R1-Pad2)*
G04 #@! TO.C,R1*
G36*
X51109505Y-59069204D02*
X51133773Y-59072804D01*
X51157572Y-59078765D01*
X51180671Y-59087030D01*
X51202850Y-59097520D01*
X51223893Y-59110132D01*
X51243599Y-59124747D01*
X51261777Y-59141223D01*
X51278253Y-59159401D01*
X51292868Y-59179107D01*
X51305480Y-59200150D01*
X51315970Y-59222329D01*
X51324235Y-59245428D01*
X51330196Y-59269227D01*
X51333796Y-59293495D01*
X51335000Y-59317999D01*
X51335000Y-59968001D01*
X51333796Y-59992505D01*
X51330196Y-60016773D01*
X51324235Y-60040572D01*
X51315970Y-60063671D01*
X51305480Y-60085850D01*
X51292868Y-60106893D01*
X51278253Y-60126599D01*
X51261777Y-60144777D01*
X51243599Y-60161253D01*
X51223893Y-60175868D01*
X51202850Y-60188480D01*
X51180671Y-60198970D01*
X51157572Y-60207235D01*
X51133773Y-60213196D01*
X51109505Y-60216796D01*
X51085001Y-60218000D01*
X50184999Y-60218000D01*
X50160495Y-60216796D01*
X50136227Y-60213196D01*
X50112428Y-60207235D01*
X50089329Y-60198970D01*
X50067150Y-60188480D01*
X50046107Y-60175868D01*
X50026401Y-60161253D01*
X50008223Y-60144777D01*
X49991747Y-60126599D01*
X49977132Y-60106893D01*
X49964520Y-60085850D01*
X49954030Y-60063671D01*
X49945765Y-60040572D01*
X49939804Y-60016773D01*
X49936204Y-59992505D01*
X49935000Y-59968001D01*
X49935000Y-59317999D01*
X49936204Y-59293495D01*
X49939804Y-59269227D01*
X49945765Y-59245428D01*
X49954030Y-59222329D01*
X49964520Y-59200150D01*
X49977132Y-59179107D01*
X49991747Y-59159401D01*
X50008223Y-59141223D01*
X50026401Y-59124747D01*
X50046107Y-59110132D01*
X50067150Y-59097520D01*
X50089329Y-59087030D01*
X50112428Y-59078765D01*
X50136227Y-59072804D01*
X50160495Y-59069204D01*
X50184999Y-59068000D01*
X51085001Y-59068000D01*
X51109505Y-59069204D01*
X51109505Y-59069204D01*
G37*
D13*
G04 #@! TD*
G04 #@! TO.P,R1,2*
G04 #@! TO.N,Net-(R1-Pad2)*
X50635000Y-59643000D03*
D12*
G04 #@! TO.N,VCC*
G04 #@! TO.C,R2*
G36*
X78287505Y-65165204D02*
X78311773Y-65168804D01*
X78335572Y-65174765D01*
X78358671Y-65183030D01*
X78380850Y-65193520D01*
X78401893Y-65206132D01*
X78421599Y-65220747D01*
X78439777Y-65237223D01*
X78456253Y-65255401D01*
X78470868Y-65275107D01*
X78483480Y-65296150D01*
X78493970Y-65318329D01*
X78502235Y-65341428D01*
X78508196Y-65365227D01*
X78511796Y-65389495D01*
X78513000Y-65413999D01*
X78513000Y-66064001D01*
X78511796Y-66088505D01*
X78508196Y-66112773D01*
X78502235Y-66136572D01*
X78493970Y-66159671D01*
X78483480Y-66181850D01*
X78470868Y-66202893D01*
X78456253Y-66222599D01*
X78439777Y-66240777D01*
X78421599Y-66257253D01*
X78401893Y-66271868D01*
X78380850Y-66284480D01*
X78358671Y-66294970D01*
X78335572Y-66303235D01*
X78311773Y-66309196D01*
X78287505Y-66312796D01*
X78263001Y-66314000D01*
X77362999Y-66314000D01*
X77338495Y-66312796D01*
X77314227Y-66309196D01*
X77290428Y-66303235D01*
X77267329Y-66294970D01*
X77245150Y-66284480D01*
X77224107Y-66271868D01*
X77204401Y-66257253D01*
X77186223Y-66240777D01*
X77169747Y-66222599D01*
X77155132Y-66202893D01*
X77142520Y-66181850D01*
X77132030Y-66159671D01*
X77123765Y-66136572D01*
X77117804Y-66112773D01*
X77114204Y-66088505D01*
X77113000Y-66064001D01*
X77113000Y-65413999D01*
X77114204Y-65389495D01*
X77117804Y-65365227D01*
X77123765Y-65341428D01*
X77132030Y-65318329D01*
X77142520Y-65296150D01*
X77155132Y-65275107D01*
X77169747Y-65255401D01*
X77186223Y-65237223D01*
X77204401Y-65220747D01*
X77224107Y-65206132D01*
X77245150Y-65193520D01*
X77267329Y-65183030D01*
X77290428Y-65174765D01*
X77314227Y-65168804D01*
X77338495Y-65165204D01*
X77362999Y-65164000D01*
X78263001Y-65164000D01*
X78287505Y-65165204D01*
X78287505Y-65165204D01*
G37*
D13*
G04 #@! TD*
G04 #@! TO.P,R2,1*
G04 #@! TO.N,VCC*
X77813000Y-65739000D03*
D12*
G04 #@! TO.N,Net-(R2-Pad2)*
G04 #@! TO.C,R2*
G36*
X78287505Y-67215204D02*
X78311773Y-67218804D01*
X78335572Y-67224765D01*
X78358671Y-67233030D01*
X78380850Y-67243520D01*
X78401893Y-67256132D01*
X78421599Y-67270747D01*
X78439777Y-67287223D01*
X78456253Y-67305401D01*
X78470868Y-67325107D01*
X78483480Y-67346150D01*
X78493970Y-67368329D01*
X78502235Y-67391428D01*
X78508196Y-67415227D01*
X78511796Y-67439495D01*
X78513000Y-67463999D01*
X78513000Y-68114001D01*
X78511796Y-68138505D01*
X78508196Y-68162773D01*
X78502235Y-68186572D01*
X78493970Y-68209671D01*
X78483480Y-68231850D01*
X78470868Y-68252893D01*
X78456253Y-68272599D01*
X78439777Y-68290777D01*
X78421599Y-68307253D01*
X78401893Y-68321868D01*
X78380850Y-68334480D01*
X78358671Y-68344970D01*
X78335572Y-68353235D01*
X78311773Y-68359196D01*
X78287505Y-68362796D01*
X78263001Y-68364000D01*
X77362999Y-68364000D01*
X77338495Y-68362796D01*
X77314227Y-68359196D01*
X77290428Y-68353235D01*
X77267329Y-68344970D01*
X77245150Y-68334480D01*
X77224107Y-68321868D01*
X77204401Y-68307253D01*
X77186223Y-68290777D01*
X77169747Y-68272599D01*
X77155132Y-68252893D01*
X77142520Y-68231850D01*
X77132030Y-68209671D01*
X77123765Y-68186572D01*
X77117804Y-68162773D01*
X77114204Y-68138505D01*
X77113000Y-68114001D01*
X77113000Y-67463999D01*
X77114204Y-67439495D01*
X77117804Y-67415227D01*
X77123765Y-67391428D01*
X77132030Y-67368329D01*
X77142520Y-67346150D01*
X77155132Y-67325107D01*
X77169747Y-67305401D01*
X77186223Y-67287223D01*
X77204401Y-67270747D01*
X77224107Y-67256132D01*
X77245150Y-67243520D01*
X77267329Y-67233030D01*
X77290428Y-67224765D01*
X77314227Y-67218804D01*
X77338495Y-67215204D01*
X77362999Y-67214000D01*
X78263001Y-67214000D01*
X78287505Y-67215204D01*
X78287505Y-67215204D01*
G37*
D13*
G04 #@! TD*
G04 #@! TO.P,R2,2*
G04 #@! TO.N,Net-(R2-Pad2)*
X77813000Y-67789000D03*
D12*
G04 #@! TO.N,Net-(A1-Pad6)*
G04 #@! TO.C,R3*
G36*
X82478505Y-60738204D02*
X82502773Y-60741804D01*
X82526572Y-60747765D01*
X82549671Y-60756030D01*
X82571850Y-60766520D01*
X82592893Y-60779132D01*
X82612599Y-60793747D01*
X82630777Y-60810223D01*
X82647253Y-60828401D01*
X82661868Y-60848107D01*
X82674480Y-60869150D01*
X82684970Y-60891329D01*
X82693235Y-60914428D01*
X82699196Y-60938227D01*
X82702796Y-60962495D01*
X82704000Y-60986999D01*
X82704000Y-61637001D01*
X82702796Y-61661505D01*
X82699196Y-61685773D01*
X82693235Y-61709572D01*
X82684970Y-61732671D01*
X82674480Y-61754850D01*
X82661868Y-61775893D01*
X82647253Y-61795599D01*
X82630777Y-61813777D01*
X82612599Y-61830253D01*
X82592893Y-61844868D01*
X82571850Y-61857480D01*
X82549671Y-61867970D01*
X82526572Y-61876235D01*
X82502773Y-61882196D01*
X82478505Y-61885796D01*
X82454001Y-61887000D01*
X81553999Y-61887000D01*
X81529495Y-61885796D01*
X81505227Y-61882196D01*
X81481428Y-61876235D01*
X81458329Y-61867970D01*
X81436150Y-61857480D01*
X81415107Y-61844868D01*
X81395401Y-61830253D01*
X81377223Y-61813777D01*
X81360747Y-61795599D01*
X81346132Y-61775893D01*
X81333520Y-61754850D01*
X81323030Y-61732671D01*
X81314765Y-61709572D01*
X81308804Y-61685773D01*
X81305204Y-61661505D01*
X81304000Y-61637001D01*
X81304000Y-60986999D01*
X81305204Y-60962495D01*
X81308804Y-60938227D01*
X81314765Y-60914428D01*
X81323030Y-60891329D01*
X81333520Y-60869150D01*
X81346132Y-60848107D01*
X81360747Y-60828401D01*
X81377223Y-60810223D01*
X81395401Y-60793747D01*
X81415107Y-60779132D01*
X81436150Y-60766520D01*
X81458329Y-60756030D01*
X81481428Y-60747765D01*
X81505227Y-60741804D01*
X81529495Y-60738204D01*
X81553999Y-60737000D01*
X82454001Y-60737000D01*
X82478505Y-60738204D01*
X82478505Y-60738204D01*
G37*
D13*
G04 #@! TD*
G04 #@! TO.P,R3,2*
G04 #@! TO.N,Net-(A1-Pad6)*
X82004000Y-61312000D03*
D12*
G04 #@! TO.N,+5V*
G04 #@! TO.C,R3*
G36*
X82478505Y-58688204D02*
X82502773Y-58691804D01*
X82526572Y-58697765D01*
X82549671Y-58706030D01*
X82571850Y-58716520D01*
X82592893Y-58729132D01*
X82612599Y-58743747D01*
X82630777Y-58760223D01*
X82647253Y-58778401D01*
X82661868Y-58798107D01*
X82674480Y-58819150D01*
X82684970Y-58841329D01*
X82693235Y-58864428D01*
X82699196Y-58888227D01*
X82702796Y-58912495D01*
X82704000Y-58936999D01*
X82704000Y-59587001D01*
X82702796Y-59611505D01*
X82699196Y-59635773D01*
X82693235Y-59659572D01*
X82684970Y-59682671D01*
X82674480Y-59704850D01*
X82661868Y-59725893D01*
X82647253Y-59745599D01*
X82630777Y-59763777D01*
X82612599Y-59780253D01*
X82592893Y-59794868D01*
X82571850Y-59807480D01*
X82549671Y-59817970D01*
X82526572Y-59826235D01*
X82502773Y-59832196D01*
X82478505Y-59835796D01*
X82454001Y-59837000D01*
X81553999Y-59837000D01*
X81529495Y-59835796D01*
X81505227Y-59832196D01*
X81481428Y-59826235D01*
X81458329Y-59817970D01*
X81436150Y-59807480D01*
X81415107Y-59794868D01*
X81395401Y-59780253D01*
X81377223Y-59763777D01*
X81360747Y-59745599D01*
X81346132Y-59725893D01*
X81333520Y-59704850D01*
X81323030Y-59682671D01*
X81314765Y-59659572D01*
X81308804Y-59635773D01*
X81305204Y-59611505D01*
X81304000Y-59587001D01*
X81304000Y-58936999D01*
X81305204Y-58912495D01*
X81308804Y-58888227D01*
X81314765Y-58864428D01*
X81323030Y-58841329D01*
X81333520Y-58819150D01*
X81346132Y-58798107D01*
X81360747Y-58778401D01*
X81377223Y-58760223D01*
X81395401Y-58743747D01*
X81415107Y-58729132D01*
X81436150Y-58716520D01*
X81458329Y-58706030D01*
X81481428Y-58697765D01*
X81505227Y-58691804D01*
X81529495Y-58688204D01*
X81553999Y-58687000D01*
X82454001Y-58687000D01*
X82478505Y-58688204D01*
X82478505Y-58688204D01*
G37*
D13*
G04 #@! TD*
G04 #@! TO.P,R3,1*
G04 #@! TO.N,+5V*
X82004000Y-59262000D03*
D12*
G04 #@! TO.N,GND*
G04 #@! TO.C,R4*
G36*
X82478505Y-67215204D02*
X82502773Y-67218804D01*
X82526572Y-67224765D01*
X82549671Y-67233030D01*
X82571850Y-67243520D01*
X82592893Y-67256132D01*
X82612599Y-67270747D01*
X82630777Y-67287223D01*
X82647253Y-67305401D01*
X82661868Y-67325107D01*
X82674480Y-67346150D01*
X82684970Y-67368329D01*
X82693235Y-67391428D01*
X82699196Y-67415227D01*
X82702796Y-67439495D01*
X82704000Y-67463999D01*
X82704000Y-68114001D01*
X82702796Y-68138505D01*
X82699196Y-68162773D01*
X82693235Y-68186572D01*
X82684970Y-68209671D01*
X82674480Y-68231850D01*
X82661868Y-68252893D01*
X82647253Y-68272599D01*
X82630777Y-68290777D01*
X82612599Y-68307253D01*
X82592893Y-68321868D01*
X82571850Y-68334480D01*
X82549671Y-68344970D01*
X82526572Y-68353235D01*
X82502773Y-68359196D01*
X82478505Y-68362796D01*
X82454001Y-68364000D01*
X81553999Y-68364000D01*
X81529495Y-68362796D01*
X81505227Y-68359196D01*
X81481428Y-68353235D01*
X81458329Y-68344970D01*
X81436150Y-68334480D01*
X81415107Y-68321868D01*
X81395401Y-68307253D01*
X81377223Y-68290777D01*
X81360747Y-68272599D01*
X81346132Y-68252893D01*
X81333520Y-68231850D01*
X81323030Y-68209671D01*
X81314765Y-68186572D01*
X81308804Y-68162773D01*
X81305204Y-68138505D01*
X81304000Y-68114001D01*
X81304000Y-67463999D01*
X81305204Y-67439495D01*
X81308804Y-67415227D01*
X81314765Y-67391428D01*
X81323030Y-67368329D01*
X81333520Y-67346150D01*
X81346132Y-67325107D01*
X81360747Y-67305401D01*
X81377223Y-67287223D01*
X81395401Y-67270747D01*
X81415107Y-67256132D01*
X81436150Y-67243520D01*
X81458329Y-67233030D01*
X81481428Y-67224765D01*
X81505227Y-67218804D01*
X81529495Y-67215204D01*
X81553999Y-67214000D01*
X82454001Y-67214000D01*
X82478505Y-67215204D01*
X82478505Y-67215204D01*
G37*
D13*
G04 #@! TD*
G04 #@! TO.P,R4,2*
G04 #@! TO.N,GND*
X82004000Y-67789000D03*
D12*
G04 #@! TO.N,Net-(A1-Pad5)*
G04 #@! TO.C,R4*
G36*
X82478505Y-65165204D02*
X82502773Y-65168804D01*
X82526572Y-65174765D01*
X82549671Y-65183030D01*
X82571850Y-65193520D01*
X82592893Y-65206132D01*
X82612599Y-65220747D01*
X82630777Y-65237223D01*
X82647253Y-65255401D01*
X82661868Y-65275107D01*
X82674480Y-65296150D01*
X82684970Y-65318329D01*
X82693235Y-65341428D01*
X82699196Y-65365227D01*
X82702796Y-65389495D01*
X82704000Y-65413999D01*
X82704000Y-66064001D01*
X82702796Y-66088505D01*
X82699196Y-66112773D01*
X82693235Y-66136572D01*
X82684970Y-66159671D01*
X82674480Y-66181850D01*
X82661868Y-66202893D01*
X82647253Y-66222599D01*
X82630777Y-66240777D01*
X82612599Y-66257253D01*
X82592893Y-66271868D01*
X82571850Y-66284480D01*
X82549671Y-66294970D01*
X82526572Y-66303235D01*
X82502773Y-66309196D01*
X82478505Y-66312796D01*
X82454001Y-66314000D01*
X81553999Y-66314000D01*
X81529495Y-66312796D01*
X81505227Y-66309196D01*
X81481428Y-66303235D01*
X81458329Y-66294970D01*
X81436150Y-66284480D01*
X81415107Y-66271868D01*
X81395401Y-66257253D01*
X81377223Y-66240777D01*
X81360747Y-66222599D01*
X81346132Y-66202893D01*
X81333520Y-66181850D01*
X81323030Y-66159671D01*
X81314765Y-66136572D01*
X81308804Y-66112773D01*
X81305204Y-66088505D01*
X81304000Y-66064001D01*
X81304000Y-65413999D01*
X81305204Y-65389495D01*
X81308804Y-65365227D01*
X81314765Y-65341428D01*
X81323030Y-65318329D01*
X81333520Y-65296150D01*
X81346132Y-65275107D01*
X81360747Y-65255401D01*
X81377223Y-65237223D01*
X81395401Y-65220747D01*
X81415107Y-65206132D01*
X81436150Y-65193520D01*
X81458329Y-65183030D01*
X81481428Y-65174765D01*
X81505227Y-65168804D01*
X81529495Y-65165204D01*
X81553999Y-65164000D01*
X82454001Y-65164000D01*
X82478505Y-65165204D01*
X82478505Y-65165204D01*
G37*
D13*
G04 #@! TD*
G04 #@! TO.P,R4,1*
G04 #@! TO.N,Net-(A1-Pad5)*
X82004000Y-65739000D03*
D12*
G04 #@! TO.N,+5V*
G04 #@! TO.C,R5*
G36*
X97203505Y-57937204D02*
X97227773Y-57940804D01*
X97251572Y-57946765D01*
X97274671Y-57955030D01*
X97296850Y-57965520D01*
X97317893Y-57978132D01*
X97337599Y-57992747D01*
X97355777Y-58009223D01*
X97372253Y-58027401D01*
X97386868Y-58047107D01*
X97399480Y-58068150D01*
X97409970Y-58090329D01*
X97418235Y-58113428D01*
X97424196Y-58137227D01*
X97427796Y-58161495D01*
X97429000Y-58185999D01*
X97429000Y-59086001D01*
X97427796Y-59110505D01*
X97424196Y-59134773D01*
X97418235Y-59158572D01*
X97409970Y-59181671D01*
X97399480Y-59203850D01*
X97386868Y-59224893D01*
X97372253Y-59244599D01*
X97355777Y-59262777D01*
X97337599Y-59279253D01*
X97317893Y-59293868D01*
X97296850Y-59306480D01*
X97274671Y-59316970D01*
X97251572Y-59325235D01*
X97227773Y-59331196D01*
X97203505Y-59334796D01*
X97179001Y-59336000D01*
X96528999Y-59336000D01*
X96504495Y-59334796D01*
X96480227Y-59331196D01*
X96456428Y-59325235D01*
X96433329Y-59316970D01*
X96411150Y-59306480D01*
X96390107Y-59293868D01*
X96370401Y-59279253D01*
X96352223Y-59262777D01*
X96335747Y-59244599D01*
X96321132Y-59224893D01*
X96308520Y-59203850D01*
X96298030Y-59181671D01*
X96289765Y-59158572D01*
X96283804Y-59134773D01*
X96280204Y-59110505D01*
X96279000Y-59086001D01*
X96279000Y-58185999D01*
X96280204Y-58161495D01*
X96283804Y-58137227D01*
X96289765Y-58113428D01*
X96298030Y-58090329D01*
X96308520Y-58068150D01*
X96321132Y-58047107D01*
X96335747Y-58027401D01*
X96352223Y-58009223D01*
X96370401Y-57992747D01*
X96390107Y-57978132D01*
X96411150Y-57965520D01*
X96433329Y-57955030D01*
X96456428Y-57946765D01*
X96480227Y-57940804D01*
X96504495Y-57937204D01*
X96528999Y-57936000D01*
X97179001Y-57936000D01*
X97203505Y-57937204D01*
X97203505Y-57937204D01*
G37*
D13*
G04 #@! TD*
G04 #@! TO.P,R5,1*
G04 #@! TO.N,+5V*
X96854000Y-58636000D03*
D12*
G04 #@! TO.N,Net-(R5-Pad2)*
G04 #@! TO.C,R5*
G36*
X99253505Y-57937204D02*
X99277773Y-57940804D01*
X99301572Y-57946765D01*
X99324671Y-57955030D01*
X99346850Y-57965520D01*
X99367893Y-57978132D01*
X99387599Y-57992747D01*
X99405777Y-58009223D01*
X99422253Y-58027401D01*
X99436868Y-58047107D01*
X99449480Y-58068150D01*
X99459970Y-58090329D01*
X99468235Y-58113428D01*
X99474196Y-58137227D01*
X99477796Y-58161495D01*
X99479000Y-58185999D01*
X99479000Y-59086001D01*
X99477796Y-59110505D01*
X99474196Y-59134773D01*
X99468235Y-59158572D01*
X99459970Y-59181671D01*
X99449480Y-59203850D01*
X99436868Y-59224893D01*
X99422253Y-59244599D01*
X99405777Y-59262777D01*
X99387599Y-59279253D01*
X99367893Y-59293868D01*
X99346850Y-59306480D01*
X99324671Y-59316970D01*
X99301572Y-59325235D01*
X99277773Y-59331196D01*
X99253505Y-59334796D01*
X99229001Y-59336000D01*
X98578999Y-59336000D01*
X98554495Y-59334796D01*
X98530227Y-59331196D01*
X98506428Y-59325235D01*
X98483329Y-59316970D01*
X98461150Y-59306480D01*
X98440107Y-59293868D01*
X98420401Y-59279253D01*
X98402223Y-59262777D01*
X98385747Y-59244599D01*
X98371132Y-59224893D01*
X98358520Y-59203850D01*
X98348030Y-59181671D01*
X98339765Y-59158572D01*
X98333804Y-59134773D01*
X98330204Y-59110505D01*
X98329000Y-59086001D01*
X98329000Y-58185999D01*
X98330204Y-58161495D01*
X98333804Y-58137227D01*
X98339765Y-58113428D01*
X98348030Y-58090329D01*
X98358520Y-58068150D01*
X98371132Y-58047107D01*
X98385747Y-58027401D01*
X98402223Y-58009223D01*
X98420401Y-57992747D01*
X98440107Y-57978132D01*
X98461150Y-57965520D01*
X98483329Y-57955030D01*
X98506428Y-57946765D01*
X98530227Y-57940804D01*
X98554495Y-57937204D01*
X98578999Y-57936000D01*
X99229001Y-57936000D01*
X99253505Y-57937204D01*
X99253505Y-57937204D01*
G37*
D13*
G04 #@! TD*
G04 #@! TO.P,R5,2*
G04 #@! TO.N,Net-(R5-Pad2)*
X98904000Y-58636000D03*
D12*
G04 #@! TO.N,Net-(R5-Pad2)*
G04 #@! TO.C,R6*
G36*
X97464505Y-54896204D02*
X97488773Y-54899804D01*
X97512572Y-54905765D01*
X97535671Y-54914030D01*
X97557850Y-54924520D01*
X97578893Y-54937132D01*
X97598599Y-54951747D01*
X97616777Y-54968223D01*
X97633253Y-54986401D01*
X97647868Y-55006107D01*
X97660480Y-55027150D01*
X97670970Y-55049329D01*
X97679235Y-55072428D01*
X97685196Y-55096227D01*
X97688796Y-55120495D01*
X97690000Y-55144999D01*
X97690000Y-55795001D01*
X97688796Y-55819505D01*
X97685196Y-55843773D01*
X97679235Y-55867572D01*
X97670970Y-55890671D01*
X97660480Y-55912850D01*
X97647868Y-55933893D01*
X97633253Y-55953599D01*
X97616777Y-55971777D01*
X97598599Y-55988253D01*
X97578893Y-56002868D01*
X97557850Y-56015480D01*
X97535671Y-56025970D01*
X97512572Y-56034235D01*
X97488773Y-56040196D01*
X97464505Y-56043796D01*
X97440001Y-56045000D01*
X96539999Y-56045000D01*
X96515495Y-56043796D01*
X96491227Y-56040196D01*
X96467428Y-56034235D01*
X96444329Y-56025970D01*
X96422150Y-56015480D01*
X96401107Y-56002868D01*
X96381401Y-55988253D01*
X96363223Y-55971777D01*
X96346747Y-55953599D01*
X96332132Y-55933893D01*
X96319520Y-55912850D01*
X96309030Y-55890671D01*
X96300765Y-55867572D01*
X96294804Y-55843773D01*
X96291204Y-55819505D01*
X96290000Y-55795001D01*
X96290000Y-55144999D01*
X96291204Y-55120495D01*
X96294804Y-55096227D01*
X96300765Y-55072428D01*
X96309030Y-55049329D01*
X96319520Y-55027150D01*
X96332132Y-55006107D01*
X96346747Y-54986401D01*
X96363223Y-54968223D01*
X96381401Y-54951747D01*
X96401107Y-54937132D01*
X96422150Y-54924520D01*
X96444329Y-54914030D01*
X96467428Y-54905765D01*
X96491227Y-54899804D01*
X96515495Y-54896204D01*
X96539999Y-54895000D01*
X97440001Y-54895000D01*
X97464505Y-54896204D01*
X97464505Y-54896204D01*
G37*
D13*
G04 #@! TD*
G04 #@! TO.P,R6,1*
G04 #@! TO.N,Net-(R5-Pad2)*
X96990000Y-55470000D03*
D12*
G04 #@! TO.N,Net-(R6-Pad2)*
G04 #@! TO.C,R6*
G36*
X97464505Y-52846204D02*
X97488773Y-52849804D01*
X97512572Y-52855765D01*
X97535671Y-52864030D01*
X97557850Y-52874520D01*
X97578893Y-52887132D01*
X97598599Y-52901747D01*
X97616777Y-52918223D01*
X97633253Y-52936401D01*
X97647868Y-52956107D01*
X97660480Y-52977150D01*
X97670970Y-52999329D01*
X97679235Y-53022428D01*
X97685196Y-53046227D01*
X97688796Y-53070495D01*
X97690000Y-53094999D01*
X97690000Y-53745001D01*
X97688796Y-53769505D01*
X97685196Y-53793773D01*
X97679235Y-53817572D01*
X97670970Y-53840671D01*
X97660480Y-53862850D01*
X97647868Y-53883893D01*
X97633253Y-53903599D01*
X97616777Y-53921777D01*
X97598599Y-53938253D01*
X97578893Y-53952868D01*
X97557850Y-53965480D01*
X97535671Y-53975970D01*
X97512572Y-53984235D01*
X97488773Y-53990196D01*
X97464505Y-53993796D01*
X97440001Y-53995000D01*
X96539999Y-53995000D01*
X96515495Y-53993796D01*
X96491227Y-53990196D01*
X96467428Y-53984235D01*
X96444329Y-53975970D01*
X96422150Y-53965480D01*
X96401107Y-53952868D01*
X96381401Y-53938253D01*
X96363223Y-53921777D01*
X96346747Y-53903599D01*
X96332132Y-53883893D01*
X96319520Y-53862850D01*
X96309030Y-53840671D01*
X96300765Y-53817572D01*
X96294804Y-53793773D01*
X96291204Y-53769505D01*
X96290000Y-53745001D01*
X96290000Y-53094999D01*
X96291204Y-53070495D01*
X96294804Y-53046227D01*
X96300765Y-53022428D01*
X96309030Y-52999329D01*
X96319520Y-52977150D01*
X96332132Y-52956107D01*
X96346747Y-52936401D01*
X96363223Y-52918223D01*
X96381401Y-52901747D01*
X96401107Y-52887132D01*
X96422150Y-52874520D01*
X96444329Y-52864030D01*
X96467428Y-52855765D01*
X96491227Y-52849804D01*
X96515495Y-52846204D01*
X96539999Y-52845000D01*
X97440001Y-52845000D01*
X97464505Y-52846204D01*
X97464505Y-52846204D01*
G37*
D13*
G04 #@! TD*
G04 #@! TO.P,R6,2*
G04 #@! TO.N,Net-(R6-Pad2)*
X96990000Y-53420000D03*
D12*
G04 #@! TO.N,GND*
G04 #@! TO.C,R7*
G36*
X97076505Y-50063204D02*
X97100773Y-50066804D01*
X97124572Y-50072765D01*
X97147671Y-50081030D01*
X97169850Y-50091520D01*
X97190893Y-50104132D01*
X97210599Y-50118747D01*
X97228777Y-50135223D01*
X97245253Y-50153401D01*
X97259868Y-50173107D01*
X97272480Y-50194150D01*
X97282970Y-50216329D01*
X97291235Y-50239428D01*
X97297196Y-50263227D01*
X97300796Y-50287495D01*
X97302000Y-50311999D01*
X97302000Y-51212001D01*
X97300796Y-51236505D01*
X97297196Y-51260773D01*
X97291235Y-51284572D01*
X97282970Y-51307671D01*
X97272480Y-51329850D01*
X97259868Y-51350893D01*
X97245253Y-51370599D01*
X97228777Y-51388777D01*
X97210599Y-51405253D01*
X97190893Y-51419868D01*
X97169850Y-51432480D01*
X97147671Y-51442970D01*
X97124572Y-51451235D01*
X97100773Y-51457196D01*
X97076505Y-51460796D01*
X97052001Y-51462000D01*
X96401999Y-51462000D01*
X96377495Y-51460796D01*
X96353227Y-51457196D01*
X96329428Y-51451235D01*
X96306329Y-51442970D01*
X96284150Y-51432480D01*
X96263107Y-51419868D01*
X96243401Y-51405253D01*
X96225223Y-51388777D01*
X96208747Y-51370599D01*
X96194132Y-51350893D01*
X96181520Y-51329850D01*
X96171030Y-51307671D01*
X96162765Y-51284572D01*
X96156804Y-51260773D01*
X96153204Y-51236505D01*
X96152000Y-51212001D01*
X96152000Y-50311999D01*
X96153204Y-50287495D01*
X96156804Y-50263227D01*
X96162765Y-50239428D01*
X96171030Y-50216329D01*
X96181520Y-50194150D01*
X96194132Y-50173107D01*
X96208747Y-50153401D01*
X96225223Y-50135223D01*
X96243401Y-50118747D01*
X96263107Y-50104132D01*
X96284150Y-50091520D01*
X96306329Y-50081030D01*
X96329428Y-50072765D01*
X96353227Y-50066804D01*
X96377495Y-50063204D01*
X96401999Y-50062000D01*
X97052001Y-50062000D01*
X97076505Y-50063204D01*
X97076505Y-50063204D01*
G37*
D13*
G04 #@! TD*
G04 #@! TO.P,R7,2*
G04 #@! TO.N,GND*
X96727000Y-50762000D03*
D12*
G04 #@! TO.N,Net-(R6-Pad2)*
G04 #@! TO.C,R7*
G36*
X99126505Y-50063204D02*
X99150773Y-50066804D01*
X99174572Y-50072765D01*
X99197671Y-50081030D01*
X99219850Y-50091520D01*
X99240893Y-50104132D01*
X99260599Y-50118747D01*
X99278777Y-50135223D01*
X99295253Y-50153401D01*
X99309868Y-50173107D01*
X99322480Y-50194150D01*
X99332970Y-50216329D01*
X99341235Y-50239428D01*
X99347196Y-50263227D01*
X99350796Y-50287495D01*
X99352000Y-50311999D01*
X99352000Y-51212001D01*
X99350796Y-51236505D01*
X99347196Y-51260773D01*
X99341235Y-51284572D01*
X99332970Y-51307671D01*
X99322480Y-51329850D01*
X99309868Y-51350893D01*
X99295253Y-51370599D01*
X99278777Y-51388777D01*
X99260599Y-51405253D01*
X99240893Y-51419868D01*
X99219850Y-51432480D01*
X99197671Y-51442970D01*
X99174572Y-51451235D01*
X99150773Y-51457196D01*
X99126505Y-51460796D01*
X99102001Y-51462000D01*
X98451999Y-51462000D01*
X98427495Y-51460796D01*
X98403227Y-51457196D01*
X98379428Y-51451235D01*
X98356329Y-51442970D01*
X98334150Y-51432480D01*
X98313107Y-51419868D01*
X98293401Y-51405253D01*
X98275223Y-51388777D01*
X98258747Y-51370599D01*
X98244132Y-51350893D01*
X98231520Y-51329850D01*
X98221030Y-51307671D01*
X98212765Y-51284572D01*
X98206804Y-51260773D01*
X98203204Y-51236505D01*
X98202000Y-51212001D01*
X98202000Y-50311999D01*
X98203204Y-50287495D01*
X98206804Y-50263227D01*
X98212765Y-50239428D01*
X98221030Y-50216329D01*
X98231520Y-50194150D01*
X98244132Y-50173107D01*
X98258747Y-50153401D01*
X98275223Y-50135223D01*
X98293401Y-50118747D01*
X98313107Y-50104132D01*
X98334150Y-50091520D01*
X98356329Y-50081030D01*
X98379428Y-50072765D01*
X98403227Y-50066804D01*
X98427495Y-50063204D01*
X98451999Y-50062000D01*
X99102001Y-50062000D01*
X99126505Y-50063204D01*
X99126505Y-50063204D01*
G37*
D13*
G04 #@! TD*
G04 #@! TO.P,R7,1*
G04 #@! TO.N,Net-(R6-Pad2)*
X98777000Y-50762000D03*
D12*
G04 #@! TO.N,Net-(D1-Pad1)*
G04 #@! TO.C,R8*
G36*
X104841505Y-57937204D02*
X104865773Y-57940804D01*
X104889572Y-57946765D01*
X104912671Y-57955030D01*
X104934850Y-57965520D01*
X104955893Y-57978132D01*
X104975599Y-57992747D01*
X104993777Y-58009223D01*
X105010253Y-58027401D01*
X105024868Y-58047107D01*
X105037480Y-58068150D01*
X105047970Y-58090329D01*
X105056235Y-58113428D01*
X105062196Y-58137227D01*
X105065796Y-58161495D01*
X105067000Y-58185999D01*
X105067000Y-59086001D01*
X105065796Y-59110505D01*
X105062196Y-59134773D01*
X105056235Y-59158572D01*
X105047970Y-59181671D01*
X105037480Y-59203850D01*
X105024868Y-59224893D01*
X105010253Y-59244599D01*
X104993777Y-59262777D01*
X104975599Y-59279253D01*
X104955893Y-59293868D01*
X104934850Y-59306480D01*
X104912671Y-59316970D01*
X104889572Y-59325235D01*
X104865773Y-59331196D01*
X104841505Y-59334796D01*
X104817001Y-59336000D01*
X104166999Y-59336000D01*
X104142495Y-59334796D01*
X104118227Y-59331196D01*
X104094428Y-59325235D01*
X104071329Y-59316970D01*
X104049150Y-59306480D01*
X104028107Y-59293868D01*
X104008401Y-59279253D01*
X103990223Y-59262777D01*
X103973747Y-59244599D01*
X103959132Y-59224893D01*
X103946520Y-59203850D01*
X103936030Y-59181671D01*
X103927765Y-59158572D01*
X103921804Y-59134773D01*
X103918204Y-59110505D01*
X103917000Y-59086001D01*
X103917000Y-58185999D01*
X103918204Y-58161495D01*
X103921804Y-58137227D01*
X103927765Y-58113428D01*
X103936030Y-58090329D01*
X103946520Y-58068150D01*
X103959132Y-58047107D01*
X103973747Y-58027401D01*
X103990223Y-58009223D01*
X104008401Y-57992747D01*
X104028107Y-57978132D01*
X104049150Y-57965520D01*
X104071329Y-57955030D01*
X104094428Y-57946765D01*
X104118227Y-57940804D01*
X104142495Y-57937204D01*
X104166999Y-57936000D01*
X104817001Y-57936000D01*
X104841505Y-57937204D01*
X104841505Y-57937204D01*
G37*
D13*
G04 #@! TD*
G04 #@! TO.P,R8,1*
G04 #@! TO.N,Net-(D1-Pad1)*
X104492000Y-58636000D03*
D12*
G04 #@! TO.N,Net-(R5-Pad2)*
G04 #@! TO.C,R8*
G36*
X102791505Y-57937204D02*
X102815773Y-57940804D01*
X102839572Y-57946765D01*
X102862671Y-57955030D01*
X102884850Y-57965520D01*
X102905893Y-57978132D01*
X102925599Y-57992747D01*
X102943777Y-58009223D01*
X102960253Y-58027401D01*
X102974868Y-58047107D01*
X102987480Y-58068150D01*
X102997970Y-58090329D01*
X103006235Y-58113428D01*
X103012196Y-58137227D01*
X103015796Y-58161495D01*
X103017000Y-58185999D01*
X103017000Y-59086001D01*
X103015796Y-59110505D01*
X103012196Y-59134773D01*
X103006235Y-59158572D01*
X102997970Y-59181671D01*
X102987480Y-59203850D01*
X102974868Y-59224893D01*
X102960253Y-59244599D01*
X102943777Y-59262777D01*
X102925599Y-59279253D01*
X102905893Y-59293868D01*
X102884850Y-59306480D01*
X102862671Y-59316970D01*
X102839572Y-59325235D01*
X102815773Y-59331196D01*
X102791505Y-59334796D01*
X102767001Y-59336000D01*
X102116999Y-59336000D01*
X102092495Y-59334796D01*
X102068227Y-59331196D01*
X102044428Y-59325235D01*
X102021329Y-59316970D01*
X101999150Y-59306480D01*
X101978107Y-59293868D01*
X101958401Y-59279253D01*
X101940223Y-59262777D01*
X101923747Y-59244599D01*
X101909132Y-59224893D01*
X101896520Y-59203850D01*
X101886030Y-59181671D01*
X101877765Y-59158572D01*
X101871804Y-59134773D01*
X101868204Y-59110505D01*
X101867000Y-59086001D01*
X101867000Y-58185999D01*
X101868204Y-58161495D01*
X101871804Y-58137227D01*
X101877765Y-58113428D01*
X101886030Y-58090329D01*
X101896520Y-58068150D01*
X101909132Y-58047107D01*
X101923747Y-58027401D01*
X101940223Y-58009223D01*
X101958401Y-57992747D01*
X101978107Y-57978132D01*
X101999150Y-57965520D01*
X102021329Y-57955030D01*
X102044428Y-57946765D01*
X102068227Y-57940804D01*
X102092495Y-57937204D01*
X102116999Y-57936000D01*
X102767001Y-57936000D01*
X102791505Y-57937204D01*
X102791505Y-57937204D01*
G37*
D13*
G04 #@! TD*
G04 #@! TO.P,R8,2*
G04 #@! TO.N,Net-(R5-Pad2)*
X102442000Y-58636000D03*
D12*
G04 #@! TO.N,Net-(R6-Pad2)*
G04 #@! TO.C,R9*
G36*
X102791505Y-50063204D02*
X102815773Y-50066804D01*
X102839572Y-50072765D01*
X102862671Y-50081030D01*
X102884850Y-50091520D01*
X102905893Y-50104132D01*
X102925599Y-50118747D01*
X102943777Y-50135223D01*
X102960253Y-50153401D01*
X102974868Y-50173107D01*
X102987480Y-50194150D01*
X102997970Y-50216329D01*
X103006235Y-50239428D01*
X103012196Y-50263227D01*
X103015796Y-50287495D01*
X103017000Y-50311999D01*
X103017000Y-51212001D01*
X103015796Y-51236505D01*
X103012196Y-51260773D01*
X103006235Y-51284572D01*
X102997970Y-51307671D01*
X102987480Y-51329850D01*
X102974868Y-51350893D01*
X102960253Y-51370599D01*
X102943777Y-51388777D01*
X102925599Y-51405253D01*
X102905893Y-51419868D01*
X102884850Y-51432480D01*
X102862671Y-51442970D01*
X102839572Y-51451235D01*
X102815773Y-51457196D01*
X102791505Y-51460796D01*
X102767001Y-51462000D01*
X102116999Y-51462000D01*
X102092495Y-51460796D01*
X102068227Y-51457196D01*
X102044428Y-51451235D01*
X102021329Y-51442970D01*
X101999150Y-51432480D01*
X101978107Y-51419868D01*
X101958401Y-51405253D01*
X101940223Y-51388777D01*
X101923747Y-51370599D01*
X101909132Y-51350893D01*
X101896520Y-51329850D01*
X101886030Y-51307671D01*
X101877765Y-51284572D01*
X101871804Y-51260773D01*
X101868204Y-51236505D01*
X101867000Y-51212001D01*
X101867000Y-50311999D01*
X101868204Y-50287495D01*
X101871804Y-50263227D01*
X101877765Y-50239428D01*
X101886030Y-50216329D01*
X101896520Y-50194150D01*
X101909132Y-50173107D01*
X101923747Y-50153401D01*
X101940223Y-50135223D01*
X101958401Y-50118747D01*
X101978107Y-50104132D01*
X101999150Y-50091520D01*
X102021329Y-50081030D01*
X102044428Y-50072765D01*
X102068227Y-50066804D01*
X102092495Y-50063204D01*
X102116999Y-50062000D01*
X102767001Y-50062000D01*
X102791505Y-50063204D01*
X102791505Y-50063204D01*
G37*
D13*
G04 #@! TD*
G04 #@! TO.P,R9,2*
G04 #@! TO.N,Net-(R6-Pad2)*
X102442000Y-50762000D03*
D12*
G04 #@! TO.N,Net-(D1-Pad2)*
G04 #@! TO.C,R9*
G36*
X104841505Y-50063204D02*
X104865773Y-50066804D01*
X104889572Y-50072765D01*
X104912671Y-50081030D01*
X104934850Y-50091520D01*
X104955893Y-50104132D01*
X104975599Y-50118747D01*
X104993777Y-50135223D01*
X105010253Y-50153401D01*
X105024868Y-50173107D01*
X105037480Y-50194150D01*
X105047970Y-50216329D01*
X105056235Y-50239428D01*
X105062196Y-50263227D01*
X105065796Y-50287495D01*
X105067000Y-50311999D01*
X105067000Y-51212001D01*
X105065796Y-51236505D01*
X105062196Y-51260773D01*
X105056235Y-51284572D01*
X105047970Y-51307671D01*
X105037480Y-51329850D01*
X105024868Y-51350893D01*
X105010253Y-51370599D01*
X104993777Y-51388777D01*
X104975599Y-51405253D01*
X104955893Y-51419868D01*
X104934850Y-51432480D01*
X104912671Y-51442970D01*
X104889572Y-51451235D01*
X104865773Y-51457196D01*
X104841505Y-51460796D01*
X104817001Y-51462000D01*
X104166999Y-51462000D01*
X104142495Y-51460796D01*
X104118227Y-51457196D01*
X104094428Y-51451235D01*
X104071329Y-51442970D01*
X104049150Y-51432480D01*
X104028107Y-51419868D01*
X104008401Y-51405253D01*
X103990223Y-51388777D01*
X103973747Y-51370599D01*
X103959132Y-51350893D01*
X103946520Y-51329850D01*
X103936030Y-51307671D01*
X103927765Y-51284572D01*
X103921804Y-51260773D01*
X103918204Y-51236505D01*
X103917000Y-51212001D01*
X103917000Y-50311999D01*
X103918204Y-50287495D01*
X103921804Y-50263227D01*
X103927765Y-50239428D01*
X103936030Y-50216329D01*
X103946520Y-50194150D01*
X103959132Y-50173107D01*
X103973747Y-50153401D01*
X103990223Y-50135223D01*
X104008401Y-50118747D01*
X104028107Y-50104132D01*
X104049150Y-50091520D01*
X104071329Y-50081030D01*
X104094428Y-50072765D01*
X104118227Y-50066804D01*
X104142495Y-50063204D01*
X104166999Y-50062000D01*
X104817001Y-50062000D01*
X104841505Y-50063204D01*
X104841505Y-50063204D01*
G37*
D13*
G04 #@! TD*
G04 #@! TO.P,R9,1*
G04 #@! TO.N,Net-(D1-Pad2)*
X104492000Y-50762000D03*
D17*
G04 #@! TO.P,U1,1*
G04 #@! TO.N,Net-(C3-Pad1)*
X55014000Y-59318000D03*
G04 #@! TO.P,U1,2*
G04 #@! TO.N,GND*
X54064000Y-59318000D03*
G04 #@! TO.P,U1,3*
G04 #@! TO.N,Net-(R1-Pad2)*
X53114000Y-59318000D03*
G04 #@! TO.P,U1,4*
G04 #@! TO.N,bd_en*
X53114000Y-62018000D03*
G04 #@! TO.P,U1,5*
G04 #@! TO.N,+5V*
X55014000Y-62018000D03*
G04 #@! TD*
D18*
G04 #@! TO.P,U2,5*
G04 #@! TO.N,VCC*
X73829000Y-64290000D03*
G04 #@! TO.P,U2,4*
G04 #@! TO.N,CH4_en*
X73829000Y-66190000D03*
G04 #@! TO.P,U2,3*
G04 #@! TO.N,Net-(R2-Pad2)*
X71129000Y-66190000D03*
G04 #@! TO.P,U2,2*
G04 #@! TO.N,GND*
X71129000Y-65240000D03*
G04 #@! TO.P,U2,1*
G04 #@! TO.N,Net-(C4-Pad1)*
X71129000Y-64290000D03*
G04 #@! TD*
D19*
G04 #@! TO.P,U3,1*
G04 #@! TO.N,Net-(A1-Pad6)*
X85222200Y-61607800D03*
G04 #@! TO.P,U3,2*
G04 #@! TO.N,Net-(A1-Pad9)*
X85222200Y-62877800D03*
G04 #@! TO.P,U3,3*
X85222200Y-64147800D03*
G04 #@! TO.P,U3,4*
G04 #@! TO.N,Net-(A1-Pad5)*
X85222200Y-65417800D03*
G04 #@! TO.P,U3,5*
G04 #@! TO.N,GND*
X90622200Y-65417800D03*
G04 #@! TO.P,U3,6*
G04 #@! TO.N,Net-(R5-Pad2)*
X90622200Y-64147800D03*
G04 #@! TO.P,U3,7*
G04 #@! TO.N,Net-(R6-Pad2)*
X90622200Y-62877800D03*
G04 #@! TO.P,U3,8*
G04 #@! TO.N,+5V*
X90622200Y-61607800D03*
G04 #@! TD*
D20*
G04 #@! TO.P,J2,SH*
G04 #@! TO.N,GND*
X109012000Y-62321000D03*
X109012000Y-77811000D03*
D21*
G04 #@! TO.P,J2,8*
X97072000Y-65621000D03*
G04 #@! TO.P,J2,7*
X99612000Y-66891000D03*
G04 #@! TO.P,J2,6*
G04 #@! TO.N,Net-(J2-Pad6)*
X97072000Y-68161000D03*
G04 #@! TO.P,J2,5*
G04 #@! TO.N,VCC*
X99612000Y-69431000D03*
G04 #@! TO.P,J2,4*
X97072000Y-70701000D03*
G04 #@! TO.P,J2,3*
G04 #@! TO.N,Net-(J2-Pad3)*
X99612000Y-71971000D03*
G04 #@! TO.P,J2,2*
G04 #@! TO.N,Net-(D1-Pad2)*
X97072000Y-73241000D03*
G04 #@! TO.P,J2,1*
G04 #@! TO.N,Net-(D1-Pad1)*
X99612000Y-74511000D03*
G04 #@! TD*
G04 #@! TO.P,J3,1*
G04 #@! TO.N,Net-(D1-Pad1)*
X99612000Y-93688000D03*
G04 #@! TO.P,J3,2*
G04 #@! TO.N,Net-(D1-Pad2)*
X97072000Y-92418000D03*
G04 #@! TO.P,J3,3*
G04 #@! TO.N,Net-(J2-Pad3)*
X99612000Y-91148000D03*
G04 #@! TO.P,J3,4*
G04 #@! TO.N,VCC*
X97072000Y-89878000D03*
G04 #@! TO.P,J3,5*
X99612000Y-88608000D03*
G04 #@! TO.P,J3,6*
G04 #@! TO.N,Net-(J2-Pad6)*
X97072000Y-87338000D03*
G04 #@! TO.P,J3,7*
G04 #@! TO.N,GND*
X99612000Y-86068000D03*
G04 #@! TO.P,J3,8*
X97072000Y-84798000D03*
D20*
G04 #@! TO.P,J3,SH*
X109012000Y-96988000D03*
X109012000Y-81498000D03*
G04 #@! TD*
D22*
G04 #@! TO.P,H1,1*
G04 #@! TO.N,GND*
X50000000Y-50000000D03*
G04 #@! TD*
G04 #@! TO.P,H2,1*
G04 #@! TO.N,GND*
X50000000Y-96000000D03*
G04 #@! TD*
G04 #@! TO.P,H4,1*
G04 #@! TO.N,GND*
X113200000Y-50000000D03*
G04 #@! TD*
D12*
G04 #@! TO.N,GND*
G04 #@! TO.C,C6*
G36*
X63136305Y-92653204D02*
X63160573Y-92656804D01*
X63184372Y-92662765D01*
X63207471Y-92671030D01*
X63229650Y-92681520D01*
X63250693Y-92694132D01*
X63270399Y-92708747D01*
X63288577Y-92725223D01*
X63305053Y-92743401D01*
X63319668Y-92763107D01*
X63332280Y-92784150D01*
X63342770Y-92806329D01*
X63351035Y-92829428D01*
X63356996Y-92853227D01*
X63360596Y-92877495D01*
X63361800Y-92901999D01*
X63361800Y-93552001D01*
X63360596Y-93576505D01*
X63356996Y-93600773D01*
X63351035Y-93624572D01*
X63342770Y-93647671D01*
X63332280Y-93669850D01*
X63319668Y-93690893D01*
X63305053Y-93710599D01*
X63288577Y-93728777D01*
X63270399Y-93745253D01*
X63250693Y-93759868D01*
X63229650Y-93772480D01*
X63207471Y-93782970D01*
X63184372Y-93791235D01*
X63160573Y-93797196D01*
X63136305Y-93800796D01*
X63111801Y-93802000D01*
X62211799Y-93802000D01*
X62187295Y-93800796D01*
X62163027Y-93797196D01*
X62139228Y-93791235D01*
X62116129Y-93782970D01*
X62093950Y-93772480D01*
X62072907Y-93759868D01*
X62053201Y-93745253D01*
X62035023Y-93728777D01*
X62018547Y-93710599D01*
X62003932Y-93690893D01*
X61991320Y-93669850D01*
X61980830Y-93647671D01*
X61972565Y-93624572D01*
X61966604Y-93600773D01*
X61963004Y-93576505D01*
X61961800Y-93552001D01*
X61961800Y-92901999D01*
X61963004Y-92877495D01*
X61966604Y-92853227D01*
X61972565Y-92829428D01*
X61980830Y-92806329D01*
X61991320Y-92784150D01*
X62003932Y-92763107D01*
X62018547Y-92743401D01*
X62035023Y-92725223D01*
X62053201Y-92708747D01*
X62072907Y-92694132D01*
X62093950Y-92681520D01*
X62116129Y-92671030D01*
X62139228Y-92662765D01*
X62163027Y-92656804D01*
X62187295Y-92653204D01*
X62211799Y-92652000D01*
X63111801Y-92652000D01*
X63136305Y-92653204D01*
X63136305Y-92653204D01*
G37*
D13*
G04 #@! TD*
G04 #@! TO.P,C6,2*
G04 #@! TO.N,GND*
X62661800Y-93227000D03*
D12*
G04 #@! TO.N,+5V*
G04 #@! TO.C,C6*
G36*
X63136305Y-90603204D02*
X63160573Y-90606804D01*
X63184372Y-90612765D01*
X63207471Y-90621030D01*
X63229650Y-90631520D01*
X63250693Y-90644132D01*
X63270399Y-90658747D01*
X63288577Y-90675223D01*
X63305053Y-90693401D01*
X63319668Y-90713107D01*
X63332280Y-90734150D01*
X63342770Y-90756329D01*
X63351035Y-90779428D01*
X63356996Y-90803227D01*
X63360596Y-90827495D01*
X63361800Y-90851999D01*
X63361800Y-91502001D01*
X63360596Y-91526505D01*
X63356996Y-91550773D01*
X63351035Y-91574572D01*
X63342770Y-91597671D01*
X63332280Y-91619850D01*
X63319668Y-91640893D01*
X63305053Y-91660599D01*
X63288577Y-91678777D01*
X63270399Y-91695253D01*
X63250693Y-91709868D01*
X63229650Y-91722480D01*
X63207471Y-91732970D01*
X63184372Y-91741235D01*
X63160573Y-91747196D01*
X63136305Y-91750796D01*
X63111801Y-91752000D01*
X62211799Y-91752000D01*
X62187295Y-91750796D01*
X62163027Y-91747196D01*
X62139228Y-91741235D01*
X62116129Y-91732970D01*
X62093950Y-91722480D01*
X62072907Y-91709868D01*
X62053201Y-91695253D01*
X62035023Y-91678777D01*
X62018547Y-91660599D01*
X62003932Y-91640893D01*
X61991320Y-91619850D01*
X61980830Y-91597671D01*
X61972565Y-91574572D01*
X61966604Y-91550773D01*
X61963004Y-91526505D01*
X61961800Y-91502001D01*
X61961800Y-90851999D01*
X61963004Y-90827495D01*
X61966604Y-90803227D01*
X61972565Y-90779428D01*
X61980830Y-90756329D01*
X61991320Y-90734150D01*
X62003932Y-90713107D01*
X62018547Y-90693401D01*
X62035023Y-90675223D01*
X62053201Y-90658747D01*
X62072907Y-90644132D01*
X62093950Y-90631520D01*
X62116129Y-90621030D01*
X62139228Y-90612765D01*
X62163027Y-90606804D01*
X62187295Y-90603204D01*
X62211799Y-90602000D01*
X63111801Y-90602000D01*
X63136305Y-90603204D01*
X63136305Y-90603204D01*
G37*
D13*
G04 #@! TD*
G04 #@! TO.P,C6,1*
G04 #@! TO.N,+5V*
X62661800Y-91177000D03*
D12*
G04 #@! TO.N,Net-(C7-Pad1)*
G04 #@! TO.C,C7*
G36*
X63110905Y-97022004D02*
X63135173Y-97025604D01*
X63158972Y-97031565D01*
X63182071Y-97039830D01*
X63204250Y-97050320D01*
X63225293Y-97062932D01*
X63244999Y-97077547D01*
X63263177Y-97094023D01*
X63279653Y-97112201D01*
X63294268Y-97131907D01*
X63306880Y-97152950D01*
X63317370Y-97175129D01*
X63325635Y-97198228D01*
X63331596Y-97222027D01*
X63335196Y-97246295D01*
X63336400Y-97270799D01*
X63336400Y-97920801D01*
X63335196Y-97945305D01*
X63331596Y-97969573D01*
X63325635Y-97993372D01*
X63317370Y-98016471D01*
X63306880Y-98038650D01*
X63294268Y-98059693D01*
X63279653Y-98079399D01*
X63263177Y-98097577D01*
X63244999Y-98114053D01*
X63225293Y-98128668D01*
X63204250Y-98141280D01*
X63182071Y-98151770D01*
X63158972Y-98160035D01*
X63135173Y-98165996D01*
X63110905Y-98169596D01*
X63086401Y-98170800D01*
X62186399Y-98170800D01*
X62161895Y-98169596D01*
X62137627Y-98165996D01*
X62113828Y-98160035D01*
X62090729Y-98151770D01*
X62068550Y-98141280D01*
X62047507Y-98128668D01*
X62027801Y-98114053D01*
X62009623Y-98097577D01*
X61993147Y-98079399D01*
X61978532Y-98059693D01*
X61965920Y-98038650D01*
X61955430Y-98016471D01*
X61947165Y-97993372D01*
X61941204Y-97969573D01*
X61937604Y-97945305D01*
X61936400Y-97920801D01*
X61936400Y-97270799D01*
X61937604Y-97246295D01*
X61941204Y-97222027D01*
X61947165Y-97198228D01*
X61955430Y-97175129D01*
X61965920Y-97152950D01*
X61978532Y-97131907D01*
X61993147Y-97112201D01*
X62009623Y-97094023D01*
X62027801Y-97077547D01*
X62047507Y-97062932D01*
X62068550Y-97050320D01*
X62090729Y-97039830D01*
X62113828Y-97031565D01*
X62137627Y-97025604D01*
X62161895Y-97022004D01*
X62186399Y-97020800D01*
X63086401Y-97020800D01*
X63110905Y-97022004D01*
X63110905Y-97022004D01*
G37*
D13*
G04 #@! TD*
G04 #@! TO.P,C7,1*
G04 #@! TO.N,Net-(C7-Pad1)*
X62636400Y-97595800D03*
D12*
G04 #@! TO.N,GND*
G04 #@! TO.C,C7*
G36*
X63110905Y-94972004D02*
X63135173Y-94975604D01*
X63158972Y-94981565D01*
X63182071Y-94989830D01*
X63204250Y-95000320D01*
X63225293Y-95012932D01*
X63244999Y-95027547D01*
X63263177Y-95044023D01*
X63279653Y-95062201D01*
X63294268Y-95081907D01*
X63306880Y-95102950D01*
X63317370Y-95125129D01*
X63325635Y-95148228D01*
X63331596Y-95172027D01*
X63335196Y-95196295D01*
X63336400Y-95220799D01*
X63336400Y-95870801D01*
X63335196Y-95895305D01*
X63331596Y-95919573D01*
X63325635Y-95943372D01*
X63317370Y-95966471D01*
X63306880Y-95988650D01*
X63294268Y-96009693D01*
X63279653Y-96029399D01*
X63263177Y-96047577D01*
X63244999Y-96064053D01*
X63225293Y-96078668D01*
X63204250Y-96091280D01*
X63182071Y-96101770D01*
X63158972Y-96110035D01*
X63135173Y-96115996D01*
X63110905Y-96119596D01*
X63086401Y-96120800D01*
X62186399Y-96120800D01*
X62161895Y-96119596D01*
X62137627Y-96115996D01*
X62113828Y-96110035D01*
X62090729Y-96101770D01*
X62068550Y-96091280D01*
X62047507Y-96078668D01*
X62027801Y-96064053D01*
X62009623Y-96047577D01*
X61993147Y-96029399D01*
X61978532Y-96009693D01*
X61965920Y-95988650D01*
X61955430Y-95966471D01*
X61947165Y-95943372D01*
X61941204Y-95919573D01*
X61937604Y-95895305D01*
X61936400Y-95870801D01*
X61936400Y-95220799D01*
X61937604Y-95196295D01*
X61941204Y-95172027D01*
X61947165Y-95148228D01*
X61955430Y-95125129D01*
X61965920Y-95102950D01*
X61978532Y-95081907D01*
X61993147Y-95062201D01*
X62009623Y-95044023D01*
X62027801Y-95027547D01*
X62047507Y-95012932D01*
X62068550Y-95000320D01*
X62090729Y-94989830D01*
X62113828Y-94981565D01*
X62137627Y-94975604D01*
X62161895Y-94972004D01*
X62186399Y-94970800D01*
X63086401Y-94970800D01*
X63110905Y-94972004D01*
X63110905Y-94972004D01*
G37*
D13*
G04 #@! TD*
G04 #@! TO.P,C7,2*
G04 #@! TO.N,GND*
X62636400Y-95545800D03*
D23*
G04 #@! TO.P,J4,1*
G04 #@! TO.N,Net-(C7-Pad1)*
X68072000Y-94615000D03*
D24*
G04 #@! TO.P,J4,2*
G04 #@! TO.N,GND*
X73152000Y-94615000D03*
G04 #@! TD*
D12*
G04 #@! TO.N,+5V*
G04 #@! TO.C,R10*
G36*
X58125505Y-92239804D02*
X58149773Y-92243404D01*
X58173572Y-92249365D01*
X58196671Y-92257630D01*
X58218850Y-92268120D01*
X58239893Y-92280732D01*
X58259599Y-92295347D01*
X58277777Y-92311823D01*
X58294253Y-92330001D01*
X58308868Y-92349707D01*
X58321480Y-92370750D01*
X58331970Y-92392929D01*
X58340235Y-92416028D01*
X58346196Y-92439827D01*
X58349796Y-92464095D01*
X58351000Y-92488599D01*
X58351000Y-93388601D01*
X58349796Y-93413105D01*
X58346196Y-93437373D01*
X58340235Y-93461172D01*
X58331970Y-93484271D01*
X58321480Y-93506450D01*
X58308868Y-93527493D01*
X58294253Y-93547199D01*
X58277777Y-93565377D01*
X58259599Y-93581853D01*
X58239893Y-93596468D01*
X58218850Y-93609080D01*
X58196671Y-93619570D01*
X58173572Y-93627835D01*
X58149773Y-93633796D01*
X58125505Y-93637396D01*
X58101001Y-93638600D01*
X57450999Y-93638600D01*
X57426495Y-93637396D01*
X57402227Y-93633796D01*
X57378428Y-93627835D01*
X57355329Y-93619570D01*
X57333150Y-93609080D01*
X57312107Y-93596468D01*
X57292401Y-93581853D01*
X57274223Y-93565377D01*
X57257747Y-93547199D01*
X57243132Y-93527493D01*
X57230520Y-93506450D01*
X57220030Y-93484271D01*
X57211765Y-93461172D01*
X57205804Y-93437373D01*
X57202204Y-93413105D01*
X57201000Y-93388601D01*
X57201000Y-92488599D01*
X57202204Y-92464095D01*
X57205804Y-92439827D01*
X57211765Y-92416028D01*
X57220030Y-92392929D01*
X57230520Y-92370750D01*
X57243132Y-92349707D01*
X57257747Y-92330001D01*
X57274223Y-92311823D01*
X57292401Y-92295347D01*
X57312107Y-92280732D01*
X57333150Y-92268120D01*
X57355329Y-92257630D01*
X57378428Y-92249365D01*
X57402227Y-92243404D01*
X57426495Y-92239804D01*
X57450999Y-92238600D01*
X58101001Y-92238600D01*
X58125505Y-92239804D01*
X58125505Y-92239804D01*
G37*
D13*
G04 #@! TD*
G04 #@! TO.P,R10,1*
G04 #@! TO.N,+5V*
X57776000Y-92938600D03*
D12*
G04 #@! TO.N,Net-(R10-Pad2)*
G04 #@! TO.C,R10*
G36*
X60175505Y-92239804D02*
X60199773Y-92243404D01*
X60223572Y-92249365D01*
X60246671Y-92257630D01*
X60268850Y-92268120D01*
X60289893Y-92280732D01*
X60309599Y-92295347D01*
X60327777Y-92311823D01*
X60344253Y-92330001D01*
X60358868Y-92349707D01*
X60371480Y-92370750D01*
X60381970Y-92392929D01*
X60390235Y-92416028D01*
X60396196Y-92439827D01*
X60399796Y-92464095D01*
X60401000Y-92488599D01*
X60401000Y-93388601D01*
X60399796Y-93413105D01*
X60396196Y-93437373D01*
X60390235Y-93461172D01*
X60381970Y-93484271D01*
X60371480Y-93506450D01*
X60358868Y-93527493D01*
X60344253Y-93547199D01*
X60327777Y-93565377D01*
X60309599Y-93581853D01*
X60289893Y-93596468D01*
X60268850Y-93609080D01*
X60246671Y-93619570D01*
X60223572Y-93627835D01*
X60199773Y-93633796D01*
X60175505Y-93637396D01*
X60151001Y-93638600D01*
X59500999Y-93638600D01*
X59476495Y-93637396D01*
X59452227Y-93633796D01*
X59428428Y-93627835D01*
X59405329Y-93619570D01*
X59383150Y-93609080D01*
X59362107Y-93596468D01*
X59342401Y-93581853D01*
X59324223Y-93565377D01*
X59307747Y-93547199D01*
X59293132Y-93527493D01*
X59280520Y-93506450D01*
X59270030Y-93484271D01*
X59261765Y-93461172D01*
X59255804Y-93437373D01*
X59252204Y-93413105D01*
X59251000Y-93388601D01*
X59251000Y-92488599D01*
X59252204Y-92464095D01*
X59255804Y-92439827D01*
X59261765Y-92416028D01*
X59270030Y-92392929D01*
X59280520Y-92370750D01*
X59293132Y-92349707D01*
X59307747Y-92330001D01*
X59324223Y-92311823D01*
X59342401Y-92295347D01*
X59362107Y-92280732D01*
X59383150Y-92268120D01*
X59405329Y-92257630D01*
X59428428Y-92249365D01*
X59452227Y-92243404D01*
X59476495Y-92239804D01*
X59500999Y-92238600D01*
X60151001Y-92238600D01*
X60175505Y-92239804D01*
X60175505Y-92239804D01*
G37*
D13*
G04 #@! TD*
G04 #@! TO.P,R10,2*
G04 #@! TO.N,Net-(R10-Pad2)*
X59826000Y-92938600D03*
D18*
G04 #@! TO.P,U4,1*
G04 #@! TO.N,Net-(C7-Pad1)*
X59719200Y-97546200D03*
G04 #@! TO.P,U4,2*
G04 #@! TO.N,GND*
X59719200Y-96596200D03*
G04 #@! TO.P,U4,3*
G04 #@! TO.N,Net-(R10-Pad2)*
X59719200Y-95646200D03*
G04 #@! TO.P,U4,4*
G04 #@! TO.N,pump_en*
X57019200Y-95646200D03*
G04 #@! TO.P,U4,5*
G04 #@! TO.N,+5V*
X57019200Y-97546200D03*
G04 #@! TD*
D25*
G04 #@! TO.N,VCC*
X75781000Y-62573000D03*
G04 #@! TO.N,Net-(A1-Pad9)*
X81877000Y-63462000D03*
G04 #@! TD*
D26*
G04 #@! TO.N,GND*
X73513000Y-61421000D02*
X73504000Y-61430000D01*
X77813000Y-61421000D02*
X73513000Y-61421000D01*
X72159000Y-65240000D02*
X72479000Y-64920000D01*
X71129000Y-65240000D02*
X72159000Y-65240000D01*
X72479000Y-62455000D02*
X73504000Y-61430000D01*
X72479000Y-64920000D02*
X72479000Y-62455000D01*
X82004000Y-69939000D02*
X82639000Y-70574000D01*
X82004000Y-67789000D02*
X82004000Y-69939000D01*
X88700600Y-59474200D02*
X87592000Y-60582800D01*
X87592000Y-65621000D02*
X82639000Y-70574000D01*
X87592000Y-60582800D02*
X87592000Y-65621000D01*
X96868800Y-65417800D02*
X97072000Y-65621000D01*
X90622200Y-65417800D02*
X96868800Y-65417800D01*
X88518999Y-85014001D02*
X87719000Y-85814000D01*
X89751000Y-83782000D02*
X88518999Y-85014001D01*
X96056000Y-83782000D02*
X89751000Y-83782000D01*
X97072000Y-84798000D02*
X96056000Y-83782000D01*
X96727000Y-49962000D02*
X98594000Y-48095000D01*
X96727000Y-50762000D02*
X96727000Y-49962000D01*
X108957360Y-50000000D02*
X113200000Y-50000000D01*
X107052360Y-48095000D02*
X108957360Y-50000000D01*
X103591990Y-48478010D02*
X103975000Y-48095000D01*
X101078000Y-53795000D02*
X103591990Y-51281010D01*
X101078000Y-54445000D02*
X101078000Y-53795000D01*
X98594000Y-48095000D02*
X103975000Y-48095000D01*
X103591990Y-51281010D02*
X103591990Y-48478010D01*
X103975000Y-48095000D02*
X107052360Y-48095000D01*
X52288628Y-66371372D02*
X52912000Y-65748000D01*
X52288628Y-72354628D02*
X52288628Y-66371372D01*
X79337000Y-73876000D02*
X53810000Y-73876000D01*
X53810000Y-73876000D02*
X52288628Y-72354628D01*
X82639000Y-70574000D02*
X79337000Y-73876000D01*
X52032000Y-56078000D02*
X53556000Y-54554000D01*
X52032000Y-57112000D02*
X52032000Y-56078000D01*
X52667000Y-57747000D02*
X52032000Y-57112000D01*
X53523000Y-57747000D02*
X52667000Y-57747000D01*
X54064000Y-59318000D02*
X54064000Y-58288000D01*
X54064000Y-58288000D02*
X53523000Y-57747000D01*
X58080000Y-50030000D02*
X59470000Y-50030000D01*
X53556000Y-54554000D02*
X58080000Y-50030000D01*
X61586000Y-96596200D02*
X59719200Y-96596200D01*
X62636400Y-95545800D02*
X61586000Y-96596200D01*
X62636400Y-93252400D02*
X62661800Y-93227000D01*
X62636400Y-95545800D02*
X62636400Y-93252400D01*
X62636400Y-95545800D02*
X65904000Y-92278200D01*
X70815200Y-92278200D02*
X73152000Y-94615000D01*
X65904000Y-92278200D02*
X70815200Y-92278200D01*
X88472000Y-50762000D02*
X96727000Y-50762000D01*
X79654400Y-59579600D02*
X88472000Y-50762000D01*
X77813000Y-61421000D02*
X79654400Y-59579600D01*
G04 #@! TO.N,P_ana*
X57239000Y-63843000D02*
X57239000Y-70574000D01*
X63335000Y-57747000D02*
X57239000Y-63843000D01*
X66387081Y-57747000D02*
X63335000Y-57747000D01*
X67090000Y-52570000D02*
X67090000Y-57044081D01*
X67090000Y-57044081D02*
X66387081Y-57747000D01*
G04 #@! TO.N,bd_en*
X54061990Y-68805620D02*
X54699000Y-69442630D01*
X54699000Y-69442630D02*
X54699000Y-70574000D01*
X54061990Y-63420990D02*
X54061990Y-68805620D01*
X53114000Y-62473000D02*
X54061990Y-63420990D01*
X53114000Y-62018000D02*
X53114000Y-62473000D01*
D27*
G04 #@! TO.N,+5V*
X54962000Y-62070000D02*
X55014000Y-62018000D01*
X54962000Y-65748000D02*
X54962000Y-62070000D01*
X55014000Y-61563000D02*
X55014000Y-62018000D01*
X54289000Y-60838000D02*
X55014000Y-61563000D01*
X51490001Y-60837999D02*
X54289000Y-60838000D01*
X50635000Y-61693000D02*
X51490001Y-60837999D01*
X96015800Y-59474200D02*
X96854000Y-58636000D01*
X90750600Y-59474200D02*
X96015800Y-59474200D01*
X90750600Y-61479400D02*
X90622200Y-61607800D01*
X90750600Y-59474200D02*
X90750600Y-61479400D01*
X90750600Y-58674200D02*
X89950400Y-57874000D01*
X90750600Y-59474200D02*
X90750600Y-58674200D01*
X83392000Y-57874000D02*
X82004000Y-59262000D01*
X89950400Y-57874000D02*
X83392000Y-57874000D01*
X89447200Y-61607800D02*
X88481000Y-62574000D01*
X90622200Y-61607800D02*
X89447200Y-61607800D01*
X88481000Y-62574000D02*
X88481000Y-65621000D01*
X88481000Y-65621000D02*
X92799000Y-69939000D01*
X92799000Y-75654000D02*
X82639000Y-85814000D01*
X92799000Y-69939000D02*
X92799000Y-75654000D01*
X50011628Y-62316372D02*
X50011628Y-72617628D01*
X50635000Y-61693000D02*
X50011628Y-62316372D01*
X50011628Y-72617628D02*
X58255000Y-80861000D01*
X77686000Y-80861000D02*
X82639000Y-85814000D01*
X58255000Y-80861000D02*
X77686000Y-80861000D01*
X57776000Y-93738600D02*
X58369200Y-94331800D01*
X57776000Y-92938600D02*
X57776000Y-93738600D01*
X58369200Y-96651200D02*
X57474200Y-97546200D01*
X57474200Y-97546200D02*
X57019200Y-97546200D01*
X58369200Y-94331800D02*
X58369200Y-96651200D01*
X57776000Y-92938600D02*
X57776000Y-91982400D01*
X58581400Y-91177000D02*
X62661800Y-91177000D01*
X57776000Y-91982400D02*
X58581400Y-91177000D01*
X77276000Y-91177000D02*
X62661800Y-91177000D01*
X82639000Y-85814000D02*
X77276000Y-91177000D01*
D26*
G04 #@! TO.N,CH4_en*
X67399000Y-68669000D02*
X67399000Y-70574000D01*
X68669000Y-67399000D02*
X67399000Y-68669000D01*
X72165000Y-67399000D02*
X68669000Y-67399000D01*
X73829000Y-66190000D02*
X73374000Y-66190000D01*
X73374000Y-66190000D02*
X72165000Y-67399000D01*
G04 #@! TO.N,SHTdata*
X69630000Y-53772081D02*
X69630000Y-52570000D01*
X69630000Y-55140491D02*
X69630000Y-53772081D01*
X66573482Y-58197009D02*
X69630000Y-55140491D01*
X63521400Y-58197010D02*
X66573482Y-58197009D01*
X59779000Y-61939410D02*
X63521400Y-58197010D01*
X59779000Y-70574000D02*
X59779000Y-61939410D01*
G04 #@! TO.N,SHTclk*
X72170000Y-53772081D02*
X72170000Y-52570000D01*
X67295061Y-58647020D02*
X72170000Y-53772081D01*
X63707800Y-58647020D02*
X67295061Y-58647020D01*
X62319000Y-60035820D02*
X63707800Y-58647020D01*
X62319000Y-70574000D02*
X62319000Y-60035820D01*
D27*
G04 #@! TO.N,VCC*
X76994000Y-64290000D02*
X77813000Y-63471000D01*
X73829000Y-64290000D02*
X76994000Y-64290000D01*
X77039000Y-64290000D02*
X76994000Y-64290000D01*
X77813000Y-65064000D02*
X77039000Y-64290000D01*
X77813000Y-65739000D02*
X77813000Y-65064000D01*
X98342000Y-88608000D02*
X97072000Y-89878000D01*
X99612000Y-88608000D02*
X98342000Y-88608000D01*
X98342000Y-69431000D02*
X97072000Y-70701000D01*
X99612000Y-69431000D02*
X98342000Y-69431000D01*
X73829000Y-64290000D02*
X74064000Y-64290000D01*
X74064000Y-64290000D02*
X75781000Y-62573000D01*
X94323000Y-89878000D02*
X90259000Y-85814000D01*
X97072000Y-89878000D02*
X94323000Y-89878000D01*
D26*
G04 #@! TO.N,S_SCL*
X73534999Y-51394999D02*
X73860001Y-51720001D01*
X73860001Y-51720001D02*
X74710000Y-52570000D01*
X58037534Y-81386010D02*
X70591010Y-81386010D01*
X70591010Y-81386010D02*
X75019000Y-85814000D01*
X49111000Y-72459476D02*
X58037534Y-81386010D01*
X73444200Y-51304200D02*
X73444200Y-49403100D01*
X74710000Y-52570000D02*
X73444200Y-51304200D01*
X73444200Y-49403100D02*
X72453600Y-48412500D01*
X72453600Y-48412500D02*
X58109310Y-48412500D01*
X58109310Y-48412500D02*
X49111000Y-57410810D01*
X49111000Y-57410810D02*
X49111000Y-72459476D01*
G04 #@! TO.N,S_SDA*
X68542000Y-81877000D02*
X72479000Y-85814000D01*
X48603000Y-72587886D02*
X57892114Y-81877000D01*
X57892114Y-81877000D02*
X68542000Y-81877000D01*
X48603000Y-57282400D02*
X48603000Y-72587886D01*
X55065410Y-50819990D02*
X54717000Y-51168400D01*
X54717000Y-51168400D02*
X48603000Y-57282400D01*
X57955500Y-47929900D02*
X54717000Y-51168400D01*
X77250000Y-52570000D02*
X76400001Y-51720001D01*
X76400001Y-51720001D02*
X76396101Y-51720001D01*
X76396101Y-51720001D02*
X75984200Y-51308100D01*
X75984200Y-51308100D02*
X75984200Y-49565198D01*
X75984200Y-49565198D02*
X74348902Y-47929900D01*
X74348902Y-47929900D02*
X57955500Y-47929900D01*
D27*
G04 #@! TO.N,Net-(C3-Pad1)*
X55014000Y-58062000D02*
X55014000Y-59318000D01*
X53556000Y-56604000D02*
X55014000Y-58062000D01*
X54318000Y-55842000D02*
X53556000Y-56604000D01*
X57590000Y-52570000D02*
X53556000Y-56604000D01*
X59470000Y-52570000D02*
X57590000Y-52570000D01*
X62010000Y-52570000D02*
X59470000Y-52570000D01*
G04 #@! TO.N,Net-(C4-Pad1)*
X71454000Y-63965000D02*
X71129000Y-64290000D01*
X71454000Y-61430000D02*
X71454000Y-63965000D01*
X72579990Y-60304010D02*
X75327990Y-60304010D01*
X71454000Y-61430000D02*
X72579990Y-60304010D01*
X79790000Y-55842000D02*
X75327990Y-60304010D01*
X79790000Y-52570000D02*
X79790000Y-55842000D01*
X79790000Y-52570000D02*
X82330000Y-52570000D01*
X82330000Y-52570000D02*
X82330000Y-50030000D01*
X82330000Y-50030000D02*
X79790000Y-50030000D01*
X79790000Y-50030000D02*
X79790000Y-52570000D01*
D26*
G04 #@! TO.N,Net-(D1-Pad1)*
X104492000Y-55809000D02*
X104078000Y-55395000D01*
X104492000Y-58636000D02*
X104492000Y-55809000D01*
X100689630Y-74511000D02*
X102451000Y-72749630D01*
X99612000Y-74511000D02*
X100689630Y-74511000D01*
X102451000Y-60677000D02*
X104492000Y-58636000D01*
X102451000Y-72749630D02*
X102451000Y-60677000D01*
X100373999Y-75272999D02*
X99612000Y-74511000D01*
X103213000Y-78112000D02*
X100373999Y-75272999D01*
X103213000Y-90087000D02*
X103213000Y-78112000D01*
X99612000Y-93688000D02*
X103213000Y-90087000D01*
G04 #@! TO.N,Net-(D1-Pad2)*
X104492000Y-53081000D02*
X104078000Y-53495000D01*
X104492000Y-50762000D02*
X104492000Y-53081000D01*
X98661370Y-95085000D02*
X97072000Y-93495630D01*
X100292000Y-95085000D02*
X98661370Y-95085000D01*
X104078000Y-53495000D02*
X105278000Y-53495000D01*
X97072000Y-93495630D02*
X97072000Y-92418000D01*
X105626000Y-53843000D02*
X105626000Y-59398000D01*
X103663010Y-91713990D02*
X100292000Y-95085000D01*
X105278000Y-53495000D02*
X105626000Y-53843000D01*
X105626000Y-59398000D02*
X103663010Y-61360990D01*
X103663010Y-61360990D02*
X103663010Y-91713990D01*
G04 #@! TO.N,Net-(R1-Pad2)*
X50960000Y-59318000D02*
X50635000Y-59643000D01*
X53114000Y-59318000D02*
X50960000Y-59318000D01*
G04 #@! TO.N,Net-(R2-Pad2)*
X72159000Y-66190000D02*
X71129000Y-66190000D01*
X77813000Y-67789000D02*
X77189628Y-67165628D01*
X77189628Y-67165628D02*
X77189628Y-67156628D01*
X72474000Y-65875000D02*
X72159000Y-66190000D01*
X77189628Y-67156628D02*
X75400000Y-65367000D01*
X75400000Y-65367000D02*
X72733000Y-65367000D01*
X72474000Y-65626000D02*
X72474000Y-65875000D01*
X72733000Y-65367000D02*
X72474000Y-65626000D01*
G04 #@! TO.N,Net-(R5-Pad2)*
X102442000Y-58636000D02*
X98904000Y-58636000D01*
X98904000Y-57836000D02*
X98904000Y-58636000D01*
X98904000Y-56584000D02*
X98904000Y-57836000D01*
X97790000Y-55470000D02*
X98904000Y-56584000D01*
X96990000Y-55470000D02*
X97790000Y-55470000D01*
X91647200Y-64147800D02*
X90622200Y-64147800D01*
X94192200Y-64147800D02*
X91647200Y-64147800D01*
X98904000Y-59436000D02*
X94192200Y-64147800D01*
X98904000Y-58636000D02*
X98904000Y-59436000D01*
G04 #@! TO.N,Net-(R6-Pad2)*
X98777000Y-50762000D02*
X102442000Y-50762000D01*
X98777000Y-51633000D02*
X98777000Y-50762000D01*
X96990000Y-53420000D02*
X98777000Y-51633000D01*
X96190000Y-53420000D02*
X95593000Y-54017000D01*
X96990000Y-53420000D02*
X96190000Y-53420000D01*
X95593000Y-54017000D02*
X95593000Y-55969000D01*
X95593000Y-55969000D02*
X96482000Y-56858000D01*
X96482000Y-56858000D02*
X97244000Y-56858000D01*
X98003990Y-57617990D02*
X98003990Y-59527010D01*
X97244000Y-56858000D02*
X98003990Y-57617990D01*
X94653200Y-62877800D02*
X90622200Y-62877800D01*
X98003990Y-59527010D02*
X94653200Y-62877800D01*
G04 #@! TO.N,Net-(J2-Pad6)*
X97072000Y-86406762D02*
X99022000Y-84456762D01*
X97072000Y-87338000D02*
X97072000Y-86406762D01*
X99022000Y-84456762D02*
X99022000Y-77305000D01*
X99022000Y-77305000D02*
X95339000Y-73622000D01*
X95339000Y-69894000D02*
X97072000Y-68161000D01*
X95339000Y-73622000D02*
X95339000Y-69894000D01*
G04 #@! TO.N,Net-(J2-Pad3)*
X99612000Y-91148000D02*
X102578000Y-88182000D01*
X102578000Y-88182000D02*
X102578000Y-79718000D01*
X102578000Y-79718000D02*
X98260000Y-75400000D01*
X98260000Y-73323000D02*
X99612000Y-71971000D01*
X98260000Y-75400000D02*
X98260000Y-73323000D01*
G04 #@! TO.N,Net-(A1-Pad9)*
X85222200Y-64147800D02*
X85222200Y-62877800D01*
X85222200Y-64147800D02*
X82562800Y-64147800D01*
X82562800Y-64147800D02*
X81877000Y-63462000D01*
G04 #@! TO.N,Net-(A1-Pad5)*
X82325200Y-65417800D02*
X82004000Y-65739000D01*
X85222200Y-65417800D02*
X82325200Y-65417800D01*
X80099000Y-69442630D02*
X80099000Y-70574000D01*
X81204000Y-65739000D02*
X80099000Y-66844000D01*
X80099000Y-66844000D02*
X80099000Y-69442630D01*
X82004000Y-65739000D02*
X81204000Y-65739000D01*
G04 #@! TO.N,Net-(A1-Pad6)*
X82299800Y-61607800D02*
X82004000Y-61312000D01*
X85222200Y-61607800D02*
X82299800Y-61607800D01*
X79464000Y-63852000D02*
X82004000Y-61312000D01*
X77559000Y-70574000D02*
X79464000Y-68669000D01*
X79464000Y-68669000D02*
X79464000Y-63852000D01*
G04 #@! TO.N,pump_en*
X54699000Y-86945370D02*
X54699000Y-85814000D01*
X54699000Y-92751000D02*
X54699000Y-86945370D01*
X57019200Y-95071200D02*
X54699000Y-92751000D01*
X57019200Y-95646200D02*
X57019200Y-95071200D01*
D27*
G04 #@! TO.N,Net-(C7-Pad1)*
X62586800Y-97546200D02*
X62636400Y-97595800D01*
X59719200Y-97546200D02*
X62586800Y-97546200D01*
X66991200Y-97595800D02*
X68072000Y-96515000D01*
X68072000Y-96515000D02*
X68072000Y-94615000D01*
X62636400Y-97595800D02*
X66991200Y-97595800D01*
D26*
G04 #@! TO.N,Net-(R10-Pad2)*
X59719200Y-93045400D02*
X59826000Y-92938600D01*
X59719200Y-95646200D02*
X59719200Y-93045400D01*
G04 #@! TD*
D28*
G04 #@! TO.N,GND*
G36*
X110491266Y-47470874D02*
X110603368Y-47582976D01*
X110128723Y-47925566D01*
X109568658Y-49258800D01*
X109561432Y-50704875D01*
X110108146Y-52043639D01*
X110128723Y-52074434D01*
X110603370Y-52417025D01*
X113020395Y-50000000D01*
X113006253Y-49985858D01*
X113185858Y-49806253D01*
X113200000Y-49820395D01*
X113214143Y-49806253D01*
X113393748Y-49985858D01*
X113379605Y-50000000D01*
X113393748Y-50014143D01*
X113214143Y-50193748D01*
X113200000Y-50179605D01*
X110782975Y-52596630D01*
X111125566Y-53071277D01*
X112458800Y-53631342D01*
X113904875Y-53638568D01*
X115243639Y-53091854D01*
X115274434Y-53071277D01*
X115617024Y-52596632D01*
X115640000Y-52619608D01*
X115640001Y-98540000D01*
X110088967Y-98540000D01*
X110180172Y-98335777D01*
X109012000Y-97167605D01*
X107843828Y-98335777D01*
X107935033Y-98540000D01*
X63731267Y-98540000D01*
X63804232Y-98430800D01*
X66908967Y-98430800D01*
X66991200Y-98447157D01*
X67073433Y-98430800D01*
X67073437Y-98430800D01*
X67317001Y-98382352D01*
X67593201Y-98197801D01*
X67639787Y-98128080D01*
X68604283Y-97163585D01*
X68674001Y-97117001D01*
X68858552Y-96840801D01*
X68874139Y-96762440D01*
X69572000Y-96762440D01*
X69819765Y-96713157D01*
X70029809Y-96572809D01*
X70170157Y-96362765D01*
X70216661Y-96128970D01*
X71817635Y-96128970D01*
X71977418Y-96447739D01*
X72768187Y-96757723D01*
X73617387Y-96741497D01*
X74326582Y-96447739D01*
X74486365Y-96128970D01*
X73152000Y-94794605D01*
X71817635Y-96128970D01*
X70216661Y-96128970D01*
X70219440Y-96115000D01*
X70219440Y-94231187D01*
X71009277Y-94231187D01*
X71025503Y-95080387D01*
X71319261Y-95789582D01*
X71638030Y-95949365D01*
X72972395Y-94615000D01*
X73331605Y-94615000D01*
X74665970Y-95949365D01*
X74984739Y-95789582D01*
X75294723Y-94998813D01*
X75278497Y-94149613D01*
X74984739Y-93440418D01*
X74665970Y-93280635D01*
X73331605Y-94615000D01*
X72972395Y-94615000D01*
X71638030Y-93280635D01*
X71319261Y-93440418D01*
X71009277Y-94231187D01*
X70219440Y-94231187D01*
X70219440Y-93115000D01*
X70216662Y-93101030D01*
X71817635Y-93101030D01*
X73152000Y-94435395D01*
X74486365Y-93101030D01*
X74326582Y-92782261D01*
X73535813Y-92472277D01*
X72686613Y-92488503D01*
X71977418Y-92782261D01*
X71817635Y-93101030D01*
X70216662Y-93101030D01*
X70170157Y-92867235D01*
X70029809Y-92657191D01*
X69819765Y-92516843D01*
X69572000Y-92467560D01*
X66572000Y-92467560D01*
X66324235Y-92516843D01*
X66114191Y-92657191D01*
X65973843Y-92867235D01*
X65924560Y-93115000D01*
X65924560Y-96115000D01*
X65973843Y-96362765D01*
X66114191Y-96572809D01*
X66324235Y-96713157D01*
X66563755Y-96760800D01*
X63804232Y-96760800D01*
X63720986Y-96636214D01*
X63719803Y-96635423D01*
X63874727Y-96480498D01*
X63971400Y-96247109D01*
X63971400Y-95831550D01*
X63812650Y-95672800D01*
X62763400Y-95672800D01*
X62763400Y-95692800D01*
X62509400Y-95692800D01*
X62509400Y-95672800D01*
X61460150Y-95672800D01*
X61301400Y-95831550D01*
X61301400Y-96247109D01*
X61398073Y-96480498D01*
X61552997Y-96635423D01*
X61551814Y-96636214D01*
X61501710Y-96711200D01*
X60878900Y-96711200D01*
X60746965Y-96623043D01*
X60612015Y-96596200D01*
X60746965Y-96569357D01*
X60896859Y-96469200D01*
X60975450Y-96469200D01*
X61134200Y-96310450D01*
X61134200Y-96144890D01*
X61119264Y-96108831D01*
X61146640Y-95971200D01*
X61146640Y-95321200D01*
X61097357Y-95073435D01*
X60957009Y-94863391D01*
X60928724Y-94844491D01*
X61301400Y-94844491D01*
X61301400Y-95260050D01*
X61460150Y-95418800D01*
X62509400Y-95418800D01*
X62509400Y-94494550D01*
X62763400Y-94494550D01*
X62763400Y-95418800D01*
X63812650Y-95418800D01*
X63971400Y-95260050D01*
X63971400Y-94844491D01*
X63874727Y-94611102D01*
X63696099Y-94432473D01*
X63597569Y-94391661D01*
X63721499Y-94340327D01*
X63900127Y-94161698D01*
X63996800Y-93928309D01*
X63996800Y-93512750D01*
X63838050Y-93354000D01*
X62788800Y-93354000D01*
X62788800Y-94278250D01*
X62884250Y-94373700D01*
X62763400Y-94494550D01*
X62509400Y-94494550D01*
X62413950Y-94399100D01*
X62534800Y-94278250D01*
X62534800Y-93354000D01*
X61485550Y-93354000D01*
X61326800Y-93512750D01*
X61326800Y-93928309D01*
X61423473Y-94161698D01*
X61602101Y-94340327D01*
X61700631Y-94381139D01*
X61576701Y-94432473D01*
X61398073Y-94611102D01*
X61301400Y-94844491D01*
X60928724Y-94844491D01*
X60746965Y-94723043D01*
X60499200Y-94673760D01*
X60479200Y-94673760D01*
X60479200Y-94220758D01*
X60494436Y-94217727D01*
X60785586Y-94023186D01*
X60980127Y-93732036D01*
X61048440Y-93388601D01*
X61048440Y-92488599D01*
X60980127Y-92145164D01*
X60891149Y-92012000D01*
X61493968Y-92012000D01*
X61577214Y-92136586D01*
X61578397Y-92137377D01*
X61423473Y-92292302D01*
X61326800Y-92525691D01*
X61326800Y-92941250D01*
X61485550Y-93100000D01*
X62534800Y-93100000D01*
X62534800Y-93080000D01*
X62788800Y-93080000D01*
X62788800Y-93100000D01*
X63838050Y-93100000D01*
X63996800Y-92941250D01*
X63996800Y-92525691D01*
X63900127Y-92292302D01*
X63745203Y-92137377D01*
X63746386Y-92136586D01*
X63829632Y-92012000D01*
X77193767Y-92012000D01*
X77276000Y-92028357D01*
X77358233Y-92012000D01*
X77358237Y-92012000D01*
X77601801Y-91963552D01*
X77878001Y-91779001D01*
X77924587Y-91709280D01*
X82403583Y-87230286D01*
X82497667Y-87249000D01*
X82780333Y-87249000D01*
X83198909Y-87165740D01*
X83673577Y-86848577D01*
X83909000Y-86496242D01*
X84144423Y-86848577D01*
X84619091Y-87165740D01*
X85037667Y-87249000D01*
X85320333Y-87249000D01*
X85738909Y-87165740D01*
X86213577Y-86848577D01*
X86469947Y-86464892D01*
X86566611Y-86669134D01*
X86981577Y-87045041D01*
X87369961Y-87205904D01*
X87592000Y-87083915D01*
X87592000Y-85941000D01*
X87572000Y-85941000D01*
X87572000Y-85687000D01*
X87592000Y-85687000D01*
X87592000Y-84544085D01*
X87369961Y-84422096D01*
X86981577Y-84582959D01*
X86566611Y-84958866D01*
X86469947Y-85163108D01*
X86213577Y-84779423D01*
X85738909Y-84462260D01*
X85320333Y-84379000D01*
X85254867Y-84379000D01*
X85816080Y-83817787D01*
X96271392Y-83817787D01*
X97072000Y-84618395D01*
X97872608Y-83817787D01*
X97803143Y-83575603D01*
X97279698Y-83388856D01*
X96724632Y-83416638D01*
X96340857Y-83575603D01*
X96271392Y-83817787D01*
X85816080Y-83817787D01*
X93331283Y-76302585D01*
X93401001Y-76256001D01*
X93585552Y-75979801D01*
X93634000Y-75736237D01*
X93650358Y-75654000D01*
X93634000Y-75571763D01*
X93634000Y-70021232D01*
X93650357Y-69938999D01*
X93634000Y-69856764D01*
X93634000Y-69856763D01*
X93585552Y-69613199D01*
X93401001Y-69336999D01*
X93331283Y-69290415D01*
X90365059Y-66324191D01*
X90495200Y-66194050D01*
X90495200Y-65544800D01*
X90749200Y-65544800D01*
X90749200Y-66194050D01*
X90907950Y-66352800D01*
X91523509Y-66352800D01*
X91756898Y-66256127D01*
X91935527Y-66077499D01*
X92032200Y-65844110D01*
X92032200Y-65703550D01*
X91873450Y-65544800D01*
X90749200Y-65544800D01*
X90495200Y-65544800D01*
X90475200Y-65544800D01*
X90475200Y-65413302D01*
X95662856Y-65413302D01*
X95690638Y-65968368D01*
X95849603Y-66352143D01*
X96091787Y-66421608D01*
X96892395Y-65621000D01*
X97251605Y-65621000D01*
X98052213Y-66421608D01*
X98294397Y-66352143D01*
X98451857Y-65910787D01*
X98811392Y-65910787D01*
X99612000Y-66711395D01*
X100412608Y-65910787D01*
X100343143Y-65668603D01*
X99819698Y-65481856D01*
X99264632Y-65509638D01*
X98880857Y-65668603D01*
X98811392Y-65910787D01*
X98451857Y-65910787D01*
X98481144Y-65828698D01*
X98453362Y-65273632D01*
X98294397Y-64889857D01*
X98052213Y-64820392D01*
X97251605Y-65621000D01*
X96892395Y-65621000D01*
X96091787Y-64820392D01*
X95849603Y-64889857D01*
X95662856Y-65413302D01*
X90475200Y-65413302D01*
X90475200Y-65290800D01*
X90495200Y-65290800D01*
X90495200Y-65270800D01*
X90749200Y-65270800D01*
X90749200Y-65290800D01*
X91873450Y-65290800D01*
X92032200Y-65132050D01*
X92032200Y-64991490D01*
X91997534Y-64907800D01*
X94117353Y-64907800D01*
X94192200Y-64922688D01*
X94267047Y-64907800D01*
X94267052Y-64907800D01*
X94488737Y-64863704D01*
X94740129Y-64695729D01*
X94776840Y-64640787D01*
X96271392Y-64640787D01*
X97072000Y-65441395D01*
X97872608Y-64640787D01*
X97803143Y-64398603D01*
X97279698Y-64211856D01*
X96724632Y-64239638D01*
X96340857Y-64398603D01*
X96271392Y-64640787D01*
X94776840Y-64640787D01*
X94782531Y-64632270D01*
X99388476Y-60026327D01*
X99451929Y-59983929D01*
X99486476Y-59932225D01*
X99572436Y-59915127D01*
X99863586Y-59720586D01*
X100058127Y-59429436D01*
X100064778Y-59396000D01*
X101281222Y-59396000D01*
X101287873Y-59429436D01*
X101482414Y-59720586D01*
X101773564Y-59915127D01*
X102077596Y-59975602D01*
X101966528Y-60086671D01*
X101903072Y-60129071D01*
X101860672Y-60192527D01*
X101860671Y-60192528D01*
X101788520Y-60300510D01*
X101735097Y-60380463D01*
X101703938Y-60537112D01*
X101676112Y-60677000D01*
X101691001Y-60751852D01*
X101691000Y-72434827D01*
X100601243Y-73524586D01*
X100403337Y-73326680D01*
X100196487Y-73241000D01*
X100403337Y-73155320D01*
X100796320Y-72762337D01*
X101009000Y-72248881D01*
X101009000Y-71693119D01*
X100796320Y-71179663D01*
X100403337Y-70786680D01*
X100196487Y-70701000D01*
X100403337Y-70615320D01*
X100796320Y-70222337D01*
X101009000Y-69708881D01*
X101009000Y-69153119D01*
X100796320Y-68639663D01*
X100403337Y-68246680D01*
X100212353Y-68167572D01*
X100343143Y-68113397D01*
X100412608Y-67871213D01*
X99612000Y-67070605D01*
X98811392Y-67871213D01*
X98880857Y-68113397D01*
X99021393Y-68163535D01*
X98820663Y-68246680D01*
X98471343Y-68596000D01*
X98424232Y-68596000D01*
X98405466Y-68592267D01*
X98469000Y-68438881D01*
X98469000Y-67883119D01*
X98256320Y-67369663D01*
X97863337Y-66976680D01*
X97672353Y-66897572D01*
X97803143Y-66843397D01*
X97849062Y-66683302D01*
X98202856Y-66683302D01*
X98230638Y-67238368D01*
X98389603Y-67622143D01*
X98631787Y-67691608D01*
X99432395Y-66891000D01*
X99791605Y-66891000D01*
X100592213Y-67691608D01*
X100834397Y-67622143D01*
X101021144Y-67098698D01*
X100993362Y-66543632D01*
X100834397Y-66159857D01*
X100592213Y-66090392D01*
X99791605Y-66891000D01*
X99432395Y-66891000D01*
X98631787Y-66090392D01*
X98389603Y-66159857D01*
X98202856Y-66683302D01*
X97849062Y-66683302D01*
X97872608Y-66601213D01*
X97072000Y-65800605D01*
X96271392Y-66601213D01*
X96340857Y-66843397D01*
X96481393Y-66893535D01*
X96280663Y-66976680D01*
X95887680Y-67369663D01*
X95675000Y-67883119D01*
X95675000Y-68438881D01*
X95687980Y-68470218D01*
X94854528Y-69303671D01*
X94791072Y-69346071D01*
X94748672Y-69409527D01*
X94748671Y-69409528D01*
X94623097Y-69597463D01*
X94564112Y-69894000D01*
X94579001Y-69968852D01*
X94579000Y-73547153D01*
X94564112Y-73622000D01*
X94579000Y-73696847D01*
X94579000Y-73696851D01*
X94623096Y-73918536D01*
X94791071Y-74169929D01*
X94854530Y-74212331D01*
X98262001Y-77619803D01*
X98262000Y-84057565D01*
X98052213Y-83997392D01*
X97251605Y-84798000D01*
X97265748Y-84812143D01*
X97086143Y-84991748D01*
X97072000Y-84977605D01*
X96271392Y-85778213D01*
X96340857Y-86020397D01*
X96401631Y-86042079D01*
X96356097Y-86110225D01*
X96353450Y-86123531D01*
X96280663Y-86153680D01*
X95887680Y-86546663D01*
X95675000Y-87060119D01*
X95675000Y-87615881D01*
X95887680Y-88129337D01*
X96280663Y-88522320D01*
X96487513Y-88608000D01*
X96280663Y-88693680D01*
X95931343Y-89043000D01*
X94668868Y-89043000D01*
X91675285Y-86049418D01*
X91722113Y-85814000D01*
X91610740Y-85254091D01*
X91293577Y-84779423D01*
X91010538Y-84590302D01*
X95662856Y-84590302D01*
X95690638Y-85145368D01*
X95849603Y-85529143D01*
X96091787Y-85598608D01*
X96892395Y-84798000D01*
X96091787Y-83997392D01*
X95849603Y-84066857D01*
X95662856Y-84590302D01*
X91010538Y-84590302D01*
X90818909Y-84462260D01*
X90400333Y-84379000D01*
X90117667Y-84379000D01*
X89699091Y-84462260D01*
X89224423Y-84779423D01*
X88968053Y-85163108D01*
X88871389Y-84958866D01*
X88456423Y-84582959D01*
X88068039Y-84422096D01*
X87846000Y-84544085D01*
X87846000Y-85687000D01*
X87866000Y-85687000D01*
X87866000Y-85941000D01*
X87846000Y-85941000D01*
X87846000Y-87083915D01*
X88068039Y-87205904D01*
X88456423Y-87045041D01*
X88871389Y-86669134D01*
X88968053Y-86464892D01*
X89224423Y-86848577D01*
X89699091Y-87165740D01*
X90117667Y-87249000D01*
X90400333Y-87249000D01*
X90494418Y-87230285D01*
X93674415Y-90410283D01*
X93720999Y-90480001D01*
X93863174Y-90574999D01*
X93997199Y-90664552D01*
X94323000Y-90729358D01*
X94405237Y-90713000D01*
X95931343Y-90713000D01*
X96280663Y-91062320D01*
X96487513Y-91148000D01*
X96280663Y-91233680D01*
X95887680Y-91626663D01*
X95675000Y-92140119D01*
X95675000Y-92695881D01*
X95887680Y-93209337D01*
X96280663Y-93602320D01*
X96321716Y-93619325D01*
X96356096Y-93792166D01*
X96524071Y-94043559D01*
X96587530Y-94085961D01*
X98071041Y-95569473D01*
X98113441Y-95632929D01*
X98364833Y-95800904D01*
X98586518Y-95845000D01*
X98586522Y-95845000D01*
X98661370Y-95859888D01*
X98736218Y-95845000D01*
X100217153Y-95845000D01*
X100292000Y-95859888D01*
X100366847Y-95845000D01*
X100366852Y-95845000D01*
X100588537Y-95800904D01*
X100839929Y-95632929D01*
X100882331Y-95569470D01*
X101943343Y-94508458D01*
X103702000Y-94508458D01*
X103702000Y-95407542D01*
X104046065Y-96238187D01*
X104681813Y-96873935D01*
X105512458Y-97218000D01*
X106411542Y-97218000D01*
X107104851Y-96930821D01*
X107117564Y-97416632D01*
X107369343Y-98024480D01*
X107664223Y-98156172D01*
X108832395Y-96988000D01*
X109191605Y-96988000D01*
X110359777Y-98156172D01*
X110654657Y-98024480D01*
X110926261Y-97316964D01*
X110906436Y-96559368D01*
X110654657Y-95951520D01*
X110359777Y-95819828D01*
X109191605Y-96988000D01*
X108832395Y-96988000D01*
X108818253Y-96973858D01*
X108997858Y-96794253D01*
X109012000Y-96808395D01*
X110180172Y-95640223D01*
X110048480Y-95345343D01*
X109340964Y-95073739D01*
X108583368Y-95093564D01*
X108222000Y-95243248D01*
X108222000Y-94508458D01*
X107877935Y-93677813D01*
X107242187Y-93042065D01*
X106411542Y-92698000D01*
X105512458Y-92698000D01*
X104681813Y-93042065D01*
X104046065Y-93677813D01*
X103702000Y-94508458D01*
X101943343Y-94508458D01*
X104147483Y-92304319D01*
X104210939Y-92261919D01*
X104378914Y-92010527D01*
X104423010Y-91788842D01*
X104423010Y-91788838D01*
X104437898Y-91713991D01*
X104423010Y-91639144D01*
X104423010Y-85185132D01*
X104681813Y-85443935D01*
X105512458Y-85788000D01*
X106411542Y-85788000D01*
X107242187Y-85443935D01*
X107877935Y-84808187D01*
X108222000Y-83977542D01*
X108222000Y-83235277D01*
X108683036Y-83412261D01*
X109440632Y-83392436D01*
X110048480Y-83140657D01*
X110180172Y-82845777D01*
X109012000Y-81677605D01*
X108997858Y-81691748D01*
X108818253Y-81512143D01*
X108832395Y-81498000D01*
X109191605Y-81498000D01*
X110359777Y-82666172D01*
X110654657Y-82534480D01*
X110926261Y-81826964D01*
X110906436Y-81069368D01*
X110654657Y-80461520D01*
X110359777Y-80329828D01*
X109191605Y-81498000D01*
X108832395Y-81498000D01*
X107664223Y-80329828D01*
X107369343Y-80461520D01*
X107097739Y-81169036D01*
X107107876Y-81556432D01*
X106411542Y-81268000D01*
X105512458Y-81268000D01*
X104681813Y-81612065D01*
X104423010Y-81870868D01*
X104423010Y-79158777D01*
X107843828Y-79158777D01*
X107975520Y-79453657D01*
X108478824Y-79646867D01*
X107975520Y-79855343D01*
X107843828Y-80150223D01*
X109012000Y-81318395D01*
X110180172Y-80150223D01*
X110048480Y-79855343D01*
X109545176Y-79662133D01*
X110048480Y-79453657D01*
X110180172Y-79158777D01*
X109012000Y-77990605D01*
X107843828Y-79158777D01*
X104423010Y-79158777D01*
X104423010Y-77438132D01*
X104681813Y-77696935D01*
X105512458Y-78041000D01*
X106411542Y-78041000D01*
X107104851Y-77753821D01*
X107117564Y-78239632D01*
X107369343Y-78847480D01*
X107664223Y-78979172D01*
X108832395Y-77811000D01*
X109191605Y-77811000D01*
X110359777Y-78979172D01*
X110654657Y-78847480D01*
X110926261Y-78139964D01*
X110906436Y-77382368D01*
X110654657Y-76774520D01*
X110359777Y-76642828D01*
X109191605Y-77811000D01*
X108832395Y-77811000D01*
X108818253Y-77796858D01*
X108997858Y-77617253D01*
X109012000Y-77631395D01*
X110180172Y-76463223D01*
X110048480Y-76168343D01*
X109340964Y-75896739D01*
X108583368Y-75916564D01*
X108222000Y-76066248D01*
X108222000Y-75331458D01*
X107877935Y-74500813D01*
X107242187Y-73865065D01*
X106411542Y-73521000D01*
X105512458Y-73521000D01*
X104681813Y-73865065D01*
X104423010Y-74123868D01*
X104423010Y-66008132D01*
X104681813Y-66266935D01*
X105512458Y-66611000D01*
X106411542Y-66611000D01*
X107242187Y-66266935D01*
X107877935Y-65631187D01*
X108222000Y-64800542D01*
X108222000Y-64058277D01*
X108683036Y-64235261D01*
X109440632Y-64215436D01*
X110048480Y-63963657D01*
X110180172Y-63668777D01*
X109012000Y-62500605D01*
X108997858Y-62514748D01*
X108818253Y-62335143D01*
X108832395Y-62321000D01*
X109191605Y-62321000D01*
X110359777Y-63489172D01*
X110654657Y-63357480D01*
X110926261Y-62649964D01*
X110906436Y-61892368D01*
X110654657Y-61284520D01*
X110359777Y-61152828D01*
X109191605Y-62321000D01*
X108832395Y-62321000D01*
X107664223Y-61152828D01*
X107369343Y-61284520D01*
X107097739Y-61992036D01*
X107107876Y-62379432D01*
X106411542Y-62091000D01*
X105512458Y-62091000D01*
X104681813Y-62435065D01*
X104423010Y-62693868D01*
X104423010Y-61675791D01*
X105125578Y-60973223D01*
X107843828Y-60973223D01*
X109012000Y-62141395D01*
X110180172Y-60973223D01*
X110048480Y-60678343D01*
X109340964Y-60406739D01*
X108583368Y-60426564D01*
X107975520Y-60678343D01*
X107843828Y-60973223D01*
X105125578Y-60973223D01*
X106110473Y-59988329D01*
X106173929Y-59945929D01*
X106341904Y-59694537D01*
X106386000Y-59472852D01*
X106386000Y-59472848D01*
X106400888Y-59398001D01*
X106386000Y-59323154D01*
X106386000Y-53917846D01*
X106400888Y-53842999D01*
X106386000Y-53768152D01*
X106386000Y-53768148D01*
X106341904Y-53546463D01*
X106173929Y-53295071D01*
X106110473Y-53252671D01*
X105868331Y-53010529D01*
X105825929Y-52947071D01*
X105585540Y-52786448D01*
X105485809Y-52637191D01*
X105275765Y-52496843D01*
X105252000Y-52492116D01*
X105252000Y-51979946D01*
X105451586Y-51846586D01*
X105646127Y-51555436D01*
X105714440Y-51212001D01*
X105714440Y-50311999D01*
X105646127Y-49968564D01*
X105451586Y-49677414D01*
X105160436Y-49482873D01*
X104817001Y-49414560D01*
X104166999Y-49414560D01*
X103823564Y-49482873D01*
X103532414Y-49677414D01*
X103467000Y-49775313D01*
X103401586Y-49677414D01*
X103110436Y-49482873D01*
X102767001Y-49414560D01*
X102116999Y-49414560D01*
X101773564Y-49482873D01*
X101482414Y-49677414D01*
X101287873Y-49968564D01*
X101281222Y-50002000D01*
X99937778Y-50002000D01*
X99931127Y-49968564D01*
X99736586Y-49677414D01*
X99445436Y-49482873D01*
X99102001Y-49414560D01*
X98451999Y-49414560D01*
X98108564Y-49482873D01*
X97817414Y-49677414D01*
X97816623Y-49678597D01*
X97661698Y-49523673D01*
X97428309Y-49427000D01*
X97012750Y-49427000D01*
X96854000Y-49585750D01*
X96854000Y-50635000D01*
X96874000Y-50635000D01*
X96874000Y-50889000D01*
X96854000Y-50889000D01*
X96854000Y-51938250D01*
X97012750Y-52097000D01*
X97238199Y-52097000D01*
X97137639Y-52197560D01*
X96539999Y-52197560D01*
X96196564Y-52265873D01*
X95905414Y-52460414D01*
X95710873Y-52751564D01*
X95693775Y-52837524D01*
X95642071Y-52872071D01*
X95599672Y-52935525D01*
X95108529Y-53426670D01*
X95045071Y-53469071D01*
X94877096Y-53720464D01*
X94833000Y-53942149D01*
X94833000Y-53942153D01*
X94818112Y-54017000D01*
X94833000Y-54091847D01*
X94833001Y-55894148D01*
X94818112Y-55969000D01*
X94877097Y-56265537D01*
X94949760Y-56374284D01*
X95045072Y-56516929D01*
X95108528Y-56559329D01*
X95891670Y-57342472D01*
X95934071Y-57405929D01*
X96023109Y-57465422D01*
X95894414Y-57551414D01*
X95699873Y-57842564D01*
X95631560Y-58185999D01*
X95631560Y-58639200D01*
X91876955Y-58639200D01*
X91710186Y-58389614D01*
X91447339Y-58213985D01*
X91352601Y-58072199D01*
X91282882Y-58025614D01*
X90598987Y-57341720D01*
X90552401Y-57271999D01*
X90276201Y-57087448D01*
X90032637Y-57039000D01*
X90032633Y-57039000D01*
X89950400Y-57022643D01*
X89868167Y-57039000D01*
X83474232Y-57039000D01*
X83391999Y-57022643D01*
X83309766Y-57039000D01*
X83309763Y-57039000D01*
X83066199Y-57087448D01*
X82886457Y-57207548D01*
X82789999Y-57271999D01*
X82743416Y-57341715D01*
X82045572Y-58039560D01*
X81553999Y-58039560D01*
X81210564Y-58107873D01*
X80919414Y-58302414D01*
X80724873Y-58593564D01*
X80656560Y-58936999D01*
X80656560Y-59587001D01*
X80724873Y-59930436D01*
X80919414Y-60221586D01*
X81017313Y-60287000D01*
X80919414Y-60352414D01*
X80724873Y-60643564D01*
X80656560Y-60986999D01*
X80656560Y-61584638D01*
X79149616Y-63091583D01*
X79092127Y-62802564D01*
X78897586Y-62511414D01*
X78896403Y-62510623D01*
X79051327Y-62355698D01*
X79148000Y-62122309D01*
X79148000Y-61706750D01*
X78989250Y-61548000D01*
X77940000Y-61548000D01*
X77940000Y-61568000D01*
X77686000Y-61568000D01*
X77686000Y-61548000D01*
X76636750Y-61548000D01*
X76478000Y-61706750D01*
X76478000Y-61806289D01*
X76367280Y-61695569D01*
X75986874Y-61538000D01*
X75575126Y-61538000D01*
X75194720Y-61695569D01*
X74903569Y-61986720D01*
X74746000Y-62367126D01*
X74746000Y-62427132D01*
X73855573Y-63317560D01*
X73049000Y-63317560D01*
X72801235Y-63366843D01*
X72591191Y-63507191D01*
X72479000Y-63675095D01*
X72366809Y-63507191D01*
X72289000Y-63455200D01*
X72289000Y-62597832D01*
X72413586Y-62514586D01*
X72414377Y-62513403D01*
X72569302Y-62668327D01*
X72802691Y-62765000D01*
X73218250Y-62765000D01*
X73377000Y-62606250D01*
X73377000Y-61557000D01*
X73631000Y-61557000D01*
X73631000Y-62606250D01*
X73789750Y-62765000D01*
X74205309Y-62765000D01*
X74438698Y-62668327D01*
X74617327Y-62489699D01*
X74714000Y-62256310D01*
X74714000Y-61715750D01*
X74555250Y-61557000D01*
X73631000Y-61557000D01*
X73377000Y-61557000D01*
X73357000Y-61557000D01*
X73357000Y-61303000D01*
X73377000Y-61303000D01*
X73377000Y-61283000D01*
X73631000Y-61283000D01*
X73631000Y-61303000D01*
X74555250Y-61303000D01*
X74714000Y-61144250D01*
X74714000Y-61139010D01*
X75245757Y-61139010D01*
X75327990Y-61155367D01*
X75410223Y-61139010D01*
X75410227Y-61139010D01*
X75653791Y-61090562D01*
X75929991Y-60906011D01*
X75976577Y-60836290D01*
X76093176Y-60719691D01*
X76478000Y-60719691D01*
X76478000Y-61135250D01*
X76636750Y-61294000D01*
X77686000Y-61294000D01*
X77686000Y-60369750D01*
X77940000Y-60369750D01*
X77940000Y-61294000D01*
X78989250Y-61294000D01*
X79148000Y-61135250D01*
X79148000Y-60719691D01*
X79051327Y-60486302D01*
X78872699Y-60307673D01*
X78639310Y-60211000D01*
X78098750Y-60211000D01*
X77940000Y-60369750D01*
X77686000Y-60369750D01*
X77527250Y-60211000D01*
X76986690Y-60211000D01*
X76753301Y-60307673D01*
X76574673Y-60486302D01*
X76478000Y-60719691D01*
X76093176Y-60719691D01*
X80322283Y-56490585D01*
X80392001Y-56444001D01*
X80576552Y-56167801D01*
X80625000Y-55924237D01*
X80625000Y-55924234D01*
X80641357Y-55842001D01*
X80625000Y-55759768D01*
X80625000Y-53798065D01*
X80860625Y-53640625D01*
X81018065Y-53405000D01*
X81101935Y-53405000D01*
X81259375Y-53640625D01*
X81750582Y-53968839D01*
X82183744Y-54055000D01*
X82476256Y-54055000D01*
X82909418Y-53968839D01*
X83400625Y-53640625D01*
X83728839Y-53149418D01*
X83844092Y-52570000D01*
X83728839Y-51990582D01*
X83400625Y-51499375D01*
X83165000Y-51341935D01*
X83165000Y-51258065D01*
X83400625Y-51100625D01*
X83435954Y-51047750D01*
X95517000Y-51047750D01*
X95517000Y-51588310D01*
X95613673Y-51821699D01*
X95792302Y-52000327D01*
X96025691Y-52097000D01*
X96441250Y-52097000D01*
X96600000Y-51938250D01*
X96600000Y-50889000D01*
X95675750Y-50889000D01*
X95517000Y-51047750D01*
X83435954Y-51047750D01*
X83728839Y-50609418D01*
X83844092Y-50030000D01*
X83825333Y-49935690D01*
X95517000Y-49935690D01*
X95517000Y-50476250D01*
X95675750Y-50635000D01*
X96600000Y-50635000D01*
X96600000Y-49585750D01*
X96441250Y-49427000D01*
X96025691Y-49427000D01*
X95792302Y-49523673D01*
X95613673Y-49702301D01*
X95517000Y-49935690D01*
X83825333Y-49935690D01*
X83728839Y-49450582D01*
X83400625Y-48959375D01*
X82909418Y-48631161D01*
X82476256Y-48545000D01*
X82183744Y-48545000D01*
X81750582Y-48631161D01*
X81259375Y-48959375D01*
X81101935Y-49195000D01*
X81018065Y-49195000D01*
X80860625Y-48959375D01*
X80369418Y-48631161D01*
X79936256Y-48545000D01*
X79643744Y-48545000D01*
X79210582Y-48631161D01*
X78719375Y-48959375D01*
X78506157Y-49278478D01*
X78445183Y-49148642D01*
X78016924Y-48758355D01*
X77606890Y-48588524D01*
X77377000Y-48709845D01*
X77377000Y-49903000D01*
X77397000Y-49903000D01*
X77397000Y-50157000D01*
X77377000Y-50157000D01*
X77377000Y-50177000D01*
X77123000Y-50177000D01*
X77123000Y-50157000D01*
X77103000Y-50157000D01*
X77103000Y-49903000D01*
X77123000Y-49903000D01*
X77123000Y-48709845D01*
X76893110Y-48588524D01*
X76483076Y-48758355D01*
X76362261Y-48868457D01*
X74953803Y-47460000D01*
X110502140Y-47460000D01*
X110491266Y-47470874D01*
X110491266Y-47470874D01*
G37*
X110491266Y-47470874D02*
X110603368Y-47582976D01*
X110128723Y-47925566D01*
X109568658Y-49258800D01*
X109561432Y-50704875D01*
X110108146Y-52043639D01*
X110128723Y-52074434D01*
X110603370Y-52417025D01*
X113020395Y-50000000D01*
X113006253Y-49985858D01*
X113185858Y-49806253D01*
X113200000Y-49820395D01*
X113214143Y-49806253D01*
X113393748Y-49985858D01*
X113379605Y-50000000D01*
X113393748Y-50014143D01*
X113214143Y-50193748D01*
X113200000Y-50179605D01*
X110782975Y-52596630D01*
X111125566Y-53071277D01*
X112458800Y-53631342D01*
X113904875Y-53638568D01*
X115243639Y-53091854D01*
X115274434Y-53071277D01*
X115617024Y-52596632D01*
X115640000Y-52619608D01*
X115640001Y-98540000D01*
X110088967Y-98540000D01*
X110180172Y-98335777D01*
X109012000Y-97167605D01*
X107843828Y-98335777D01*
X107935033Y-98540000D01*
X63731267Y-98540000D01*
X63804232Y-98430800D01*
X66908967Y-98430800D01*
X66991200Y-98447157D01*
X67073433Y-98430800D01*
X67073437Y-98430800D01*
X67317001Y-98382352D01*
X67593201Y-98197801D01*
X67639787Y-98128080D01*
X68604283Y-97163585D01*
X68674001Y-97117001D01*
X68858552Y-96840801D01*
X68874139Y-96762440D01*
X69572000Y-96762440D01*
X69819765Y-96713157D01*
X70029809Y-96572809D01*
X70170157Y-96362765D01*
X70216661Y-96128970D01*
X71817635Y-96128970D01*
X71977418Y-96447739D01*
X72768187Y-96757723D01*
X73617387Y-96741497D01*
X74326582Y-96447739D01*
X74486365Y-96128970D01*
X73152000Y-94794605D01*
X71817635Y-96128970D01*
X70216661Y-96128970D01*
X70219440Y-96115000D01*
X70219440Y-94231187D01*
X71009277Y-94231187D01*
X71025503Y-95080387D01*
X71319261Y-95789582D01*
X71638030Y-95949365D01*
X72972395Y-94615000D01*
X73331605Y-94615000D01*
X74665970Y-95949365D01*
X74984739Y-95789582D01*
X75294723Y-94998813D01*
X75278497Y-94149613D01*
X74984739Y-93440418D01*
X74665970Y-93280635D01*
X73331605Y-94615000D01*
X72972395Y-94615000D01*
X71638030Y-93280635D01*
X71319261Y-93440418D01*
X71009277Y-94231187D01*
X70219440Y-94231187D01*
X70219440Y-93115000D01*
X70216662Y-93101030D01*
X71817635Y-93101030D01*
X73152000Y-94435395D01*
X74486365Y-93101030D01*
X74326582Y-92782261D01*
X73535813Y-92472277D01*
X72686613Y-92488503D01*
X71977418Y-92782261D01*
X71817635Y-93101030D01*
X70216662Y-93101030D01*
X70170157Y-92867235D01*
X70029809Y-92657191D01*
X69819765Y-92516843D01*
X69572000Y-92467560D01*
X66572000Y-92467560D01*
X66324235Y-92516843D01*
X66114191Y-92657191D01*
X65973843Y-92867235D01*
X65924560Y-93115000D01*
X65924560Y-96115000D01*
X65973843Y-96362765D01*
X66114191Y-96572809D01*
X66324235Y-96713157D01*
X66563755Y-96760800D01*
X63804232Y-96760800D01*
X63720986Y-96636214D01*
X63719803Y-96635423D01*
X63874727Y-96480498D01*
X63971400Y-96247109D01*
X63971400Y-95831550D01*
X63812650Y-95672800D01*
X62763400Y-95672800D01*
X62763400Y-95692800D01*
X62509400Y-95692800D01*
X62509400Y-95672800D01*
X61460150Y-95672800D01*
X61301400Y-95831550D01*
X61301400Y-96247109D01*
X61398073Y-96480498D01*
X61552997Y-96635423D01*
X61551814Y-96636214D01*
X61501710Y-96711200D01*
X60878900Y-96711200D01*
X60746965Y-96623043D01*
X60612015Y-96596200D01*
X60746965Y-96569357D01*
X60896859Y-96469200D01*
X60975450Y-96469200D01*
X61134200Y-96310450D01*
X61134200Y-96144890D01*
X61119264Y-96108831D01*
X61146640Y-95971200D01*
X61146640Y-95321200D01*
X61097357Y-95073435D01*
X60957009Y-94863391D01*
X60928724Y-94844491D01*
X61301400Y-94844491D01*
X61301400Y-95260050D01*
X61460150Y-95418800D01*
X62509400Y-95418800D01*
X62509400Y-94494550D01*
X62763400Y-94494550D01*
X62763400Y-95418800D01*
X63812650Y-95418800D01*
X63971400Y-95260050D01*
X63971400Y-94844491D01*
X63874727Y-94611102D01*
X63696099Y-94432473D01*
X63597569Y-94391661D01*
X63721499Y-94340327D01*
X63900127Y-94161698D01*
X63996800Y-93928309D01*
X63996800Y-93512750D01*
X63838050Y-93354000D01*
X62788800Y-93354000D01*
X62788800Y-94278250D01*
X62884250Y-94373700D01*
X62763400Y-94494550D01*
X62509400Y-94494550D01*
X62413950Y-94399100D01*
X62534800Y-94278250D01*
X62534800Y-93354000D01*
X61485550Y-93354000D01*
X61326800Y-93512750D01*
X61326800Y-93928309D01*
X61423473Y-94161698D01*
X61602101Y-94340327D01*
X61700631Y-94381139D01*
X61576701Y-94432473D01*
X61398073Y-94611102D01*
X61301400Y-94844491D01*
X60928724Y-94844491D01*
X60746965Y-94723043D01*
X60499200Y-94673760D01*
X60479200Y-94673760D01*
X60479200Y-94220758D01*
X60494436Y-94217727D01*
X60785586Y-94023186D01*
X60980127Y-93732036D01*
X61048440Y-93388601D01*
X61048440Y-92488599D01*
X60980127Y-92145164D01*
X60891149Y-92012000D01*
X61493968Y-92012000D01*
X61577214Y-92136586D01*
X61578397Y-92137377D01*
X61423473Y-92292302D01*
X61326800Y-92525691D01*
X61326800Y-92941250D01*
X61485550Y-93100000D01*
X62534800Y-93100000D01*
X62534800Y-93080000D01*
X62788800Y-93080000D01*
X62788800Y-93100000D01*
X63838050Y-93100000D01*
X63996800Y-92941250D01*
X63996800Y-92525691D01*
X63900127Y-92292302D01*
X63745203Y-92137377D01*
X63746386Y-92136586D01*
X63829632Y-92012000D01*
X77193767Y-92012000D01*
X77276000Y-92028357D01*
X77358233Y-92012000D01*
X77358237Y-92012000D01*
X77601801Y-91963552D01*
X77878001Y-91779001D01*
X77924587Y-91709280D01*
X82403583Y-87230286D01*
X82497667Y-87249000D01*
X82780333Y-87249000D01*
X83198909Y-87165740D01*
X83673577Y-86848577D01*
X83909000Y-86496242D01*
X84144423Y-86848577D01*
X84619091Y-87165740D01*
X85037667Y-87249000D01*
X85320333Y-87249000D01*
X85738909Y-87165740D01*
X86213577Y-86848577D01*
X86469947Y-86464892D01*
X86566611Y-86669134D01*
X86981577Y-87045041D01*
X87369961Y-87205904D01*
X87592000Y-87083915D01*
X87592000Y-85941000D01*
X87572000Y-85941000D01*
X87572000Y-85687000D01*
X87592000Y-85687000D01*
X87592000Y-84544085D01*
X87369961Y-84422096D01*
X86981577Y-84582959D01*
X86566611Y-84958866D01*
X86469947Y-85163108D01*
X86213577Y-84779423D01*
X85738909Y-84462260D01*
X85320333Y-84379000D01*
X85254867Y-84379000D01*
X85816080Y-83817787D01*
X96271392Y-83817787D01*
X97072000Y-84618395D01*
X97872608Y-83817787D01*
X97803143Y-83575603D01*
X97279698Y-83388856D01*
X96724632Y-83416638D01*
X96340857Y-83575603D01*
X96271392Y-83817787D01*
X85816080Y-83817787D01*
X93331283Y-76302585D01*
X93401001Y-76256001D01*
X93585552Y-75979801D01*
X93634000Y-75736237D01*
X93650358Y-75654000D01*
X93634000Y-75571763D01*
X93634000Y-70021232D01*
X93650357Y-69938999D01*
X93634000Y-69856764D01*
X93634000Y-69856763D01*
X93585552Y-69613199D01*
X93401001Y-69336999D01*
X93331283Y-69290415D01*
X90365059Y-66324191D01*
X90495200Y-66194050D01*
X90495200Y-65544800D01*
X90749200Y-65544800D01*
X90749200Y-66194050D01*
X90907950Y-66352800D01*
X91523509Y-66352800D01*
X91756898Y-66256127D01*
X91935527Y-66077499D01*
X92032200Y-65844110D01*
X92032200Y-65703550D01*
X91873450Y-65544800D01*
X90749200Y-65544800D01*
X90495200Y-65544800D01*
X90475200Y-65544800D01*
X90475200Y-65413302D01*
X95662856Y-65413302D01*
X95690638Y-65968368D01*
X95849603Y-66352143D01*
X96091787Y-66421608D01*
X96892395Y-65621000D01*
X97251605Y-65621000D01*
X98052213Y-66421608D01*
X98294397Y-66352143D01*
X98451857Y-65910787D01*
X98811392Y-65910787D01*
X99612000Y-66711395D01*
X100412608Y-65910787D01*
X100343143Y-65668603D01*
X99819698Y-65481856D01*
X99264632Y-65509638D01*
X98880857Y-65668603D01*
X98811392Y-65910787D01*
X98451857Y-65910787D01*
X98481144Y-65828698D01*
X98453362Y-65273632D01*
X98294397Y-64889857D01*
X98052213Y-64820392D01*
X97251605Y-65621000D01*
X96892395Y-65621000D01*
X96091787Y-64820392D01*
X95849603Y-64889857D01*
X95662856Y-65413302D01*
X90475200Y-65413302D01*
X90475200Y-65290800D01*
X90495200Y-65290800D01*
X90495200Y-65270800D01*
X90749200Y-65270800D01*
X90749200Y-65290800D01*
X91873450Y-65290800D01*
X92032200Y-65132050D01*
X92032200Y-64991490D01*
X91997534Y-64907800D01*
X94117353Y-64907800D01*
X94192200Y-64922688D01*
X94267047Y-64907800D01*
X94267052Y-64907800D01*
X94488737Y-64863704D01*
X94740129Y-64695729D01*
X94776840Y-64640787D01*
X96271392Y-64640787D01*
X97072000Y-65441395D01*
X97872608Y-64640787D01*
X97803143Y-64398603D01*
X97279698Y-64211856D01*
X96724632Y-64239638D01*
X96340857Y-64398603D01*
X96271392Y-64640787D01*
X94776840Y-64640787D01*
X94782531Y-64632270D01*
X99388476Y-60026327D01*
X99451929Y-59983929D01*
X99486476Y-59932225D01*
X99572436Y-59915127D01*
X99863586Y-59720586D01*
X100058127Y-59429436D01*
X100064778Y-59396000D01*
X101281222Y-59396000D01*
X101287873Y-59429436D01*
X101482414Y-59720586D01*
X101773564Y-59915127D01*
X102077596Y-59975602D01*
X101966528Y-60086671D01*
X101903072Y-60129071D01*
X101860672Y-60192527D01*
X101860671Y-60192528D01*
X101788520Y-60300510D01*
X101735097Y-60380463D01*
X101703938Y-60537112D01*
X101676112Y-60677000D01*
X101691001Y-60751852D01*
X101691000Y-72434827D01*
X100601243Y-73524586D01*
X100403337Y-73326680D01*
X100196487Y-73241000D01*
X100403337Y-73155320D01*
X100796320Y-72762337D01*
X101009000Y-72248881D01*
X101009000Y-71693119D01*
X100796320Y-71179663D01*
X100403337Y-70786680D01*
X100196487Y-70701000D01*
X100403337Y-70615320D01*
X100796320Y-70222337D01*
X101009000Y-69708881D01*
X101009000Y-69153119D01*
X100796320Y-68639663D01*
X100403337Y-68246680D01*
X100212353Y-68167572D01*
X100343143Y-68113397D01*
X100412608Y-67871213D01*
X99612000Y-67070605D01*
X98811392Y-67871213D01*
X98880857Y-68113397D01*
X99021393Y-68163535D01*
X98820663Y-68246680D01*
X98471343Y-68596000D01*
X98424232Y-68596000D01*
X98405466Y-68592267D01*
X98469000Y-68438881D01*
X98469000Y-67883119D01*
X98256320Y-67369663D01*
X97863337Y-66976680D01*
X97672353Y-66897572D01*
X97803143Y-66843397D01*
X97849062Y-66683302D01*
X98202856Y-66683302D01*
X98230638Y-67238368D01*
X98389603Y-67622143D01*
X98631787Y-67691608D01*
X99432395Y-66891000D01*
X99791605Y-66891000D01*
X100592213Y-67691608D01*
X100834397Y-67622143D01*
X101021144Y-67098698D01*
X100993362Y-66543632D01*
X100834397Y-66159857D01*
X100592213Y-66090392D01*
X99791605Y-66891000D01*
X99432395Y-66891000D01*
X98631787Y-66090392D01*
X98389603Y-66159857D01*
X98202856Y-66683302D01*
X97849062Y-66683302D01*
X97872608Y-66601213D01*
X97072000Y-65800605D01*
X96271392Y-66601213D01*
X96340857Y-66843397D01*
X96481393Y-66893535D01*
X96280663Y-66976680D01*
X95887680Y-67369663D01*
X95675000Y-67883119D01*
X95675000Y-68438881D01*
X95687980Y-68470218D01*
X94854528Y-69303671D01*
X94791072Y-69346071D01*
X94748672Y-69409527D01*
X94748671Y-69409528D01*
X94623097Y-69597463D01*
X94564112Y-69894000D01*
X94579001Y-69968852D01*
X94579000Y-73547153D01*
X94564112Y-73622000D01*
X94579000Y-73696847D01*
X94579000Y-73696851D01*
X94623096Y-73918536D01*
X94791071Y-74169929D01*
X94854530Y-74212331D01*
X98262001Y-77619803D01*
X98262000Y-84057565D01*
X98052213Y-83997392D01*
X97251605Y-84798000D01*
X97265748Y-84812143D01*
X97086143Y-84991748D01*
X97072000Y-84977605D01*
X96271392Y-85778213D01*
X96340857Y-86020397D01*
X96401631Y-86042079D01*
X96356097Y-86110225D01*
X96353450Y-86123531D01*
X96280663Y-86153680D01*
X95887680Y-86546663D01*
X95675000Y-87060119D01*
X95675000Y-87615881D01*
X95887680Y-88129337D01*
X96280663Y-88522320D01*
X96487513Y-88608000D01*
X96280663Y-88693680D01*
X95931343Y-89043000D01*
X94668868Y-89043000D01*
X91675285Y-86049418D01*
X91722113Y-85814000D01*
X91610740Y-85254091D01*
X91293577Y-84779423D01*
X91010538Y-84590302D01*
X95662856Y-84590302D01*
X95690638Y-85145368D01*
X95849603Y-85529143D01*
X96091787Y-85598608D01*
X96892395Y-84798000D01*
X96091787Y-83997392D01*
X95849603Y-84066857D01*
X95662856Y-84590302D01*
X91010538Y-84590302D01*
X90818909Y-84462260D01*
X90400333Y-84379000D01*
X90117667Y-84379000D01*
X89699091Y-84462260D01*
X89224423Y-84779423D01*
X88968053Y-85163108D01*
X88871389Y-84958866D01*
X88456423Y-84582959D01*
X88068039Y-84422096D01*
X87846000Y-84544085D01*
X87846000Y-85687000D01*
X87866000Y-85687000D01*
X87866000Y-85941000D01*
X87846000Y-85941000D01*
X87846000Y-87083915D01*
X88068039Y-87205904D01*
X88456423Y-87045041D01*
X88871389Y-86669134D01*
X88968053Y-86464892D01*
X89224423Y-86848577D01*
X89699091Y-87165740D01*
X90117667Y-87249000D01*
X90400333Y-87249000D01*
X90494418Y-87230285D01*
X93674415Y-90410283D01*
X93720999Y-90480001D01*
X93863174Y-90574999D01*
X93997199Y-90664552D01*
X94323000Y-90729358D01*
X94405237Y-90713000D01*
X95931343Y-90713000D01*
X96280663Y-91062320D01*
X96487513Y-91148000D01*
X96280663Y-91233680D01*
X95887680Y-91626663D01*
X95675000Y-92140119D01*
X95675000Y-92695881D01*
X95887680Y-93209337D01*
X96280663Y-93602320D01*
X96321716Y-93619325D01*
X96356096Y-93792166D01*
X96524071Y-94043559D01*
X96587530Y-94085961D01*
X98071041Y-95569473D01*
X98113441Y-95632929D01*
X98364833Y-95800904D01*
X98586518Y-95845000D01*
X98586522Y-95845000D01*
X98661370Y-95859888D01*
X98736218Y-95845000D01*
X100217153Y-95845000D01*
X100292000Y-95859888D01*
X100366847Y-95845000D01*
X100366852Y-95845000D01*
X100588537Y-95800904D01*
X100839929Y-95632929D01*
X100882331Y-95569470D01*
X101943343Y-94508458D01*
X103702000Y-94508458D01*
X103702000Y-95407542D01*
X104046065Y-96238187D01*
X104681813Y-96873935D01*
X105512458Y-97218000D01*
X106411542Y-97218000D01*
X107104851Y-96930821D01*
X107117564Y-97416632D01*
X107369343Y-98024480D01*
X107664223Y-98156172D01*
X108832395Y-96988000D01*
X109191605Y-96988000D01*
X110359777Y-98156172D01*
X110654657Y-98024480D01*
X110926261Y-97316964D01*
X110906436Y-96559368D01*
X110654657Y-95951520D01*
X110359777Y-95819828D01*
X109191605Y-96988000D01*
X108832395Y-96988000D01*
X108818253Y-96973858D01*
X108997858Y-96794253D01*
X109012000Y-96808395D01*
X110180172Y-95640223D01*
X110048480Y-95345343D01*
X109340964Y-95073739D01*
X108583368Y-95093564D01*
X108222000Y-95243248D01*
X108222000Y-94508458D01*
X107877935Y-93677813D01*
X107242187Y-93042065D01*
X106411542Y-92698000D01*
X105512458Y-92698000D01*
X104681813Y-93042065D01*
X104046065Y-93677813D01*
X103702000Y-94508458D01*
X101943343Y-94508458D01*
X104147483Y-92304319D01*
X104210939Y-92261919D01*
X104378914Y-92010527D01*
X104423010Y-91788842D01*
X104423010Y-91788838D01*
X104437898Y-91713991D01*
X104423010Y-91639144D01*
X104423010Y-85185132D01*
X104681813Y-85443935D01*
X105512458Y-85788000D01*
X106411542Y-85788000D01*
X107242187Y-85443935D01*
X107877935Y-84808187D01*
X108222000Y-83977542D01*
X108222000Y-83235277D01*
X108683036Y-83412261D01*
X109440632Y-83392436D01*
X110048480Y-83140657D01*
X110180172Y-82845777D01*
X109012000Y-81677605D01*
X108997858Y-81691748D01*
X108818253Y-81512143D01*
X108832395Y-81498000D01*
X109191605Y-81498000D01*
X110359777Y-82666172D01*
X110654657Y-82534480D01*
X110926261Y-81826964D01*
X110906436Y-81069368D01*
X110654657Y-80461520D01*
X110359777Y-80329828D01*
X109191605Y-81498000D01*
X108832395Y-81498000D01*
X107664223Y-80329828D01*
X107369343Y-80461520D01*
X107097739Y-81169036D01*
X107107876Y-81556432D01*
X106411542Y-81268000D01*
X105512458Y-81268000D01*
X104681813Y-81612065D01*
X104423010Y-81870868D01*
X104423010Y-79158777D01*
X107843828Y-79158777D01*
X107975520Y-79453657D01*
X108478824Y-79646867D01*
X107975520Y-79855343D01*
X107843828Y-80150223D01*
X109012000Y-81318395D01*
X110180172Y-80150223D01*
X110048480Y-79855343D01*
X109545176Y-79662133D01*
X110048480Y-79453657D01*
X110180172Y-79158777D01*
X109012000Y-77990605D01*
X107843828Y-79158777D01*
X104423010Y-79158777D01*
X104423010Y-77438132D01*
X104681813Y-77696935D01*
X105512458Y-78041000D01*
X106411542Y-78041000D01*
X107104851Y-77753821D01*
X107117564Y-78239632D01*
X107369343Y-78847480D01*
X107664223Y-78979172D01*
X108832395Y-77811000D01*
X109191605Y-77811000D01*
X110359777Y-78979172D01*
X110654657Y-78847480D01*
X110926261Y-78139964D01*
X110906436Y-77382368D01*
X110654657Y-76774520D01*
X110359777Y-76642828D01*
X109191605Y-77811000D01*
X108832395Y-77811000D01*
X108818253Y-77796858D01*
X108997858Y-77617253D01*
X109012000Y-77631395D01*
X110180172Y-76463223D01*
X110048480Y-76168343D01*
X109340964Y-75896739D01*
X108583368Y-75916564D01*
X108222000Y-76066248D01*
X108222000Y-75331458D01*
X107877935Y-74500813D01*
X107242187Y-73865065D01*
X106411542Y-73521000D01*
X105512458Y-73521000D01*
X104681813Y-73865065D01*
X104423010Y-74123868D01*
X104423010Y-66008132D01*
X104681813Y-66266935D01*
X105512458Y-66611000D01*
X106411542Y-66611000D01*
X107242187Y-66266935D01*
X107877935Y-65631187D01*
X108222000Y-64800542D01*
X108222000Y-64058277D01*
X108683036Y-64235261D01*
X109440632Y-64215436D01*
X110048480Y-63963657D01*
X110180172Y-63668777D01*
X109012000Y-62500605D01*
X108997858Y-62514748D01*
X108818253Y-62335143D01*
X108832395Y-62321000D01*
X109191605Y-62321000D01*
X110359777Y-63489172D01*
X110654657Y-63357480D01*
X110926261Y-62649964D01*
X110906436Y-61892368D01*
X110654657Y-61284520D01*
X110359777Y-61152828D01*
X109191605Y-62321000D01*
X108832395Y-62321000D01*
X107664223Y-61152828D01*
X107369343Y-61284520D01*
X107097739Y-61992036D01*
X107107876Y-62379432D01*
X106411542Y-62091000D01*
X105512458Y-62091000D01*
X104681813Y-62435065D01*
X104423010Y-62693868D01*
X104423010Y-61675791D01*
X105125578Y-60973223D01*
X107843828Y-60973223D01*
X109012000Y-62141395D01*
X110180172Y-60973223D01*
X110048480Y-60678343D01*
X109340964Y-60406739D01*
X108583368Y-60426564D01*
X107975520Y-60678343D01*
X107843828Y-60973223D01*
X105125578Y-60973223D01*
X106110473Y-59988329D01*
X106173929Y-59945929D01*
X106341904Y-59694537D01*
X106386000Y-59472852D01*
X106386000Y-59472848D01*
X106400888Y-59398001D01*
X106386000Y-59323154D01*
X106386000Y-53917846D01*
X106400888Y-53842999D01*
X106386000Y-53768152D01*
X106386000Y-53768148D01*
X106341904Y-53546463D01*
X106173929Y-53295071D01*
X106110473Y-53252671D01*
X105868331Y-53010529D01*
X105825929Y-52947071D01*
X105585540Y-52786448D01*
X105485809Y-52637191D01*
X105275765Y-52496843D01*
X105252000Y-52492116D01*
X105252000Y-51979946D01*
X105451586Y-51846586D01*
X105646127Y-51555436D01*
X105714440Y-51212001D01*
X105714440Y-50311999D01*
X105646127Y-49968564D01*
X105451586Y-49677414D01*
X105160436Y-49482873D01*
X104817001Y-49414560D01*
X104166999Y-49414560D01*
X103823564Y-49482873D01*
X103532414Y-49677414D01*
X103467000Y-49775313D01*
X103401586Y-49677414D01*
X103110436Y-49482873D01*
X102767001Y-49414560D01*
X102116999Y-49414560D01*
X101773564Y-49482873D01*
X101482414Y-49677414D01*
X101287873Y-49968564D01*
X101281222Y-50002000D01*
X99937778Y-50002000D01*
X99931127Y-49968564D01*
X99736586Y-49677414D01*
X99445436Y-49482873D01*
X99102001Y-49414560D01*
X98451999Y-49414560D01*
X98108564Y-49482873D01*
X97817414Y-49677414D01*
X97816623Y-49678597D01*
X97661698Y-49523673D01*
X97428309Y-49427000D01*
X97012750Y-49427000D01*
X96854000Y-49585750D01*
X96854000Y-50635000D01*
X96874000Y-50635000D01*
X96874000Y-50889000D01*
X96854000Y-50889000D01*
X96854000Y-51938250D01*
X97012750Y-52097000D01*
X97238199Y-52097000D01*
X97137639Y-52197560D01*
X96539999Y-52197560D01*
X96196564Y-52265873D01*
X95905414Y-52460414D01*
X95710873Y-52751564D01*
X95693775Y-52837524D01*
X95642071Y-52872071D01*
X95599672Y-52935525D01*
X95108529Y-53426670D01*
X95045071Y-53469071D01*
X94877096Y-53720464D01*
X94833000Y-53942149D01*
X94833000Y-53942153D01*
X94818112Y-54017000D01*
X94833000Y-54091847D01*
X94833001Y-55894148D01*
X94818112Y-55969000D01*
X94877097Y-56265537D01*
X94949760Y-56374284D01*
X95045072Y-56516929D01*
X95108528Y-56559329D01*
X95891670Y-57342472D01*
X95934071Y-57405929D01*
X96023109Y-57465422D01*
X95894414Y-57551414D01*
X95699873Y-57842564D01*
X95631560Y-58185999D01*
X95631560Y-58639200D01*
X91876955Y-58639200D01*
X91710186Y-58389614D01*
X91447339Y-58213985D01*
X91352601Y-58072199D01*
X91282882Y-58025614D01*
X90598987Y-57341720D01*
X90552401Y-57271999D01*
X90276201Y-57087448D01*
X90032637Y-57039000D01*
X90032633Y-57039000D01*
X89950400Y-57022643D01*
X89868167Y-57039000D01*
X83474232Y-57039000D01*
X83391999Y-57022643D01*
X83309766Y-57039000D01*
X83309763Y-57039000D01*
X83066199Y-57087448D01*
X82886457Y-57207548D01*
X82789999Y-57271999D01*
X82743416Y-57341715D01*
X82045572Y-58039560D01*
X81553999Y-58039560D01*
X81210564Y-58107873D01*
X80919414Y-58302414D01*
X80724873Y-58593564D01*
X80656560Y-58936999D01*
X80656560Y-59587001D01*
X80724873Y-59930436D01*
X80919414Y-60221586D01*
X81017313Y-60287000D01*
X80919414Y-60352414D01*
X80724873Y-60643564D01*
X80656560Y-60986999D01*
X80656560Y-61584638D01*
X79149616Y-63091583D01*
X79092127Y-62802564D01*
X78897586Y-62511414D01*
X78896403Y-62510623D01*
X79051327Y-62355698D01*
X79148000Y-62122309D01*
X79148000Y-61706750D01*
X78989250Y-61548000D01*
X77940000Y-61548000D01*
X77940000Y-61568000D01*
X77686000Y-61568000D01*
X77686000Y-61548000D01*
X76636750Y-61548000D01*
X76478000Y-61706750D01*
X76478000Y-61806289D01*
X76367280Y-61695569D01*
X75986874Y-61538000D01*
X75575126Y-61538000D01*
X75194720Y-61695569D01*
X74903569Y-61986720D01*
X74746000Y-62367126D01*
X74746000Y-62427132D01*
X73855573Y-63317560D01*
X73049000Y-63317560D01*
X72801235Y-63366843D01*
X72591191Y-63507191D01*
X72479000Y-63675095D01*
X72366809Y-63507191D01*
X72289000Y-63455200D01*
X72289000Y-62597832D01*
X72413586Y-62514586D01*
X72414377Y-62513403D01*
X72569302Y-62668327D01*
X72802691Y-62765000D01*
X73218250Y-62765000D01*
X73377000Y-62606250D01*
X73377000Y-61557000D01*
X73631000Y-61557000D01*
X73631000Y-62606250D01*
X73789750Y-62765000D01*
X74205309Y-62765000D01*
X74438698Y-62668327D01*
X74617327Y-62489699D01*
X74714000Y-62256310D01*
X74714000Y-61715750D01*
X74555250Y-61557000D01*
X73631000Y-61557000D01*
X73377000Y-61557000D01*
X73357000Y-61557000D01*
X73357000Y-61303000D01*
X73377000Y-61303000D01*
X73377000Y-61283000D01*
X73631000Y-61283000D01*
X73631000Y-61303000D01*
X74555250Y-61303000D01*
X74714000Y-61144250D01*
X74714000Y-61139010D01*
X75245757Y-61139010D01*
X75327990Y-61155367D01*
X75410223Y-61139010D01*
X75410227Y-61139010D01*
X75653791Y-61090562D01*
X75929991Y-60906011D01*
X75976577Y-60836290D01*
X76093176Y-60719691D01*
X76478000Y-60719691D01*
X76478000Y-61135250D01*
X76636750Y-61294000D01*
X77686000Y-61294000D01*
X77686000Y-60369750D01*
X77940000Y-60369750D01*
X77940000Y-61294000D01*
X78989250Y-61294000D01*
X79148000Y-61135250D01*
X79148000Y-60719691D01*
X79051327Y-60486302D01*
X78872699Y-60307673D01*
X78639310Y-60211000D01*
X78098750Y-60211000D01*
X77940000Y-60369750D01*
X77686000Y-60369750D01*
X77527250Y-60211000D01*
X76986690Y-60211000D01*
X76753301Y-60307673D01*
X76574673Y-60486302D01*
X76478000Y-60719691D01*
X76093176Y-60719691D01*
X80322283Y-56490585D01*
X80392001Y-56444001D01*
X80576552Y-56167801D01*
X80625000Y-55924237D01*
X80625000Y-55924234D01*
X80641357Y-55842001D01*
X80625000Y-55759768D01*
X80625000Y-53798065D01*
X80860625Y-53640625D01*
X81018065Y-53405000D01*
X81101935Y-53405000D01*
X81259375Y-53640625D01*
X81750582Y-53968839D01*
X82183744Y-54055000D01*
X82476256Y-54055000D01*
X82909418Y-53968839D01*
X83400625Y-53640625D01*
X83728839Y-53149418D01*
X83844092Y-52570000D01*
X83728839Y-51990582D01*
X83400625Y-51499375D01*
X83165000Y-51341935D01*
X83165000Y-51258065D01*
X83400625Y-51100625D01*
X83435954Y-51047750D01*
X95517000Y-51047750D01*
X95517000Y-51588310D01*
X95613673Y-51821699D01*
X95792302Y-52000327D01*
X96025691Y-52097000D01*
X96441250Y-52097000D01*
X96600000Y-51938250D01*
X96600000Y-50889000D01*
X95675750Y-50889000D01*
X95517000Y-51047750D01*
X83435954Y-51047750D01*
X83728839Y-50609418D01*
X83844092Y-50030000D01*
X83825333Y-49935690D01*
X95517000Y-49935690D01*
X95517000Y-50476250D01*
X95675750Y-50635000D01*
X96600000Y-50635000D01*
X96600000Y-49585750D01*
X96441250Y-49427000D01*
X96025691Y-49427000D01*
X95792302Y-49523673D01*
X95613673Y-49702301D01*
X95517000Y-49935690D01*
X83825333Y-49935690D01*
X83728839Y-49450582D01*
X83400625Y-48959375D01*
X82909418Y-48631161D01*
X82476256Y-48545000D01*
X82183744Y-48545000D01*
X81750582Y-48631161D01*
X81259375Y-48959375D01*
X81101935Y-49195000D01*
X81018065Y-49195000D01*
X80860625Y-48959375D01*
X80369418Y-48631161D01*
X79936256Y-48545000D01*
X79643744Y-48545000D01*
X79210582Y-48631161D01*
X78719375Y-48959375D01*
X78506157Y-49278478D01*
X78445183Y-49148642D01*
X78016924Y-48758355D01*
X77606890Y-48588524D01*
X77377000Y-48709845D01*
X77377000Y-49903000D01*
X77397000Y-49903000D01*
X77397000Y-50157000D01*
X77377000Y-50157000D01*
X77377000Y-50177000D01*
X77123000Y-50177000D01*
X77123000Y-50157000D01*
X77103000Y-50157000D01*
X77103000Y-49903000D01*
X77123000Y-49903000D01*
X77123000Y-48709845D01*
X76893110Y-48588524D01*
X76483076Y-48758355D01*
X76362261Y-48868457D01*
X74953803Y-47460000D01*
X110502140Y-47460000D01*
X110491266Y-47470874D01*
G36*
X50193748Y-49985858D02*
X50179605Y-50000000D01*
X50193748Y-50014143D01*
X50014143Y-50193748D01*
X50000000Y-50179605D01*
X47582975Y-52596630D01*
X47925566Y-53071277D01*
X49258800Y-53631342D01*
X50704875Y-53638568D01*
X51494485Y-53316113D01*
X48118530Y-56692069D01*
X48055071Y-56734471D01*
X47887096Y-56985864D01*
X47843000Y-57207549D01*
X47843000Y-57207553D01*
X47828112Y-57282400D01*
X47843000Y-57357247D01*
X47843001Y-72513034D01*
X47828112Y-72587886D01*
X47887097Y-72884423D01*
X47995172Y-73046168D01*
X48055072Y-73135815D01*
X48118528Y-73178215D01*
X57301784Y-82361472D01*
X57344185Y-82424929D01*
X57595577Y-82592904D01*
X57817262Y-82637000D01*
X57817266Y-82637000D01*
X57892113Y-82651888D01*
X57966960Y-82637000D01*
X68227199Y-82637000D01*
X69969199Y-84379000D01*
X69797667Y-84379000D01*
X69379091Y-84462260D01*
X68904423Y-84779423D01*
X68669000Y-85131758D01*
X68433577Y-84779423D01*
X67958909Y-84462260D01*
X67540333Y-84379000D01*
X67257667Y-84379000D01*
X66839091Y-84462260D01*
X66364423Y-84779423D01*
X66129000Y-85131758D01*
X65893577Y-84779423D01*
X65418909Y-84462260D01*
X65000333Y-84379000D01*
X64717667Y-84379000D01*
X64299091Y-84462260D01*
X63824423Y-84779423D01*
X63589000Y-85131758D01*
X63353577Y-84779423D01*
X62878909Y-84462260D01*
X62460333Y-84379000D01*
X62177667Y-84379000D01*
X61759091Y-84462260D01*
X61284423Y-84779423D01*
X61049000Y-85131758D01*
X60813577Y-84779423D01*
X60338909Y-84462260D01*
X59920333Y-84379000D01*
X59637667Y-84379000D01*
X59219091Y-84462260D01*
X58744423Y-84779423D01*
X58509000Y-85131758D01*
X58273577Y-84779423D01*
X57798909Y-84462260D01*
X57380333Y-84379000D01*
X57097667Y-84379000D01*
X56679091Y-84462260D01*
X56204423Y-84779423D01*
X55969000Y-85131758D01*
X55733577Y-84779423D01*
X55258909Y-84462260D01*
X54840333Y-84379000D01*
X54557667Y-84379000D01*
X54139091Y-84462260D01*
X53664423Y-84779423D01*
X53347260Y-85254091D01*
X53235887Y-85814000D01*
X53347260Y-86373909D01*
X53664423Y-86848577D01*
X53939001Y-87032044D01*
X53939000Y-92676153D01*
X53924112Y-92751000D01*
X53939000Y-92825847D01*
X53939000Y-92825851D01*
X53983096Y-93047536D01*
X54151071Y-93298929D01*
X54214530Y-93341331D01*
X55763446Y-94890248D01*
X55641043Y-95073435D01*
X55591760Y-95321200D01*
X55591760Y-95971200D01*
X55641043Y-96218965D01*
X55781391Y-96429009D01*
X55991435Y-96569357D01*
X56126385Y-96596200D01*
X55991435Y-96623043D01*
X55781391Y-96763391D01*
X55641043Y-96973435D01*
X55591760Y-97221200D01*
X55591760Y-97871200D01*
X55641043Y-98118965D01*
X55781391Y-98329009D01*
X55991435Y-98469357D01*
X56239200Y-98518640D01*
X57799200Y-98518640D01*
X58046965Y-98469357D01*
X58257009Y-98329009D01*
X58369200Y-98161105D01*
X58481391Y-98329009D01*
X58691435Y-98469357D01*
X58939200Y-98518640D01*
X60499200Y-98518640D01*
X60746965Y-98469357D01*
X60878900Y-98381200D01*
X61435426Y-98381200D01*
X61541533Y-98540000D01*
X52697860Y-98540000D01*
X52708734Y-98529126D01*
X52596632Y-98417024D01*
X53071277Y-98074434D01*
X53631342Y-96741200D01*
X53638568Y-95295125D01*
X53091854Y-93956361D01*
X53071277Y-93925566D01*
X52596630Y-93582975D01*
X50179605Y-96000000D01*
X50193748Y-96014143D01*
X50014143Y-96193748D01*
X50000000Y-96179605D01*
X49985858Y-96193748D01*
X49806253Y-96014143D01*
X49820395Y-96000000D01*
X47403370Y-93582975D01*
X47310000Y-93650368D01*
X47310000Y-93403370D01*
X47582975Y-93403370D01*
X50000000Y-95820395D01*
X52417025Y-93403370D01*
X52074434Y-92928723D01*
X50741200Y-92368658D01*
X49295125Y-92361432D01*
X47956361Y-92908146D01*
X47925566Y-92928723D01*
X47582975Y-93403370D01*
X47310000Y-93403370D01*
X47310000Y-52349632D01*
X47403370Y-52417025D01*
X49820395Y-50000000D01*
X49806253Y-49985858D01*
X49985858Y-49806253D01*
X50000000Y-49820395D01*
X50014143Y-49806253D01*
X50193748Y-49985858D01*
X50193748Y-49985858D01*
G37*
X50193748Y-49985858D02*
X50179605Y-50000000D01*
X50193748Y-50014143D01*
X50014143Y-50193748D01*
X50000000Y-50179605D01*
X47582975Y-52596630D01*
X47925566Y-53071277D01*
X49258800Y-53631342D01*
X50704875Y-53638568D01*
X51494485Y-53316113D01*
X48118530Y-56692069D01*
X48055071Y-56734471D01*
X47887096Y-56985864D01*
X47843000Y-57207549D01*
X47843000Y-57207553D01*
X47828112Y-57282400D01*
X47843000Y-57357247D01*
X47843001Y-72513034D01*
X47828112Y-72587886D01*
X47887097Y-72884423D01*
X47995172Y-73046168D01*
X48055072Y-73135815D01*
X48118528Y-73178215D01*
X57301784Y-82361472D01*
X57344185Y-82424929D01*
X57595577Y-82592904D01*
X57817262Y-82637000D01*
X57817266Y-82637000D01*
X57892113Y-82651888D01*
X57966960Y-82637000D01*
X68227199Y-82637000D01*
X69969199Y-84379000D01*
X69797667Y-84379000D01*
X69379091Y-84462260D01*
X68904423Y-84779423D01*
X68669000Y-85131758D01*
X68433577Y-84779423D01*
X67958909Y-84462260D01*
X67540333Y-84379000D01*
X67257667Y-84379000D01*
X66839091Y-84462260D01*
X66364423Y-84779423D01*
X66129000Y-85131758D01*
X65893577Y-84779423D01*
X65418909Y-84462260D01*
X65000333Y-84379000D01*
X64717667Y-84379000D01*
X64299091Y-84462260D01*
X63824423Y-84779423D01*
X63589000Y-85131758D01*
X63353577Y-84779423D01*
X62878909Y-84462260D01*
X62460333Y-84379000D01*
X62177667Y-84379000D01*
X61759091Y-84462260D01*
X61284423Y-84779423D01*
X61049000Y-85131758D01*
X60813577Y-84779423D01*
X60338909Y-84462260D01*
X59920333Y-84379000D01*
X59637667Y-84379000D01*
X59219091Y-84462260D01*
X58744423Y-84779423D01*
X58509000Y-85131758D01*
X58273577Y-84779423D01*
X57798909Y-84462260D01*
X57380333Y-84379000D01*
X57097667Y-84379000D01*
X56679091Y-84462260D01*
X56204423Y-84779423D01*
X55969000Y-85131758D01*
X55733577Y-84779423D01*
X55258909Y-84462260D01*
X54840333Y-84379000D01*
X54557667Y-84379000D01*
X54139091Y-84462260D01*
X53664423Y-84779423D01*
X53347260Y-85254091D01*
X53235887Y-85814000D01*
X53347260Y-86373909D01*
X53664423Y-86848577D01*
X53939001Y-87032044D01*
X53939000Y-92676153D01*
X53924112Y-92751000D01*
X53939000Y-92825847D01*
X53939000Y-92825851D01*
X53983096Y-93047536D01*
X54151071Y-93298929D01*
X54214530Y-93341331D01*
X55763446Y-94890248D01*
X55641043Y-95073435D01*
X55591760Y-95321200D01*
X55591760Y-95971200D01*
X55641043Y-96218965D01*
X55781391Y-96429009D01*
X55991435Y-96569357D01*
X56126385Y-96596200D01*
X55991435Y-96623043D01*
X55781391Y-96763391D01*
X55641043Y-96973435D01*
X55591760Y-97221200D01*
X55591760Y-97871200D01*
X55641043Y-98118965D01*
X55781391Y-98329009D01*
X55991435Y-98469357D01*
X56239200Y-98518640D01*
X57799200Y-98518640D01*
X58046965Y-98469357D01*
X58257009Y-98329009D01*
X58369200Y-98161105D01*
X58481391Y-98329009D01*
X58691435Y-98469357D01*
X58939200Y-98518640D01*
X60499200Y-98518640D01*
X60746965Y-98469357D01*
X60878900Y-98381200D01*
X61435426Y-98381200D01*
X61541533Y-98540000D01*
X52697860Y-98540000D01*
X52708734Y-98529126D01*
X52596632Y-98417024D01*
X53071277Y-98074434D01*
X53631342Y-96741200D01*
X53638568Y-95295125D01*
X53091854Y-93956361D01*
X53071277Y-93925566D01*
X52596630Y-93582975D01*
X50179605Y-96000000D01*
X50193748Y-96014143D01*
X50014143Y-96193748D01*
X50000000Y-96179605D01*
X49985858Y-96193748D01*
X49806253Y-96014143D01*
X49820395Y-96000000D01*
X47403370Y-93582975D01*
X47310000Y-93650368D01*
X47310000Y-93403370D01*
X47582975Y-93403370D01*
X50000000Y-95820395D01*
X52417025Y-93403370D01*
X52074434Y-92928723D01*
X50741200Y-92368658D01*
X49295125Y-92361432D01*
X47956361Y-92908146D01*
X47925566Y-92928723D01*
X47582975Y-93403370D01*
X47310000Y-93403370D01*
X47310000Y-52349632D01*
X47403370Y-52417025D01*
X49820395Y-50000000D01*
X49806253Y-49985858D01*
X49985858Y-49806253D01*
X50000000Y-49820395D01*
X50014143Y-49806253D01*
X50193748Y-49985858D01*
G36*
X101818001Y-80032803D02*
X101818000Y-87867197D01*
X101009000Y-88676198D01*
X101009000Y-88330119D01*
X100796320Y-87816663D01*
X100403337Y-87423680D01*
X100212353Y-87344572D01*
X100343143Y-87290397D01*
X100412608Y-87048213D01*
X99612000Y-86247605D01*
X98811392Y-87048213D01*
X98880857Y-87290397D01*
X99021393Y-87340535D01*
X98820663Y-87423680D01*
X98471343Y-87773000D01*
X98424232Y-87773000D01*
X98405466Y-87769267D01*
X98469000Y-87615881D01*
X98469000Y-87060119D01*
X98256320Y-86546663D01*
X98131610Y-86421953D01*
X98226232Y-86327332D01*
X98230638Y-86415368D01*
X98389603Y-86799143D01*
X98631787Y-86868608D01*
X99432395Y-86068000D01*
X99791605Y-86068000D01*
X100592213Y-86868608D01*
X100834397Y-86799143D01*
X101021144Y-86275698D01*
X100993362Y-85720632D01*
X100834397Y-85336857D01*
X100592213Y-85267392D01*
X99791605Y-86068000D01*
X99432395Y-86068000D01*
X99418253Y-86053858D01*
X99597858Y-85874253D01*
X99612000Y-85888395D01*
X100412608Y-85087787D01*
X100343143Y-84845603D01*
X99819698Y-84658856D01*
X99756056Y-84662041D01*
X99782000Y-84531614D01*
X99782000Y-84531610D01*
X99796888Y-84456763D01*
X99782000Y-84381916D01*
X99782000Y-77996801D01*
X101818001Y-80032803D01*
X101818001Y-80032803D01*
G37*
X101818001Y-80032803D02*
X101818000Y-87867197D01*
X101009000Y-88676198D01*
X101009000Y-88330119D01*
X100796320Y-87816663D01*
X100403337Y-87423680D01*
X100212353Y-87344572D01*
X100343143Y-87290397D01*
X100412608Y-87048213D01*
X99612000Y-86247605D01*
X98811392Y-87048213D01*
X98880857Y-87290397D01*
X99021393Y-87340535D01*
X98820663Y-87423680D01*
X98471343Y-87773000D01*
X98424232Y-87773000D01*
X98405466Y-87769267D01*
X98469000Y-87615881D01*
X98469000Y-87060119D01*
X98256320Y-86546663D01*
X98131610Y-86421953D01*
X98226232Y-86327332D01*
X98230638Y-86415368D01*
X98389603Y-86799143D01*
X98631787Y-86868608D01*
X99432395Y-86068000D01*
X99791605Y-86068000D01*
X100592213Y-86868608D01*
X100834397Y-86799143D01*
X101021144Y-86275698D01*
X100993362Y-85720632D01*
X100834397Y-85336857D01*
X100592213Y-85267392D01*
X99791605Y-86068000D01*
X99432395Y-86068000D01*
X99418253Y-86053858D01*
X99597858Y-85874253D01*
X99612000Y-85888395D01*
X100412608Y-85087787D01*
X100343143Y-84845603D01*
X99819698Y-84658856D01*
X99756056Y-84662041D01*
X99782000Y-84531614D01*
X99782000Y-84531610D01*
X99796888Y-84456763D01*
X99782000Y-84381916D01*
X99782000Y-77996801D01*
X101818001Y-80032803D01*
G36*
X87490600Y-59188450D02*
X87649350Y-59347200D01*
X88573600Y-59347200D01*
X88573600Y-59327200D01*
X88827600Y-59327200D01*
X88827600Y-59347200D01*
X88847600Y-59347200D01*
X88847600Y-59601200D01*
X88827600Y-59601200D01*
X88827600Y-60650450D01*
X88986350Y-60809200D01*
X89181968Y-60809200D01*
X89121399Y-60821248D01*
X88845199Y-61005799D01*
X88798615Y-61075517D01*
X87948720Y-61925413D01*
X87878999Y-61971999D01*
X87694448Y-62248200D01*
X87646000Y-62491764D01*
X87646000Y-62491767D01*
X87629643Y-62574000D01*
X87646000Y-62656233D01*
X87646001Y-65538762D01*
X87629643Y-65621000D01*
X87694448Y-65946800D01*
X87773293Y-66064800D01*
X87879000Y-66223001D01*
X87948718Y-66269585D01*
X90805692Y-69126560D01*
X89459000Y-69126560D01*
X89211235Y-69175843D01*
X89001191Y-69316191D01*
X88860843Y-69526235D01*
X88834215Y-69660106D01*
X88753577Y-69539423D01*
X88278909Y-69222260D01*
X87860333Y-69139000D01*
X87577667Y-69139000D01*
X87159091Y-69222260D01*
X86684423Y-69539423D01*
X86449000Y-69891758D01*
X86213577Y-69539423D01*
X85738909Y-69222260D01*
X85320333Y-69139000D01*
X85037667Y-69139000D01*
X84619091Y-69222260D01*
X84144423Y-69539423D01*
X83888053Y-69923108D01*
X83791389Y-69718866D01*
X83376423Y-69342959D01*
X82988039Y-69182096D01*
X82766000Y-69304085D01*
X82766000Y-70447000D01*
X82786000Y-70447000D01*
X82786000Y-70701000D01*
X82766000Y-70701000D01*
X82766000Y-71843915D01*
X82988039Y-71965904D01*
X83376423Y-71805041D01*
X83791389Y-71429134D01*
X83888053Y-71224892D01*
X84144423Y-71608577D01*
X84619091Y-71925740D01*
X85037667Y-72009000D01*
X85320333Y-72009000D01*
X85738909Y-71925740D01*
X86213577Y-71608577D01*
X86449000Y-71256242D01*
X86684423Y-71608577D01*
X87159091Y-71925740D01*
X87577667Y-72009000D01*
X87860333Y-72009000D01*
X88278909Y-71925740D01*
X88753577Y-71608577D01*
X88834215Y-71487894D01*
X88860843Y-71621765D01*
X89001191Y-71831809D01*
X89211235Y-71972157D01*
X89459000Y-72021440D01*
X91059000Y-72021440D01*
X91306765Y-71972157D01*
X91516809Y-71831809D01*
X91657157Y-71621765D01*
X91706440Y-71374000D01*
X91706440Y-70027308D01*
X91964000Y-70284868D01*
X91964001Y-75308131D01*
X82874418Y-84397715D01*
X82780333Y-84379000D01*
X82497667Y-84379000D01*
X82403582Y-84397715D01*
X78334587Y-80328720D01*
X78288001Y-80258999D01*
X78011801Y-80074448D01*
X77768237Y-80026000D01*
X77768233Y-80026000D01*
X77686000Y-80009643D01*
X77603767Y-80026000D01*
X58600869Y-80026000D01*
X50846628Y-72271761D01*
X50846628Y-66033750D01*
X51702000Y-66033750D01*
X51702000Y-66574310D01*
X51798673Y-66807699D01*
X51977302Y-66986327D01*
X52210691Y-67083000D01*
X52626250Y-67083000D01*
X52785000Y-66924250D01*
X52785000Y-65875000D01*
X51860750Y-65875000D01*
X51702000Y-66033750D01*
X50846628Y-66033750D01*
X50846628Y-64921690D01*
X51702000Y-64921690D01*
X51702000Y-65462250D01*
X51860750Y-65621000D01*
X52785000Y-65621000D01*
X52785000Y-64571750D01*
X52626250Y-64413000D01*
X52210691Y-64413000D01*
X51977302Y-64509673D01*
X51798673Y-64688301D01*
X51702000Y-64921690D01*
X50846628Y-64921690D01*
X50846628Y-62915440D01*
X51085001Y-62915440D01*
X51428436Y-62847127D01*
X51719586Y-62652586D01*
X51914127Y-62361436D01*
X51982440Y-62018001D01*
X51982440Y-61672998D01*
X52141560Y-61672998D01*
X52141560Y-62798000D01*
X52190843Y-63045765D01*
X52331191Y-63255809D01*
X52541235Y-63396157D01*
X52789000Y-63445440D01*
X53011638Y-63445440D01*
X53301990Y-63735793D01*
X53301990Y-64413000D01*
X53197750Y-64413000D01*
X53039000Y-64571750D01*
X53039000Y-65621000D01*
X53059000Y-65621000D01*
X53059000Y-65875000D01*
X53039000Y-65875000D01*
X53039000Y-66924250D01*
X53197750Y-67083000D01*
X53301991Y-67083000D01*
X53301991Y-68730768D01*
X53287102Y-68805620D01*
X53346087Y-69102157D01*
X53399501Y-69182096D01*
X53514062Y-69353549D01*
X53577518Y-69395949D01*
X53698333Y-69516765D01*
X53664423Y-69539423D01*
X53347260Y-70014091D01*
X53235887Y-70574000D01*
X53347260Y-71133909D01*
X53664423Y-71608577D01*
X54139091Y-71925740D01*
X54557667Y-72009000D01*
X54840333Y-72009000D01*
X55258909Y-71925740D01*
X55733577Y-71608577D01*
X55969000Y-71256242D01*
X56204423Y-71608577D01*
X56679091Y-71925740D01*
X57097667Y-72009000D01*
X57380333Y-72009000D01*
X57798909Y-71925740D01*
X58273577Y-71608577D01*
X58509000Y-71256242D01*
X58744423Y-71608577D01*
X59219091Y-71925740D01*
X59637667Y-72009000D01*
X59920333Y-72009000D01*
X60338909Y-71925740D01*
X60813577Y-71608577D01*
X61049000Y-71256242D01*
X61284423Y-71608577D01*
X61759091Y-71925740D01*
X62177667Y-72009000D01*
X62460333Y-72009000D01*
X62878909Y-71925740D01*
X63353577Y-71608577D01*
X63589000Y-71256242D01*
X63824423Y-71608577D01*
X64299091Y-71925740D01*
X64717667Y-72009000D01*
X65000333Y-72009000D01*
X65418909Y-71925740D01*
X65893577Y-71608577D01*
X66129000Y-71256242D01*
X66364423Y-71608577D01*
X66839091Y-71925740D01*
X67257667Y-72009000D01*
X67540333Y-72009000D01*
X67958909Y-71925740D01*
X68433577Y-71608577D01*
X68669000Y-71256242D01*
X68904423Y-71608577D01*
X69379091Y-71925740D01*
X69797667Y-72009000D01*
X70080333Y-72009000D01*
X70498909Y-71925740D01*
X70973577Y-71608577D01*
X71209000Y-71256242D01*
X71444423Y-71608577D01*
X71919091Y-71925740D01*
X72337667Y-72009000D01*
X72620333Y-72009000D01*
X73038909Y-71925740D01*
X73513577Y-71608577D01*
X73749000Y-71256242D01*
X73984423Y-71608577D01*
X74459091Y-71925740D01*
X74877667Y-72009000D01*
X75160333Y-72009000D01*
X75578909Y-71925740D01*
X76053577Y-71608577D01*
X76289000Y-71256242D01*
X76524423Y-71608577D01*
X76999091Y-71925740D01*
X77417667Y-72009000D01*
X77700333Y-72009000D01*
X78118909Y-71925740D01*
X78593577Y-71608577D01*
X78829000Y-71256242D01*
X79064423Y-71608577D01*
X79539091Y-71925740D01*
X79957667Y-72009000D01*
X80240333Y-72009000D01*
X80658909Y-71925740D01*
X81133577Y-71608577D01*
X81389947Y-71224892D01*
X81486611Y-71429134D01*
X81901577Y-71805041D01*
X82289961Y-71965904D01*
X82512000Y-71843915D01*
X82512000Y-70701000D01*
X82492000Y-70701000D01*
X82492000Y-70447000D01*
X82512000Y-70447000D01*
X82512000Y-69304085D01*
X82289961Y-69182096D01*
X81901577Y-69342959D01*
X81486611Y-69718866D01*
X81389947Y-69923108D01*
X81133577Y-69539423D01*
X80859000Y-69355957D01*
X80859000Y-68817026D01*
X80944301Y-68902327D01*
X81177690Y-68999000D01*
X81718250Y-68999000D01*
X81877000Y-68840250D01*
X81877000Y-67916000D01*
X82131000Y-67916000D01*
X82131000Y-68840250D01*
X82289750Y-68999000D01*
X82830310Y-68999000D01*
X83063699Y-68902327D01*
X83242327Y-68723698D01*
X83339000Y-68490309D01*
X83339000Y-68074750D01*
X83180250Y-67916000D01*
X82131000Y-67916000D01*
X81877000Y-67916000D01*
X81857000Y-67916000D01*
X81857000Y-67662000D01*
X81877000Y-67662000D01*
X81877000Y-67642000D01*
X82131000Y-67642000D01*
X82131000Y-67662000D01*
X83180250Y-67662000D01*
X83339000Y-67503250D01*
X83339000Y-67087691D01*
X83242327Y-66854302D01*
X83087403Y-66699377D01*
X83088586Y-66698586D01*
X83283127Y-66407436D01*
X83328804Y-66177800D01*
X83992670Y-66177800D01*
X84199435Y-66315957D01*
X84447200Y-66365240D01*
X85997200Y-66365240D01*
X86244965Y-66315957D01*
X86455009Y-66175609D01*
X86595357Y-65965565D01*
X86644640Y-65717800D01*
X86644640Y-65117800D01*
X86595357Y-64870035D01*
X86537068Y-64782800D01*
X86595357Y-64695565D01*
X86644640Y-64447800D01*
X86644640Y-63847800D01*
X86595357Y-63600035D01*
X86537068Y-63512800D01*
X86595357Y-63425565D01*
X86644640Y-63177800D01*
X86644640Y-62577800D01*
X86595357Y-62330035D01*
X86537068Y-62242800D01*
X86595357Y-62155565D01*
X86644640Y-61907800D01*
X86644640Y-61307800D01*
X86595357Y-61060035D01*
X86455009Y-60849991D01*
X86244965Y-60709643D01*
X85997200Y-60660360D01*
X84447200Y-60660360D01*
X84199435Y-60709643D01*
X83992670Y-60847800D01*
X83323752Y-60847800D01*
X83283127Y-60643564D01*
X83088586Y-60352414D01*
X82990687Y-60287000D01*
X83088586Y-60221586D01*
X83283127Y-59930436D01*
X83317038Y-59759950D01*
X87490600Y-59759950D01*
X87490600Y-60300510D01*
X87587273Y-60533899D01*
X87765902Y-60712527D01*
X87999291Y-60809200D01*
X88414850Y-60809200D01*
X88573600Y-60650450D01*
X88573600Y-59601200D01*
X87649350Y-59601200D01*
X87490600Y-59759950D01*
X83317038Y-59759950D01*
X83351440Y-59587001D01*
X83351440Y-59095428D01*
X83737869Y-58709000D01*
X87490600Y-58709000D01*
X87490600Y-59188450D01*
X87490600Y-59188450D01*
G37*
X87490600Y-59188450D02*
X87649350Y-59347200D01*
X88573600Y-59347200D01*
X88573600Y-59327200D01*
X88827600Y-59327200D01*
X88827600Y-59347200D01*
X88847600Y-59347200D01*
X88847600Y-59601200D01*
X88827600Y-59601200D01*
X88827600Y-60650450D01*
X88986350Y-60809200D01*
X89181968Y-60809200D01*
X89121399Y-60821248D01*
X88845199Y-61005799D01*
X88798615Y-61075517D01*
X87948720Y-61925413D01*
X87878999Y-61971999D01*
X87694448Y-62248200D01*
X87646000Y-62491764D01*
X87646000Y-62491767D01*
X87629643Y-62574000D01*
X87646000Y-62656233D01*
X87646001Y-65538762D01*
X87629643Y-65621000D01*
X87694448Y-65946800D01*
X87773293Y-66064800D01*
X87879000Y-66223001D01*
X87948718Y-66269585D01*
X90805692Y-69126560D01*
X89459000Y-69126560D01*
X89211235Y-69175843D01*
X89001191Y-69316191D01*
X88860843Y-69526235D01*
X88834215Y-69660106D01*
X88753577Y-69539423D01*
X88278909Y-69222260D01*
X87860333Y-69139000D01*
X87577667Y-69139000D01*
X87159091Y-69222260D01*
X86684423Y-69539423D01*
X86449000Y-69891758D01*
X86213577Y-69539423D01*
X85738909Y-69222260D01*
X85320333Y-69139000D01*
X85037667Y-69139000D01*
X84619091Y-69222260D01*
X84144423Y-69539423D01*
X83888053Y-69923108D01*
X83791389Y-69718866D01*
X83376423Y-69342959D01*
X82988039Y-69182096D01*
X82766000Y-69304085D01*
X82766000Y-70447000D01*
X82786000Y-70447000D01*
X82786000Y-70701000D01*
X82766000Y-70701000D01*
X82766000Y-71843915D01*
X82988039Y-71965904D01*
X83376423Y-71805041D01*
X83791389Y-71429134D01*
X83888053Y-71224892D01*
X84144423Y-71608577D01*
X84619091Y-71925740D01*
X85037667Y-72009000D01*
X85320333Y-72009000D01*
X85738909Y-71925740D01*
X86213577Y-71608577D01*
X86449000Y-71256242D01*
X86684423Y-71608577D01*
X87159091Y-71925740D01*
X87577667Y-72009000D01*
X87860333Y-72009000D01*
X88278909Y-71925740D01*
X88753577Y-71608577D01*
X88834215Y-71487894D01*
X88860843Y-71621765D01*
X89001191Y-71831809D01*
X89211235Y-71972157D01*
X89459000Y-72021440D01*
X91059000Y-72021440D01*
X91306765Y-71972157D01*
X91516809Y-71831809D01*
X91657157Y-71621765D01*
X91706440Y-71374000D01*
X91706440Y-70027308D01*
X91964000Y-70284868D01*
X91964001Y-75308131D01*
X82874418Y-84397715D01*
X82780333Y-84379000D01*
X82497667Y-84379000D01*
X82403582Y-84397715D01*
X78334587Y-80328720D01*
X78288001Y-80258999D01*
X78011801Y-80074448D01*
X77768237Y-80026000D01*
X77768233Y-80026000D01*
X77686000Y-80009643D01*
X77603767Y-80026000D01*
X58600869Y-80026000D01*
X50846628Y-72271761D01*
X50846628Y-66033750D01*
X51702000Y-66033750D01*
X51702000Y-66574310D01*
X51798673Y-66807699D01*
X51977302Y-66986327D01*
X52210691Y-67083000D01*
X52626250Y-67083000D01*
X52785000Y-66924250D01*
X52785000Y-65875000D01*
X51860750Y-65875000D01*
X51702000Y-66033750D01*
X50846628Y-66033750D01*
X50846628Y-64921690D01*
X51702000Y-64921690D01*
X51702000Y-65462250D01*
X51860750Y-65621000D01*
X52785000Y-65621000D01*
X52785000Y-64571750D01*
X52626250Y-64413000D01*
X52210691Y-64413000D01*
X51977302Y-64509673D01*
X51798673Y-64688301D01*
X51702000Y-64921690D01*
X50846628Y-64921690D01*
X50846628Y-62915440D01*
X51085001Y-62915440D01*
X51428436Y-62847127D01*
X51719586Y-62652586D01*
X51914127Y-62361436D01*
X51982440Y-62018001D01*
X51982440Y-61672998D01*
X52141560Y-61672998D01*
X52141560Y-62798000D01*
X52190843Y-63045765D01*
X52331191Y-63255809D01*
X52541235Y-63396157D01*
X52789000Y-63445440D01*
X53011638Y-63445440D01*
X53301990Y-63735793D01*
X53301990Y-64413000D01*
X53197750Y-64413000D01*
X53039000Y-64571750D01*
X53039000Y-65621000D01*
X53059000Y-65621000D01*
X53059000Y-65875000D01*
X53039000Y-65875000D01*
X53039000Y-66924250D01*
X53197750Y-67083000D01*
X53301991Y-67083000D01*
X53301991Y-68730768D01*
X53287102Y-68805620D01*
X53346087Y-69102157D01*
X53399501Y-69182096D01*
X53514062Y-69353549D01*
X53577518Y-69395949D01*
X53698333Y-69516765D01*
X53664423Y-69539423D01*
X53347260Y-70014091D01*
X53235887Y-70574000D01*
X53347260Y-71133909D01*
X53664423Y-71608577D01*
X54139091Y-71925740D01*
X54557667Y-72009000D01*
X54840333Y-72009000D01*
X55258909Y-71925740D01*
X55733577Y-71608577D01*
X55969000Y-71256242D01*
X56204423Y-71608577D01*
X56679091Y-71925740D01*
X57097667Y-72009000D01*
X57380333Y-72009000D01*
X57798909Y-71925740D01*
X58273577Y-71608577D01*
X58509000Y-71256242D01*
X58744423Y-71608577D01*
X59219091Y-71925740D01*
X59637667Y-72009000D01*
X59920333Y-72009000D01*
X60338909Y-71925740D01*
X60813577Y-71608577D01*
X61049000Y-71256242D01*
X61284423Y-71608577D01*
X61759091Y-71925740D01*
X62177667Y-72009000D01*
X62460333Y-72009000D01*
X62878909Y-71925740D01*
X63353577Y-71608577D01*
X63589000Y-71256242D01*
X63824423Y-71608577D01*
X64299091Y-71925740D01*
X64717667Y-72009000D01*
X65000333Y-72009000D01*
X65418909Y-71925740D01*
X65893577Y-71608577D01*
X66129000Y-71256242D01*
X66364423Y-71608577D01*
X66839091Y-71925740D01*
X67257667Y-72009000D01*
X67540333Y-72009000D01*
X67958909Y-71925740D01*
X68433577Y-71608577D01*
X68669000Y-71256242D01*
X68904423Y-71608577D01*
X69379091Y-71925740D01*
X69797667Y-72009000D01*
X70080333Y-72009000D01*
X70498909Y-71925740D01*
X70973577Y-71608577D01*
X71209000Y-71256242D01*
X71444423Y-71608577D01*
X71919091Y-71925740D01*
X72337667Y-72009000D01*
X72620333Y-72009000D01*
X73038909Y-71925740D01*
X73513577Y-71608577D01*
X73749000Y-71256242D01*
X73984423Y-71608577D01*
X74459091Y-71925740D01*
X74877667Y-72009000D01*
X75160333Y-72009000D01*
X75578909Y-71925740D01*
X76053577Y-71608577D01*
X76289000Y-71256242D01*
X76524423Y-71608577D01*
X76999091Y-71925740D01*
X77417667Y-72009000D01*
X77700333Y-72009000D01*
X78118909Y-71925740D01*
X78593577Y-71608577D01*
X78829000Y-71256242D01*
X79064423Y-71608577D01*
X79539091Y-71925740D01*
X79957667Y-72009000D01*
X80240333Y-72009000D01*
X80658909Y-71925740D01*
X81133577Y-71608577D01*
X81389947Y-71224892D01*
X81486611Y-71429134D01*
X81901577Y-71805041D01*
X82289961Y-71965904D01*
X82512000Y-71843915D01*
X82512000Y-70701000D01*
X82492000Y-70701000D01*
X82492000Y-70447000D01*
X82512000Y-70447000D01*
X82512000Y-69304085D01*
X82289961Y-69182096D01*
X81901577Y-69342959D01*
X81486611Y-69718866D01*
X81389947Y-69923108D01*
X81133577Y-69539423D01*
X80859000Y-69355957D01*
X80859000Y-68817026D01*
X80944301Y-68902327D01*
X81177690Y-68999000D01*
X81718250Y-68999000D01*
X81877000Y-68840250D01*
X81877000Y-67916000D01*
X82131000Y-67916000D01*
X82131000Y-68840250D01*
X82289750Y-68999000D01*
X82830310Y-68999000D01*
X83063699Y-68902327D01*
X83242327Y-68723698D01*
X83339000Y-68490309D01*
X83339000Y-68074750D01*
X83180250Y-67916000D01*
X82131000Y-67916000D01*
X81877000Y-67916000D01*
X81857000Y-67916000D01*
X81857000Y-67662000D01*
X81877000Y-67662000D01*
X81877000Y-67642000D01*
X82131000Y-67642000D01*
X82131000Y-67662000D01*
X83180250Y-67662000D01*
X83339000Y-67503250D01*
X83339000Y-67087691D01*
X83242327Y-66854302D01*
X83087403Y-66699377D01*
X83088586Y-66698586D01*
X83283127Y-66407436D01*
X83328804Y-66177800D01*
X83992670Y-66177800D01*
X84199435Y-66315957D01*
X84447200Y-66365240D01*
X85997200Y-66365240D01*
X86244965Y-66315957D01*
X86455009Y-66175609D01*
X86595357Y-65965565D01*
X86644640Y-65717800D01*
X86644640Y-65117800D01*
X86595357Y-64870035D01*
X86537068Y-64782800D01*
X86595357Y-64695565D01*
X86644640Y-64447800D01*
X86644640Y-63847800D01*
X86595357Y-63600035D01*
X86537068Y-63512800D01*
X86595357Y-63425565D01*
X86644640Y-63177800D01*
X86644640Y-62577800D01*
X86595357Y-62330035D01*
X86537068Y-62242800D01*
X86595357Y-62155565D01*
X86644640Y-61907800D01*
X86644640Y-61307800D01*
X86595357Y-61060035D01*
X86455009Y-60849991D01*
X86244965Y-60709643D01*
X85997200Y-60660360D01*
X84447200Y-60660360D01*
X84199435Y-60709643D01*
X83992670Y-60847800D01*
X83323752Y-60847800D01*
X83283127Y-60643564D01*
X83088586Y-60352414D01*
X82990687Y-60287000D01*
X83088586Y-60221586D01*
X83283127Y-59930436D01*
X83317038Y-59759950D01*
X87490600Y-59759950D01*
X87490600Y-60300510D01*
X87587273Y-60533899D01*
X87765902Y-60712527D01*
X87999291Y-60809200D01*
X88414850Y-60809200D01*
X88573600Y-60650450D01*
X88573600Y-59601200D01*
X87649350Y-59601200D01*
X87490600Y-59759950D01*
X83317038Y-59759950D01*
X83351440Y-59587001D01*
X83351440Y-59095428D01*
X83737869Y-58709000D01*
X87490600Y-58709000D01*
X87490600Y-59188450D01*
G36*
X52317673Y-55488698D02*
X52472597Y-55643623D01*
X52471414Y-55644414D01*
X52276873Y-55935564D01*
X52208560Y-56278999D01*
X52208560Y-56929001D01*
X52276873Y-57272436D01*
X52471414Y-57563586D01*
X52762564Y-57758127D01*
X53105999Y-57826440D01*
X53597572Y-57826440D01*
X53674132Y-57903000D01*
X53612690Y-57903000D01*
X53576631Y-57917936D01*
X53439000Y-57890560D01*
X52789000Y-57890560D01*
X52541235Y-57939843D01*
X52331191Y-58080191D01*
X52190843Y-58290235D01*
X52141560Y-58538000D01*
X52141560Y-58558000D01*
X51531891Y-58558000D01*
X51428436Y-58488873D01*
X51085001Y-58420560D01*
X50184999Y-58420560D01*
X49871000Y-58483018D01*
X49871000Y-57725611D01*
X52256236Y-55340376D01*
X52317673Y-55488698D01*
X52317673Y-55488698D01*
G37*
X52317673Y-55488698D02*
X52472597Y-55643623D01*
X52471414Y-55644414D01*
X52276873Y-55935564D01*
X52208560Y-56278999D01*
X52208560Y-56929001D01*
X52276873Y-57272436D01*
X52471414Y-57563586D01*
X52762564Y-57758127D01*
X53105999Y-57826440D01*
X53597572Y-57826440D01*
X53674132Y-57903000D01*
X53612690Y-57903000D01*
X53576631Y-57917936D01*
X53439000Y-57890560D01*
X52789000Y-57890560D01*
X52541235Y-57939843D01*
X52331191Y-58080191D01*
X52190843Y-58290235D01*
X52141560Y-58538000D01*
X52141560Y-58558000D01*
X51531891Y-58558000D01*
X51428436Y-58488873D01*
X51085001Y-58420560D01*
X50184999Y-58420560D01*
X49871000Y-58483018D01*
X49871000Y-57725611D01*
X52256236Y-55340376D01*
X52317673Y-55488698D01*
G36*
X101287873Y-51555436D02*
X101482414Y-51846586D01*
X101773564Y-52041127D01*
X102116999Y-52109440D01*
X102767001Y-52109440D01*
X103110436Y-52041127D01*
X103401586Y-51846586D01*
X103467000Y-51748687D01*
X103532414Y-51846586D01*
X103732001Y-51979946D01*
X103732001Y-52447560D01*
X103128000Y-52447560D01*
X102880235Y-52496843D01*
X102670191Y-52637191D01*
X102529843Y-52847235D01*
X102480560Y-53095000D01*
X102480560Y-53599534D01*
X102387698Y-53506673D01*
X102154309Y-53410000D01*
X101363750Y-53410000D01*
X101205000Y-53568750D01*
X101205000Y-54318000D01*
X102504250Y-54318000D01*
X102589781Y-54232469D01*
X102670191Y-54352809D01*
X102808164Y-54445000D01*
X102670191Y-54537191D01*
X102589781Y-54657531D01*
X102504250Y-54572000D01*
X101205000Y-54572000D01*
X101205000Y-55321250D01*
X101363750Y-55480000D01*
X102154309Y-55480000D01*
X102387698Y-55383327D01*
X102480560Y-55290466D01*
X102480560Y-55795000D01*
X102529843Y-56042765D01*
X102670191Y-56252809D01*
X102880235Y-56393157D01*
X103128000Y-56442440D01*
X103732001Y-56442440D01*
X103732000Y-57418054D01*
X103532414Y-57551414D01*
X103467000Y-57649313D01*
X103401586Y-57551414D01*
X103110436Y-57356873D01*
X102767001Y-57288560D01*
X102116999Y-57288560D01*
X101773564Y-57356873D01*
X101482414Y-57551414D01*
X101287873Y-57842564D01*
X101281222Y-57876000D01*
X100064778Y-57876000D01*
X100058127Y-57842564D01*
X99863586Y-57551414D01*
X99664000Y-57418054D01*
X99664000Y-56658847D01*
X99678888Y-56584000D01*
X99664000Y-56509153D01*
X99664000Y-56509148D01*
X99619904Y-56287463D01*
X99451929Y-56036071D01*
X99388473Y-55993671D01*
X98380331Y-54985530D01*
X98337929Y-54922071D01*
X98286225Y-54887524D01*
X98269127Y-54801564D01*
X98221811Y-54730750D01*
X99493000Y-54730750D01*
X99493000Y-54971310D01*
X99589673Y-55204699D01*
X99768302Y-55383327D01*
X100001691Y-55480000D01*
X100792250Y-55480000D01*
X100951000Y-55321250D01*
X100951000Y-54572000D01*
X99651750Y-54572000D01*
X99493000Y-54730750D01*
X98221811Y-54730750D01*
X98074586Y-54510414D01*
X97976687Y-54445000D01*
X98074586Y-54379586D01*
X98269127Y-54088436D01*
X98302891Y-53918690D01*
X99493000Y-53918690D01*
X99493000Y-54159250D01*
X99651750Y-54318000D01*
X100951000Y-54318000D01*
X100951000Y-53568750D01*
X100792250Y-53410000D01*
X100001691Y-53410000D01*
X99768302Y-53506673D01*
X99589673Y-53685301D01*
X99493000Y-53918690D01*
X98302891Y-53918690D01*
X98337440Y-53745001D01*
X98337440Y-53147361D01*
X99261473Y-52223329D01*
X99324929Y-52180929D01*
X99414189Y-52047342D01*
X99445436Y-52041127D01*
X99736586Y-51846586D01*
X99931127Y-51555436D01*
X99937778Y-51522000D01*
X101281222Y-51522000D01*
X101287873Y-51555436D01*
X101287873Y-51555436D01*
G37*
X101287873Y-51555436D02*
X101482414Y-51846586D01*
X101773564Y-52041127D01*
X102116999Y-52109440D01*
X102767001Y-52109440D01*
X103110436Y-52041127D01*
X103401586Y-51846586D01*
X103467000Y-51748687D01*
X103532414Y-51846586D01*
X103732001Y-51979946D01*
X103732001Y-52447560D01*
X103128000Y-52447560D01*
X102880235Y-52496843D01*
X102670191Y-52637191D01*
X102529843Y-52847235D01*
X102480560Y-53095000D01*
X102480560Y-53599534D01*
X102387698Y-53506673D01*
X102154309Y-53410000D01*
X101363750Y-53410000D01*
X101205000Y-53568750D01*
X101205000Y-54318000D01*
X102504250Y-54318000D01*
X102589781Y-54232469D01*
X102670191Y-54352809D01*
X102808164Y-54445000D01*
X102670191Y-54537191D01*
X102589781Y-54657531D01*
X102504250Y-54572000D01*
X101205000Y-54572000D01*
X101205000Y-55321250D01*
X101363750Y-55480000D01*
X102154309Y-55480000D01*
X102387698Y-55383327D01*
X102480560Y-55290466D01*
X102480560Y-55795000D01*
X102529843Y-56042765D01*
X102670191Y-56252809D01*
X102880235Y-56393157D01*
X103128000Y-56442440D01*
X103732001Y-56442440D01*
X103732000Y-57418054D01*
X103532414Y-57551414D01*
X103467000Y-57649313D01*
X103401586Y-57551414D01*
X103110436Y-57356873D01*
X102767001Y-57288560D01*
X102116999Y-57288560D01*
X101773564Y-57356873D01*
X101482414Y-57551414D01*
X101287873Y-57842564D01*
X101281222Y-57876000D01*
X100064778Y-57876000D01*
X100058127Y-57842564D01*
X99863586Y-57551414D01*
X99664000Y-57418054D01*
X99664000Y-56658847D01*
X99678888Y-56584000D01*
X99664000Y-56509153D01*
X99664000Y-56509148D01*
X99619904Y-56287463D01*
X99451929Y-56036071D01*
X99388473Y-55993671D01*
X98380331Y-54985530D01*
X98337929Y-54922071D01*
X98286225Y-54887524D01*
X98269127Y-54801564D01*
X98221811Y-54730750D01*
X99493000Y-54730750D01*
X99493000Y-54971310D01*
X99589673Y-55204699D01*
X99768302Y-55383327D01*
X100001691Y-55480000D01*
X100792250Y-55480000D01*
X100951000Y-55321250D01*
X100951000Y-54572000D01*
X99651750Y-54572000D01*
X99493000Y-54730750D01*
X98221811Y-54730750D01*
X98074586Y-54510414D01*
X97976687Y-54445000D01*
X98074586Y-54379586D01*
X98269127Y-54088436D01*
X98302891Y-53918690D01*
X99493000Y-53918690D01*
X99493000Y-54159250D01*
X99651750Y-54318000D01*
X100951000Y-54318000D01*
X100951000Y-53568750D01*
X100792250Y-53410000D01*
X100001691Y-53410000D01*
X99768302Y-53506673D01*
X99589673Y-53685301D01*
X99493000Y-53918690D01*
X98302891Y-53918690D01*
X98337440Y-53745001D01*
X98337440Y-53147361D01*
X99261473Y-52223329D01*
X99324929Y-52180929D01*
X99414189Y-52047342D01*
X99445436Y-52041127D01*
X99736586Y-51846586D01*
X99931127Y-51555436D01*
X99937778Y-51522000D01*
X101281222Y-51522000D01*
X101287873Y-51555436D01*
G36*
X53683000Y-54427000D02*
X53703000Y-54427000D01*
X53703000Y-54681000D01*
X53683000Y-54681000D01*
X53683000Y-54701000D01*
X53429000Y-54701000D01*
X53429000Y-54681000D01*
X53409000Y-54681000D01*
X53409000Y-54427000D01*
X53429000Y-54427000D01*
X53429000Y-54407000D01*
X53683000Y-54407000D01*
X53683000Y-54427000D01*
X53683000Y-54427000D01*
G37*
X53683000Y-54427000D02*
X53703000Y-54427000D01*
X53703000Y-54681000D01*
X53683000Y-54681000D01*
X53683000Y-54701000D01*
X53429000Y-54701000D01*
X53429000Y-54681000D01*
X53409000Y-54681000D01*
X53409000Y-54427000D01*
X53429000Y-54427000D01*
X53429000Y-54407000D01*
X53683000Y-54407000D01*
X53683000Y-54427000D01*
G36*
X58028514Y-49673108D02*
X58149181Y-49903000D01*
X59343000Y-49903000D01*
X59343000Y-49883000D01*
X59597000Y-49883000D01*
X59597000Y-49903000D01*
X61883000Y-49903000D01*
X61883000Y-49883000D01*
X62137000Y-49883000D01*
X62137000Y-49903000D01*
X64423000Y-49903000D01*
X64423000Y-49883000D01*
X64677000Y-49883000D01*
X64677000Y-49903000D01*
X66963000Y-49903000D01*
X66963000Y-49883000D01*
X67217000Y-49883000D01*
X67217000Y-49903000D01*
X69503000Y-49903000D01*
X69503000Y-49883000D01*
X69757000Y-49883000D01*
X69757000Y-49903000D01*
X72043000Y-49903000D01*
X72043000Y-49883000D01*
X72297000Y-49883000D01*
X72297000Y-49903000D01*
X72317000Y-49903000D01*
X72317000Y-50157000D01*
X72297000Y-50157000D01*
X72297000Y-50177000D01*
X72043000Y-50177000D01*
X72043000Y-50157000D01*
X69757000Y-50157000D01*
X69757000Y-50177000D01*
X69503000Y-50177000D01*
X69503000Y-50157000D01*
X67217000Y-50157000D01*
X67217000Y-50177000D01*
X66963000Y-50177000D01*
X66963000Y-50157000D01*
X64677000Y-50157000D01*
X64677000Y-50177000D01*
X64423000Y-50177000D01*
X64423000Y-50157000D01*
X62137000Y-50157000D01*
X62137000Y-50177000D01*
X61883000Y-50177000D01*
X61883000Y-50157000D01*
X59597000Y-50157000D01*
X59597000Y-50177000D01*
X59343000Y-50177000D01*
X59343000Y-50157000D01*
X58149181Y-50157000D01*
X58028514Y-50386892D01*
X58274817Y-50911358D01*
X58481855Y-51100039D01*
X58372235Y-51121843D01*
X58162191Y-51262191D01*
X58021843Y-51472235D01*
X57972560Y-51720000D01*
X57972560Y-51735000D01*
X57672237Y-51735000D01*
X57590000Y-51718642D01*
X57507763Y-51735000D01*
X57264199Y-51783448D01*
X56987999Y-51967999D01*
X56941415Y-52037717D01*
X54891000Y-54088133D01*
X54891000Y-53852691D01*
X54794327Y-53619302D01*
X54615699Y-53440673D01*
X54382310Y-53344000D01*
X54252612Y-53344000D01*
X58121497Y-49475115D01*
X58028514Y-49673108D01*
X58028514Y-49673108D01*
G37*
X58028514Y-49673108D02*
X58149181Y-49903000D01*
X59343000Y-49903000D01*
X59343000Y-49883000D01*
X59597000Y-49883000D01*
X59597000Y-49903000D01*
X61883000Y-49903000D01*
X61883000Y-49883000D01*
X62137000Y-49883000D01*
X62137000Y-49903000D01*
X64423000Y-49903000D01*
X64423000Y-49883000D01*
X64677000Y-49883000D01*
X64677000Y-49903000D01*
X66963000Y-49903000D01*
X66963000Y-49883000D01*
X67217000Y-49883000D01*
X67217000Y-49903000D01*
X69503000Y-49903000D01*
X69503000Y-49883000D01*
X69757000Y-49883000D01*
X69757000Y-49903000D01*
X72043000Y-49903000D01*
X72043000Y-49883000D01*
X72297000Y-49883000D01*
X72297000Y-49903000D01*
X72317000Y-49903000D01*
X72317000Y-50157000D01*
X72297000Y-50157000D01*
X72297000Y-50177000D01*
X72043000Y-50177000D01*
X72043000Y-50157000D01*
X69757000Y-50157000D01*
X69757000Y-50177000D01*
X69503000Y-50177000D01*
X69503000Y-50157000D01*
X67217000Y-50157000D01*
X67217000Y-50177000D01*
X66963000Y-50177000D01*
X66963000Y-50157000D01*
X64677000Y-50157000D01*
X64677000Y-50177000D01*
X64423000Y-50177000D01*
X64423000Y-50157000D01*
X62137000Y-50157000D01*
X62137000Y-50177000D01*
X61883000Y-50177000D01*
X61883000Y-50157000D01*
X59597000Y-50157000D01*
X59597000Y-50177000D01*
X59343000Y-50177000D01*
X59343000Y-50157000D01*
X58149181Y-50157000D01*
X58028514Y-50386892D01*
X58274817Y-50911358D01*
X58481855Y-51100039D01*
X58372235Y-51121843D01*
X58162191Y-51262191D01*
X58021843Y-51472235D01*
X57972560Y-51720000D01*
X57972560Y-51735000D01*
X57672237Y-51735000D01*
X57590000Y-51718642D01*
X57507763Y-51735000D01*
X57264199Y-51783448D01*
X56987999Y-51967999D01*
X56941415Y-52037717D01*
X54891000Y-54088133D01*
X54891000Y-53852691D01*
X54794327Y-53619302D01*
X54615699Y-53440673D01*
X54382310Y-53344000D01*
X54252612Y-53344000D01*
X58121497Y-49475115D01*
X58028514Y-49673108D01*
G36*
X74837000Y-49903000D02*
X74857000Y-49903000D01*
X74857000Y-50157000D01*
X74837000Y-50157000D01*
X74837000Y-50177000D01*
X74583000Y-50177000D01*
X74583000Y-50157000D01*
X74563000Y-50157000D01*
X74563000Y-49903000D01*
X74583000Y-49903000D01*
X74583000Y-49883000D01*
X74837000Y-49883000D01*
X74837000Y-49903000D01*
X74837000Y-49903000D01*
G37*
X74837000Y-49903000D02*
X74857000Y-49903000D01*
X74857000Y-50157000D01*
X74837000Y-50157000D01*
X74837000Y-50177000D01*
X74583000Y-50177000D01*
X74583000Y-50157000D01*
X74563000Y-50157000D01*
X74563000Y-49903000D01*
X74583000Y-49903000D01*
X74583000Y-49883000D01*
X74837000Y-49883000D01*
X74837000Y-49903000D01*
G04 #@! TD*
M02*
