G04 #@! TF.GenerationSoftware,KiCad,Pcbnew,5.0.2-bee76a0~70~ubuntu18.04.1*
G04 #@! TF.CreationDate,2021-06-01T15:08:51-05:00*
G04 #@! TF.ProjectId,CO2_sensorboard_slave,434f325f-7365-46e7-936f-72626f617264,rev?*
G04 #@! TF.SameCoordinates,Original*
G04 #@! TF.FileFunction,Paste,Top*
G04 #@! TF.FilePolarity,Positive*
%FSLAX46Y46*%
G04 Gerber Fmt 4.6, Leading zero omitted, Abs format (unit mm)*
G04 Created by KiCad (PCBNEW 5.0.2-bee76a0~70~ubuntu18.04.1) date Tue 01 Jun 2021 03:08:51 PM CDT*
%MOMM*%
%LPD*%
G01*
G04 APERTURE LIST*
%ADD10C,0.100000*%
%ADD11C,1.150000*%
%ADD12R,1.900000X0.800000*%
%ADD13R,0.650000X1.560000*%
%ADD14R,1.560000X0.650000*%
%ADD15R,1.550000X0.600000*%
G04 APERTURE END LIST*
D10*
G04 #@! TO.C,C1*
G36*
X55311505Y-65049204D02*
X55335773Y-65052804D01*
X55359572Y-65058765D01*
X55382671Y-65067030D01*
X55404850Y-65077520D01*
X55425893Y-65090132D01*
X55445599Y-65104747D01*
X55463777Y-65121223D01*
X55480253Y-65139401D01*
X55494868Y-65159107D01*
X55507480Y-65180150D01*
X55517970Y-65202329D01*
X55526235Y-65225428D01*
X55532196Y-65249227D01*
X55535796Y-65273495D01*
X55537000Y-65297999D01*
X55537000Y-66198001D01*
X55535796Y-66222505D01*
X55532196Y-66246773D01*
X55526235Y-66270572D01*
X55517970Y-66293671D01*
X55507480Y-66315850D01*
X55494868Y-66336893D01*
X55480253Y-66356599D01*
X55463777Y-66374777D01*
X55445599Y-66391253D01*
X55425893Y-66405868D01*
X55404850Y-66418480D01*
X55382671Y-66428970D01*
X55359572Y-66437235D01*
X55335773Y-66443196D01*
X55311505Y-66446796D01*
X55287001Y-66448000D01*
X54636999Y-66448000D01*
X54612495Y-66446796D01*
X54588227Y-66443196D01*
X54564428Y-66437235D01*
X54541329Y-66428970D01*
X54519150Y-66418480D01*
X54498107Y-66405868D01*
X54478401Y-66391253D01*
X54460223Y-66374777D01*
X54443747Y-66356599D01*
X54429132Y-66336893D01*
X54416520Y-66315850D01*
X54406030Y-66293671D01*
X54397765Y-66270572D01*
X54391804Y-66246773D01*
X54388204Y-66222505D01*
X54387000Y-66198001D01*
X54387000Y-65297999D01*
X54388204Y-65273495D01*
X54391804Y-65249227D01*
X54397765Y-65225428D01*
X54406030Y-65202329D01*
X54416520Y-65180150D01*
X54429132Y-65159107D01*
X54443747Y-65139401D01*
X54460223Y-65121223D01*
X54478401Y-65104747D01*
X54498107Y-65090132D01*
X54519150Y-65077520D01*
X54541329Y-65067030D01*
X54564428Y-65058765D01*
X54588227Y-65052804D01*
X54612495Y-65049204D01*
X54636999Y-65048000D01*
X55287001Y-65048000D01*
X55311505Y-65049204D01*
X55311505Y-65049204D01*
G37*
D11*
X54962000Y-65748000D03*
D10*
G36*
X53261505Y-65049204D02*
X53285773Y-65052804D01*
X53309572Y-65058765D01*
X53332671Y-65067030D01*
X53354850Y-65077520D01*
X53375893Y-65090132D01*
X53395599Y-65104747D01*
X53413777Y-65121223D01*
X53430253Y-65139401D01*
X53444868Y-65159107D01*
X53457480Y-65180150D01*
X53467970Y-65202329D01*
X53476235Y-65225428D01*
X53482196Y-65249227D01*
X53485796Y-65273495D01*
X53487000Y-65297999D01*
X53487000Y-66198001D01*
X53485796Y-66222505D01*
X53482196Y-66246773D01*
X53476235Y-66270572D01*
X53467970Y-66293671D01*
X53457480Y-66315850D01*
X53444868Y-66336893D01*
X53430253Y-66356599D01*
X53413777Y-66374777D01*
X53395599Y-66391253D01*
X53375893Y-66405868D01*
X53354850Y-66418480D01*
X53332671Y-66428970D01*
X53309572Y-66437235D01*
X53285773Y-66443196D01*
X53261505Y-66446796D01*
X53237001Y-66448000D01*
X52586999Y-66448000D01*
X52562495Y-66446796D01*
X52538227Y-66443196D01*
X52514428Y-66437235D01*
X52491329Y-66428970D01*
X52469150Y-66418480D01*
X52448107Y-66405868D01*
X52428401Y-66391253D01*
X52410223Y-66374777D01*
X52393747Y-66356599D01*
X52379132Y-66336893D01*
X52366520Y-66315850D01*
X52356030Y-66293671D01*
X52347765Y-66270572D01*
X52341804Y-66246773D01*
X52338204Y-66222505D01*
X52337000Y-66198001D01*
X52337000Y-65297999D01*
X52338204Y-65273495D01*
X52341804Y-65249227D01*
X52347765Y-65225428D01*
X52356030Y-65202329D01*
X52366520Y-65180150D01*
X52379132Y-65159107D01*
X52393747Y-65139401D01*
X52410223Y-65121223D01*
X52428401Y-65104747D01*
X52448107Y-65090132D01*
X52469150Y-65077520D01*
X52491329Y-65067030D01*
X52514428Y-65058765D01*
X52538227Y-65052804D01*
X52562495Y-65049204D01*
X52586999Y-65048000D01*
X53237001Y-65048000D01*
X53261505Y-65049204D01*
X53261505Y-65049204D01*
G37*
D11*
X52912000Y-65748000D03*
G04 #@! TD*
D10*
G04 #@! TO.C,C2*
G36*
X78287505Y-62897204D02*
X78311773Y-62900804D01*
X78335572Y-62906765D01*
X78358671Y-62915030D01*
X78380850Y-62925520D01*
X78401893Y-62938132D01*
X78421599Y-62952747D01*
X78439777Y-62969223D01*
X78456253Y-62987401D01*
X78470868Y-63007107D01*
X78483480Y-63028150D01*
X78493970Y-63050329D01*
X78502235Y-63073428D01*
X78508196Y-63097227D01*
X78511796Y-63121495D01*
X78513000Y-63145999D01*
X78513000Y-63796001D01*
X78511796Y-63820505D01*
X78508196Y-63844773D01*
X78502235Y-63868572D01*
X78493970Y-63891671D01*
X78483480Y-63913850D01*
X78470868Y-63934893D01*
X78456253Y-63954599D01*
X78439777Y-63972777D01*
X78421599Y-63989253D01*
X78401893Y-64003868D01*
X78380850Y-64016480D01*
X78358671Y-64026970D01*
X78335572Y-64035235D01*
X78311773Y-64041196D01*
X78287505Y-64044796D01*
X78263001Y-64046000D01*
X77362999Y-64046000D01*
X77338495Y-64044796D01*
X77314227Y-64041196D01*
X77290428Y-64035235D01*
X77267329Y-64026970D01*
X77245150Y-64016480D01*
X77224107Y-64003868D01*
X77204401Y-63989253D01*
X77186223Y-63972777D01*
X77169747Y-63954599D01*
X77155132Y-63934893D01*
X77142520Y-63913850D01*
X77132030Y-63891671D01*
X77123765Y-63868572D01*
X77117804Y-63844773D01*
X77114204Y-63820505D01*
X77113000Y-63796001D01*
X77113000Y-63145999D01*
X77114204Y-63121495D01*
X77117804Y-63097227D01*
X77123765Y-63073428D01*
X77132030Y-63050329D01*
X77142520Y-63028150D01*
X77155132Y-63007107D01*
X77169747Y-62987401D01*
X77186223Y-62969223D01*
X77204401Y-62952747D01*
X77224107Y-62938132D01*
X77245150Y-62925520D01*
X77267329Y-62915030D01*
X77290428Y-62906765D01*
X77314227Y-62900804D01*
X77338495Y-62897204D01*
X77362999Y-62896000D01*
X78263001Y-62896000D01*
X78287505Y-62897204D01*
X78287505Y-62897204D01*
G37*
D11*
X77813000Y-63471000D03*
D10*
G36*
X78287505Y-60847204D02*
X78311773Y-60850804D01*
X78335572Y-60856765D01*
X78358671Y-60865030D01*
X78380850Y-60875520D01*
X78401893Y-60888132D01*
X78421599Y-60902747D01*
X78439777Y-60919223D01*
X78456253Y-60937401D01*
X78470868Y-60957107D01*
X78483480Y-60978150D01*
X78493970Y-61000329D01*
X78502235Y-61023428D01*
X78508196Y-61047227D01*
X78511796Y-61071495D01*
X78513000Y-61095999D01*
X78513000Y-61746001D01*
X78511796Y-61770505D01*
X78508196Y-61794773D01*
X78502235Y-61818572D01*
X78493970Y-61841671D01*
X78483480Y-61863850D01*
X78470868Y-61884893D01*
X78456253Y-61904599D01*
X78439777Y-61922777D01*
X78421599Y-61939253D01*
X78401893Y-61953868D01*
X78380850Y-61966480D01*
X78358671Y-61976970D01*
X78335572Y-61985235D01*
X78311773Y-61991196D01*
X78287505Y-61994796D01*
X78263001Y-61996000D01*
X77362999Y-61996000D01*
X77338495Y-61994796D01*
X77314227Y-61991196D01*
X77290428Y-61985235D01*
X77267329Y-61976970D01*
X77245150Y-61966480D01*
X77224107Y-61953868D01*
X77204401Y-61939253D01*
X77186223Y-61922777D01*
X77169747Y-61904599D01*
X77155132Y-61884893D01*
X77142520Y-61863850D01*
X77132030Y-61841671D01*
X77123765Y-61818572D01*
X77117804Y-61794773D01*
X77114204Y-61770505D01*
X77113000Y-61746001D01*
X77113000Y-61095999D01*
X77114204Y-61071495D01*
X77117804Y-61047227D01*
X77123765Y-61023428D01*
X77132030Y-61000329D01*
X77142520Y-60978150D01*
X77155132Y-60957107D01*
X77169747Y-60937401D01*
X77186223Y-60919223D01*
X77204401Y-60902747D01*
X77224107Y-60888132D01*
X77245150Y-60875520D01*
X77267329Y-60865030D01*
X77290428Y-60856765D01*
X77314227Y-60850804D01*
X77338495Y-60847204D01*
X77362999Y-60846000D01*
X78263001Y-60846000D01*
X78287505Y-60847204D01*
X78287505Y-60847204D01*
G37*
D11*
X77813000Y-61421000D03*
G04 #@! TD*
D10*
G04 #@! TO.C,C3*
G36*
X54030505Y-53980204D02*
X54054773Y-53983804D01*
X54078572Y-53989765D01*
X54101671Y-53998030D01*
X54123850Y-54008520D01*
X54144893Y-54021132D01*
X54164599Y-54035747D01*
X54182777Y-54052223D01*
X54199253Y-54070401D01*
X54213868Y-54090107D01*
X54226480Y-54111150D01*
X54236970Y-54133329D01*
X54245235Y-54156428D01*
X54251196Y-54180227D01*
X54254796Y-54204495D01*
X54256000Y-54228999D01*
X54256000Y-54879001D01*
X54254796Y-54903505D01*
X54251196Y-54927773D01*
X54245235Y-54951572D01*
X54236970Y-54974671D01*
X54226480Y-54996850D01*
X54213868Y-55017893D01*
X54199253Y-55037599D01*
X54182777Y-55055777D01*
X54164599Y-55072253D01*
X54144893Y-55086868D01*
X54123850Y-55099480D01*
X54101671Y-55109970D01*
X54078572Y-55118235D01*
X54054773Y-55124196D01*
X54030505Y-55127796D01*
X54006001Y-55129000D01*
X53105999Y-55129000D01*
X53081495Y-55127796D01*
X53057227Y-55124196D01*
X53033428Y-55118235D01*
X53010329Y-55109970D01*
X52988150Y-55099480D01*
X52967107Y-55086868D01*
X52947401Y-55072253D01*
X52929223Y-55055777D01*
X52912747Y-55037599D01*
X52898132Y-55017893D01*
X52885520Y-54996850D01*
X52875030Y-54974671D01*
X52866765Y-54951572D01*
X52860804Y-54927773D01*
X52857204Y-54903505D01*
X52856000Y-54879001D01*
X52856000Y-54228999D01*
X52857204Y-54204495D01*
X52860804Y-54180227D01*
X52866765Y-54156428D01*
X52875030Y-54133329D01*
X52885520Y-54111150D01*
X52898132Y-54090107D01*
X52912747Y-54070401D01*
X52929223Y-54052223D01*
X52947401Y-54035747D01*
X52967107Y-54021132D01*
X52988150Y-54008520D01*
X53010329Y-53998030D01*
X53033428Y-53989765D01*
X53057227Y-53983804D01*
X53081495Y-53980204D01*
X53105999Y-53979000D01*
X54006001Y-53979000D01*
X54030505Y-53980204D01*
X54030505Y-53980204D01*
G37*
D11*
X53556000Y-54554000D03*
D10*
G36*
X54030505Y-56030204D02*
X54054773Y-56033804D01*
X54078572Y-56039765D01*
X54101671Y-56048030D01*
X54123850Y-56058520D01*
X54144893Y-56071132D01*
X54164599Y-56085747D01*
X54182777Y-56102223D01*
X54199253Y-56120401D01*
X54213868Y-56140107D01*
X54226480Y-56161150D01*
X54236970Y-56183329D01*
X54245235Y-56206428D01*
X54251196Y-56230227D01*
X54254796Y-56254495D01*
X54256000Y-56278999D01*
X54256000Y-56929001D01*
X54254796Y-56953505D01*
X54251196Y-56977773D01*
X54245235Y-57001572D01*
X54236970Y-57024671D01*
X54226480Y-57046850D01*
X54213868Y-57067893D01*
X54199253Y-57087599D01*
X54182777Y-57105777D01*
X54164599Y-57122253D01*
X54144893Y-57136868D01*
X54123850Y-57149480D01*
X54101671Y-57159970D01*
X54078572Y-57168235D01*
X54054773Y-57174196D01*
X54030505Y-57177796D01*
X54006001Y-57179000D01*
X53105999Y-57179000D01*
X53081495Y-57177796D01*
X53057227Y-57174196D01*
X53033428Y-57168235D01*
X53010329Y-57159970D01*
X52988150Y-57149480D01*
X52967107Y-57136868D01*
X52947401Y-57122253D01*
X52929223Y-57105777D01*
X52912747Y-57087599D01*
X52898132Y-57067893D01*
X52885520Y-57046850D01*
X52875030Y-57024671D01*
X52866765Y-57001572D01*
X52860804Y-56977773D01*
X52857204Y-56953505D01*
X52856000Y-56929001D01*
X52856000Y-56278999D01*
X52857204Y-56254495D01*
X52860804Y-56230227D01*
X52866765Y-56206428D01*
X52875030Y-56183329D01*
X52885520Y-56161150D01*
X52898132Y-56140107D01*
X52912747Y-56120401D01*
X52929223Y-56102223D01*
X52947401Y-56085747D01*
X52967107Y-56071132D01*
X52988150Y-56058520D01*
X53010329Y-56048030D01*
X53033428Y-56039765D01*
X53057227Y-56033804D01*
X53081495Y-56030204D01*
X53105999Y-56029000D01*
X54006001Y-56029000D01*
X54030505Y-56030204D01*
X54030505Y-56030204D01*
G37*
D11*
X53556000Y-56604000D03*
G04 #@! TD*
D10*
G04 #@! TO.C,C4*
G36*
X73853505Y-60731204D02*
X73877773Y-60734804D01*
X73901572Y-60740765D01*
X73924671Y-60749030D01*
X73946850Y-60759520D01*
X73967893Y-60772132D01*
X73987599Y-60786747D01*
X74005777Y-60803223D01*
X74022253Y-60821401D01*
X74036868Y-60841107D01*
X74049480Y-60862150D01*
X74059970Y-60884329D01*
X74068235Y-60907428D01*
X74074196Y-60931227D01*
X74077796Y-60955495D01*
X74079000Y-60979999D01*
X74079000Y-61880001D01*
X74077796Y-61904505D01*
X74074196Y-61928773D01*
X74068235Y-61952572D01*
X74059970Y-61975671D01*
X74049480Y-61997850D01*
X74036868Y-62018893D01*
X74022253Y-62038599D01*
X74005777Y-62056777D01*
X73987599Y-62073253D01*
X73967893Y-62087868D01*
X73946850Y-62100480D01*
X73924671Y-62110970D01*
X73901572Y-62119235D01*
X73877773Y-62125196D01*
X73853505Y-62128796D01*
X73829001Y-62130000D01*
X73178999Y-62130000D01*
X73154495Y-62128796D01*
X73130227Y-62125196D01*
X73106428Y-62119235D01*
X73083329Y-62110970D01*
X73061150Y-62100480D01*
X73040107Y-62087868D01*
X73020401Y-62073253D01*
X73002223Y-62056777D01*
X72985747Y-62038599D01*
X72971132Y-62018893D01*
X72958520Y-61997850D01*
X72948030Y-61975671D01*
X72939765Y-61952572D01*
X72933804Y-61928773D01*
X72930204Y-61904505D01*
X72929000Y-61880001D01*
X72929000Y-60979999D01*
X72930204Y-60955495D01*
X72933804Y-60931227D01*
X72939765Y-60907428D01*
X72948030Y-60884329D01*
X72958520Y-60862150D01*
X72971132Y-60841107D01*
X72985747Y-60821401D01*
X73002223Y-60803223D01*
X73020401Y-60786747D01*
X73040107Y-60772132D01*
X73061150Y-60759520D01*
X73083329Y-60749030D01*
X73106428Y-60740765D01*
X73130227Y-60734804D01*
X73154495Y-60731204D01*
X73178999Y-60730000D01*
X73829001Y-60730000D01*
X73853505Y-60731204D01*
X73853505Y-60731204D01*
G37*
D11*
X73504000Y-61430000D03*
D10*
G36*
X71803505Y-60731204D02*
X71827773Y-60734804D01*
X71851572Y-60740765D01*
X71874671Y-60749030D01*
X71896850Y-60759520D01*
X71917893Y-60772132D01*
X71937599Y-60786747D01*
X71955777Y-60803223D01*
X71972253Y-60821401D01*
X71986868Y-60841107D01*
X71999480Y-60862150D01*
X72009970Y-60884329D01*
X72018235Y-60907428D01*
X72024196Y-60931227D01*
X72027796Y-60955495D01*
X72029000Y-60979999D01*
X72029000Y-61880001D01*
X72027796Y-61904505D01*
X72024196Y-61928773D01*
X72018235Y-61952572D01*
X72009970Y-61975671D01*
X71999480Y-61997850D01*
X71986868Y-62018893D01*
X71972253Y-62038599D01*
X71955777Y-62056777D01*
X71937599Y-62073253D01*
X71917893Y-62087868D01*
X71896850Y-62100480D01*
X71874671Y-62110970D01*
X71851572Y-62119235D01*
X71827773Y-62125196D01*
X71803505Y-62128796D01*
X71779001Y-62130000D01*
X71128999Y-62130000D01*
X71104495Y-62128796D01*
X71080227Y-62125196D01*
X71056428Y-62119235D01*
X71033329Y-62110970D01*
X71011150Y-62100480D01*
X70990107Y-62087868D01*
X70970401Y-62073253D01*
X70952223Y-62056777D01*
X70935747Y-62038599D01*
X70921132Y-62018893D01*
X70908520Y-61997850D01*
X70898030Y-61975671D01*
X70889765Y-61952572D01*
X70883804Y-61928773D01*
X70880204Y-61904505D01*
X70879000Y-61880001D01*
X70879000Y-60979999D01*
X70880204Y-60955495D01*
X70883804Y-60931227D01*
X70889765Y-60907428D01*
X70898030Y-60884329D01*
X70908520Y-60862150D01*
X70921132Y-60841107D01*
X70935747Y-60821401D01*
X70952223Y-60803223D01*
X70970401Y-60786747D01*
X70990107Y-60772132D01*
X71011150Y-60759520D01*
X71033329Y-60749030D01*
X71056428Y-60740765D01*
X71080227Y-60734804D01*
X71104495Y-60731204D01*
X71128999Y-60730000D01*
X71779001Y-60730000D01*
X71803505Y-60731204D01*
X71803505Y-60731204D01*
G37*
D11*
X71454000Y-61430000D03*
G04 #@! TD*
D10*
G04 #@! TO.C,C5*
G36*
X91100105Y-58775404D02*
X91124373Y-58779004D01*
X91148172Y-58784965D01*
X91171271Y-58793230D01*
X91193450Y-58803720D01*
X91214493Y-58816332D01*
X91234199Y-58830947D01*
X91252377Y-58847423D01*
X91268853Y-58865601D01*
X91283468Y-58885307D01*
X91296080Y-58906350D01*
X91306570Y-58928529D01*
X91314835Y-58951628D01*
X91320796Y-58975427D01*
X91324396Y-58999695D01*
X91325600Y-59024199D01*
X91325600Y-59924201D01*
X91324396Y-59948705D01*
X91320796Y-59972973D01*
X91314835Y-59996772D01*
X91306570Y-60019871D01*
X91296080Y-60042050D01*
X91283468Y-60063093D01*
X91268853Y-60082799D01*
X91252377Y-60100977D01*
X91234199Y-60117453D01*
X91214493Y-60132068D01*
X91193450Y-60144680D01*
X91171271Y-60155170D01*
X91148172Y-60163435D01*
X91124373Y-60169396D01*
X91100105Y-60172996D01*
X91075601Y-60174200D01*
X90425599Y-60174200D01*
X90401095Y-60172996D01*
X90376827Y-60169396D01*
X90353028Y-60163435D01*
X90329929Y-60155170D01*
X90307750Y-60144680D01*
X90286707Y-60132068D01*
X90267001Y-60117453D01*
X90248823Y-60100977D01*
X90232347Y-60082799D01*
X90217732Y-60063093D01*
X90205120Y-60042050D01*
X90194630Y-60019871D01*
X90186365Y-59996772D01*
X90180404Y-59972973D01*
X90176804Y-59948705D01*
X90175600Y-59924201D01*
X90175600Y-59024199D01*
X90176804Y-58999695D01*
X90180404Y-58975427D01*
X90186365Y-58951628D01*
X90194630Y-58928529D01*
X90205120Y-58906350D01*
X90217732Y-58885307D01*
X90232347Y-58865601D01*
X90248823Y-58847423D01*
X90267001Y-58830947D01*
X90286707Y-58816332D01*
X90307750Y-58803720D01*
X90329929Y-58793230D01*
X90353028Y-58784965D01*
X90376827Y-58779004D01*
X90401095Y-58775404D01*
X90425599Y-58774200D01*
X91075601Y-58774200D01*
X91100105Y-58775404D01*
X91100105Y-58775404D01*
G37*
D11*
X90750600Y-59474200D03*
D10*
G36*
X89050105Y-58775404D02*
X89074373Y-58779004D01*
X89098172Y-58784965D01*
X89121271Y-58793230D01*
X89143450Y-58803720D01*
X89164493Y-58816332D01*
X89184199Y-58830947D01*
X89202377Y-58847423D01*
X89218853Y-58865601D01*
X89233468Y-58885307D01*
X89246080Y-58906350D01*
X89256570Y-58928529D01*
X89264835Y-58951628D01*
X89270796Y-58975427D01*
X89274396Y-58999695D01*
X89275600Y-59024199D01*
X89275600Y-59924201D01*
X89274396Y-59948705D01*
X89270796Y-59972973D01*
X89264835Y-59996772D01*
X89256570Y-60019871D01*
X89246080Y-60042050D01*
X89233468Y-60063093D01*
X89218853Y-60082799D01*
X89202377Y-60100977D01*
X89184199Y-60117453D01*
X89164493Y-60132068D01*
X89143450Y-60144680D01*
X89121271Y-60155170D01*
X89098172Y-60163435D01*
X89074373Y-60169396D01*
X89050105Y-60172996D01*
X89025601Y-60174200D01*
X88375599Y-60174200D01*
X88351095Y-60172996D01*
X88326827Y-60169396D01*
X88303028Y-60163435D01*
X88279929Y-60155170D01*
X88257750Y-60144680D01*
X88236707Y-60132068D01*
X88217001Y-60117453D01*
X88198823Y-60100977D01*
X88182347Y-60082799D01*
X88167732Y-60063093D01*
X88155120Y-60042050D01*
X88144630Y-60019871D01*
X88136365Y-59996772D01*
X88130404Y-59972973D01*
X88126804Y-59948705D01*
X88125600Y-59924201D01*
X88125600Y-59024199D01*
X88126804Y-58999695D01*
X88130404Y-58975427D01*
X88136365Y-58951628D01*
X88144630Y-58928529D01*
X88155120Y-58906350D01*
X88167732Y-58885307D01*
X88182347Y-58865601D01*
X88198823Y-58847423D01*
X88217001Y-58830947D01*
X88236707Y-58816332D01*
X88257750Y-58803720D01*
X88279929Y-58793230D01*
X88303028Y-58784965D01*
X88326827Y-58779004D01*
X88351095Y-58775404D01*
X88375599Y-58774200D01*
X89025601Y-58774200D01*
X89050105Y-58775404D01*
X89050105Y-58775404D01*
G37*
D11*
X88700600Y-59474200D03*
G04 #@! TD*
D12*
G04 #@! TO.C,D1*
X104078000Y-55395000D03*
X104078000Y-53495000D03*
X101078000Y-54445000D03*
G04 #@! TD*
D10*
G04 #@! TO.C,R1*
G36*
X51109505Y-61119204D02*
X51133773Y-61122804D01*
X51157572Y-61128765D01*
X51180671Y-61137030D01*
X51202850Y-61147520D01*
X51223893Y-61160132D01*
X51243599Y-61174747D01*
X51261777Y-61191223D01*
X51278253Y-61209401D01*
X51292868Y-61229107D01*
X51305480Y-61250150D01*
X51315970Y-61272329D01*
X51324235Y-61295428D01*
X51330196Y-61319227D01*
X51333796Y-61343495D01*
X51335000Y-61367999D01*
X51335000Y-62018001D01*
X51333796Y-62042505D01*
X51330196Y-62066773D01*
X51324235Y-62090572D01*
X51315970Y-62113671D01*
X51305480Y-62135850D01*
X51292868Y-62156893D01*
X51278253Y-62176599D01*
X51261777Y-62194777D01*
X51243599Y-62211253D01*
X51223893Y-62225868D01*
X51202850Y-62238480D01*
X51180671Y-62248970D01*
X51157572Y-62257235D01*
X51133773Y-62263196D01*
X51109505Y-62266796D01*
X51085001Y-62268000D01*
X50184999Y-62268000D01*
X50160495Y-62266796D01*
X50136227Y-62263196D01*
X50112428Y-62257235D01*
X50089329Y-62248970D01*
X50067150Y-62238480D01*
X50046107Y-62225868D01*
X50026401Y-62211253D01*
X50008223Y-62194777D01*
X49991747Y-62176599D01*
X49977132Y-62156893D01*
X49964520Y-62135850D01*
X49954030Y-62113671D01*
X49945765Y-62090572D01*
X49939804Y-62066773D01*
X49936204Y-62042505D01*
X49935000Y-62018001D01*
X49935000Y-61367999D01*
X49936204Y-61343495D01*
X49939804Y-61319227D01*
X49945765Y-61295428D01*
X49954030Y-61272329D01*
X49964520Y-61250150D01*
X49977132Y-61229107D01*
X49991747Y-61209401D01*
X50008223Y-61191223D01*
X50026401Y-61174747D01*
X50046107Y-61160132D01*
X50067150Y-61147520D01*
X50089329Y-61137030D01*
X50112428Y-61128765D01*
X50136227Y-61122804D01*
X50160495Y-61119204D01*
X50184999Y-61118000D01*
X51085001Y-61118000D01*
X51109505Y-61119204D01*
X51109505Y-61119204D01*
G37*
D11*
X50635000Y-61693000D03*
D10*
G36*
X51109505Y-59069204D02*
X51133773Y-59072804D01*
X51157572Y-59078765D01*
X51180671Y-59087030D01*
X51202850Y-59097520D01*
X51223893Y-59110132D01*
X51243599Y-59124747D01*
X51261777Y-59141223D01*
X51278253Y-59159401D01*
X51292868Y-59179107D01*
X51305480Y-59200150D01*
X51315970Y-59222329D01*
X51324235Y-59245428D01*
X51330196Y-59269227D01*
X51333796Y-59293495D01*
X51335000Y-59317999D01*
X51335000Y-59968001D01*
X51333796Y-59992505D01*
X51330196Y-60016773D01*
X51324235Y-60040572D01*
X51315970Y-60063671D01*
X51305480Y-60085850D01*
X51292868Y-60106893D01*
X51278253Y-60126599D01*
X51261777Y-60144777D01*
X51243599Y-60161253D01*
X51223893Y-60175868D01*
X51202850Y-60188480D01*
X51180671Y-60198970D01*
X51157572Y-60207235D01*
X51133773Y-60213196D01*
X51109505Y-60216796D01*
X51085001Y-60218000D01*
X50184999Y-60218000D01*
X50160495Y-60216796D01*
X50136227Y-60213196D01*
X50112428Y-60207235D01*
X50089329Y-60198970D01*
X50067150Y-60188480D01*
X50046107Y-60175868D01*
X50026401Y-60161253D01*
X50008223Y-60144777D01*
X49991747Y-60126599D01*
X49977132Y-60106893D01*
X49964520Y-60085850D01*
X49954030Y-60063671D01*
X49945765Y-60040572D01*
X49939804Y-60016773D01*
X49936204Y-59992505D01*
X49935000Y-59968001D01*
X49935000Y-59317999D01*
X49936204Y-59293495D01*
X49939804Y-59269227D01*
X49945765Y-59245428D01*
X49954030Y-59222329D01*
X49964520Y-59200150D01*
X49977132Y-59179107D01*
X49991747Y-59159401D01*
X50008223Y-59141223D01*
X50026401Y-59124747D01*
X50046107Y-59110132D01*
X50067150Y-59097520D01*
X50089329Y-59087030D01*
X50112428Y-59078765D01*
X50136227Y-59072804D01*
X50160495Y-59069204D01*
X50184999Y-59068000D01*
X51085001Y-59068000D01*
X51109505Y-59069204D01*
X51109505Y-59069204D01*
G37*
D11*
X50635000Y-59643000D03*
G04 #@! TD*
D10*
G04 #@! TO.C,R2*
G36*
X78287505Y-65165204D02*
X78311773Y-65168804D01*
X78335572Y-65174765D01*
X78358671Y-65183030D01*
X78380850Y-65193520D01*
X78401893Y-65206132D01*
X78421599Y-65220747D01*
X78439777Y-65237223D01*
X78456253Y-65255401D01*
X78470868Y-65275107D01*
X78483480Y-65296150D01*
X78493970Y-65318329D01*
X78502235Y-65341428D01*
X78508196Y-65365227D01*
X78511796Y-65389495D01*
X78513000Y-65413999D01*
X78513000Y-66064001D01*
X78511796Y-66088505D01*
X78508196Y-66112773D01*
X78502235Y-66136572D01*
X78493970Y-66159671D01*
X78483480Y-66181850D01*
X78470868Y-66202893D01*
X78456253Y-66222599D01*
X78439777Y-66240777D01*
X78421599Y-66257253D01*
X78401893Y-66271868D01*
X78380850Y-66284480D01*
X78358671Y-66294970D01*
X78335572Y-66303235D01*
X78311773Y-66309196D01*
X78287505Y-66312796D01*
X78263001Y-66314000D01*
X77362999Y-66314000D01*
X77338495Y-66312796D01*
X77314227Y-66309196D01*
X77290428Y-66303235D01*
X77267329Y-66294970D01*
X77245150Y-66284480D01*
X77224107Y-66271868D01*
X77204401Y-66257253D01*
X77186223Y-66240777D01*
X77169747Y-66222599D01*
X77155132Y-66202893D01*
X77142520Y-66181850D01*
X77132030Y-66159671D01*
X77123765Y-66136572D01*
X77117804Y-66112773D01*
X77114204Y-66088505D01*
X77113000Y-66064001D01*
X77113000Y-65413999D01*
X77114204Y-65389495D01*
X77117804Y-65365227D01*
X77123765Y-65341428D01*
X77132030Y-65318329D01*
X77142520Y-65296150D01*
X77155132Y-65275107D01*
X77169747Y-65255401D01*
X77186223Y-65237223D01*
X77204401Y-65220747D01*
X77224107Y-65206132D01*
X77245150Y-65193520D01*
X77267329Y-65183030D01*
X77290428Y-65174765D01*
X77314227Y-65168804D01*
X77338495Y-65165204D01*
X77362999Y-65164000D01*
X78263001Y-65164000D01*
X78287505Y-65165204D01*
X78287505Y-65165204D01*
G37*
D11*
X77813000Y-65739000D03*
D10*
G36*
X78287505Y-67215204D02*
X78311773Y-67218804D01*
X78335572Y-67224765D01*
X78358671Y-67233030D01*
X78380850Y-67243520D01*
X78401893Y-67256132D01*
X78421599Y-67270747D01*
X78439777Y-67287223D01*
X78456253Y-67305401D01*
X78470868Y-67325107D01*
X78483480Y-67346150D01*
X78493970Y-67368329D01*
X78502235Y-67391428D01*
X78508196Y-67415227D01*
X78511796Y-67439495D01*
X78513000Y-67463999D01*
X78513000Y-68114001D01*
X78511796Y-68138505D01*
X78508196Y-68162773D01*
X78502235Y-68186572D01*
X78493970Y-68209671D01*
X78483480Y-68231850D01*
X78470868Y-68252893D01*
X78456253Y-68272599D01*
X78439777Y-68290777D01*
X78421599Y-68307253D01*
X78401893Y-68321868D01*
X78380850Y-68334480D01*
X78358671Y-68344970D01*
X78335572Y-68353235D01*
X78311773Y-68359196D01*
X78287505Y-68362796D01*
X78263001Y-68364000D01*
X77362999Y-68364000D01*
X77338495Y-68362796D01*
X77314227Y-68359196D01*
X77290428Y-68353235D01*
X77267329Y-68344970D01*
X77245150Y-68334480D01*
X77224107Y-68321868D01*
X77204401Y-68307253D01*
X77186223Y-68290777D01*
X77169747Y-68272599D01*
X77155132Y-68252893D01*
X77142520Y-68231850D01*
X77132030Y-68209671D01*
X77123765Y-68186572D01*
X77117804Y-68162773D01*
X77114204Y-68138505D01*
X77113000Y-68114001D01*
X77113000Y-67463999D01*
X77114204Y-67439495D01*
X77117804Y-67415227D01*
X77123765Y-67391428D01*
X77132030Y-67368329D01*
X77142520Y-67346150D01*
X77155132Y-67325107D01*
X77169747Y-67305401D01*
X77186223Y-67287223D01*
X77204401Y-67270747D01*
X77224107Y-67256132D01*
X77245150Y-67243520D01*
X77267329Y-67233030D01*
X77290428Y-67224765D01*
X77314227Y-67218804D01*
X77338495Y-67215204D01*
X77362999Y-67214000D01*
X78263001Y-67214000D01*
X78287505Y-67215204D01*
X78287505Y-67215204D01*
G37*
D11*
X77813000Y-67789000D03*
G04 #@! TD*
D10*
G04 #@! TO.C,R3*
G36*
X82478505Y-60738204D02*
X82502773Y-60741804D01*
X82526572Y-60747765D01*
X82549671Y-60756030D01*
X82571850Y-60766520D01*
X82592893Y-60779132D01*
X82612599Y-60793747D01*
X82630777Y-60810223D01*
X82647253Y-60828401D01*
X82661868Y-60848107D01*
X82674480Y-60869150D01*
X82684970Y-60891329D01*
X82693235Y-60914428D01*
X82699196Y-60938227D01*
X82702796Y-60962495D01*
X82704000Y-60986999D01*
X82704000Y-61637001D01*
X82702796Y-61661505D01*
X82699196Y-61685773D01*
X82693235Y-61709572D01*
X82684970Y-61732671D01*
X82674480Y-61754850D01*
X82661868Y-61775893D01*
X82647253Y-61795599D01*
X82630777Y-61813777D01*
X82612599Y-61830253D01*
X82592893Y-61844868D01*
X82571850Y-61857480D01*
X82549671Y-61867970D01*
X82526572Y-61876235D01*
X82502773Y-61882196D01*
X82478505Y-61885796D01*
X82454001Y-61887000D01*
X81553999Y-61887000D01*
X81529495Y-61885796D01*
X81505227Y-61882196D01*
X81481428Y-61876235D01*
X81458329Y-61867970D01*
X81436150Y-61857480D01*
X81415107Y-61844868D01*
X81395401Y-61830253D01*
X81377223Y-61813777D01*
X81360747Y-61795599D01*
X81346132Y-61775893D01*
X81333520Y-61754850D01*
X81323030Y-61732671D01*
X81314765Y-61709572D01*
X81308804Y-61685773D01*
X81305204Y-61661505D01*
X81304000Y-61637001D01*
X81304000Y-60986999D01*
X81305204Y-60962495D01*
X81308804Y-60938227D01*
X81314765Y-60914428D01*
X81323030Y-60891329D01*
X81333520Y-60869150D01*
X81346132Y-60848107D01*
X81360747Y-60828401D01*
X81377223Y-60810223D01*
X81395401Y-60793747D01*
X81415107Y-60779132D01*
X81436150Y-60766520D01*
X81458329Y-60756030D01*
X81481428Y-60747765D01*
X81505227Y-60741804D01*
X81529495Y-60738204D01*
X81553999Y-60737000D01*
X82454001Y-60737000D01*
X82478505Y-60738204D01*
X82478505Y-60738204D01*
G37*
D11*
X82004000Y-61312000D03*
D10*
G36*
X82478505Y-58688204D02*
X82502773Y-58691804D01*
X82526572Y-58697765D01*
X82549671Y-58706030D01*
X82571850Y-58716520D01*
X82592893Y-58729132D01*
X82612599Y-58743747D01*
X82630777Y-58760223D01*
X82647253Y-58778401D01*
X82661868Y-58798107D01*
X82674480Y-58819150D01*
X82684970Y-58841329D01*
X82693235Y-58864428D01*
X82699196Y-58888227D01*
X82702796Y-58912495D01*
X82704000Y-58936999D01*
X82704000Y-59587001D01*
X82702796Y-59611505D01*
X82699196Y-59635773D01*
X82693235Y-59659572D01*
X82684970Y-59682671D01*
X82674480Y-59704850D01*
X82661868Y-59725893D01*
X82647253Y-59745599D01*
X82630777Y-59763777D01*
X82612599Y-59780253D01*
X82592893Y-59794868D01*
X82571850Y-59807480D01*
X82549671Y-59817970D01*
X82526572Y-59826235D01*
X82502773Y-59832196D01*
X82478505Y-59835796D01*
X82454001Y-59837000D01*
X81553999Y-59837000D01*
X81529495Y-59835796D01*
X81505227Y-59832196D01*
X81481428Y-59826235D01*
X81458329Y-59817970D01*
X81436150Y-59807480D01*
X81415107Y-59794868D01*
X81395401Y-59780253D01*
X81377223Y-59763777D01*
X81360747Y-59745599D01*
X81346132Y-59725893D01*
X81333520Y-59704850D01*
X81323030Y-59682671D01*
X81314765Y-59659572D01*
X81308804Y-59635773D01*
X81305204Y-59611505D01*
X81304000Y-59587001D01*
X81304000Y-58936999D01*
X81305204Y-58912495D01*
X81308804Y-58888227D01*
X81314765Y-58864428D01*
X81323030Y-58841329D01*
X81333520Y-58819150D01*
X81346132Y-58798107D01*
X81360747Y-58778401D01*
X81377223Y-58760223D01*
X81395401Y-58743747D01*
X81415107Y-58729132D01*
X81436150Y-58716520D01*
X81458329Y-58706030D01*
X81481428Y-58697765D01*
X81505227Y-58691804D01*
X81529495Y-58688204D01*
X81553999Y-58687000D01*
X82454001Y-58687000D01*
X82478505Y-58688204D01*
X82478505Y-58688204D01*
G37*
D11*
X82004000Y-59262000D03*
G04 #@! TD*
D10*
G04 #@! TO.C,R4*
G36*
X82478505Y-67215204D02*
X82502773Y-67218804D01*
X82526572Y-67224765D01*
X82549671Y-67233030D01*
X82571850Y-67243520D01*
X82592893Y-67256132D01*
X82612599Y-67270747D01*
X82630777Y-67287223D01*
X82647253Y-67305401D01*
X82661868Y-67325107D01*
X82674480Y-67346150D01*
X82684970Y-67368329D01*
X82693235Y-67391428D01*
X82699196Y-67415227D01*
X82702796Y-67439495D01*
X82704000Y-67463999D01*
X82704000Y-68114001D01*
X82702796Y-68138505D01*
X82699196Y-68162773D01*
X82693235Y-68186572D01*
X82684970Y-68209671D01*
X82674480Y-68231850D01*
X82661868Y-68252893D01*
X82647253Y-68272599D01*
X82630777Y-68290777D01*
X82612599Y-68307253D01*
X82592893Y-68321868D01*
X82571850Y-68334480D01*
X82549671Y-68344970D01*
X82526572Y-68353235D01*
X82502773Y-68359196D01*
X82478505Y-68362796D01*
X82454001Y-68364000D01*
X81553999Y-68364000D01*
X81529495Y-68362796D01*
X81505227Y-68359196D01*
X81481428Y-68353235D01*
X81458329Y-68344970D01*
X81436150Y-68334480D01*
X81415107Y-68321868D01*
X81395401Y-68307253D01*
X81377223Y-68290777D01*
X81360747Y-68272599D01*
X81346132Y-68252893D01*
X81333520Y-68231850D01*
X81323030Y-68209671D01*
X81314765Y-68186572D01*
X81308804Y-68162773D01*
X81305204Y-68138505D01*
X81304000Y-68114001D01*
X81304000Y-67463999D01*
X81305204Y-67439495D01*
X81308804Y-67415227D01*
X81314765Y-67391428D01*
X81323030Y-67368329D01*
X81333520Y-67346150D01*
X81346132Y-67325107D01*
X81360747Y-67305401D01*
X81377223Y-67287223D01*
X81395401Y-67270747D01*
X81415107Y-67256132D01*
X81436150Y-67243520D01*
X81458329Y-67233030D01*
X81481428Y-67224765D01*
X81505227Y-67218804D01*
X81529495Y-67215204D01*
X81553999Y-67214000D01*
X82454001Y-67214000D01*
X82478505Y-67215204D01*
X82478505Y-67215204D01*
G37*
D11*
X82004000Y-67789000D03*
D10*
G36*
X82478505Y-65165204D02*
X82502773Y-65168804D01*
X82526572Y-65174765D01*
X82549671Y-65183030D01*
X82571850Y-65193520D01*
X82592893Y-65206132D01*
X82612599Y-65220747D01*
X82630777Y-65237223D01*
X82647253Y-65255401D01*
X82661868Y-65275107D01*
X82674480Y-65296150D01*
X82684970Y-65318329D01*
X82693235Y-65341428D01*
X82699196Y-65365227D01*
X82702796Y-65389495D01*
X82704000Y-65413999D01*
X82704000Y-66064001D01*
X82702796Y-66088505D01*
X82699196Y-66112773D01*
X82693235Y-66136572D01*
X82684970Y-66159671D01*
X82674480Y-66181850D01*
X82661868Y-66202893D01*
X82647253Y-66222599D01*
X82630777Y-66240777D01*
X82612599Y-66257253D01*
X82592893Y-66271868D01*
X82571850Y-66284480D01*
X82549671Y-66294970D01*
X82526572Y-66303235D01*
X82502773Y-66309196D01*
X82478505Y-66312796D01*
X82454001Y-66314000D01*
X81553999Y-66314000D01*
X81529495Y-66312796D01*
X81505227Y-66309196D01*
X81481428Y-66303235D01*
X81458329Y-66294970D01*
X81436150Y-66284480D01*
X81415107Y-66271868D01*
X81395401Y-66257253D01*
X81377223Y-66240777D01*
X81360747Y-66222599D01*
X81346132Y-66202893D01*
X81333520Y-66181850D01*
X81323030Y-66159671D01*
X81314765Y-66136572D01*
X81308804Y-66112773D01*
X81305204Y-66088505D01*
X81304000Y-66064001D01*
X81304000Y-65413999D01*
X81305204Y-65389495D01*
X81308804Y-65365227D01*
X81314765Y-65341428D01*
X81323030Y-65318329D01*
X81333520Y-65296150D01*
X81346132Y-65275107D01*
X81360747Y-65255401D01*
X81377223Y-65237223D01*
X81395401Y-65220747D01*
X81415107Y-65206132D01*
X81436150Y-65193520D01*
X81458329Y-65183030D01*
X81481428Y-65174765D01*
X81505227Y-65168804D01*
X81529495Y-65165204D01*
X81553999Y-65164000D01*
X82454001Y-65164000D01*
X82478505Y-65165204D01*
X82478505Y-65165204D01*
G37*
D11*
X82004000Y-65739000D03*
G04 #@! TD*
D10*
G04 #@! TO.C,R5*
G36*
X97203505Y-57937204D02*
X97227773Y-57940804D01*
X97251572Y-57946765D01*
X97274671Y-57955030D01*
X97296850Y-57965520D01*
X97317893Y-57978132D01*
X97337599Y-57992747D01*
X97355777Y-58009223D01*
X97372253Y-58027401D01*
X97386868Y-58047107D01*
X97399480Y-58068150D01*
X97409970Y-58090329D01*
X97418235Y-58113428D01*
X97424196Y-58137227D01*
X97427796Y-58161495D01*
X97429000Y-58185999D01*
X97429000Y-59086001D01*
X97427796Y-59110505D01*
X97424196Y-59134773D01*
X97418235Y-59158572D01*
X97409970Y-59181671D01*
X97399480Y-59203850D01*
X97386868Y-59224893D01*
X97372253Y-59244599D01*
X97355777Y-59262777D01*
X97337599Y-59279253D01*
X97317893Y-59293868D01*
X97296850Y-59306480D01*
X97274671Y-59316970D01*
X97251572Y-59325235D01*
X97227773Y-59331196D01*
X97203505Y-59334796D01*
X97179001Y-59336000D01*
X96528999Y-59336000D01*
X96504495Y-59334796D01*
X96480227Y-59331196D01*
X96456428Y-59325235D01*
X96433329Y-59316970D01*
X96411150Y-59306480D01*
X96390107Y-59293868D01*
X96370401Y-59279253D01*
X96352223Y-59262777D01*
X96335747Y-59244599D01*
X96321132Y-59224893D01*
X96308520Y-59203850D01*
X96298030Y-59181671D01*
X96289765Y-59158572D01*
X96283804Y-59134773D01*
X96280204Y-59110505D01*
X96279000Y-59086001D01*
X96279000Y-58185999D01*
X96280204Y-58161495D01*
X96283804Y-58137227D01*
X96289765Y-58113428D01*
X96298030Y-58090329D01*
X96308520Y-58068150D01*
X96321132Y-58047107D01*
X96335747Y-58027401D01*
X96352223Y-58009223D01*
X96370401Y-57992747D01*
X96390107Y-57978132D01*
X96411150Y-57965520D01*
X96433329Y-57955030D01*
X96456428Y-57946765D01*
X96480227Y-57940804D01*
X96504495Y-57937204D01*
X96528999Y-57936000D01*
X97179001Y-57936000D01*
X97203505Y-57937204D01*
X97203505Y-57937204D01*
G37*
D11*
X96854000Y-58636000D03*
D10*
G36*
X99253505Y-57937204D02*
X99277773Y-57940804D01*
X99301572Y-57946765D01*
X99324671Y-57955030D01*
X99346850Y-57965520D01*
X99367893Y-57978132D01*
X99387599Y-57992747D01*
X99405777Y-58009223D01*
X99422253Y-58027401D01*
X99436868Y-58047107D01*
X99449480Y-58068150D01*
X99459970Y-58090329D01*
X99468235Y-58113428D01*
X99474196Y-58137227D01*
X99477796Y-58161495D01*
X99479000Y-58185999D01*
X99479000Y-59086001D01*
X99477796Y-59110505D01*
X99474196Y-59134773D01*
X99468235Y-59158572D01*
X99459970Y-59181671D01*
X99449480Y-59203850D01*
X99436868Y-59224893D01*
X99422253Y-59244599D01*
X99405777Y-59262777D01*
X99387599Y-59279253D01*
X99367893Y-59293868D01*
X99346850Y-59306480D01*
X99324671Y-59316970D01*
X99301572Y-59325235D01*
X99277773Y-59331196D01*
X99253505Y-59334796D01*
X99229001Y-59336000D01*
X98578999Y-59336000D01*
X98554495Y-59334796D01*
X98530227Y-59331196D01*
X98506428Y-59325235D01*
X98483329Y-59316970D01*
X98461150Y-59306480D01*
X98440107Y-59293868D01*
X98420401Y-59279253D01*
X98402223Y-59262777D01*
X98385747Y-59244599D01*
X98371132Y-59224893D01*
X98358520Y-59203850D01*
X98348030Y-59181671D01*
X98339765Y-59158572D01*
X98333804Y-59134773D01*
X98330204Y-59110505D01*
X98329000Y-59086001D01*
X98329000Y-58185999D01*
X98330204Y-58161495D01*
X98333804Y-58137227D01*
X98339765Y-58113428D01*
X98348030Y-58090329D01*
X98358520Y-58068150D01*
X98371132Y-58047107D01*
X98385747Y-58027401D01*
X98402223Y-58009223D01*
X98420401Y-57992747D01*
X98440107Y-57978132D01*
X98461150Y-57965520D01*
X98483329Y-57955030D01*
X98506428Y-57946765D01*
X98530227Y-57940804D01*
X98554495Y-57937204D01*
X98578999Y-57936000D01*
X99229001Y-57936000D01*
X99253505Y-57937204D01*
X99253505Y-57937204D01*
G37*
D11*
X98904000Y-58636000D03*
G04 #@! TD*
D10*
G04 #@! TO.C,R6*
G36*
X97464505Y-54896204D02*
X97488773Y-54899804D01*
X97512572Y-54905765D01*
X97535671Y-54914030D01*
X97557850Y-54924520D01*
X97578893Y-54937132D01*
X97598599Y-54951747D01*
X97616777Y-54968223D01*
X97633253Y-54986401D01*
X97647868Y-55006107D01*
X97660480Y-55027150D01*
X97670970Y-55049329D01*
X97679235Y-55072428D01*
X97685196Y-55096227D01*
X97688796Y-55120495D01*
X97690000Y-55144999D01*
X97690000Y-55795001D01*
X97688796Y-55819505D01*
X97685196Y-55843773D01*
X97679235Y-55867572D01*
X97670970Y-55890671D01*
X97660480Y-55912850D01*
X97647868Y-55933893D01*
X97633253Y-55953599D01*
X97616777Y-55971777D01*
X97598599Y-55988253D01*
X97578893Y-56002868D01*
X97557850Y-56015480D01*
X97535671Y-56025970D01*
X97512572Y-56034235D01*
X97488773Y-56040196D01*
X97464505Y-56043796D01*
X97440001Y-56045000D01*
X96539999Y-56045000D01*
X96515495Y-56043796D01*
X96491227Y-56040196D01*
X96467428Y-56034235D01*
X96444329Y-56025970D01*
X96422150Y-56015480D01*
X96401107Y-56002868D01*
X96381401Y-55988253D01*
X96363223Y-55971777D01*
X96346747Y-55953599D01*
X96332132Y-55933893D01*
X96319520Y-55912850D01*
X96309030Y-55890671D01*
X96300765Y-55867572D01*
X96294804Y-55843773D01*
X96291204Y-55819505D01*
X96290000Y-55795001D01*
X96290000Y-55144999D01*
X96291204Y-55120495D01*
X96294804Y-55096227D01*
X96300765Y-55072428D01*
X96309030Y-55049329D01*
X96319520Y-55027150D01*
X96332132Y-55006107D01*
X96346747Y-54986401D01*
X96363223Y-54968223D01*
X96381401Y-54951747D01*
X96401107Y-54937132D01*
X96422150Y-54924520D01*
X96444329Y-54914030D01*
X96467428Y-54905765D01*
X96491227Y-54899804D01*
X96515495Y-54896204D01*
X96539999Y-54895000D01*
X97440001Y-54895000D01*
X97464505Y-54896204D01*
X97464505Y-54896204D01*
G37*
D11*
X96990000Y-55470000D03*
D10*
G36*
X97464505Y-52846204D02*
X97488773Y-52849804D01*
X97512572Y-52855765D01*
X97535671Y-52864030D01*
X97557850Y-52874520D01*
X97578893Y-52887132D01*
X97598599Y-52901747D01*
X97616777Y-52918223D01*
X97633253Y-52936401D01*
X97647868Y-52956107D01*
X97660480Y-52977150D01*
X97670970Y-52999329D01*
X97679235Y-53022428D01*
X97685196Y-53046227D01*
X97688796Y-53070495D01*
X97690000Y-53094999D01*
X97690000Y-53745001D01*
X97688796Y-53769505D01*
X97685196Y-53793773D01*
X97679235Y-53817572D01*
X97670970Y-53840671D01*
X97660480Y-53862850D01*
X97647868Y-53883893D01*
X97633253Y-53903599D01*
X97616777Y-53921777D01*
X97598599Y-53938253D01*
X97578893Y-53952868D01*
X97557850Y-53965480D01*
X97535671Y-53975970D01*
X97512572Y-53984235D01*
X97488773Y-53990196D01*
X97464505Y-53993796D01*
X97440001Y-53995000D01*
X96539999Y-53995000D01*
X96515495Y-53993796D01*
X96491227Y-53990196D01*
X96467428Y-53984235D01*
X96444329Y-53975970D01*
X96422150Y-53965480D01*
X96401107Y-53952868D01*
X96381401Y-53938253D01*
X96363223Y-53921777D01*
X96346747Y-53903599D01*
X96332132Y-53883893D01*
X96319520Y-53862850D01*
X96309030Y-53840671D01*
X96300765Y-53817572D01*
X96294804Y-53793773D01*
X96291204Y-53769505D01*
X96290000Y-53745001D01*
X96290000Y-53094999D01*
X96291204Y-53070495D01*
X96294804Y-53046227D01*
X96300765Y-53022428D01*
X96309030Y-52999329D01*
X96319520Y-52977150D01*
X96332132Y-52956107D01*
X96346747Y-52936401D01*
X96363223Y-52918223D01*
X96381401Y-52901747D01*
X96401107Y-52887132D01*
X96422150Y-52874520D01*
X96444329Y-52864030D01*
X96467428Y-52855765D01*
X96491227Y-52849804D01*
X96515495Y-52846204D01*
X96539999Y-52845000D01*
X97440001Y-52845000D01*
X97464505Y-52846204D01*
X97464505Y-52846204D01*
G37*
D11*
X96990000Y-53420000D03*
G04 #@! TD*
D10*
G04 #@! TO.C,R7*
G36*
X97076505Y-50063204D02*
X97100773Y-50066804D01*
X97124572Y-50072765D01*
X97147671Y-50081030D01*
X97169850Y-50091520D01*
X97190893Y-50104132D01*
X97210599Y-50118747D01*
X97228777Y-50135223D01*
X97245253Y-50153401D01*
X97259868Y-50173107D01*
X97272480Y-50194150D01*
X97282970Y-50216329D01*
X97291235Y-50239428D01*
X97297196Y-50263227D01*
X97300796Y-50287495D01*
X97302000Y-50311999D01*
X97302000Y-51212001D01*
X97300796Y-51236505D01*
X97297196Y-51260773D01*
X97291235Y-51284572D01*
X97282970Y-51307671D01*
X97272480Y-51329850D01*
X97259868Y-51350893D01*
X97245253Y-51370599D01*
X97228777Y-51388777D01*
X97210599Y-51405253D01*
X97190893Y-51419868D01*
X97169850Y-51432480D01*
X97147671Y-51442970D01*
X97124572Y-51451235D01*
X97100773Y-51457196D01*
X97076505Y-51460796D01*
X97052001Y-51462000D01*
X96401999Y-51462000D01*
X96377495Y-51460796D01*
X96353227Y-51457196D01*
X96329428Y-51451235D01*
X96306329Y-51442970D01*
X96284150Y-51432480D01*
X96263107Y-51419868D01*
X96243401Y-51405253D01*
X96225223Y-51388777D01*
X96208747Y-51370599D01*
X96194132Y-51350893D01*
X96181520Y-51329850D01*
X96171030Y-51307671D01*
X96162765Y-51284572D01*
X96156804Y-51260773D01*
X96153204Y-51236505D01*
X96152000Y-51212001D01*
X96152000Y-50311999D01*
X96153204Y-50287495D01*
X96156804Y-50263227D01*
X96162765Y-50239428D01*
X96171030Y-50216329D01*
X96181520Y-50194150D01*
X96194132Y-50173107D01*
X96208747Y-50153401D01*
X96225223Y-50135223D01*
X96243401Y-50118747D01*
X96263107Y-50104132D01*
X96284150Y-50091520D01*
X96306329Y-50081030D01*
X96329428Y-50072765D01*
X96353227Y-50066804D01*
X96377495Y-50063204D01*
X96401999Y-50062000D01*
X97052001Y-50062000D01*
X97076505Y-50063204D01*
X97076505Y-50063204D01*
G37*
D11*
X96727000Y-50762000D03*
D10*
G36*
X99126505Y-50063204D02*
X99150773Y-50066804D01*
X99174572Y-50072765D01*
X99197671Y-50081030D01*
X99219850Y-50091520D01*
X99240893Y-50104132D01*
X99260599Y-50118747D01*
X99278777Y-50135223D01*
X99295253Y-50153401D01*
X99309868Y-50173107D01*
X99322480Y-50194150D01*
X99332970Y-50216329D01*
X99341235Y-50239428D01*
X99347196Y-50263227D01*
X99350796Y-50287495D01*
X99352000Y-50311999D01*
X99352000Y-51212001D01*
X99350796Y-51236505D01*
X99347196Y-51260773D01*
X99341235Y-51284572D01*
X99332970Y-51307671D01*
X99322480Y-51329850D01*
X99309868Y-51350893D01*
X99295253Y-51370599D01*
X99278777Y-51388777D01*
X99260599Y-51405253D01*
X99240893Y-51419868D01*
X99219850Y-51432480D01*
X99197671Y-51442970D01*
X99174572Y-51451235D01*
X99150773Y-51457196D01*
X99126505Y-51460796D01*
X99102001Y-51462000D01*
X98451999Y-51462000D01*
X98427495Y-51460796D01*
X98403227Y-51457196D01*
X98379428Y-51451235D01*
X98356329Y-51442970D01*
X98334150Y-51432480D01*
X98313107Y-51419868D01*
X98293401Y-51405253D01*
X98275223Y-51388777D01*
X98258747Y-51370599D01*
X98244132Y-51350893D01*
X98231520Y-51329850D01*
X98221030Y-51307671D01*
X98212765Y-51284572D01*
X98206804Y-51260773D01*
X98203204Y-51236505D01*
X98202000Y-51212001D01*
X98202000Y-50311999D01*
X98203204Y-50287495D01*
X98206804Y-50263227D01*
X98212765Y-50239428D01*
X98221030Y-50216329D01*
X98231520Y-50194150D01*
X98244132Y-50173107D01*
X98258747Y-50153401D01*
X98275223Y-50135223D01*
X98293401Y-50118747D01*
X98313107Y-50104132D01*
X98334150Y-50091520D01*
X98356329Y-50081030D01*
X98379428Y-50072765D01*
X98403227Y-50066804D01*
X98427495Y-50063204D01*
X98451999Y-50062000D01*
X99102001Y-50062000D01*
X99126505Y-50063204D01*
X99126505Y-50063204D01*
G37*
D11*
X98777000Y-50762000D03*
G04 #@! TD*
D10*
G04 #@! TO.C,R8*
G36*
X104841505Y-57937204D02*
X104865773Y-57940804D01*
X104889572Y-57946765D01*
X104912671Y-57955030D01*
X104934850Y-57965520D01*
X104955893Y-57978132D01*
X104975599Y-57992747D01*
X104993777Y-58009223D01*
X105010253Y-58027401D01*
X105024868Y-58047107D01*
X105037480Y-58068150D01*
X105047970Y-58090329D01*
X105056235Y-58113428D01*
X105062196Y-58137227D01*
X105065796Y-58161495D01*
X105067000Y-58185999D01*
X105067000Y-59086001D01*
X105065796Y-59110505D01*
X105062196Y-59134773D01*
X105056235Y-59158572D01*
X105047970Y-59181671D01*
X105037480Y-59203850D01*
X105024868Y-59224893D01*
X105010253Y-59244599D01*
X104993777Y-59262777D01*
X104975599Y-59279253D01*
X104955893Y-59293868D01*
X104934850Y-59306480D01*
X104912671Y-59316970D01*
X104889572Y-59325235D01*
X104865773Y-59331196D01*
X104841505Y-59334796D01*
X104817001Y-59336000D01*
X104166999Y-59336000D01*
X104142495Y-59334796D01*
X104118227Y-59331196D01*
X104094428Y-59325235D01*
X104071329Y-59316970D01*
X104049150Y-59306480D01*
X104028107Y-59293868D01*
X104008401Y-59279253D01*
X103990223Y-59262777D01*
X103973747Y-59244599D01*
X103959132Y-59224893D01*
X103946520Y-59203850D01*
X103936030Y-59181671D01*
X103927765Y-59158572D01*
X103921804Y-59134773D01*
X103918204Y-59110505D01*
X103917000Y-59086001D01*
X103917000Y-58185999D01*
X103918204Y-58161495D01*
X103921804Y-58137227D01*
X103927765Y-58113428D01*
X103936030Y-58090329D01*
X103946520Y-58068150D01*
X103959132Y-58047107D01*
X103973747Y-58027401D01*
X103990223Y-58009223D01*
X104008401Y-57992747D01*
X104028107Y-57978132D01*
X104049150Y-57965520D01*
X104071329Y-57955030D01*
X104094428Y-57946765D01*
X104118227Y-57940804D01*
X104142495Y-57937204D01*
X104166999Y-57936000D01*
X104817001Y-57936000D01*
X104841505Y-57937204D01*
X104841505Y-57937204D01*
G37*
D11*
X104492000Y-58636000D03*
D10*
G36*
X102791505Y-57937204D02*
X102815773Y-57940804D01*
X102839572Y-57946765D01*
X102862671Y-57955030D01*
X102884850Y-57965520D01*
X102905893Y-57978132D01*
X102925599Y-57992747D01*
X102943777Y-58009223D01*
X102960253Y-58027401D01*
X102974868Y-58047107D01*
X102987480Y-58068150D01*
X102997970Y-58090329D01*
X103006235Y-58113428D01*
X103012196Y-58137227D01*
X103015796Y-58161495D01*
X103017000Y-58185999D01*
X103017000Y-59086001D01*
X103015796Y-59110505D01*
X103012196Y-59134773D01*
X103006235Y-59158572D01*
X102997970Y-59181671D01*
X102987480Y-59203850D01*
X102974868Y-59224893D01*
X102960253Y-59244599D01*
X102943777Y-59262777D01*
X102925599Y-59279253D01*
X102905893Y-59293868D01*
X102884850Y-59306480D01*
X102862671Y-59316970D01*
X102839572Y-59325235D01*
X102815773Y-59331196D01*
X102791505Y-59334796D01*
X102767001Y-59336000D01*
X102116999Y-59336000D01*
X102092495Y-59334796D01*
X102068227Y-59331196D01*
X102044428Y-59325235D01*
X102021329Y-59316970D01*
X101999150Y-59306480D01*
X101978107Y-59293868D01*
X101958401Y-59279253D01*
X101940223Y-59262777D01*
X101923747Y-59244599D01*
X101909132Y-59224893D01*
X101896520Y-59203850D01*
X101886030Y-59181671D01*
X101877765Y-59158572D01*
X101871804Y-59134773D01*
X101868204Y-59110505D01*
X101867000Y-59086001D01*
X101867000Y-58185999D01*
X101868204Y-58161495D01*
X101871804Y-58137227D01*
X101877765Y-58113428D01*
X101886030Y-58090329D01*
X101896520Y-58068150D01*
X101909132Y-58047107D01*
X101923747Y-58027401D01*
X101940223Y-58009223D01*
X101958401Y-57992747D01*
X101978107Y-57978132D01*
X101999150Y-57965520D01*
X102021329Y-57955030D01*
X102044428Y-57946765D01*
X102068227Y-57940804D01*
X102092495Y-57937204D01*
X102116999Y-57936000D01*
X102767001Y-57936000D01*
X102791505Y-57937204D01*
X102791505Y-57937204D01*
G37*
D11*
X102442000Y-58636000D03*
G04 #@! TD*
D10*
G04 #@! TO.C,R9*
G36*
X102791505Y-50063204D02*
X102815773Y-50066804D01*
X102839572Y-50072765D01*
X102862671Y-50081030D01*
X102884850Y-50091520D01*
X102905893Y-50104132D01*
X102925599Y-50118747D01*
X102943777Y-50135223D01*
X102960253Y-50153401D01*
X102974868Y-50173107D01*
X102987480Y-50194150D01*
X102997970Y-50216329D01*
X103006235Y-50239428D01*
X103012196Y-50263227D01*
X103015796Y-50287495D01*
X103017000Y-50311999D01*
X103017000Y-51212001D01*
X103015796Y-51236505D01*
X103012196Y-51260773D01*
X103006235Y-51284572D01*
X102997970Y-51307671D01*
X102987480Y-51329850D01*
X102974868Y-51350893D01*
X102960253Y-51370599D01*
X102943777Y-51388777D01*
X102925599Y-51405253D01*
X102905893Y-51419868D01*
X102884850Y-51432480D01*
X102862671Y-51442970D01*
X102839572Y-51451235D01*
X102815773Y-51457196D01*
X102791505Y-51460796D01*
X102767001Y-51462000D01*
X102116999Y-51462000D01*
X102092495Y-51460796D01*
X102068227Y-51457196D01*
X102044428Y-51451235D01*
X102021329Y-51442970D01*
X101999150Y-51432480D01*
X101978107Y-51419868D01*
X101958401Y-51405253D01*
X101940223Y-51388777D01*
X101923747Y-51370599D01*
X101909132Y-51350893D01*
X101896520Y-51329850D01*
X101886030Y-51307671D01*
X101877765Y-51284572D01*
X101871804Y-51260773D01*
X101868204Y-51236505D01*
X101867000Y-51212001D01*
X101867000Y-50311999D01*
X101868204Y-50287495D01*
X101871804Y-50263227D01*
X101877765Y-50239428D01*
X101886030Y-50216329D01*
X101896520Y-50194150D01*
X101909132Y-50173107D01*
X101923747Y-50153401D01*
X101940223Y-50135223D01*
X101958401Y-50118747D01*
X101978107Y-50104132D01*
X101999150Y-50091520D01*
X102021329Y-50081030D01*
X102044428Y-50072765D01*
X102068227Y-50066804D01*
X102092495Y-50063204D01*
X102116999Y-50062000D01*
X102767001Y-50062000D01*
X102791505Y-50063204D01*
X102791505Y-50063204D01*
G37*
D11*
X102442000Y-50762000D03*
D10*
G36*
X104841505Y-50063204D02*
X104865773Y-50066804D01*
X104889572Y-50072765D01*
X104912671Y-50081030D01*
X104934850Y-50091520D01*
X104955893Y-50104132D01*
X104975599Y-50118747D01*
X104993777Y-50135223D01*
X105010253Y-50153401D01*
X105024868Y-50173107D01*
X105037480Y-50194150D01*
X105047970Y-50216329D01*
X105056235Y-50239428D01*
X105062196Y-50263227D01*
X105065796Y-50287495D01*
X105067000Y-50311999D01*
X105067000Y-51212001D01*
X105065796Y-51236505D01*
X105062196Y-51260773D01*
X105056235Y-51284572D01*
X105047970Y-51307671D01*
X105037480Y-51329850D01*
X105024868Y-51350893D01*
X105010253Y-51370599D01*
X104993777Y-51388777D01*
X104975599Y-51405253D01*
X104955893Y-51419868D01*
X104934850Y-51432480D01*
X104912671Y-51442970D01*
X104889572Y-51451235D01*
X104865773Y-51457196D01*
X104841505Y-51460796D01*
X104817001Y-51462000D01*
X104166999Y-51462000D01*
X104142495Y-51460796D01*
X104118227Y-51457196D01*
X104094428Y-51451235D01*
X104071329Y-51442970D01*
X104049150Y-51432480D01*
X104028107Y-51419868D01*
X104008401Y-51405253D01*
X103990223Y-51388777D01*
X103973747Y-51370599D01*
X103959132Y-51350893D01*
X103946520Y-51329850D01*
X103936030Y-51307671D01*
X103927765Y-51284572D01*
X103921804Y-51260773D01*
X103918204Y-51236505D01*
X103917000Y-51212001D01*
X103917000Y-50311999D01*
X103918204Y-50287495D01*
X103921804Y-50263227D01*
X103927765Y-50239428D01*
X103936030Y-50216329D01*
X103946520Y-50194150D01*
X103959132Y-50173107D01*
X103973747Y-50153401D01*
X103990223Y-50135223D01*
X104008401Y-50118747D01*
X104028107Y-50104132D01*
X104049150Y-50091520D01*
X104071329Y-50081030D01*
X104094428Y-50072765D01*
X104118227Y-50066804D01*
X104142495Y-50063204D01*
X104166999Y-50062000D01*
X104817001Y-50062000D01*
X104841505Y-50063204D01*
X104841505Y-50063204D01*
G37*
D11*
X104492000Y-50762000D03*
G04 #@! TD*
D13*
G04 #@! TO.C,U1*
X55014000Y-59318000D03*
X54064000Y-59318000D03*
X53114000Y-59318000D03*
X53114000Y-62018000D03*
X55014000Y-62018000D03*
G04 #@! TD*
D14*
G04 #@! TO.C,U2*
X73829000Y-64290000D03*
X73829000Y-66190000D03*
X71129000Y-66190000D03*
X71129000Y-65240000D03*
X71129000Y-64290000D03*
G04 #@! TD*
D15*
G04 #@! TO.C,U3*
X85222200Y-61607800D03*
X85222200Y-62877800D03*
X85222200Y-64147800D03*
X85222200Y-65417800D03*
X90622200Y-65417800D03*
X90622200Y-64147800D03*
X90622200Y-62877800D03*
X90622200Y-61607800D03*
G04 #@! TD*
D10*
G04 #@! TO.C,C6*
G36*
X63136305Y-92653204D02*
X63160573Y-92656804D01*
X63184372Y-92662765D01*
X63207471Y-92671030D01*
X63229650Y-92681520D01*
X63250693Y-92694132D01*
X63270399Y-92708747D01*
X63288577Y-92725223D01*
X63305053Y-92743401D01*
X63319668Y-92763107D01*
X63332280Y-92784150D01*
X63342770Y-92806329D01*
X63351035Y-92829428D01*
X63356996Y-92853227D01*
X63360596Y-92877495D01*
X63361800Y-92901999D01*
X63361800Y-93552001D01*
X63360596Y-93576505D01*
X63356996Y-93600773D01*
X63351035Y-93624572D01*
X63342770Y-93647671D01*
X63332280Y-93669850D01*
X63319668Y-93690893D01*
X63305053Y-93710599D01*
X63288577Y-93728777D01*
X63270399Y-93745253D01*
X63250693Y-93759868D01*
X63229650Y-93772480D01*
X63207471Y-93782970D01*
X63184372Y-93791235D01*
X63160573Y-93797196D01*
X63136305Y-93800796D01*
X63111801Y-93802000D01*
X62211799Y-93802000D01*
X62187295Y-93800796D01*
X62163027Y-93797196D01*
X62139228Y-93791235D01*
X62116129Y-93782970D01*
X62093950Y-93772480D01*
X62072907Y-93759868D01*
X62053201Y-93745253D01*
X62035023Y-93728777D01*
X62018547Y-93710599D01*
X62003932Y-93690893D01*
X61991320Y-93669850D01*
X61980830Y-93647671D01*
X61972565Y-93624572D01*
X61966604Y-93600773D01*
X61963004Y-93576505D01*
X61961800Y-93552001D01*
X61961800Y-92901999D01*
X61963004Y-92877495D01*
X61966604Y-92853227D01*
X61972565Y-92829428D01*
X61980830Y-92806329D01*
X61991320Y-92784150D01*
X62003932Y-92763107D01*
X62018547Y-92743401D01*
X62035023Y-92725223D01*
X62053201Y-92708747D01*
X62072907Y-92694132D01*
X62093950Y-92681520D01*
X62116129Y-92671030D01*
X62139228Y-92662765D01*
X62163027Y-92656804D01*
X62187295Y-92653204D01*
X62211799Y-92652000D01*
X63111801Y-92652000D01*
X63136305Y-92653204D01*
X63136305Y-92653204D01*
G37*
D11*
X62661800Y-93227000D03*
D10*
G36*
X63136305Y-90603204D02*
X63160573Y-90606804D01*
X63184372Y-90612765D01*
X63207471Y-90621030D01*
X63229650Y-90631520D01*
X63250693Y-90644132D01*
X63270399Y-90658747D01*
X63288577Y-90675223D01*
X63305053Y-90693401D01*
X63319668Y-90713107D01*
X63332280Y-90734150D01*
X63342770Y-90756329D01*
X63351035Y-90779428D01*
X63356996Y-90803227D01*
X63360596Y-90827495D01*
X63361800Y-90851999D01*
X63361800Y-91502001D01*
X63360596Y-91526505D01*
X63356996Y-91550773D01*
X63351035Y-91574572D01*
X63342770Y-91597671D01*
X63332280Y-91619850D01*
X63319668Y-91640893D01*
X63305053Y-91660599D01*
X63288577Y-91678777D01*
X63270399Y-91695253D01*
X63250693Y-91709868D01*
X63229650Y-91722480D01*
X63207471Y-91732970D01*
X63184372Y-91741235D01*
X63160573Y-91747196D01*
X63136305Y-91750796D01*
X63111801Y-91752000D01*
X62211799Y-91752000D01*
X62187295Y-91750796D01*
X62163027Y-91747196D01*
X62139228Y-91741235D01*
X62116129Y-91732970D01*
X62093950Y-91722480D01*
X62072907Y-91709868D01*
X62053201Y-91695253D01*
X62035023Y-91678777D01*
X62018547Y-91660599D01*
X62003932Y-91640893D01*
X61991320Y-91619850D01*
X61980830Y-91597671D01*
X61972565Y-91574572D01*
X61966604Y-91550773D01*
X61963004Y-91526505D01*
X61961800Y-91502001D01*
X61961800Y-90851999D01*
X61963004Y-90827495D01*
X61966604Y-90803227D01*
X61972565Y-90779428D01*
X61980830Y-90756329D01*
X61991320Y-90734150D01*
X62003932Y-90713107D01*
X62018547Y-90693401D01*
X62035023Y-90675223D01*
X62053201Y-90658747D01*
X62072907Y-90644132D01*
X62093950Y-90631520D01*
X62116129Y-90621030D01*
X62139228Y-90612765D01*
X62163027Y-90606804D01*
X62187295Y-90603204D01*
X62211799Y-90602000D01*
X63111801Y-90602000D01*
X63136305Y-90603204D01*
X63136305Y-90603204D01*
G37*
D11*
X62661800Y-91177000D03*
G04 #@! TD*
D10*
G04 #@! TO.C,C7*
G36*
X63110905Y-97022004D02*
X63135173Y-97025604D01*
X63158972Y-97031565D01*
X63182071Y-97039830D01*
X63204250Y-97050320D01*
X63225293Y-97062932D01*
X63244999Y-97077547D01*
X63263177Y-97094023D01*
X63279653Y-97112201D01*
X63294268Y-97131907D01*
X63306880Y-97152950D01*
X63317370Y-97175129D01*
X63325635Y-97198228D01*
X63331596Y-97222027D01*
X63335196Y-97246295D01*
X63336400Y-97270799D01*
X63336400Y-97920801D01*
X63335196Y-97945305D01*
X63331596Y-97969573D01*
X63325635Y-97993372D01*
X63317370Y-98016471D01*
X63306880Y-98038650D01*
X63294268Y-98059693D01*
X63279653Y-98079399D01*
X63263177Y-98097577D01*
X63244999Y-98114053D01*
X63225293Y-98128668D01*
X63204250Y-98141280D01*
X63182071Y-98151770D01*
X63158972Y-98160035D01*
X63135173Y-98165996D01*
X63110905Y-98169596D01*
X63086401Y-98170800D01*
X62186399Y-98170800D01*
X62161895Y-98169596D01*
X62137627Y-98165996D01*
X62113828Y-98160035D01*
X62090729Y-98151770D01*
X62068550Y-98141280D01*
X62047507Y-98128668D01*
X62027801Y-98114053D01*
X62009623Y-98097577D01*
X61993147Y-98079399D01*
X61978532Y-98059693D01*
X61965920Y-98038650D01*
X61955430Y-98016471D01*
X61947165Y-97993372D01*
X61941204Y-97969573D01*
X61937604Y-97945305D01*
X61936400Y-97920801D01*
X61936400Y-97270799D01*
X61937604Y-97246295D01*
X61941204Y-97222027D01*
X61947165Y-97198228D01*
X61955430Y-97175129D01*
X61965920Y-97152950D01*
X61978532Y-97131907D01*
X61993147Y-97112201D01*
X62009623Y-97094023D01*
X62027801Y-97077547D01*
X62047507Y-97062932D01*
X62068550Y-97050320D01*
X62090729Y-97039830D01*
X62113828Y-97031565D01*
X62137627Y-97025604D01*
X62161895Y-97022004D01*
X62186399Y-97020800D01*
X63086401Y-97020800D01*
X63110905Y-97022004D01*
X63110905Y-97022004D01*
G37*
D11*
X62636400Y-97595800D03*
D10*
G36*
X63110905Y-94972004D02*
X63135173Y-94975604D01*
X63158972Y-94981565D01*
X63182071Y-94989830D01*
X63204250Y-95000320D01*
X63225293Y-95012932D01*
X63244999Y-95027547D01*
X63263177Y-95044023D01*
X63279653Y-95062201D01*
X63294268Y-95081907D01*
X63306880Y-95102950D01*
X63317370Y-95125129D01*
X63325635Y-95148228D01*
X63331596Y-95172027D01*
X63335196Y-95196295D01*
X63336400Y-95220799D01*
X63336400Y-95870801D01*
X63335196Y-95895305D01*
X63331596Y-95919573D01*
X63325635Y-95943372D01*
X63317370Y-95966471D01*
X63306880Y-95988650D01*
X63294268Y-96009693D01*
X63279653Y-96029399D01*
X63263177Y-96047577D01*
X63244999Y-96064053D01*
X63225293Y-96078668D01*
X63204250Y-96091280D01*
X63182071Y-96101770D01*
X63158972Y-96110035D01*
X63135173Y-96115996D01*
X63110905Y-96119596D01*
X63086401Y-96120800D01*
X62186399Y-96120800D01*
X62161895Y-96119596D01*
X62137627Y-96115996D01*
X62113828Y-96110035D01*
X62090729Y-96101770D01*
X62068550Y-96091280D01*
X62047507Y-96078668D01*
X62027801Y-96064053D01*
X62009623Y-96047577D01*
X61993147Y-96029399D01*
X61978532Y-96009693D01*
X61965920Y-95988650D01*
X61955430Y-95966471D01*
X61947165Y-95943372D01*
X61941204Y-95919573D01*
X61937604Y-95895305D01*
X61936400Y-95870801D01*
X61936400Y-95220799D01*
X61937604Y-95196295D01*
X61941204Y-95172027D01*
X61947165Y-95148228D01*
X61955430Y-95125129D01*
X61965920Y-95102950D01*
X61978532Y-95081907D01*
X61993147Y-95062201D01*
X62009623Y-95044023D01*
X62027801Y-95027547D01*
X62047507Y-95012932D01*
X62068550Y-95000320D01*
X62090729Y-94989830D01*
X62113828Y-94981565D01*
X62137627Y-94975604D01*
X62161895Y-94972004D01*
X62186399Y-94970800D01*
X63086401Y-94970800D01*
X63110905Y-94972004D01*
X63110905Y-94972004D01*
G37*
D11*
X62636400Y-95545800D03*
G04 #@! TD*
D10*
G04 #@! TO.C,R10*
G36*
X58125505Y-92239804D02*
X58149773Y-92243404D01*
X58173572Y-92249365D01*
X58196671Y-92257630D01*
X58218850Y-92268120D01*
X58239893Y-92280732D01*
X58259599Y-92295347D01*
X58277777Y-92311823D01*
X58294253Y-92330001D01*
X58308868Y-92349707D01*
X58321480Y-92370750D01*
X58331970Y-92392929D01*
X58340235Y-92416028D01*
X58346196Y-92439827D01*
X58349796Y-92464095D01*
X58351000Y-92488599D01*
X58351000Y-93388601D01*
X58349796Y-93413105D01*
X58346196Y-93437373D01*
X58340235Y-93461172D01*
X58331970Y-93484271D01*
X58321480Y-93506450D01*
X58308868Y-93527493D01*
X58294253Y-93547199D01*
X58277777Y-93565377D01*
X58259599Y-93581853D01*
X58239893Y-93596468D01*
X58218850Y-93609080D01*
X58196671Y-93619570D01*
X58173572Y-93627835D01*
X58149773Y-93633796D01*
X58125505Y-93637396D01*
X58101001Y-93638600D01*
X57450999Y-93638600D01*
X57426495Y-93637396D01*
X57402227Y-93633796D01*
X57378428Y-93627835D01*
X57355329Y-93619570D01*
X57333150Y-93609080D01*
X57312107Y-93596468D01*
X57292401Y-93581853D01*
X57274223Y-93565377D01*
X57257747Y-93547199D01*
X57243132Y-93527493D01*
X57230520Y-93506450D01*
X57220030Y-93484271D01*
X57211765Y-93461172D01*
X57205804Y-93437373D01*
X57202204Y-93413105D01*
X57201000Y-93388601D01*
X57201000Y-92488599D01*
X57202204Y-92464095D01*
X57205804Y-92439827D01*
X57211765Y-92416028D01*
X57220030Y-92392929D01*
X57230520Y-92370750D01*
X57243132Y-92349707D01*
X57257747Y-92330001D01*
X57274223Y-92311823D01*
X57292401Y-92295347D01*
X57312107Y-92280732D01*
X57333150Y-92268120D01*
X57355329Y-92257630D01*
X57378428Y-92249365D01*
X57402227Y-92243404D01*
X57426495Y-92239804D01*
X57450999Y-92238600D01*
X58101001Y-92238600D01*
X58125505Y-92239804D01*
X58125505Y-92239804D01*
G37*
D11*
X57776000Y-92938600D03*
D10*
G36*
X60175505Y-92239804D02*
X60199773Y-92243404D01*
X60223572Y-92249365D01*
X60246671Y-92257630D01*
X60268850Y-92268120D01*
X60289893Y-92280732D01*
X60309599Y-92295347D01*
X60327777Y-92311823D01*
X60344253Y-92330001D01*
X60358868Y-92349707D01*
X60371480Y-92370750D01*
X60381970Y-92392929D01*
X60390235Y-92416028D01*
X60396196Y-92439827D01*
X60399796Y-92464095D01*
X60401000Y-92488599D01*
X60401000Y-93388601D01*
X60399796Y-93413105D01*
X60396196Y-93437373D01*
X60390235Y-93461172D01*
X60381970Y-93484271D01*
X60371480Y-93506450D01*
X60358868Y-93527493D01*
X60344253Y-93547199D01*
X60327777Y-93565377D01*
X60309599Y-93581853D01*
X60289893Y-93596468D01*
X60268850Y-93609080D01*
X60246671Y-93619570D01*
X60223572Y-93627835D01*
X60199773Y-93633796D01*
X60175505Y-93637396D01*
X60151001Y-93638600D01*
X59500999Y-93638600D01*
X59476495Y-93637396D01*
X59452227Y-93633796D01*
X59428428Y-93627835D01*
X59405329Y-93619570D01*
X59383150Y-93609080D01*
X59362107Y-93596468D01*
X59342401Y-93581853D01*
X59324223Y-93565377D01*
X59307747Y-93547199D01*
X59293132Y-93527493D01*
X59280520Y-93506450D01*
X59270030Y-93484271D01*
X59261765Y-93461172D01*
X59255804Y-93437373D01*
X59252204Y-93413105D01*
X59251000Y-93388601D01*
X59251000Y-92488599D01*
X59252204Y-92464095D01*
X59255804Y-92439827D01*
X59261765Y-92416028D01*
X59270030Y-92392929D01*
X59280520Y-92370750D01*
X59293132Y-92349707D01*
X59307747Y-92330001D01*
X59324223Y-92311823D01*
X59342401Y-92295347D01*
X59362107Y-92280732D01*
X59383150Y-92268120D01*
X59405329Y-92257630D01*
X59428428Y-92249365D01*
X59452227Y-92243404D01*
X59476495Y-92239804D01*
X59500999Y-92238600D01*
X60151001Y-92238600D01*
X60175505Y-92239804D01*
X60175505Y-92239804D01*
G37*
D11*
X59826000Y-92938600D03*
G04 #@! TD*
D14*
G04 #@! TO.C,U4*
X59719200Y-97546200D03*
X59719200Y-96596200D03*
X59719200Y-95646200D03*
X57019200Y-95646200D03*
X57019200Y-97546200D03*
G04 #@! TD*
M02*
