M48
;DRILL file {KiCad 5.0.2-bee76a0~70~ubuntu18.04.1} date Tue 01 Jun 2021 02:59:14 PM CDT
;FORMAT={-:-/ absolute / metric / decimal}
FMAT,2
METRIC,TZ
T1C0.400
T2C0.800
T3C0.890
T4C1.000
T5C1.520
T6C1.650
T7C3.700
%
G90
G05
T1
X75.781Y-62.573
X81.877Y-63.462
T2
X54.699Y-70.574
X54.699Y-85.814
X57.239Y-70.574
X57.239Y-85.814
X59.779Y-70.574
X59.779Y-85.814
X62.319Y-70.574
X62.319Y-85.814
X64.859Y-70.574
X64.859Y-85.814
X67.399Y-70.574
X67.399Y-85.814
X69.939Y-70.574
X69.939Y-85.814
X72.479Y-70.574
X72.479Y-85.814
X75.019Y-70.574
X75.019Y-85.814
X77.559Y-70.574
X77.559Y-85.814
X80.099Y-70.574
X80.099Y-85.814
X82.639Y-70.574
X82.639Y-85.814
X85.179Y-70.574
X85.179Y-85.814
X87.719Y-70.574
X87.719Y-85.814
X90.259Y-70.574
X90.259Y-85.814
T3
X97.072Y-84.798
X97.072Y-87.338
X97.072Y-89.878
X97.072Y-92.418
X99.612Y-86.068
X99.612Y-88.608
X99.612Y-91.148
X99.612Y-93.688
X97.072Y-65.621
X97.072Y-68.161
X97.072Y-70.701
X97.072Y-73.241
X99.612Y-66.891
X99.612Y-69.431
X99.612Y-71.971
X99.612Y-74.511
T4
X59.47Y-50.03
X59.47Y-52.57
X62.01Y-50.03
X62.01Y-52.57
X64.55Y-50.03
X64.55Y-52.57
X67.09Y-50.03
X67.09Y-52.57
X69.63Y-50.03
X69.63Y-52.57
X72.17Y-50.03
X72.17Y-52.57
X74.71Y-50.03
X74.71Y-52.57
X77.25Y-50.03
X77.25Y-52.57
X79.79Y-50.03
X79.79Y-52.57
X82.33Y-50.03
X82.33Y-52.57
T5
X68.072Y-94.615
X73.152Y-94.615
T6
X109.012Y-81.498
X109.012Y-96.988
X109.012Y-62.321
X109.012Y-77.811
T7
X50.Y-96.
X113.2Y-50.
X50.Y-50.
T0
M30
