G04 #@! TF.GenerationSoftware,KiCad,Pcbnew,5.0.2-bee76a0~70~ubuntu18.04.1*
G04 #@! TF.CreationDate,2021-06-01T15:08:51-05:00*
G04 #@! TF.ProjectId,CO2_sensorboard_slave,434f325f-7365-46e7-936f-72626f617264,rev?*
G04 #@! TF.SameCoordinates,Original*
G04 #@! TF.FileFunction,Soldermask,Bot*
G04 #@! TF.FilePolarity,Negative*
%FSLAX46Y46*%
G04 Gerber Fmt 4.6, Leading zero omitted, Abs format (unit mm)*
G04 Created by KiCad (PCBNEW 5.0.2-bee76a0~70~ubuntu18.04.1) date Tue 01 Jun 2021 03:08:51 PM CDT*
%MOMM*%
%LPD*%
G01*
G04 APERTURE LIST*
%ADD10C,0.100000*%
G04 APERTURE END LIST*
D10*
G36*
X50889941Y-93066248D02*
X50889943Y-93066249D01*
X50889944Y-93066249D01*
X51445190Y-93296239D01*
X51709354Y-93472748D01*
X51944902Y-93630136D01*
X52369864Y-94055098D01*
X52369866Y-94055101D01*
X52703761Y-94554810D01*
X52916086Y-95067409D01*
X52933752Y-95110059D01*
X53051000Y-95699501D01*
X53051000Y-96300499D01*
X52940127Y-96857893D01*
X52933751Y-96889944D01*
X52703761Y-97445190D01*
X52703760Y-97445191D01*
X52369864Y-97944902D01*
X51944902Y-98369864D01*
X51944899Y-98369866D01*
X51445190Y-98703761D01*
X50889944Y-98933751D01*
X50889943Y-98933751D01*
X50889941Y-98933752D01*
X50300499Y-99051000D01*
X49699501Y-99051000D01*
X49110059Y-98933752D01*
X49110057Y-98933751D01*
X49110056Y-98933751D01*
X48554810Y-98703761D01*
X48055101Y-98369866D01*
X48055098Y-98369864D01*
X47630136Y-97944902D01*
X47296240Y-97445191D01*
X47296239Y-97445190D01*
X47066249Y-96889944D01*
X47059874Y-96857893D01*
X46949000Y-96300499D01*
X46949000Y-95699501D01*
X47066248Y-95110059D01*
X47083914Y-95067409D01*
X47296239Y-94554810D01*
X47630134Y-94055101D01*
X47630136Y-94055098D01*
X48055098Y-93630136D01*
X48290646Y-93472748D01*
X48554810Y-93296239D01*
X49110056Y-93066249D01*
X49110057Y-93066249D01*
X49110059Y-93066248D01*
X49699501Y-92949000D01*
X50300499Y-92949000D01*
X50889941Y-93066248D01*
X50889941Y-93066248D01*
G37*
G36*
X109305502Y-95699501D02*
X109397322Y-95717765D01*
X109467735Y-95746931D01*
X109637728Y-95817344D01*
X109854092Y-95961914D01*
X110038086Y-96145908D01*
X110182656Y-96362272D01*
X110282235Y-96602679D01*
X110333000Y-96857891D01*
X110333000Y-97118109D01*
X110282235Y-97373321D01*
X110182656Y-97613728D01*
X110038086Y-97830092D01*
X109854092Y-98014086D01*
X109637728Y-98158656D01*
X109467735Y-98229069D01*
X109397322Y-98258235D01*
X109312250Y-98275157D01*
X109142109Y-98309000D01*
X108881891Y-98309000D01*
X108711750Y-98275157D01*
X108626678Y-98258235D01*
X108556265Y-98229069D01*
X108386272Y-98158656D01*
X108169908Y-98014086D01*
X107985914Y-97830092D01*
X107841344Y-97613728D01*
X107741765Y-97373321D01*
X107691000Y-97118109D01*
X107691000Y-96857891D01*
X107741765Y-96602679D01*
X107841344Y-96362272D01*
X107985914Y-96145908D01*
X108169908Y-95961914D01*
X108386272Y-95817344D01*
X108556265Y-95746931D01*
X108626678Y-95717765D01*
X108718498Y-95699501D01*
X108881891Y-95667000D01*
X109142109Y-95667000D01*
X109305502Y-95699501D01*
X109305502Y-95699501D01*
G37*
G36*
X106450871Y-93346408D02*
X106755883Y-93472748D01*
X106958189Y-93607925D01*
X107030390Y-93656168D01*
X107263832Y-93889610D01*
X107263834Y-93889613D01*
X107447252Y-94164117D01*
X107573592Y-94469129D01*
X107638000Y-94792928D01*
X107638000Y-95123072D01*
X107573592Y-95446871D01*
X107447252Y-95751883D01*
X107288495Y-95989479D01*
X107263832Y-96026390D01*
X107030390Y-96259832D01*
X107030387Y-96259834D01*
X106755883Y-96443252D01*
X106450871Y-96569592D01*
X106127072Y-96634000D01*
X105796928Y-96634000D01*
X105473129Y-96569592D01*
X105168117Y-96443252D01*
X104893613Y-96259834D01*
X104893610Y-96259832D01*
X104660168Y-96026390D01*
X104635505Y-95989479D01*
X104476748Y-95751883D01*
X104350408Y-95446871D01*
X104286000Y-95123072D01*
X104286000Y-94792928D01*
X104350408Y-94469129D01*
X104476748Y-94164117D01*
X104660166Y-93889613D01*
X104660168Y-93889610D01*
X104893610Y-93656168D01*
X104965811Y-93607925D01*
X105168117Y-93472748D01*
X105473129Y-93346408D01*
X105796928Y-93282000D01*
X106127072Y-93282000D01*
X106450871Y-93346408D01*
X106450871Y-93346408D01*
G37*
G36*
X73504527Y-93103736D02*
X73604410Y-93123604D01*
X73886674Y-93240521D01*
X74140705Y-93410259D01*
X74356741Y-93626295D01*
X74526479Y-93880326D01*
X74643396Y-94162590D01*
X74643396Y-94162591D01*
X74692305Y-94408470D01*
X74703000Y-94462240D01*
X74703000Y-94767760D01*
X74643396Y-95067410D01*
X74526479Y-95349674D01*
X74356741Y-95603705D01*
X74140705Y-95819741D01*
X73886674Y-95989479D01*
X73604410Y-96106396D01*
X73504527Y-96126264D01*
X73304762Y-96166000D01*
X72999238Y-96166000D01*
X72799473Y-96126264D01*
X72699590Y-96106396D01*
X72417326Y-95989479D01*
X72163295Y-95819741D01*
X71947259Y-95603705D01*
X71777521Y-95349674D01*
X71660604Y-95067410D01*
X71601000Y-94767760D01*
X71601000Y-94462240D01*
X71611696Y-94408470D01*
X71660604Y-94162591D01*
X71660604Y-94162590D01*
X71777521Y-93880326D01*
X71947259Y-93626295D01*
X72163295Y-93410259D01*
X72417326Y-93240521D01*
X72699590Y-93123604D01*
X72799473Y-93103736D01*
X72999238Y-93064000D01*
X73304762Y-93064000D01*
X73504527Y-93103736D01*
X73504527Y-93103736D01*
G37*
G36*
X69623000Y-96166000D02*
X66521000Y-96166000D01*
X66521000Y-93064000D01*
X69623000Y-93064000D01*
X69623000Y-96166000D01*
X69623000Y-96166000D01*
G37*
G36*
X99849142Y-92906242D02*
X99997102Y-92967530D01*
X100064130Y-93012317D01*
X100130257Y-93056501D01*
X100243499Y-93169743D01*
X100263554Y-93199758D01*
X100332470Y-93302898D01*
X100393758Y-93450858D01*
X100425000Y-93607925D01*
X100425000Y-93768075D01*
X100393758Y-93925142D01*
X100332470Y-94073102D01*
X100243498Y-94206258D01*
X100130258Y-94319498D01*
X99997102Y-94408470D01*
X99849142Y-94469758D01*
X99692075Y-94501000D01*
X99531925Y-94501000D01*
X99374858Y-94469758D01*
X99226898Y-94408470D01*
X99093742Y-94319498D01*
X98980502Y-94206258D01*
X98891530Y-94073102D01*
X98830242Y-93925142D01*
X98799000Y-93768075D01*
X98799000Y-93607925D01*
X98830242Y-93450858D01*
X98891530Y-93302898D01*
X98960446Y-93199758D01*
X98980501Y-93169743D01*
X99093743Y-93056501D01*
X99159870Y-93012317D01*
X99226898Y-92967530D01*
X99374858Y-92906242D01*
X99531925Y-92875000D01*
X99692075Y-92875000D01*
X99849142Y-92906242D01*
X99849142Y-92906242D01*
G37*
G36*
X97309142Y-91636242D02*
X97457102Y-91697530D01*
X97524130Y-91742317D01*
X97590257Y-91786501D01*
X97703499Y-91899743D01*
X97723554Y-91929758D01*
X97792470Y-92032898D01*
X97853758Y-92180858D01*
X97885000Y-92337925D01*
X97885000Y-92498075D01*
X97853758Y-92655142D01*
X97806354Y-92769583D01*
X97792471Y-92803100D01*
X97703499Y-92936257D01*
X97590257Y-93049499D01*
X97524130Y-93093683D01*
X97457102Y-93138470D01*
X97309142Y-93199758D01*
X97152075Y-93231000D01*
X96991925Y-93231000D01*
X96834858Y-93199758D01*
X96686898Y-93138470D01*
X96619870Y-93093683D01*
X96553743Y-93049499D01*
X96440501Y-92936257D01*
X96351529Y-92803100D01*
X96337646Y-92769583D01*
X96290242Y-92655142D01*
X96259000Y-92498075D01*
X96259000Y-92337925D01*
X96290242Y-92180858D01*
X96351530Y-92032898D01*
X96420446Y-91929758D01*
X96440501Y-91899743D01*
X96553743Y-91786501D01*
X96619870Y-91742317D01*
X96686898Y-91697530D01*
X96834858Y-91636242D01*
X96991925Y-91605000D01*
X97152075Y-91605000D01*
X97309142Y-91636242D01*
X97309142Y-91636242D01*
G37*
G36*
X99849142Y-90366242D02*
X99997102Y-90427530D01*
X100064130Y-90472317D01*
X100130257Y-90516501D01*
X100243499Y-90629743D01*
X100263554Y-90659758D01*
X100332470Y-90762898D01*
X100393758Y-90910858D01*
X100425000Y-91067925D01*
X100425000Y-91228075D01*
X100393758Y-91385142D01*
X100346354Y-91499583D01*
X100332471Y-91533100D01*
X100243499Y-91666257D01*
X100130257Y-91779499D01*
X100119776Y-91786502D01*
X99997102Y-91868470D01*
X99849142Y-91929758D01*
X99692075Y-91961000D01*
X99531925Y-91961000D01*
X99374858Y-91929758D01*
X99226898Y-91868470D01*
X99104224Y-91786502D01*
X99093743Y-91779499D01*
X98980501Y-91666257D01*
X98891529Y-91533100D01*
X98877646Y-91499583D01*
X98830242Y-91385142D01*
X98799000Y-91228075D01*
X98799000Y-91067925D01*
X98830242Y-90910858D01*
X98891530Y-90762898D01*
X98960446Y-90659758D01*
X98980501Y-90629743D01*
X99093743Y-90516501D01*
X99159870Y-90472317D01*
X99226898Y-90427530D01*
X99374858Y-90366242D01*
X99531925Y-90335000D01*
X99692075Y-90335000D01*
X99849142Y-90366242D01*
X99849142Y-90366242D01*
G37*
G36*
X97309142Y-89096242D02*
X97457102Y-89157530D01*
X97524130Y-89202317D01*
X97590257Y-89246501D01*
X97703499Y-89359743D01*
X97723554Y-89389758D01*
X97792470Y-89492898D01*
X97853758Y-89640858D01*
X97885000Y-89797925D01*
X97885000Y-89958075D01*
X97853758Y-90115142D01*
X97806354Y-90229583D01*
X97792471Y-90263100D01*
X97703499Y-90396257D01*
X97590257Y-90509499D01*
X97579776Y-90516502D01*
X97457102Y-90598470D01*
X97309142Y-90659758D01*
X97152075Y-90691000D01*
X96991925Y-90691000D01*
X96834858Y-90659758D01*
X96686898Y-90598470D01*
X96564224Y-90516502D01*
X96553743Y-90509499D01*
X96440501Y-90396257D01*
X96351529Y-90263100D01*
X96337646Y-90229583D01*
X96290242Y-90115142D01*
X96259000Y-89958075D01*
X96259000Y-89797925D01*
X96290242Y-89640858D01*
X96351530Y-89492898D01*
X96420446Y-89389758D01*
X96440501Y-89359743D01*
X96553743Y-89246501D01*
X96619870Y-89202317D01*
X96686898Y-89157530D01*
X96834858Y-89096242D01*
X96991925Y-89065000D01*
X97152075Y-89065000D01*
X97309142Y-89096242D01*
X97309142Y-89096242D01*
G37*
G36*
X99849142Y-87826242D02*
X99997102Y-87887530D01*
X100064130Y-87932317D01*
X100130257Y-87976501D01*
X100243499Y-88089743D01*
X100263554Y-88119758D01*
X100332470Y-88222898D01*
X100393758Y-88370858D01*
X100425000Y-88527925D01*
X100425000Y-88688075D01*
X100393758Y-88845142D01*
X100346354Y-88959583D01*
X100332471Y-88993100D01*
X100243499Y-89126257D01*
X100130257Y-89239499D01*
X100119776Y-89246502D01*
X99997102Y-89328470D01*
X99849142Y-89389758D01*
X99692075Y-89421000D01*
X99531925Y-89421000D01*
X99374858Y-89389758D01*
X99226898Y-89328470D01*
X99104224Y-89246502D01*
X99093743Y-89239499D01*
X98980501Y-89126257D01*
X98891529Y-88993100D01*
X98877646Y-88959583D01*
X98830242Y-88845142D01*
X98799000Y-88688075D01*
X98799000Y-88527925D01*
X98830242Y-88370858D01*
X98891530Y-88222898D01*
X98960446Y-88119758D01*
X98980501Y-88089743D01*
X99093743Y-87976501D01*
X99159870Y-87932317D01*
X99226898Y-87887530D01*
X99374858Y-87826242D01*
X99531925Y-87795000D01*
X99692075Y-87795000D01*
X99849142Y-87826242D01*
X99849142Y-87826242D01*
G37*
G36*
X97309142Y-86556242D02*
X97457102Y-86617530D01*
X97509717Y-86652686D01*
X97590257Y-86706501D01*
X97703499Y-86819743D01*
X97723554Y-86849758D01*
X97792470Y-86952898D01*
X97853758Y-87100858D01*
X97885000Y-87257925D01*
X97885000Y-87418075D01*
X97853758Y-87575142D01*
X97806354Y-87689583D01*
X97792471Y-87723100D01*
X97703499Y-87856257D01*
X97590257Y-87969499D01*
X97579776Y-87976502D01*
X97457102Y-88058470D01*
X97309142Y-88119758D01*
X97152075Y-88151000D01*
X96991925Y-88151000D01*
X96834858Y-88119758D01*
X96686898Y-88058470D01*
X96564224Y-87976502D01*
X96553743Y-87969499D01*
X96440501Y-87856257D01*
X96351529Y-87723100D01*
X96337646Y-87689583D01*
X96290242Y-87575142D01*
X96259000Y-87418075D01*
X96259000Y-87257925D01*
X96290242Y-87100858D01*
X96351530Y-86952898D01*
X96420446Y-86849758D01*
X96440501Y-86819743D01*
X96553743Y-86706501D01*
X96634283Y-86652686D01*
X96686898Y-86617530D01*
X96834858Y-86556242D01*
X96991925Y-86525000D01*
X97152075Y-86525000D01*
X97309142Y-86556242D01*
X97309142Y-86556242D01*
G37*
G36*
X99849142Y-85286242D02*
X99997102Y-85347530D01*
X100064130Y-85392317D01*
X100130257Y-85436501D01*
X100243499Y-85549743D01*
X100263554Y-85579758D01*
X100332470Y-85682898D01*
X100393758Y-85830858D01*
X100425000Y-85987925D01*
X100425000Y-86148075D01*
X100393758Y-86305142D01*
X100346737Y-86418659D01*
X100332471Y-86453100D01*
X100243499Y-86586257D01*
X100130257Y-86699499D01*
X100119776Y-86706502D01*
X99997102Y-86788470D01*
X99849142Y-86849758D01*
X99692075Y-86881000D01*
X99531925Y-86881000D01*
X99374858Y-86849758D01*
X99226898Y-86788470D01*
X99104224Y-86706502D01*
X99093743Y-86699499D01*
X98980501Y-86586257D01*
X98891529Y-86453100D01*
X98877263Y-86418659D01*
X98830242Y-86305142D01*
X98799000Y-86148075D01*
X98799000Y-85987925D01*
X98830242Y-85830858D01*
X98891530Y-85682898D01*
X98960446Y-85579758D01*
X98980501Y-85549743D01*
X99093743Y-85436501D01*
X99159870Y-85392317D01*
X99226898Y-85347530D01*
X99374858Y-85286242D01*
X99531925Y-85255000D01*
X99692075Y-85255000D01*
X99849142Y-85286242D01*
X99849142Y-85286242D01*
G37*
G36*
X82805821Y-84975313D02*
X82805824Y-84975314D01*
X82805825Y-84975314D01*
X82966239Y-85023975D01*
X82966241Y-85023976D01*
X82966244Y-85023977D01*
X83114078Y-85102995D01*
X83243659Y-85209341D01*
X83350005Y-85338922D01*
X83429023Y-85486756D01*
X83429024Y-85486759D01*
X83429025Y-85486761D01*
X83438644Y-85518471D01*
X83477687Y-85647179D01*
X83494117Y-85814000D01*
X83477687Y-85980821D01*
X83429023Y-86141244D01*
X83350005Y-86289078D01*
X83243659Y-86418659D01*
X83114078Y-86525005D01*
X82966244Y-86604023D01*
X82966241Y-86604024D01*
X82966239Y-86604025D01*
X82805825Y-86652686D01*
X82805824Y-86652686D01*
X82805821Y-86652687D01*
X82680804Y-86665000D01*
X82597196Y-86665000D01*
X82472179Y-86652687D01*
X82472176Y-86652686D01*
X82472175Y-86652686D01*
X82311761Y-86604025D01*
X82311759Y-86604024D01*
X82311756Y-86604023D01*
X82163922Y-86525005D01*
X82034341Y-86418659D01*
X81927995Y-86289078D01*
X81848977Y-86141244D01*
X81800313Y-85980821D01*
X81783883Y-85814000D01*
X81800313Y-85647179D01*
X81839356Y-85518471D01*
X81848975Y-85486761D01*
X81848976Y-85486759D01*
X81848977Y-85486756D01*
X81927995Y-85338922D01*
X82034341Y-85209341D01*
X82163922Y-85102995D01*
X82311756Y-85023977D01*
X82311759Y-85023976D01*
X82311761Y-85023975D01*
X82472175Y-84975314D01*
X82472176Y-84975314D01*
X82472179Y-84975313D01*
X82597196Y-84963000D01*
X82680804Y-84963000D01*
X82805821Y-84975313D01*
X82805821Y-84975313D01*
G37*
G36*
X54865821Y-84975313D02*
X54865824Y-84975314D01*
X54865825Y-84975314D01*
X55026239Y-85023975D01*
X55026241Y-85023976D01*
X55026244Y-85023977D01*
X55174078Y-85102995D01*
X55303659Y-85209341D01*
X55410005Y-85338922D01*
X55489023Y-85486756D01*
X55489024Y-85486759D01*
X55489025Y-85486761D01*
X55498644Y-85518471D01*
X55537687Y-85647179D01*
X55554117Y-85814000D01*
X55537687Y-85980821D01*
X55489023Y-86141244D01*
X55410005Y-86289078D01*
X55303659Y-86418659D01*
X55174078Y-86525005D01*
X55026244Y-86604023D01*
X55026241Y-86604024D01*
X55026239Y-86604025D01*
X54865825Y-86652686D01*
X54865824Y-86652686D01*
X54865821Y-86652687D01*
X54740804Y-86665000D01*
X54657196Y-86665000D01*
X54532179Y-86652687D01*
X54532176Y-86652686D01*
X54532175Y-86652686D01*
X54371761Y-86604025D01*
X54371759Y-86604024D01*
X54371756Y-86604023D01*
X54223922Y-86525005D01*
X54094341Y-86418659D01*
X53987995Y-86289078D01*
X53908977Y-86141244D01*
X53860313Y-85980821D01*
X53843883Y-85814000D01*
X53860313Y-85647179D01*
X53899356Y-85518471D01*
X53908975Y-85486761D01*
X53908976Y-85486759D01*
X53908977Y-85486756D01*
X53987995Y-85338922D01*
X54094341Y-85209341D01*
X54223922Y-85102995D01*
X54371756Y-85023977D01*
X54371759Y-85023976D01*
X54371761Y-85023975D01*
X54532175Y-84975314D01*
X54532176Y-84975314D01*
X54532179Y-84975313D01*
X54657196Y-84963000D01*
X54740804Y-84963000D01*
X54865821Y-84975313D01*
X54865821Y-84975313D01*
G37*
G36*
X90425821Y-84975313D02*
X90425824Y-84975314D01*
X90425825Y-84975314D01*
X90586239Y-85023975D01*
X90586241Y-85023976D01*
X90586244Y-85023977D01*
X90734078Y-85102995D01*
X90863659Y-85209341D01*
X90970005Y-85338922D01*
X91049023Y-85486756D01*
X91049024Y-85486759D01*
X91049025Y-85486761D01*
X91058644Y-85518471D01*
X91097687Y-85647179D01*
X91114117Y-85814000D01*
X91097687Y-85980821D01*
X91049023Y-86141244D01*
X90970005Y-86289078D01*
X90863659Y-86418659D01*
X90734078Y-86525005D01*
X90586244Y-86604023D01*
X90586241Y-86604024D01*
X90586239Y-86604025D01*
X90425825Y-86652686D01*
X90425824Y-86652686D01*
X90425821Y-86652687D01*
X90300804Y-86665000D01*
X90217196Y-86665000D01*
X90092179Y-86652687D01*
X90092176Y-86652686D01*
X90092175Y-86652686D01*
X89931761Y-86604025D01*
X89931759Y-86604024D01*
X89931756Y-86604023D01*
X89783922Y-86525005D01*
X89654341Y-86418659D01*
X89547995Y-86289078D01*
X89468977Y-86141244D01*
X89420313Y-85980821D01*
X89403883Y-85814000D01*
X89420313Y-85647179D01*
X89459356Y-85518471D01*
X89468975Y-85486761D01*
X89468976Y-85486759D01*
X89468977Y-85486756D01*
X89547995Y-85338922D01*
X89654341Y-85209341D01*
X89783922Y-85102995D01*
X89931756Y-85023977D01*
X89931759Y-85023976D01*
X89931761Y-85023975D01*
X90092175Y-84975314D01*
X90092176Y-84975314D01*
X90092179Y-84975313D01*
X90217196Y-84963000D01*
X90300804Y-84963000D01*
X90425821Y-84975313D01*
X90425821Y-84975313D01*
G37*
G36*
X87885821Y-84975313D02*
X87885824Y-84975314D01*
X87885825Y-84975314D01*
X88046239Y-85023975D01*
X88046241Y-85023976D01*
X88046244Y-85023977D01*
X88194078Y-85102995D01*
X88323659Y-85209341D01*
X88430005Y-85338922D01*
X88509023Y-85486756D01*
X88509024Y-85486759D01*
X88509025Y-85486761D01*
X88518644Y-85518471D01*
X88557687Y-85647179D01*
X88574117Y-85814000D01*
X88557687Y-85980821D01*
X88509023Y-86141244D01*
X88430005Y-86289078D01*
X88323659Y-86418659D01*
X88194078Y-86525005D01*
X88046244Y-86604023D01*
X88046241Y-86604024D01*
X88046239Y-86604025D01*
X87885825Y-86652686D01*
X87885824Y-86652686D01*
X87885821Y-86652687D01*
X87760804Y-86665000D01*
X87677196Y-86665000D01*
X87552179Y-86652687D01*
X87552176Y-86652686D01*
X87552175Y-86652686D01*
X87391761Y-86604025D01*
X87391759Y-86604024D01*
X87391756Y-86604023D01*
X87243922Y-86525005D01*
X87114341Y-86418659D01*
X87007995Y-86289078D01*
X86928977Y-86141244D01*
X86880313Y-85980821D01*
X86863883Y-85814000D01*
X86880313Y-85647179D01*
X86919356Y-85518471D01*
X86928975Y-85486761D01*
X86928976Y-85486759D01*
X86928977Y-85486756D01*
X87007995Y-85338922D01*
X87114341Y-85209341D01*
X87243922Y-85102995D01*
X87391756Y-85023977D01*
X87391759Y-85023976D01*
X87391761Y-85023975D01*
X87552175Y-84975314D01*
X87552176Y-84975314D01*
X87552179Y-84975313D01*
X87677196Y-84963000D01*
X87760804Y-84963000D01*
X87885821Y-84975313D01*
X87885821Y-84975313D01*
G37*
G36*
X85345821Y-84975313D02*
X85345824Y-84975314D01*
X85345825Y-84975314D01*
X85506239Y-85023975D01*
X85506241Y-85023976D01*
X85506244Y-85023977D01*
X85654078Y-85102995D01*
X85783659Y-85209341D01*
X85890005Y-85338922D01*
X85969023Y-85486756D01*
X85969024Y-85486759D01*
X85969025Y-85486761D01*
X85978644Y-85518471D01*
X86017687Y-85647179D01*
X86034117Y-85814000D01*
X86017687Y-85980821D01*
X85969023Y-86141244D01*
X85890005Y-86289078D01*
X85783659Y-86418659D01*
X85654078Y-86525005D01*
X85506244Y-86604023D01*
X85506241Y-86604024D01*
X85506239Y-86604025D01*
X85345825Y-86652686D01*
X85345824Y-86652686D01*
X85345821Y-86652687D01*
X85220804Y-86665000D01*
X85137196Y-86665000D01*
X85012179Y-86652687D01*
X85012176Y-86652686D01*
X85012175Y-86652686D01*
X84851761Y-86604025D01*
X84851759Y-86604024D01*
X84851756Y-86604023D01*
X84703922Y-86525005D01*
X84574341Y-86418659D01*
X84467995Y-86289078D01*
X84388977Y-86141244D01*
X84340313Y-85980821D01*
X84323883Y-85814000D01*
X84340313Y-85647179D01*
X84379356Y-85518471D01*
X84388975Y-85486761D01*
X84388976Y-85486759D01*
X84388977Y-85486756D01*
X84467995Y-85338922D01*
X84574341Y-85209341D01*
X84703922Y-85102995D01*
X84851756Y-85023977D01*
X84851759Y-85023976D01*
X84851761Y-85023975D01*
X85012175Y-84975314D01*
X85012176Y-84975314D01*
X85012179Y-84975313D01*
X85137196Y-84963000D01*
X85220804Y-84963000D01*
X85345821Y-84975313D01*
X85345821Y-84975313D01*
G37*
G36*
X80265821Y-84975313D02*
X80265824Y-84975314D01*
X80265825Y-84975314D01*
X80426239Y-85023975D01*
X80426241Y-85023976D01*
X80426244Y-85023977D01*
X80574078Y-85102995D01*
X80703659Y-85209341D01*
X80810005Y-85338922D01*
X80889023Y-85486756D01*
X80889024Y-85486759D01*
X80889025Y-85486761D01*
X80898644Y-85518471D01*
X80937687Y-85647179D01*
X80954117Y-85814000D01*
X80937687Y-85980821D01*
X80889023Y-86141244D01*
X80810005Y-86289078D01*
X80703659Y-86418659D01*
X80574078Y-86525005D01*
X80426244Y-86604023D01*
X80426241Y-86604024D01*
X80426239Y-86604025D01*
X80265825Y-86652686D01*
X80265824Y-86652686D01*
X80265821Y-86652687D01*
X80140804Y-86665000D01*
X80057196Y-86665000D01*
X79932179Y-86652687D01*
X79932176Y-86652686D01*
X79932175Y-86652686D01*
X79771761Y-86604025D01*
X79771759Y-86604024D01*
X79771756Y-86604023D01*
X79623922Y-86525005D01*
X79494341Y-86418659D01*
X79387995Y-86289078D01*
X79308977Y-86141244D01*
X79260313Y-85980821D01*
X79243883Y-85814000D01*
X79260313Y-85647179D01*
X79299356Y-85518471D01*
X79308975Y-85486761D01*
X79308976Y-85486759D01*
X79308977Y-85486756D01*
X79387995Y-85338922D01*
X79494341Y-85209341D01*
X79623922Y-85102995D01*
X79771756Y-85023977D01*
X79771759Y-85023976D01*
X79771761Y-85023975D01*
X79932175Y-84975314D01*
X79932176Y-84975314D01*
X79932179Y-84975313D01*
X80057196Y-84963000D01*
X80140804Y-84963000D01*
X80265821Y-84975313D01*
X80265821Y-84975313D01*
G37*
G36*
X77725821Y-84975313D02*
X77725824Y-84975314D01*
X77725825Y-84975314D01*
X77886239Y-85023975D01*
X77886241Y-85023976D01*
X77886244Y-85023977D01*
X78034078Y-85102995D01*
X78163659Y-85209341D01*
X78270005Y-85338922D01*
X78349023Y-85486756D01*
X78349024Y-85486759D01*
X78349025Y-85486761D01*
X78358644Y-85518471D01*
X78397687Y-85647179D01*
X78414117Y-85814000D01*
X78397687Y-85980821D01*
X78349023Y-86141244D01*
X78270005Y-86289078D01*
X78163659Y-86418659D01*
X78034078Y-86525005D01*
X77886244Y-86604023D01*
X77886241Y-86604024D01*
X77886239Y-86604025D01*
X77725825Y-86652686D01*
X77725824Y-86652686D01*
X77725821Y-86652687D01*
X77600804Y-86665000D01*
X77517196Y-86665000D01*
X77392179Y-86652687D01*
X77392176Y-86652686D01*
X77392175Y-86652686D01*
X77231761Y-86604025D01*
X77231759Y-86604024D01*
X77231756Y-86604023D01*
X77083922Y-86525005D01*
X76954341Y-86418659D01*
X76847995Y-86289078D01*
X76768977Y-86141244D01*
X76720313Y-85980821D01*
X76703883Y-85814000D01*
X76720313Y-85647179D01*
X76759356Y-85518471D01*
X76768975Y-85486761D01*
X76768976Y-85486759D01*
X76768977Y-85486756D01*
X76847995Y-85338922D01*
X76954341Y-85209341D01*
X77083922Y-85102995D01*
X77231756Y-85023977D01*
X77231759Y-85023976D01*
X77231761Y-85023975D01*
X77392175Y-84975314D01*
X77392176Y-84975314D01*
X77392179Y-84975313D01*
X77517196Y-84963000D01*
X77600804Y-84963000D01*
X77725821Y-84975313D01*
X77725821Y-84975313D01*
G37*
G36*
X72645821Y-84975313D02*
X72645824Y-84975314D01*
X72645825Y-84975314D01*
X72806239Y-85023975D01*
X72806241Y-85023976D01*
X72806244Y-85023977D01*
X72954078Y-85102995D01*
X73083659Y-85209341D01*
X73190005Y-85338922D01*
X73269023Y-85486756D01*
X73269024Y-85486759D01*
X73269025Y-85486761D01*
X73278644Y-85518471D01*
X73317687Y-85647179D01*
X73334117Y-85814000D01*
X73317687Y-85980821D01*
X73269023Y-86141244D01*
X73190005Y-86289078D01*
X73083659Y-86418659D01*
X72954078Y-86525005D01*
X72806244Y-86604023D01*
X72806241Y-86604024D01*
X72806239Y-86604025D01*
X72645825Y-86652686D01*
X72645824Y-86652686D01*
X72645821Y-86652687D01*
X72520804Y-86665000D01*
X72437196Y-86665000D01*
X72312179Y-86652687D01*
X72312176Y-86652686D01*
X72312175Y-86652686D01*
X72151761Y-86604025D01*
X72151759Y-86604024D01*
X72151756Y-86604023D01*
X72003922Y-86525005D01*
X71874341Y-86418659D01*
X71767995Y-86289078D01*
X71688977Y-86141244D01*
X71640313Y-85980821D01*
X71623883Y-85814000D01*
X71640313Y-85647179D01*
X71679356Y-85518471D01*
X71688975Y-85486761D01*
X71688976Y-85486759D01*
X71688977Y-85486756D01*
X71767995Y-85338922D01*
X71874341Y-85209341D01*
X72003922Y-85102995D01*
X72151756Y-85023977D01*
X72151759Y-85023976D01*
X72151761Y-85023975D01*
X72312175Y-84975314D01*
X72312176Y-84975314D01*
X72312179Y-84975313D01*
X72437196Y-84963000D01*
X72520804Y-84963000D01*
X72645821Y-84975313D01*
X72645821Y-84975313D01*
G37*
G36*
X70105821Y-84975313D02*
X70105824Y-84975314D01*
X70105825Y-84975314D01*
X70266239Y-85023975D01*
X70266241Y-85023976D01*
X70266244Y-85023977D01*
X70414078Y-85102995D01*
X70543659Y-85209341D01*
X70650005Y-85338922D01*
X70729023Y-85486756D01*
X70729024Y-85486759D01*
X70729025Y-85486761D01*
X70738644Y-85518471D01*
X70777687Y-85647179D01*
X70794117Y-85814000D01*
X70777687Y-85980821D01*
X70729023Y-86141244D01*
X70650005Y-86289078D01*
X70543659Y-86418659D01*
X70414078Y-86525005D01*
X70266244Y-86604023D01*
X70266241Y-86604024D01*
X70266239Y-86604025D01*
X70105825Y-86652686D01*
X70105824Y-86652686D01*
X70105821Y-86652687D01*
X69980804Y-86665000D01*
X69897196Y-86665000D01*
X69772179Y-86652687D01*
X69772176Y-86652686D01*
X69772175Y-86652686D01*
X69611761Y-86604025D01*
X69611759Y-86604024D01*
X69611756Y-86604023D01*
X69463922Y-86525005D01*
X69334341Y-86418659D01*
X69227995Y-86289078D01*
X69148977Y-86141244D01*
X69100313Y-85980821D01*
X69083883Y-85814000D01*
X69100313Y-85647179D01*
X69139356Y-85518471D01*
X69148975Y-85486761D01*
X69148976Y-85486759D01*
X69148977Y-85486756D01*
X69227995Y-85338922D01*
X69334341Y-85209341D01*
X69463922Y-85102995D01*
X69611756Y-85023977D01*
X69611759Y-85023976D01*
X69611761Y-85023975D01*
X69772175Y-84975314D01*
X69772176Y-84975314D01*
X69772179Y-84975313D01*
X69897196Y-84963000D01*
X69980804Y-84963000D01*
X70105821Y-84975313D01*
X70105821Y-84975313D01*
G37*
G36*
X57405821Y-84975313D02*
X57405824Y-84975314D01*
X57405825Y-84975314D01*
X57566239Y-85023975D01*
X57566241Y-85023976D01*
X57566244Y-85023977D01*
X57714078Y-85102995D01*
X57843659Y-85209341D01*
X57950005Y-85338922D01*
X58029023Y-85486756D01*
X58029024Y-85486759D01*
X58029025Y-85486761D01*
X58038644Y-85518471D01*
X58077687Y-85647179D01*
X58094117Y-85814000D01*
X58077687Y-85980821D01*
X58029023Y-86141244D01*
X57950005Y-86289078D01*
X57843659Y-86418659D01*
X57714078Y-86525005D01*
X57566244Y-86604023D01*
X57566241Y-86604024D01*
X57566239Y-86604025D01*
X57405825Y-86652686D01*
X57405824Y-86652686D01*
X57405821Y-86652687D01*
X57280804Y-86665000D01*
X57197196Y-86665000D01*
X57072179Y-86652687D01*
X57072176Y-86652686D01*
X57072175Y-86652686D01*
X56911761Y-86604025D01*
X56911759Y-86604024D01*
X56911756Y-86604023D01*
X56763922Y-86525005D01*
X56634341Y-86418659D01*
X56527995Y-86289078D01*
X56448977Y-86141244D01*
X56400313Y-85980821D01*
X56383883Y-85814000D01*
X56400313Y-85647179D01*
X56439356Y-85518471D01*
X56448975Y-85486761D01*
X56448976Y-85486759D01*
X56448977Y-85486756D01*
X56527995Y-85338922D01*
X56634341Y-85209341D01*
X56763922Y-85102995D01*
X56911756Y-85023977D01*
X56911759Y-85023976D01*
X56911761Y-85023975D01*
X57072175Y-84975314D01*
X57072176Y-84975314D01*
X57072179Y-84975313D01*
X57197196Y-84963000D01*
X57280804Y-84963000D01*
X57405821Y-84975313D01*
X57405821Y-84975313D01*
G37*
G36*
X65025821Y-84975313D02*
X65025824Y-84975314D01*
X65025825Y-84975314D01*
X65186239Y-85023975D01*
X65186241Y-85023976D01*
X65186244Y-85023977D01*
X65334078Y-85102995D01*
X65463659Y-85209341D01*
X65570005Y-85338922D01*
X65649023Y-85486756D01*
X65649024Y-85486759D01*
X65649025Y-85486761D01*
X65658644Y-85518471D01*
X65697687Y-85647179D01*
X65714117Y-85814000D01*
X65697687Y-85980821D01*
X65649023Y-86141244D01*
X65570005Y-86289078D01*
X65463659Y-86418659D01*
X65334078Y-86525005D01*
X65186244Y-86604023D01*
X65186241Y-86604024D01*
X65186239Y-86604025D01*
X65025825Y-86652686D01*
X65025824Y-86652686D01*
X65025821Y-86652687D01*
X64900804Y-86665000D01*
X64817196Y-86665000D01*
X64692179Y-86652687D01*
X64692176Y-86652686D01*
X64692175Y-86652686D01*
X64531761Y-86604025D01*
X64531759Y-86604024D01*
X64531756Y-86604023D01*
X64383922Y-86525005D01*
X64254341Y-86418659D01*
X64147995Y-86289078D01*
X64068977Y-86141244D01*
X64020313Y-85980821D01*
X64003883Y-85814000D01*
X64020313Y-85647179D01*
X64059356Y-85518471D01*
X64068975Y-85486761D01*
X64068976Y-85486759D01*
X64068977Y-85486756D01*
X64147995Y-85338922D01*
X64254341Y-85209341D01*
X64383922Y-85102995D01*
X64531756Y-85023977D01*
X64531759Y-85023976D01*
X64531761Y-85023975D01*
X64692175Y-84975314D01*
X64692176Y-84975314D01*
X64692179Y-84975313D01*
X64817196Y-84963000D01*
X64900804Y-84963000D01*
X65025821Y-84975313D01*
X65025821Y-84975313D01*
G37*
G36*
X62485821Y-84975313D02*
X62485824Y-84975314D01*
X62485825Y-84975314D01*
X62646239Y-85023975D01*
X62646241Y-85023976D01*
X62646244Y-85023977D01*
X62794078Y-85102995D01*
X62923659Y-85209341D01*
X63030005Y-85338922D01*
X63109023Y-85486756D01*
X63109024Y-85486759D01*
X63109025Y-85486761D01*
X63118644Y-85518471D01*
X63157687Y-85647179D01*
X63174117Y-85814000D01*
X63157687Y-85980821D01*
X63109023Y-86141244D01*
X63030005Y-86289078D01*
X62923659Y-86418659D01*
X62794078Y-86525005D01*
X62646244Y-86604023D01*
X62646241Y-86604024D01*
X62646239Y-86604025D01*
X62485825Y-86652686D01*
X62485824Y-86652686D01*
X62485821Y-86652687D01*
X62360804Y-86665000D01*
X62277196Y-86665000D01*
X62152179Y-86652687D01*
X62152176Y-86652686D01*
X62152175Y-86652686D01*
X61991761Y-86604025D01*
X61991759Y-86604024D01*
X61991756Y-86604023D01*
X61843922Y-86525005D01*
X61714341Y-86418659D01*
X61607995Y-86289078D01*
X61528977Y-86141244D01*
X61480313Y-85980821D01*
X61463883Y-85814000D01*
X61480313Y-85647179D01*
X61519356Y-85518471D01*
X61528975Y-85486761D01*
X61528976Y-85486759D01*
X61528977Y-85486756D01*
X61607995Y-85338922D01*
X61714341Y-85209341D01*
X61843922Y-85102995D01*
X61991756Y-85023977D01*
X61991759Y-85023976D01*
X61991761Y-85023975D01*
X62152175Y-84975314D01*
X62152176Y-84975314D01*
X62152179Y-84975313D01*
X62277196Y-84963000D01*
X62360804Y-84963000D01*
X62485821Y-84975313D01*
X62485821Y-84975313D01*
G37*
G36*
X59945821Y-84975313D02*
X59945824Y-84975314D01*
X59945825Y-84975314D01*
X60106239Y-85023975D01*
X60106241Y-85023976D01*
X60106244Y-85023977D01*
X60254078Y-85102995D01*
X60383659Y-85209341D01*
X60490005Y-85338922D01*
X60569023Y-85486756D01*
X60569024Y-85486759D01*
X60569025Y-85486761D01*
X60578644Y-85518471D01*
X60617687Y-85647179D01*
X60634117Y-85814000D01*
X60617687Y-85980821D01*
X60569023Y-86141244D01*
X60490005Y-86289078D01*
X60383659Y-86418659D01*
X60254078Y-86525005D01*
X60106244Y-86604023D01*
X60106241Y-86604024D01*
X60106239Y-86604025D01*
X59945825Y-86652686D01*
X59945824Y-86652686D01*
X59945821Y-86652687D01*
X59820804Y-86665000D01*
X59737196Y-86665000D01*
X59612179Y-86652687D01*
X59612176Y-86652686D01*
X59612175Y-86652686D01*
X59451761Y-86604025D01*
X59451759Y-86604024D01*
X59451756Y-86604023D01*
X59303922Y-86525005D01*
X59174341Y-86418659D01*
X59067995Y-86289078D01*
X58988977Y-86141244D01*
X58940313Y-85980821D01*
X58923883Y-85814000D01*
X58940313Y-85647179D01*
X58979356Y-85518471D01*
X58988975Y-85486761D01*
X58988976Y-85486759D01*
X58988977Y-85486756D01*
X59067995Y-85338922D01*
X59174341Y-85209341D01*
X59303922Y-85102995D01*
X59451756Y-85023977D01*
X59451759Y-85023976D01*
X59451761Y-85023975D01*
X59612175Y-84975314D01*
X59612176Y-84975314D01*
X59612179Y-84975313D01*
X59737196Y-84963000D01*
X59820804Y-84963000D01*
X59945821Y-84975313D01*
X59945821Y-84975313D01*
G37*
G36*
X67565821Y-84975313D02*
X67565824Y-84975314D01*
X67565825Y-84975314D01*
X67726239Y-85023975D01*
X67726241Y-85023976D01*
X67726244Y-85023977D01*
X67874078Y-85102995D01*
X68003659Y-85209341D01*
X68110005Y-85338922D01*
X68189023Y-85486756D01*
X68189024Y-85486759D01*
X68189025Y-85486761D01*
X68198644Y-85518471D01*
X68237687Y-85647179D01*
X68254117Y-85814000D01*
X68237687Y-85980821D01*
X68189023Y-86141244D01*
X68110005Y-86289078D01*
X68003659Y-86418659D01*
X67874078Y-86525005D01*
X67726244Y-86604023D01*
X67726241Y-86604024D01*
X67726239Y-86604025D01*
X67565825Y-86652686D01*
X67565824Y-86652686D01*
X67565821Y-86652687D01*
X67440804Y-86665000D01*
X67357196Y-86665000D01*
X67232179Y-86652687D01*
X67232176Y-86652686D01*
X67232175Y-86652686D01*
X67071761Y-86604025D01*
X67071759Y-86604024D01*
X67071756Y-86604023D01*
X66923922Y-86525005D01*
X66794341Y-86418659D01*
X66687995Y-86289078D01*
X66608977Y-86141244D01*
X66560313Y-85980821D01*
X66543883Y-85814000D01*
X66560313Y-85647179D01*
X66599356Y-85518471D01*
X66608975Y-85486761D01*
X66608976Y-85486759D01*
X66608977Y-85486756D01*
X66687995Y-85338922D01*
X66794341Y-85209341D01*
X66923922Y-85102995D01*
X67071756Y-85023977D01*
X67071759Y-85023976D01*
X67071761Y-85023975D01*
X67232175Y-84975314D01*
X67232176Y-84975314D01*
X67232179Y-84975313D01*
X67357196Y-84963000D01*
X67440804Y-84963000D01*
X67565821Y-84975313D01*
X67565821Y-84975313D01*
G37*
G36*
X75185821Y-84975313D02*
X75185824Y-84975314D01*
X75185825Y-84975314D01*
X75346239Y-85023975D01*
X75346241Y-85023976D01*
X75346244Y-85023977D01*
X75494078Y-85102995D01*
X75623659Y-85209341D01*
X75730005Y-85338922D01*
X75809023Y-85486756D01*
X75809024Y-85486759D01*
X75809025Y-85486761D01*
X75818644Y-85518471D01*
X75857687Y-85647179D01*
X75874117Y-85814000D01*
X75857687Y-85980821D01*
X75809023Y-86141244D01*
X75730005Y-86289078D01*
X75623659Y-86418659D01*
X75494078Y-86525005D01*
X75346244Y-86604023D01*
X75346241Y-86604024D01*
X75346239Y-86604025D01*
X75185825Y-86652686D01*
X75185824Y-86652686D01*
X75185821Y-86652687D01*
X75060804Y-86665000D01*
X74977196Y-86665000D01*
X74852179Y-86652687D01*
X74852176Y-86652686D01*
X74852175Y-86652686D01*
X74691761Y-86604025D01*
X74691759Y-86604024D01*
X74691756Y-86604023D01*
X74543922Y-86525005D01*
X74414341Y-86418659D01*
X74307995Y-86289078D01*
X74228977Y-86141244D01*
X74180313Y-85980821D01*
X74163883Y-85814000D01*
X74180313Y-85647179D01*
X74219356Y-85518471D01*
X74228975Y-85486761D01*
X74228976Y-85486759D01*
X74228977Y-85486756D01*
X74307995Y-85338922D01*
X74414341Y-85209341D01*
X74543922Y-85102995D01*
X74691756Y-85023977D01*
X74691759Y-85023976D01*
X74691761Y-85023975D01*
X74852175Y-84975314D01*
X74852176Y-84975314D01*
X74852179Y-84975313D01*
X74977196Y-84963000D01*
X75060804Y-84963000D01*
X75185821Y-84975313D01*
X75185821Y-84975313D01*
G37*
G36*
X97309142Y-84016242D02*
X97457102Y-84077530D01*
X97590258Y-84166502D01*
X97703498Y-84279742D01*
X97792470Y-84412898D01*
X97853758Y-84560858D01*
X97885000Y-84717925D01*
X97885000Y-84878075D01*
X97853758Y-85035142D01*
X97792470Y-85183102D01*
X97747683Y-85250130D01*
X97703499Y-85316257D01*
X97590257Y-85429499D01*
X97579776Y-85436502D01*
X97457102Y-85518470D01*
X97309142Y-85579758D01*
X97152075Y-85611000D01*
X96991925Y-85611000D01*
X96834858Y-85579758D01*
X96686898Y-85518470D01*
X96564224Y-85436502D01*
X96553743Y-85429499D01*
X96440501Y-85316257D01*
X96396317Y-85250130D01*
X96351530Y-85183102D01*
X96290242Y-85035142D01*
X96259000Y-84878075D01*
X96259000Y-84717925D01*
X96290242Y-84560858D01*
X96351530Y-84412898D01*
X96440502Y-84279742D01*
X96553742Y-84166502D01*
X96686898Y-84077530D01*
X96834858Y-84016242D01*
X96991925Y-83985000D01*
X97152075Y-83985000D01*
X97309142Y-84016242D01*
X97309142Y-84016242D01*
G37*
G36*
X106450871Y-81916408D02*
X106755883Y-82042748D01*
X107028538Y-82224930D01*
X107030390Y-82226168D01*
X107263832Y-82459610D01*
X107263834Y-82459613D01*
X107447252Y-82734117D01*
X107573592Y-83039129D01*
X107638000Y-83362928D01*
X107638000Y-83693072D01*
X107573592Y-84016871D01*
X107447252Y-84321883D01*
X107386436Y-84412900D01*
X107263832Y-84596390D01*
X107030390Y-84829832D01*
X107030387Y-84829834D01*
X106755883Y-85013252D01*
X106450871Y-85139592D01*
X106127072Y-85204000D01*
X105796928Y-85204000D01*
X105473129Y-85139592D01*
X105168117Y-85013252D01*
X104893613Y-84829834D01*
X104893610Y-84829832D01*
X104660168Y-84596390D01*
X104537564Y-84412900D01*
X104476748Y-84321883D01*
X104350408Y-84016871D01*
X104286000Y-83693072D01*
X104286000Y-83362928D01*
X104350408Y-83039129D01*
X104476748Y-82734117D01*
X104660166Y-82459613D01*
X104660168Y-82459610D01*
X104893610Y-82226168D01*
X104895462Y-82224930D01*
X105168117Y-82042748D01*
X105473129Y-81916408D01*
X105796928Y-81852000D01*
X106127072Y-81852000D01*
X106450871Y-81916408D01*
X106450871Y-81916408D01*
G37*
G36*
X109312250Y-80210843D02*
X109397322Y-80227765D01*
X109467735Y-80256931D01*
X109637728Y-80327344D01*
X109854092Y-80471914D01*
X110038086Y-80655908D01*
X110182656Y-80872272D01*
X110282235Y-81112679D01*
X110333000Y-81367891D01*
X110333000Y-81628109D01*
X110282235Y-81883321D01*
X110182656Y-82123728D01*
X110038086Y-82340092D01*
X109854092Y-82524086D01*
X109637728Y-82668656D01*
X109479690Y-82734117D01*
X109397322Y-82768235D01*
X109312250Y-82785157D01*
X109142109Y-82819000D01*
X108881891Y-82819000D01*
X108711750Y-82785157D01*
X108626678Y-82768235D01*
X108544310Y-82734117D01*
X108386272Y-82668656D01*
X108169908Y-82524086D01*
X107985914Y-82340092D01*
X107841344Y-82123728D01*
X107741765Y-81883321D01*
X107691000Y-81628109D01*
X107691000Y-81367891D01*
X107741765Y-81112679D01*
X107841344Y-80872272D01*
X107985914Y-80655908D01*
X108169908Y-80471914D01*
X108386272Y-80327344D01*
X108556265Y-80256931D01*
X108626678Y-80227765D01*
X108711750Y-80210843D01*
X108881891Y-80177000D01*
X109142109Y-80177000D01*
X109312250Y-80210843D01*
X109312250Y-80210843D01*
G37*
G36*
X109312250Y-76523843D02*
X109397322Y-76540765D01*
X109467735Y-76569931D01*
X109637728Y-76640344D01*
X109854092Y-76784914D01*
X110038086Y-76968908D01*
X110182656Y-77185272D01*
X110282235Y-77425679D01*
X110333000Y-77680891D01*
X110333000Y-77941109D01*
X110282235Y-78196321D01*
X110182656Y-78436728D01*
X110038086Y-78653092D01*
X109854092Y-78837086D01*
X109637728Y-78981656D01*
X109467735Y-79052069D01*
X109397322Y-79081235D01*
X109312250Y-79098157D01*
X109142109Y-79132000D01*
X108881891Y-79132000D01*
X108711750Y-79098157D01*
X108626678Y-79081235D01*
X108556265Y-79052069D01*
X108386272Y-78981656D01*
X108169908Y-78837086D01*
X107985914Y-78653092D01*
X107841344Y-78436728D01*
X107741765Y-78196321D01*
X107691000Y-77941109D01*
X107691000Y-77680891D01*
X107741765Y-77425679D01*
X107841344Y-77185272D01*
X107985914Y-76968908D01*
X108169908Y-76784914D01*
X108386272Y-76640344D01*
X108556265Y-76569931D01*
X108626678Y-76540765D01*
X108711750Y-76523843D01*
X108881891Y-76490000D01*
X109142109Y-76490000D01*
X109312250Y-76523843D01*
X109312250Y-76523843D01*
G37*
G36*
X106450871Y-74169408D02*
X106755883Y-74295748D01*
X106958189Y-74430925D01*
X107030390Y-74479168D01*
X107263832Y-74712610D01*
X107263834Y-74712613D01*
X107447252Y-74987117D01*
X107573592Y-75292129D01*
X107638000Y-75615928D01*
X107638000Y-75946072D01*
X107573592Y-76269871D01*
X107447252Y-76574883D01*
X107265070Y-76847538D01*
X107263832Y-76849390D01*
X107030390Y-77082832D01*
X107030387Y-77082834D01*
X106755883Y-77266252D01*
X106450871Y-77392592D01*
X106127072Y-77457000D01*
X105796928Y-77457000D01*
X105473129Y-77392592D01*
X105168117Y-77266252D01*
X104893613Y-77082834D01*
X104893610Y-77082832D01*
X104660168Y-76849390D01*
X104658930Y-76847538D01*
X104476748Y-76574883D01*
X104350408Y-76269871D01*
X104286000Y-75946072D01*
X104286000Y-75615928D01*
X104350408Y-75292129D01*
X104476748Y-74987117D01*
X104660166Y-74712613D01*
X104660168Y-74712610D01*
X104893610Y-74479168D01*
X104965811Y-74430925D01*
X105168117Y-74295748D01*
X105473129Y-74169408D01*
X105796928Y-74105000D01*
X106127072Y-74105000D01*
X106450871Y-74169408D01*
X106450871Y-74169408D01*
G37*
G36*
X99849142Y-73729242D02*
X99997102Y-73790530D01*
X100064130Y-73835317D01*
X100130257Y-73879501D01*
X100243499Y-73992743D01*
X100263554Y-74022758D01*
X100332470Y-74125898D01*
X100393758Y-74273858D01*
X100425000Y-74430925D01*
X100425000Y-74591075D01*
X100393758Y-74748142D01*
X100332470Y-74896102D01*
X100243498Y-75029258D01*
X100130258Y-75142498D01*
X99997102Y-75231470D01*
X99849142Y-75292758D01*
X99692075Y-75324000D01*
X99531925Y-75324000D01*
X99374858Y-75292758D01*
X99226898Y-75231470D01*
X99093742Y-75142498D01*
X98980502Y-75029258D01*
X98891530Y-74896102D01*
X98830242Y-74748142D01*
X98799000Y-74591075D01*
X98799000Y-74430925D01*
X98830242Y-74273858D01*
X98891530Y-74125898D01*
X98960446Y-74022758D01*
X98980501Y-73992743D01*
X99093743Y-73879501D01*
X99159870Y-73835317D01*
X99226898Y-73790530D01*
X99374858Y-73729242D01*
X99531925Y-73698000D01*
X99692075Y-73698000D01*
X99849142Y-73729242D01*
X99849142Y-73729242D01*
G37*
G36*
X97309142Y-72459242D02*
X97457102Y-72520530D01*
X97524130Y-72565317D01*
X97590257Y-72609501D01*
X97703499Y-72722743D01*
X97723554Y-72752758D01*
X97792470Y-72855898D01*
X97853758Y-73003858D01*
X97885000Y-73160925D01*
X97885000Y-73321075D01*
X97853758Y-73478142D01*
X97806354Y-73592583D01*
X97792471Y-73626100D01*
X97703499Y-73759257D01*
X97590257Y-73872499D01*
X97579776Y-73879502D01*
X97457102Y-73961470D01*
X97309142Y-74022758D01*
X97152075Y-74054000D01*
X96991925Y-74054000D01*
X96834858Y-74022758D01*
X96686898Y-73961470D01*
X96564224Y-73879502D01*
X96553743Y-73872499D01*
X96440501Y-73759257D01*
X96351529Y-73626100D01*
X96337646Y-73592583D01*
X96290242Y-73478142D01*
X96259000Y-73321075D01*
X96259000Y-73160925D01*
X96290242Y-73003858D01*
X96351530Y-72855898D01*
X96420446Y-72752758D01*
X96440501Y-72722743D01*
X96553743Y-72609501D01*
X96619870Y-72565317D01*
X96686898Y-72520530D01*
X96834858Y-72459242D01*
X96991925Y-72428000D01*
X97152075Y-72428000D01*
X97309142Y-72459242D01*
X97309142Y-72459242D01*
G37*
G36*
X99849142Y-71189242D02*
X99997102Y-71250530D01*
X100048696Y-71285004D01*
X100130257Y-71339501D01*
X100243499Y-71452743D01*
X100263554Y-71482758D01*
X100332470Y-71585898D01*
X100393758Y-71733858D01*
X100425000Y-71890925D01*
X100425000Y-72051075D01*
X100393758Y-72208142D01*
X100346354Y-72322583D01*
X100332471Y-72356100D01*
X100243499Y-72489257D01*
X100130257Y-72602499D01*
X100119776Y-72609502D01*
X99997102Y-72691470D01*
X99849142Y-72752758D01*
X99692075Y-72784000D01*
X99531925Y-72784000D01*
X99374858Y-72752758D01*
X99226898Y-72691470D01*
X99104224Y-72609502D01*
X99093743Y-72602499D01*
X98980501Y-72489257D01*
X98891529Y-72356100D01*
X98877646Y-72322583D01*
X98830242Y-72208142D01*
X98799000Y-72051075D01*
X98799000Y-71890925D01*
X98830242Y-71733858D01*
X98891530Y-71585898D01*
X98960446Y-71482758D01*
X98980501Y-71452743D01*
X99093743Y-71339501D01*
X99175304Y-71285004D01*
X99226898Y-71250530D01*
X99374858Y-71189242D01*
X99531925Y-71158000D01*
X99692075Y-71158000D01*
X99849142Y-71189242D01*
X99849142Y-71189242D01*
G37*
G36*
X97309142Y-69919242D02*
X97457102Y-69980530D01*
X97524130Y-70025317D01*
X97590257Y-70069501D01*
X97703499Y-70182743D01*
X97723554Y-70212758D01*
X97792470Y-70315898D01*
X97853758Y-70463858D01*
X97885000Y-70620925D01*
X97885000Y-70781075D01*
X97853758Y-70938142D01*
X97807806Y-71049078D01*
X97792471Y-71086100D01*
X97703499Y-71219257D01*
X97590257Y-71332499D01*
X97579776Y-71339502D01*
X97457102Y-71421470D01*
X97309142Y-71482758D01*
X97152075Y-71514000D01*
X96991925Y-71514000D01*
X96834858Y-71482758D01*
X96686898Y-71421470D01*
X96564224Y-71339502D01*
X96553743Y-71332499D01*
X96440501Y-71219257D01*
X96351529Y-71086100D01*
X96336194Y-71049078D01*
X96290242Y-70938142D01*
X96259000Y-70781075D01*
X96259000Y-70620925D01*
X96290242Y-70463858D01*
X96351530Y-70315898D01*
X96420446Y-70212758D01*
X96440501Y-70182743D01*
X96553743Y-70069501D01*
X96619870Y-70025317D01*
X96686898Y-69980530D01*
X96834858Y-69919242D01*
X96991925Y-69888000D01*
X97152075Y-69888000D01*
X97309142Y-69919242D01*
X97309142Y-69919242D01*
G37*
G36*
X54865821Y-69735313D02*
X54865824Y-69735314D01*
X54865825Y-69735314D01*
X55026239Y-69783975D01*
X55026241Y-69783976D01*
X55026244Y-69783977D01*
X55174078Y-69862995D01*
X55303659Y-69969341D01*
X55410005Y-70098922D01*
X55489023Y-70246756D01*
X55537687Y-70407179D01*
X55554117Y-70574000D01*
X55537687Y-70740821D01*
X55537686Y-70740824D01*
X55537686Y-70740825D01*
X55525477Y-70781074D01*
X55489023Y-70901244D01*
X55410005Y-71049078D01*
X55303659Y-71178659D01*
X55174078Y-71285005D01*
X55026244Y-71364023D01*
X55026241Y-71364024D01*
X55026239Y-71364025D01*
X54865825Y-71412686D01*
X54865824Y-71412686D01*
X54865821Y-71412687D01*
X54740804Y-71425000D01*
X54657196Y-71425000D01*
X54532179Y-71412687D01*
X54532176Y-71412686D01*
X54532175Y-71412686D01*
X54371761Y-71364025D01*
X54371759Y-71364024D01*
X54371756Y-71364023D01*
X54223922Y-71285005D01*
X54094341Y-71178659D01*
X53987995Y-71049078D01*
X53908977Y-70901244D01*
X53872524Y-70781074D01*
X53860314Y-70740825D01*
X53860314Y-70740824D01*
X53860313Y-70740821D01*
X53843883Y-70574000D01*
X53860313Y-70407179D01*
X53908977Y-70246756D01*
X53987995Y-70098922D01*
X54094341Y-69969341D01*
X54223922Y-69862995D01*
X54371756Y-69783977D01*
X54371759Y-69783976D01*
X54371761Y-69783975D01*
X54532175Y-69735314D01*
X54532176Y-69735314D01*
X54532179Y-69735313D01*
X54657196Y-69723000D01*
X54740804Y-69723000D01*
X54865821Y-69735313D01*
X54865821Y-69735313D01*
G37*
G36*
X57405821Y-69735313D02*
X57405824Y-69735314D01*
X57405825Y-69735314D01*
X57566239Y-69783975D01*
X57566241Y-69783976D01*
X57566244Y-69783977D01*
X57714078Y-69862995D01*
X57843659Y-69969341D01*
X57950005Y-70098922D01*
X58029023Y-70246756D01*
X58077687Y-70407179D01*
X58094117Y-70574000D01*
X58077687Y-70740821D01*
X58077686Y-70740824D01*
X58077686Y-70740825D01*
X58065477Y-70781074D01*
X58029023Y-70901244D01*
X57950005Y-71049078D01*
X57843659Y-71178659D01*
X57714078Y-71285005D01*
X57566244Y-71364023D01*
X57566241Y-71364024D01*
X57566239Y-71364025D01*
X57405825Y-71412686D01*
X57405824Y-71412686D01*
X57405821Y-71412687D01*
X57280804Y-71425000D01*
X57197196Y-71425000D01*
X57072179Y-71412687D01*
X57072176Y-71412686D01*
X57072175Y-71412686D01*
X56911761Y-71364025D01*
X56911759Y-71364024D01*
X56911756Y-71364023D01*
X56763922Y-71285005D01*
X56634341Y-71178659D01*
X56527995Y-71049078D01*
X56448977Y-70901244D01*
X56412524Y-70781074D01*
X56400314Y-70740825D01*
X56400314Y-70740824D01*
X56400313Y-70740821D01*
X56383883Y-70574000D01*
X56400313Y-70407179D01*
X56448977Y-70246756D01*
X56527995Y-70098922D01*
X56634341Y-69969341D01*
X56763922Y-69862995D01*
X56911756Y-69783977D01*
X56911759Y-69783976D01*
X56911761Y-69783975D01*
X57072175Y-69735314D01*
X57072176Y-69735314D01*
X57072179Y-69735313D01*
X57197196Y-69723000D01*
X57280804Y-69723000D01*
X57405821Y-69735313D01*
X57405821Y-69735313D01*
G37*
G36*
X59945821Y-69735313D02*
X59945824Y-69735314D01*
X59945825Y-69735314D01*
X60106239Y-69783975D01*
X60106241Y-69783976D01*
X60106244Y-69783977D01*
X60254078Y-69862995D01*
X60383659Y-69969341D01*
X60490005Y-70098922D01*
X60569023Y-70246756D01*
X60617687Y-70407179D01*
X60634117Y-70574000D01*
X60617687Y-70740821D01*
X60617686Y-70740824D01*
X60617686Y-70740825D01*
X60605477Y-70781074D01*
X60569023Y-70901244D01*
X60490005Y-71049078D01*
X60383659Y-71178659D01*
X60254078Y-71285005D01*
X60106244Y-71364023D01*
X60106241Y-71364024D01*
X60106239Y-71364025D01*
X59945825Y-71412686D01*
X59945824Y-71412686D01*
X59945821Y-71412687D01*
X59820804Y-71425000D01*
X59737196Y-71425000D01*
X59612179Y-71412687D01*
X59612176Y-71412686D01*
X59612175Y-71412686D01*
X59451761Y-71364025D01*
X59451759Y-71364024D01*
X59451756Y-71364023D01*
X59303922Y-71285005D01*
X59174341Y-71178659D01*
X59067995Y-71049078D01*
X58988977Y-70901244D01*
X58952524Y-70781074D01*
X58940314Y-70740825D01*
X58940314Y-70740824D01*
X58940313Y-70740821D01*
X58923883Y-70574000D01*
X58940313Y-70407179D01*
X58988977Y-70246756D01*
X59067995Y-70098922D01*
X59174341Y-69969341D01*
X59303922Y-69862995D01*
X59451756Y-69783977D01*
X59451759Y-69783976D01*
X59451761Y-69783975D01*
X59612175Y-69735314D01*
X59612176Y-69735314D01*
X59612179Y-69735313D01*
X59737196Y-69723000D01*
X59820804Y-69723000D01*
X59945821Y-69735313D01*
X59945821Y-69735313D01*
G37*
G36*
X80265821Y-69735313D02*
X80265824Y-69735314D01*
X80265825Y-69735314D01*
X80426239Y-69783975D01*
X80426241Y-69783976D01*
X80426244Y-69783977D01*
X80574078Y-69862995D01*
X80703659Y-69969341D01*
X80810005Y-70098922D01*
X80889023Y-70246756D01*
X80937687Y-70407179D01*
X80954117Y-70574000D01*
X80937687Y-70740821D01*
X80937686Y-70740824D01*
X80937686Y-70740825D01*
X80925477Y-70781074D01*
X80889023Y-70901244D01*
X80810005Y-71049078D01*
X80703659Y-71178659D01*
X80574078Y-71285005D01*
X80426244Y-71364023D01*
X80426241Y-71364024D01*
X80426239Y-71364025D01*
X80265825Y-71412686D01*
X80265824Y-71412686D01*
X80265821Y-71412687D01*
X80140804Y-71425000D01*
X80057196Y-71425000D01*
X79932179Y-71412687D01*
X79932176Y-71412686D01*
X79932175Y-71412686D01*
X79771761Y-71364025D01*
X79771759Y-71364024D01*
X79771756Y-71364023D01*
X79623922Y-71285005D01*
X79494341Y-71178659D01*
X79387995Y-71049078D01*
X79308977Y-70901244D01*
X79272524Y-70781074D01*
X79260314Y-70740825D01*
X79260314Y-70740824D01*
X79260313Y-70740821D01*
X79243883Y-70574000D01*
X79260313Y-70407179D01*
X79308977Y-70246756D01*
X79387995Y-70098922D01*
X79494341Y-69969341D01*
X79623922Y-69862995D01*
X79771756Y-69783977D01*
X79771759Y-69783976D01*
X79771761Y-69783975D01*
X79932175Y-69735314D01*
X79932176Y-69735314D01*
X79932179Y-69735313D01*
X80057196Y-69723000D01*
X80140804Y-69723000D01*
X80265821Y-69735313D01*
X80265821Y-69735313D01*
G37*
G36*
X91110000Y-71425000D02*
X89408000Y-71425000D01*
X89408000Y-69723000D01*
X91110000Y-69723000D01*
X91110000Y-71425000D01*
X91110000Y-71425000D01*
G37*
G36*
X62485821Y-69735313D02*
X62485824Y-69735314D01*
X62485825Y-69735314D01*
X62646239Y-69783975D01*
X62646241Y-69783976D01*
X62646244Y-69783977D01*
X62794078Y-69862995D01*
X62923659Y-69969341D01*
X63030005Y-70098922D01*
X63109023Y-70246756D01*
X63157687Y-70407179D01*
X63174117Y-70574000D01*
X63157687Y-70740821D01*
X63157686Y-70740824D01*
X63157686Y-70740825D01*
X63145477Y-70781074D01*
X63109023Y-70901244D01*
X63030005Y-71049078D01*
X62923659Y-71178659D01*
X62794078Y-71285005D01*
X62646244Y-71364023D01*
X62646241Y-71364024D01*
X62646239Y-71364025D01*
X62485825Y-71412686D01*
X62485824Y-71412686D01*
X62485821Y-71412687D01*
X62360804Y-71425000D01*
X62277196Y-71425000D01*
X62152179Y-71412687D01*
X62152176Y-71412686D01*
X62152175Y-71412686D01*
X61991761Y-71364025D01*
X61991759Y-71364024D01*
X61991756Y-71364023D01*
X61843922Y-71285005D01*
X61714341Y-71178659D01*
X61607995Y-71049078D01*
X61528977Y-70901244D01*
X61492524Y-70781074D01*
X61480314Y-70740825D01*
X61480314Y-70740824D01*
X61480313Y-70740821D01*
X61463883Y-70574000D01*
X61480313Y-70407179D01*
X61528977Y-70246756D01*
X61607995Y-70098922D01*
X61714341Y-69969341D01*
X61843922Y-69862995D01*
X61991756Y-69783977D01*
X61991759Y-69783976D01*
X61991761Y-69783975D01*
X62152175Y-69735314D01*
X62152176Y-69735314D01*
X62152179Y-69735313D01*
X62277196Y-69723000D01*
X62360804Y-69723000D01*
X62485821Y-69735313D01*
X62485821Y-69735313D01*
G37*
G36*
X87885821Y-69735313D02*
X87885824Y-69735314D01*
X87885825Y-69735314D01*
X88046239Y-69783975D01*
X88046241Y-69783976D01*
X88046244Y-69783977D01*
X88194078Y-69862995D01*
X88323659Y-69969341D01*
X88430005Y-70098922D01*
X88509023Y-70246756D01*
X88557687Y-70407179D01*
X88574117Y-70574000D01*
X88557687Y-70740821D01*
X88557686Y-70740824D01*
X88557686Y-70740825D01*
X88545477Y-70781074D01*
X88509023Y-70901244D01*
X88430005Y-71049078D01*
X88323659Y-71178659D01*
X88194078Y-71285005D01*
X88046244Y-71364023D01*
X88046241Y-71364024D01*
X88046239Y-71364025D01*
X87885825Y-71412686D01*
X87885824Y-71412686D01*
X87885821Y-71412687D01*
X87760804Y-71425000D01*
X87677196Y-71425000D01*
X87552179Y-71412687D01*
X87552176Y-71412686D01*
X87552175Y-71412686D01*
X87391761Y-71364025D01*
X87391759Y-71364024D01*
X87391756Y-71364023D01*
X87243922Y-71285005D01*
X87114341Y-71178659D01*
X87007995Y-71049078D01*
X86928977Y-70901244D01*
X86892524Y-70781074D01*
X86880314Y-70740825D01*
X86880314Y-70740824D01*
X86880313Y-70740821D01*
X86863883Y-70574000D01*
X86880313Y-70407179D01*
X86928977Y-70246756D01*
X87007995Y-70098922D01*
X87114341Y-69969341D01*
X87243922Y-69862995D01*
X87391756Y-69783977D01*
X87391759Y-69783976D01*
X87391761Y-69783975D01*
X87552175Y-69735314D01*
X87552176Y-69735314D01*
X87552179Y-69735313D01*
X87677196Y-69723000D01*
X87760804Y-69723000D01*
X87885821Y-69735313D01*
X87885821Y-69735313D01*
G37*
G36*
X65025821Y-69735313D02*
X65025824Y-69735314D01*
X65025825Y-69735314D01*
X65186239Y-69783975D01*
X65186241Y-69783976D01*
X65186244Y-69783977D01*
X65334078Y-69862995D01*
X65463659Y-69969341D01*
X65570005Y-70098922D01*
X65649023Y-70246756D01*
X65697687Y-70407179D01*
X65714117Y-70574000D01*
X65697687Y-70740821D01*
X65697686Y-70740824D01*
X65697686Y-70740825D01*
X65685477Y-70781074D01*
X65649023Y-70901244D01*
X65570005Y-71049078D01*
X65463659Y-71178659D01*
X65334078Y-71285005D01*
X65186244Y-71364023D01*
X65186241Y-71364024D01*
X65186239Y-71364025D01*
X65025825Y-71412686D01*
X65025824Y-71412686D01*
X65025821Y-71412687D01*
X64900804Y-71425000D01*
X64817196Y-71425000D01*
X64692179Y-71412687D01*
X64692176Y-71412686D01*
X64692175Y-71412686D01*
X64531761Y-71364025D01*
X64531759Y-71364024D01*
X64531756Y-71364023D01*
X64383922Y-71285005D01*
X64254341Y-71178659D01*
X64147995Y-71049078D01*
X64068977Y-70901244D01*
X64032524Y-70781074D01*
X64020314Y-70740825D01*
X64020314Y-70740824D01*
X64020313Y-70740821D01*
X64003883Y-70574000D01*
X64020313Y-70407179D01*
X64068977Y-70246756D01*
X64147995Y-70098922D01*
X64254341Y-69969341D01*
X64383922Y-69862995D01*
X64531756Y-69783977D01*
X64531759Y-69783976D01*
X64531761Y-69783975D01*
X64692175Y-69735314D01*
X64692176Y-69735314D01*
X64692179Y-69735313D01*
X64817196Y-69723000D01*
X64900804Y-69723000D01*
X65025821Y-69735313D01*
X65025821Y-69735313D01*
G37*
G36*
X67565821Y-69735313D02*
X67565824Y-69735314D01*
X67565825Y-69735314D01*
X67726239Y-69783975D01*
X67726241Y-69783976D01*
X67726244Y-69783977D01*
X67874078Y-69862995D01*
X68003659Y-69969341D01*
X68110005Y-70098922D01*
X68189023Y-70246756D01*
X68237687Y-70407179D01*
X68254117Y-70574000D01*
X68237687Y-70740821D01*
X68237686Y-70740824D01*
X68237686Y-70740825D01*
X68225477Y-70781074D01*
X68189023Y-70901244D01*
X68110005Y-71049078D01*
X68003659Y-71178659D01*
X67874078Y-71285005D01*
X67726244Y-71364023D01*
X67726241Y-71364024D01*
X67726239Y-71364025D01*
X67565825Y-71412686D01*
X67565824Y-71412686D01*
X67565821Y-71412687D01*
X67440804Y-71425000D01*
X67357196Y-71425000D01*
X67232179Y-71412687D01*
X67232176Y-71412686D01*
X67232175Y-71412686D01*
X67071761Y-71364025D01*
X67071759Y-71364024D01*
X67071756Y-71364023D01*
X66923922Y-71285005D01*
X66794341Y-71178659D01*
X66687995Y-71049078D01*
X66608977Y-70901244D01*
X66572524Y-70781074D01*
X66560314Y-70740825D01*
X66560314Y-70740824D01*
X66560313Y-70740821D01*
X66543883Y-70574000D01*
X66560313Y-70407179D01*
X66608977Y-70246756D01*
X66687995Y-70098922D01*
X66794341Y-69969341D01*
X66923922Y-69862995D01*
X67071756Y-69783977D01*
X67071759Y-69783976D01*
X67071761Y-69783975D01*
X67232175Y-69735314D01*
X67232176Y-69735314D01*
X67232179Y-69735313D01*
X67357196Y-69723000D01*
X67440804Y-69723000D01*
X67565821Y-69735313D01*
X67565821Y-69735313D01*
G37*
G36*
X85345821Y-69735313D02*
X85345824Y-69735314D01*
X85345825Y-69735314D01*
X85506239Y-69783975D01*
X85506241Y-69783976D01*
X85506244Y-69783977D01*
X85654078Y-69862995D01*
X85783659Y-69969341D01*
X85890005Y-70098922D01*
X85969023Y-70246756D01*
X86017687Y-70407179D01*
X86034117Y-70574000D01*
X86017687Y-70740821D01*
X86017686Y-70740824D01*
X86017686Y-70740825D01*
X86005477Y-70781074D01*
X85969023Y-70901244D01*
X85890005Y-71049078D01*
X85783659Y-71178659D01*
X85654078Y-71285005D01*
X85506244Y-71364023D01*
X85506241Y-71364024D01*
X85506239Y-71364025D01*
X85345825Y-71412686D01*
X85345824Y-71412686D01*
X85345821Y-71412687D01*
X85220804Y-71425000D01*
X85137196Y-71425000D01*
X85012179Y-71412687D01*
X85012176Y-71412686D01*
X85012175Y-71412686D01*
X84851761Y-71364025D01*
X84851759Y-71364024D01*
X84851756Y-71364023D01*
X84703922Y-71285005D01*
X84574341Y-71178659D01*
X84467995Y-71049078D01*
X84388977Y-70901244D01*
X84352524Y-70781074D01*
X84340314Y-70740825D01*
X84340314Y-70740824D01*
X84340313Y-70740821D01*
X84323883Y-70574000D01*
X84340313Y-70407179D01*
X84388977Y-70246756D01*
X84467995Y-70098922D01*
X84574341Y-69969341D01*
X84703922Y-69862995D01*
X84851756Y-69783977D01*
X84851759Y-69783976D01*
X84851761Y-69783975D01*
X85012175Y-69735314D01*
X85012176Y-69735314D01*
X85012179Y-69735313D01*
X85137196Y-69723000D01*
X85220804Y-69723000D01*
X85345821Y-69735313D01*
X85345821Y-69735313D01*
G37*
G36*
X75185821Y-69735313D02*
X75185824Y-69735314D01*
X75185825Y-69735314D01*
X75346239Y-69783975D01*
X75346241Y-69783976D01*
X75346244Y-69783977D01*
X75494078Y-69862995D01*
X75623659Y-69969341D01*
X75730005Y-70098922D01*
X75809023Y-70246756D01*
X75857687Y-70407179D01*
X75874117Y-70574000D01*
X75857687Y-70740821D01*
X75857686Y-70740824D01*
X75857686Y-70740825D01*
X75845477Y-70781074D01*
X75809023Y-70901244D01*
X75730005Y-71049078D01*
X75623659Y-71178659D01*
X75494078Y-71285005D01*
X75346244Y-71364023D01*
X75346241Y-71364024D01*
X75346239Y-71364025D01*
X75185825Y-71412686D01*
X75185824Y-71412686D01*
X75185821Y-71412687D01*
X75060804Y-71425000D01*
X74977196Y-71425000D01*
X74852179Y-71412687D01*
X74852176Y-71412686D01*
X74852175Y-71412686D01*
X74691761Y-71364025D01*
X74691759Y-71364024D01*
X74691756Y-71364023D01*
X74543922Y-71285005D01*
X74414341Y-71178659D01*
X74307995Y-71049078D01*
X74228977Y-70901244D01*
X74192524Y-70781074D01*
X74180314Y-70740825D01*
X74180314Y-70740824D01*
X74180313Y-70740821D01*
X74163883Y-70574000D01*
X74180313Y-70407179D01*
X74228977Y-70246756D01*
X74307995Y-70098922D01*
X74414341Y-69969341D01*
X74543922Y-69862995D01*
X74691756Y-69783977D01*
X74691759Y-69783976D01*
X74691761Y-69783975D01*
X74852175Y-69735314D01*
X74852176Y-69735314D01*
X74852179Y-69735313D01*
X74977196Y-69723000D01*
X75060804Y-69723000D01*
X75185821Y-69735313D01*
X75185821Y-69735313D01*
G37*
G36*
X77725821Y-69735313D02*
X77725824Y-69735314D01*
X77725825Y-69735314D01*
X77886239Y-69783975D01*
X77886241Y-69783976D01*
X77886244Y-69783977D01*
X78034078Y-69862995D01*
X78163659Y-69969341D01*
X78270005Y-70098922D01*
X78349023Y-70246756D01*
X78397687Y-70407179D01*
X78414117Y-70574000D01*
X78397687Y-70740821D01*
X78397686Y-70740824D01*
X78397686Y-70740825D01*
X78385477Y-70781074D01*
X78349023Y-70901244D01*
X78270005Y-71049078D01*
X78163659Y-71178659D01*
X78034078Y-71285005D01*
X77886244Y-71364023D01*
X77886241Y-71364024D01*
X77886239Y-71364025D01*
X77725825Y-71412686D01*
X77725824Y-71412686D01*
X77725821Y-71412687D01*
X77600804Y-71425000D01*
X77517196Y-71425000D01*
X77392179Y-71412687D01*
X77392176Y-71412686D01*
X77392175Y-71412686D01*
X77231761Y-71364025D01*
X77231759Y-71364024D01*
X77231756Y-71364023D01*
X77083922Y-71285005D01*
X76954341Y-71178659D01*
X76847995Y-71049078D01*
X76768977Y-70901244D01*
X76732524Y-70781074D01*
X76720314Y-70740825D01*
X76720314Y-70740824D01*
X76720313Y-70740821D01*
X76703883Y-70574000D01*
X76720313Y-70407179D01*
X76768977Y-70246756D01*
X76847995Y-70098922D01*
X76954341Y-69969341D01*
X77083922Y-69862995D01*
X77231756Y-69783977D01*
X77231759Y-69783976D01*
X77231761Y-69783975D01*
X77392175Y-69735314D01*
X77392176Y-69735314D01*
X77392179Y-69735313D01*
X77517196Y-69723000D01*
X77600804Y-69723000D01*
X77725821Y-69735313D01*
X77725821Y-69735313D01*
G37*
G36*
X72645821Y-69735313D02*
X72645824Y-69735314D01*
X72645825Y-69735314D01*
X72806239Y-69783975D01*
X72806241Y-69783976D01*
X72806244Y-69783977D01*
X72954078Y-69862995D01*
X73083659Y-69969341D01*
X73190005Y-70098922D01*
X73269023Y-70246756D01*
X73317687Y-70407179D01*
X73334117Y-70574000D01*
X73317687Y-70740821D01*
X73317686Y-70740824D01*
X73317686Y-70740825D01*
X73305477Y-70781074D01*
X73269023Y-70901244D01*
X73190005Y-71049078D01*
X73083659Y-71178659D01*
X72954078Y-71285005D01*
X72806244Y-71364023D01*
X72806241Y-71364024D01*
X72806239Y-71364025D01*
X72645825Y-71412686D01*
X72645824Y-71412686D01*
X72645821Y-71412687D01*
X72520804Y-71425000D01*
X72437196Y-71425000D01*
X72312179Y-71412687D01*
X72312176Y-71412686D01*
X72312175Y-71412686D01*
X72151761Y-71364025D01*
X72151759Y-71364024D01*
X72151756Y-71364023D01*
X72003922Y-71285005D01*
X71874341Y-71178659D01*
X71767995Y-71049078D01*
X71688977Y-70901244D01*
X71652524Y-70781074D01*
X71640314Y-70740825D01*
X71640314Y-70740824D01*
X71640313Y-70740821D01*
X71623883Y-70574000D01*
X71640313Y-70407179D01*
X71688977Y-70246756D01*
X71767995Y-70098922D01*
X71874341Y-69969341D01*
X72003922Y-69862995D01*
X72151756Y-69783977D01*
X72151759Y-69783976D01*
X72151761Y-69783975D01*
X72312175Y-69735314D01*
X72312176Y-69735314D01*
X72312179Y-69735313D01*
X72437196Y-69723000D01*
X72520804Y-69723000D01*
X72645821Y-69735313D01*
X72645821Y-69735313D01*
G37*
G36*
X70105821Y-69735313D02*
X70105824Y-69735314D01*
X70105825Y-69735314D01*
X70266239Y-69783975D01*
X70266241Y-69783976D01*
X70266244Y-69783977D01*
X70414078Y-69862995D01*
X70543659Y-69969341D01*
X70650005Y-70098922D01*
X70729023Y-70246756D01*
X70777687Y-70407179D01*
X70794117Y-70574000D01*
X70777687Y-70740821D01*
X70777686Y-70740824D01*
X70777686Y-70740825D01*
X70765477Y-70781074D01*
X70729023Y-70901244D01*
X70650005Y-71049078D01*
X70543659Y-71178659D01*
X70414078Y-71285005D01*
X70266244Y-71364023D01*
X70266241Y-71364024D01*
X70266239Y-71364025D01*
X70105825Y-71412686D01*
X70105824Y-71412686D01*
X70105821Y-71412687D01*
X69980804Y-71425000D01*
X69897196Y-71425000D01*
X69772179Y-71412687D01*
X69772176Y-71412686D01*
X69772175Y-71412686D01*
X69611761Y-71364025D01*
X69611759Y-71364024D01*
X69611756Y-71364023D01*
X69463922Y-71285005D01*
X69334341Y-71178659D01*
X69227995Y-71049078D01*
X69148977Y-70901244D01*
X69112524Y-70781074D01*
X69100314Y-70740825D01*
X69100314Y-70740824D01*
X69100313Y-70740821D01*
X69083883Y-70574000D01*
X69100313Y-70407179D01*
X69148977Y-70246756D01*
X69227995Y-70098922D01*
X69334341Y-69969341D01*
X69463922Y-69862995D01*
X69611756Y-69783977D01*
X69611759Y-69783976D01*
X69611761Y-69783975D01*
X69772175Y-69735314D01*
X69772176Y-69735314D01*
X69772179Y-69735313D01*
X69897196Y-69723000D01*
X69980804Y-69723000D01*
X70105821Y-69735313D01*
X70105821Y-69735313D01*
G37*
G36*
X82805821Y-69735313D02*
X82805824Y-69735314D01*
X82805825Y-69735314D01*
X82966239Y-69783975D01*
X82966241Y-69783976D01*
X82966244Y-69783977D01*
X83114078Y-69862995D01*
X83243659Y-69969341D01*
X83350005Y-70098922D01*
X83429023Y-70246756D01*
X83477687Y-70407179D01*
X83494117Y-70574000D01*
X83477687Y-70740821D01*
X83477686Y-70740824D01*
X83477686Y-70740825D01*
X83465477Y-70781074D01*
X83429023Y-70901244D01*
X83350005Y-71049078D01*
X83243659Y-71178659D01*
X83114078Y-71285005D01*
X82966244Y-71364023D01*
X82966241Y-71364024D01*
X82966239Y-71364025D01*
X82805825Y-71412686D01*
X82805824Y-71412686D01*
X82805821Y-71412687D01*
X82680804Y-71425000D01*
X82597196Y-71425000D01*
X82472179Y-71412687D01*
X82472176Y-71412686D01*
X82472175Y-71412686D01*
X82311761Y-71364025D01*
X82311759Y-71364024D01*
X82311756Y-71364023D01*
X82163922Y-71285005D01*
X82034341Y-71178659D01*
X81927995Y-71049078D01*
X81848977Y-70901244D01*
X81812524Y-70781074D01*
X81800314Y-70740825D01*
X81800314Y-70740824D01*
X81800313Y-70740821D01*
X81783883Y-70574000D01*
X81800313Y-70407179D01*
X81848977Y-70246756D01*
X81927995Y-70098922D01*
X82034341Y-69969341D01*
X82163922Y-69862995D01*
X82311756Y-69783977D01*
X82311759Y-69783976D01*
X82311761Y-69783975D01*
X82472175Y-69735314D01*
X82472176Y-69735314D01*
X82472179Y-69735313D01*
X82597196Y-69723000D01*
X82680804Y-69723000D01*
X82805821Y-69735313D01*
X82805821Y-69735313D01*
G37*
G36*
X99849142Y-68649242D02*
X99997102Y-68710530D01*
X100064130Y-68755317D01*
X100130257Y-68799501D01*
X100243499Y-68912743D01*
X100263554Y-68942758D01*
X100332470Y-69045898D01*
X100393758Y-69193858D01*
X100425000Y-69350925D01*
X100425000Y-69511075D01*
X100393758Y-69668142D01*
X100365934Y-69735313D01*
X100332471Y-69816100D01*
X100243499Y-69949257D01*
X100130257Y-70062499D01*
X100119776Y-70069502D01*
X99997102Y-70151470D01*
X99849142Y-70212758D01*
X99692075Y-70244000D01*
X99531925Y-70244000D01*
X99374858Y-70212758D01*
X99226898Y-70151470D01*
X99104224Y-70069502D01*
X99093743Y-70062499D01*
X98980501Y-69949257D01*
X98891529Y-69816100D01*
X98858066Y-69735313D01*
X98830242Y-69668142D01*
X98799000Y-69511075D01*
X98799000Y-69350925D01*
X98830242Y-69193858D01*
X98891530Y-69045898D01*
X98960446Y-68942758D01*
X98980501Y-68912743D01*
X99093743Y-68799501D01*
X99159870Y-68755317D01*
X99226898Y-68710530D01*
X99374858Y-68649242D01*
X99531925Y-68618000D01*
X99692075Y-68618000D01*
X99849142Y-68649242D01*
X99849142Y-68649242D01*
G37*
G36*
X97309142Y-67379242D02*
X97457102Y-67440530D01*
X97524130Y-67485317D01*
X97590257Y-67529501D01*
X97703499Y-67642743D01*
X97723554Y-67672758D01*
X97792470Y-67775898D01*
X97853758Y-67923858D01*
X97885000Y-68080925D01*
X97885000Y-68241075D01*
X97853758Y-68398142D01*
X97806354Y-68512583D01*
X97792471Y-68546100D01*
X97703499Y-68679257D01*
X97590257Y-68792499D01*
X97579776Y-68799502D01*
X97457102Y-68881470D01*
X97309142Y-68942758D01*
X97152075Y-68974000D01*
X96991925Y-68974000D01*
X96834858Y-68942758D01*
X96686898Y-68881470D01*
X96564224Y-68799502D01*
X96553743Y-68792499D01*
X96440501Y-68679257D01*
X96351529Y-68546100D01*
X96337646Y-68512583D01*
X96290242Y-68398142D01*
X96259000Y-68241075D01*
X96259000Y-68080925D01*
X96290242Y-67923858D01*
X96351530Y-67775898D01*
X96420446Y-67672758D01*
X96440501Y-67642743D01*
X96553743Y-67529501D01*
X96619870Y-67485317D01*
X96686898Y-67440530D01*
X96834858Y-67379242D01*
X96991925Y-67348000D01*
X97152075Y-67348000D01*
X97309142Y-67379242D01*
X97309142Y-67379242D01*
G37*
G36*
X99849142Y-66109242D02*
X99997102Y-66170530D01*
X100064130Y-66215317D01*
X100130257Y-66259501D01*
X100243499Y-66372743D01*
X100263554Y-66402758D01*
X100332470Y-66505898D01*
X100393758Y-66653858D01*
X100425000Y-66810925D01*
X100425000Y-66971075D01*
X100393758Y-67128142D01*
X100346354Y-67242583D01*
X100332471Y-67276100D01*
X100243499Y-67409257D01*
X100130257Y-67522499D01*
X100119776Y-67529502D01*
X99997102Y-67611470D01*
X99849142Y-67672758D01*
X99692075Y-67704000D01*
X99531925Y-67704000D01*
X99374858Y-67672758D01*
X99226898Y-67611470D01*
X99104224Y-67529502D01*
X99093743Y-67522499D01*
X98980501Y-67409257D01*
X98891529Y-67276100D01*
X98877646Y-67242583D01*
X98830242Y-67128142D01*
X98799000Y-66971075D01*
X98799000Y-66810925D01*
X98830242Y-66653858D01*
X98891530Y-66505898D01*
X98960446Y-66402758D01*
X98980501Y-66372743D01*
X99093743Y-66259501D01*
X99159870Y-66215317D01*
X99226898Y-66170530D01*
X99374858Y-66109242D01*
X99531925Y-66078000D01*
X99692075Y-66078000D01*
X99849142Y-66109242D01*
X99849142Y-66109242D01*
G37*
G36*
X97309142Y-64839242D02*
X97457102Y-64900530D01*
X97590258Y-64989502D01*
X97703498Y-65102742D01*
X97792470Y-65235898D01*
X97853758Y-65383858D01*
X97885000Y-65540925D01*
X97885000Y-65701075D01*
X97853758Y-65858142D01*
X97810493Y-65962592D01*
X97792471Y-66006100D01*
X97703499Y-66139257D01*
X97590257Y-66252499D01*
X97579776Y-66259502D01*
X97457102Y-66341470D01*
X97309142Y-66402758D01*
X97152075Y-66434000D01*
X96991925Y-66434000D01*
X96834858Y-66402758D01*
X96686898Y-66341470D01*
X96564224Y-66259502D01*
X96553743Y-66252499D01*
X96440501Y-66139257D01*
X96351529Y-66006100D01*
X96333507Y-65962592D01*
X96290242Y-65858142D01*
X96259000Y-65701075D01*
X96259000Y-65540925D01*
X96290242Y-65383858D01*
X96351530Y-65235898D01*
X96440502Y-65102742D01*
X96553742Y-64989502D01*
X96686898Y-64900530D01*
X96834858Y-64839242D01*
X96991925Y-64808000D01*
X97152075Y-64808000D01*
X97309142Y-64839242D01*
X97309142Y-64839242D01*
G37*
G36*
X106450871Y-62739408D02*
X106755883Y-62865748D01*
X107028538Y-63047930D01*
X107030390Y-63049168D01*
X107263832Y-63282610D01*
X107263834Y-63282613D01*
X107447252Y-63557117D01*
X107573592Y-63862129D01*
X107638000Y-64185928D01*
X107638000Y-64516072D01*
X107573592Y-64839871D01*
X107447252Y-65144883D01*
X107386436Y-65235900D01*
X107263832Y-65419390D01*
X107030390Y-65652832D01*
X107030387Y-65652834D01*
X106755883Y-65836252D01*
X106703033Y-65858143D01*
X106450871Y-65962592D01*
X106127072Y-66027000D01*
X105796928Y-66027000D01*
X105473129Y-65962592D01*
X105220967Y-65858143D01*
X105168117Y-65836252D01*
X104893613Y-65652834D01*
X104893610Y-65652832D01*
X104660168Y-65419390D01*
X104537564Y-65235900D01*
X104476748Y-65144883D01*
X104350408Y-64839871D01*
X104286000Y-64516072D01*
X104286000Y-64185928D01*
X104350408Y-63862129D01*
X104476748Y-63557117D01*
X104660166Y-63282613D01*
X104660168Y-63282610D01*
X104893610Y-63049168D01*
X104895462Y-63047930D01*
X105168117Y-62865748D01*
X105473129Y-62739408D01*
X105796928Y-62675000D01*
X106127072Y-62675000D01*
X106450871Y-62739408D01*
X106450871Y-62739408D01*
G37*
G36*
X109312250Y-61033843D02*
X109397322Y-61050765D01*
X109467735Y-61079931D01*
X109637728Y-61150344D01*
X109854092Y-61294914D01*
X110038086Y-61478908D01*
X110182656Y-61695272D01*
X110282235Y-61935679D01*
X110333000Y-62190891D01*
X110333000Y-62451109D01*
X110282235Y-62706321D01*
X110182656Y-62946728D01*
X110038086Y-63163092D01*
X109854092Y-63347086D01*
X109637728Y-63491656D01*
X109479690Y-63557117D01*
X109397322Y-63591235D01*
X109312250Y-63608157D01*
X109142109Y-63642000D01*
X108881891Y-63642000D01*
X108711750Y-63608157D01*
X108626678Y-63591235D01*
X108544310Y-63557117D01*
X108386272Y-63491656D01*
X108169908Y-63347086D01*
X107985914Y-63163092D01*
X107841344Y-62946728D01*
X107741765Y-62706321D01*
X107691000Y-62451109D01*
X107691000Y-62190891D01*
X107741765Y-61935679D01*
X107841344Y-61695272D01*
X107985914Y-61478908D01*
X108169908Y-61294914D01*
X108386272Y-61150344D01*
X108556265Y-61079931D01*
X108626678Y-61050765D01*
X108711750Y-61033843D01*
X108881891Y-61000000D01*
X109142109Y-61000000D01*
X109312250Y-61033843D01*
X109312250Y-61033843D01*
G37*
G36*
X74820442Y-51675518D02*
X74886627Y-51682037D01*
X74999853Y-51716384D01*
X75056467Y-51733557D01*
X75195087Y-51807652D01*
X75212991Y-51817222D01*
X75248729Y-51846552D01*
X75350186Y-51929814D01*
X75433448Y-52031271D01*
X75462778Y-52067009D01*
X75462779Y-52067011D01*
X75546443Y-52223533D01*
X75546443Y-52223534D01*
X75597963Y-52393373D01*
X75615359Y-52570000D01*
X75597963Y-52746627D01*
X75563616Y-52859853D01*
X75546443Y-52916467D01*
X75474533Y-53051000D01*
X75462778Y-53072991D01*
X75433448Y-53108729D01*
X75350186Y-53210186D01*
X75248729Y-53293448D01*
X75212991Y-53322778D01*
X75212989Y-53322779D01*
X75056467Y-53406443D01*
X74999853Y-53423616D01*
X74886627Y-53457963D01*
X74820443Y-53464481D01*
X74754260Y-53471000D01*
X74665740Y-53471000D01*
X74599557Y-53464481D01*
X74533373Y-53457963D01*
X74420147Y-53423616D01*
X74363533Y-53406443D01*
X74207011Y-53322779D01*
X74207009Y-53322778D01*
X74171271Y-53293448D01*
X74069814Y-53210186D01*
X73986552Y-53108729D01*
X73957222Y-53072991D01*
X73945467Y-53051000D01*
X73873557Y-52916467D01*
X73856384Y-52859853D01*
X73822037Y-52746627D01*
X73804641Y-52570000D01*
X73822037Y-52393373D01*
X73873557Y-52223534D01*
X73873557Y-52223533D01*
X73957221Y-52067011D01*
X73957222Y-52067009D01*
X73986552Y-52031271D01*
X74069814Y-51929814D01*
X74171271Y-51846552D01*
X74207009Y-51817222D01*
X74224913Y-51807652D01*
X74363533Y-51733557D01*
X74420147Y-51716384D01*
X74533373Y-51682037D01*
X74599558Y-51675518D01*
X74665740Y-51669000D01*
X74754260Y-51669000D01*
X74820442Y-51675518D01*
X74820442Y-51675518D01*
G37*
G36*
X72280442Y-51675518D02*
X72346627Y-51682037D01*
X72459853Y-51716384D01*
X72516467Y-51733557D01*
X72655087Y-51807652D01*
X72672991Y-51817222D01*
X72708729Y-51846552D01*
X72810186Y-51929814D01*
X72893448Y-52031271D01*
X72922778Y-52067009D01*
X72922779Y-52067011D01*
X73006443Y-52223533D01*
X73006443Y-52223534D01*
X73057963Y-52393373D01*
X73075359Y-52570000D01*
X73057963Y-52746627D01*
X73023616Y-52859853D01*
X73006443Y-52916467D01*
X72934533Y-53051000D01*
X72922778Y-53072991D01*
X72893448Y-53108729D01*
X72810186Y-53210186D01*
X72708729Y-53293448D01*
X72672991Y-53322778D01*
X72672989Y-53322779D01*
X72516467Y-53406443D01*
X72459853Y-53423616D01*
X72346627Y-53457963D01*
X72280443Y-53464481D01*
X72214260Y-53471000D01*
X72125740Y-53471000D01*
X72059557Y-53464481D01*
X71993373Y-53457963D01*
X71880147Y-53423616D01*
X71823533Y-53406443D01*
X71667011Y-53322779D01*
X71667009Y-53322778D01*
X71631271Y-53293448D01*
X71529814Y-53210186D01*
X71446552Y-53108729D01*
X71417222Y-53072991D01*
X71405467Y-53051000D01*
X71333557Y-52916467D01*
X71316384Y-52859853D01*
X71282037Y-52746627D01*
X71264641Y-52570000D01*
X71282037Y-52393373D01*
X71333557Y-52223534D01*
X71333557Y-52223533D01*
X71417221Y-52067011D01*
X71417222Y-52067009D01*
X71446552Y-52031271D01*
X71529814Y-51929814D01*
X71631271Y-51846552D01*
X71667009Y-51817222D01*
X71684913Y-51807652D01*
X71823533Y-51733557D01*
X71880147Y-51716384D01*
X71993373Y-51682037D01*
X72059558Y-51675518D01*
X72125740Y-51669000D01*
X72214260Y-51669000D01*
X72280442Y-51675518D01*
X72280442Y-51675518D01*
G37*
G36*
X69740442Y-51675518D02*
X69806627Y-51682037D01*
X69919853Y-51716384D01*
X69976467Y-51733557D01*
X70115087Y-51807652D01*
X70132991Y-51817222D01*
X70168729Y-51846552D01*
X70270186Y-51929814D01*
X70353448Y-52031271D01*
X70382778Y-52067009D01*
X70382779Y-52067011D01*
X70466443Y-52223533D01*
X70466443Y-52223534D01*
X70517963Y-52393373D01*
X70535359Y-52570000D01*
X70517963Y-52746627D01*
X70483616Y-52859853D01*
X70466443Y-52916467D01*
X70394533Y-53051000D01*
X70382778Y-53072991D01*
X70353448Y-53108729D01*
X70270186Y-53210186D01*
X70168729Y-53293448D01*
X70132991Y-53322778D01*
X70132989Y-53322779D01*
X69976467Y-53406443D01*
X69919853Y-53423616D01*
X69806627Y-53457963D01*
X69740443Y-53464481D01*
X69674260Y-53471000D01*
X69585740Y-53471000D01*
X69519557Y-53464481D01*
X69453373Y-53457963D01*
X69340147Y-53423616D01*
X69283533Y-53406443D01*
X69127011Y-53322779D01*
X69127009Y-53322778D01*
X69091271Y-53293448D01*
X68989814Y-53210186D01*
X68906552Y-53108729D01*
X68877222Y-53072991D01*
X68865467Y-53051000D01*
X68793557Y-52916467D01*
X68776384Y-52859853D01*
X68742037Y-52746627D01*
X68724641Y-52570000D01*
X68742037Y-52393373D01*
X68793557Y-52223534D01*
X68793557Y-52223533D01*
X68877221Y-52067011D01*
X68877222Y-52067009D01*
X68906552Y-52031271D01*
X68989814Y-51929814D01*
X69091271Y-51846552D01*
X69127009Y-51817222D01*
X69144913Y-51807652D01*
X69283533Y-51733557D01*
X69340147Y-51716384D01*
X69453373Y-51682037D01*
X69519558Y-51675518D01*
X69585740Y-51669000D01*
X69674260Y-51669000D01*
X69740442Y-51675518D01*
X69740442Y-51675518D01*
G37*
G36*
X77360442Y-51675518D02*
X77426627Y-51682037D01*
X77539853Y-51716384D01*
X77596467Y-51733557D01*
X77735087Y-51807652D01*
X77752991Y-51817222D01*
X77788729Y-51846552D01*
X77890186Y-51929814D01*
X77973448Y-52031271D01*
X78002778Y-52067009D01*
X78002779Y-52067011D01*
X78086443Y-52223533D01*
X78086443Y-52223534D01*
X78137963Y-52393373D01*
X78155359Y-52570000D01*
X78137963Y-52746627D01*
X78103616Y-52859853D01*
X78086443Y-52916467D01*
X78014533Y-53051000D01*
X78002778Y-53072991D01*
X77973448Y-53108729D01*
X77890186Y-53210186D01*
X77788729Y-53293448D01*
X77752991Y-53322778D01*
X77752989Y-53322779D01*
X77596467Y-53406443D01*
X77539853Y-53423616D01*
X77426627Y-53457963D01*
X77360443Y-53464481D01*
X77294260Y-53471000D01*
X77205740Y-53471000D01*
X77139557Y-53464481D01*
X77073373Y-53457963D01*
X76960147Y-53423616D01*
X76903533Y-53406443D01*
X76747011Y-53322779D01*
X76747009Y-53322778D01*
X76711271Y-53293448D01*
X76609814Y-53210186D01*
X76526552Y-53108729D01*
X76497222Y-53072991D01*
X76485467Y-53051000D01*
X76413557Y-52916467D01*
X76396384Y-52859853D01*
X76362037Y-52746627D01*
X76344641Y-52570000D01*
X76362037Y-52393373D01*
X76413557Y-52223534D01*
X76413557Y-52223533D01*
X76497221Y-52067011D01*
X76497222Y-52067009D01*
X76526552Y-52031271D01*
X76609814Y-51929814D01*
X76711271Y-51846552D01*
X76747009Y-51817222D01*
X76764913Y-51807652D01*
X76903533Y-51733557D01*
X76960147Y-51716384D01*
X77073373Y-51682037D01*
X77139558Y-51675518D01*
X77205740Y-51669000D01*
X77294260Y-51669000D01*
X77360442Y-51675518D01*
X77360442Y-51675518D01*
G37*
G36*
X79900442Y-51675518D02*
X79966627Y-51682037D01*
X80079853Y-51716384D01*
X80136467Y-51733557D01*
X80275087Y-51807652D01*
X80292991Y-51817222D01*
X80328729Y-51846552D01*
X80430186Y-51929814D01*
X80513448Y-52031271D01*
X80542778Y-52067009D01*
X80542779Y-52067011D01*
X80626443Y-52223533D01*
X80626443Y-52223534D01*
X80677963Y-52393373D01*
X80695359Y-52570000D01*
X80677963Y-52746627D01*
X80643616Y-52859853D01*
X80626443Y-52916467D01*
X80554533Y-53051000D01*
X80542778Y-53072991D01*
X80513448Y-53108729D01*
X80430186Y-53210186D01*
X80328729Y-53293448D01*
X80292991Y-53322778D01*
X80292989Y-53322779D01*
X80136467Y-53406443D01*
X80079853Y-53423616D01*
X79966627Y-53457963D01*
X79900443Y-53464481D01*
X79834260Y-53471000D01*
X79745740Y-53471000D01*
X79679557Y-53464481D01*
X79613373Y-53457963D01*
X79500147Y-53423616D01*
X79443533Y-53406443D01*
X79287011Y-53322779D01*
X79287009Y-53322778D01*
X79251271Y-53293448D01*
X79149814Y-53210186D01*
X79066552Y-53108729D01*
X79037222Y-53072991D01*
X79025467Y-53051000D01*
X78953557Y-52916467D01*
X78936384Y-52859853D01*
X78902037Y-52746627D01*
X78884641Y-52570000D01*
X78902037Y-52393373D01*
X78953557Y-52223534D01*
X78953557Y-52223533D01*
X79037221Y-52067011D01*
X79037222Y-52067009D01*
X79066552Y-52031271D01*
X79149814Y-51929814D01*
X79251271Y-51846552D01*
X79287009Y-51817222D01*
X79304913Y-51807652D01*
X79443533Y-51733557D01*
X79500147Y-51716384D01*
X79613373Y-51682037D01*
X79679558Y-51675518D01*
X79745740Y-51669000D01*
X79834260Y-51669000D01*
X79900442Y-51675518D01*
X79900442Y-51675518D01*
G37*
G36*
X64660442Y-51675518D02*
X64726627Y-51682037D01*
X64839853Y-51716384D01*
X64896467Y-51733557D01*
X65035087Y-51807652D01*
X65052991Y-51817222D01*
X65088729Y-51846552D01*
X65190186Y-51929814D01*
X65273448Y-52031271D01*
X65302778Y-52067009D01*
X65302779Y-52067011D01*
X65386443Y-52223533D01*
X65386443Y-52223534D01*
X65437963Y-52393373D01*
X65455359Y-52570000D01*
X65437963Y-52746627D01*
X65403616Y-52859853D01*
X65386443Y-52916467D01*
X65314533Y-53051000D01*
X65302778Y-53072991D01*
X65273448Y-53108729D01*
X65190186Y-53210186D01*
X65088729Y-53293448D01*
X65052991Y-53322778D01*
X65052989Y-53322779D01*
X64896467Y-53406443D01*
X64839853Y-53423616D01*
X64726627Y-53457963D01*
X64660443Y-53464481D01*
X64594260Y-53471000D01*
X64505740Y-53471000D01*
X64439557Y-53464481D01*
X64373373Y-53457963D01*
X64260147Y-53423616D01*
X64203533Y-53406443D01*
X64047011Y-53322779D01*
X64047009Y-53322778D01*
X64011271Y-53293448D01*
X63909814Y-53210186D01*
X63826552Y-53108729D01*
X63797222Y-53072991D01*
X63785467Y-53051000D01*
X63713557Y-52916467D01*
X63696384Y-52859853D01*
X63662037Y-52746627D01*
X63644641Y-52570000D01*
X63662037Y-52393373D01*
X63713557Y-52223534D01*
X63713557Y-52223533D01*
X63797221Y-52067011D01*
X63797222Y-52067009D01*
X63826552Y-52031271D01*
X63909814Y-51929814D01*
X64011271Y-51846552D01*
X64047009Y-51817222D01*
X64064913Y-51807652D01*
X64203533Y-51733557D01*
X64260147Y-51716384D01*
X64373373Y-51682037D01*
X64439558Y-51675518D01*
X64505740Y-51669000D01*
X64594260Y-51669000D01*
X64660442Y-51675518D01*
X64660442Y-51675518D01*
G37*
G36*
X82440442Y-51675518D02*
X82506627Y-51682037D01*
X82619853Y-51716384D01*
X82676467Y-51733557D01*
X82815087Y-51807652D01*
X82832991Y-51817222D01*
X82868729Y-51846552D01*
X82970186Y-51929814D01*
X83053448Y-52031271D01*
X83082778Y-52067009D01*
X83082779Y-52067011D01*
X83166443Y-52223533D01*
X83166443Y-52223534D01*
X83217963Y-52393373D01*
X83235359Y-52570000D01*
X83217963Y-52746627D01*
X83183616Y-52859853D01*
X83166443Y-52916467D01*
X83094533Y-53051000D01*
X83082778Y-53072991D01*
X83053448Y-53108729D01*
X82970186Y-53210186D01*
X82868729Y-53293448D01*
X82832991Y-53322778D01*
X82832989Y-53322779D01*
X82676467Y-53406443D01*
X82619853Y-53423616D01*
X82506627Y-53457963D01*
X82440443Y-53464481D01*
X82374260Y-53471000D01*
X82285740Y-53471000D01*
X82219557Y-53464481D01*
X82153373Y-53457963D01*
X82040147Y-53423616D01*
X81983533Y-53406443D01*
X81827011Y-53322779D01*
X81827009Y-53322778D01*
X81791271Y-53293448D01*
X81689814Y-53210186D01*
X81606552Y-53108729D01*
X81577222Y-53072991D01*
X81565467Y-53051000D01*
X81493557Y-52916467D01*
X81476384Y-52859853D01*
X81442037Y-52746627D01*
X81424641Y-52570000D01*
X81442037Y-52393373D01*
X81493557Y-52223534D01*
X81493557Y-52223533D01*
X81577221Y-52067011D01*
X81577222Y-52067009D01*
X81606552Y-52031271D01*
X81689814Y-51929814D01*
X81791271Y-51846552D01*
X81827009Y-51817222D01*
X81844913Y-51807652D01*
X81983533Y-51733557D01*
X82040147Y-51716384D01*
X82153373Y-51682037D01*
X82219558Y-51675518D01*
X82285740Y-51669000D01*
X82374260Y-51669000D01*
X82440442Y-51675518D01*
X82440442Y-51675518D01*
G37*
G36*
X60371000Y-53471000D02*
X58569000Y-53471000D01*
X58569000Y-51669000D01*
X60371000Y-51669000D01*
X60371000Y-53471000D01*
X60371000Y-53471000D01*
G37*
G36*
X62120442Y-51675518D02*
X62186627Y-51682037D01*
X62299853Y-51716384D01*
X62356467Y-51733557D01*
X62495087Y-51807652D01*
X62512991Y-51817222D01*
X62548729Y-51846552D01*
X62650186Y-51929814D01*
X62733448Y-52031271D01*
X62762778Y-52067009D01*
X62762779Y-52067011D01*
X62846443Y-52223533D01*
X62846443Y-52223534D01*
X62897963Y-52393373D01*
X62915359Y-52570000D01*
X62897963Y-52746627D01*
X62863616Y-52859853D01*
X62846443Y-52916467D01*
X62774533Y-53051000D01*
X62762778Y-53072991D01*
X62733448Y-53108729D01*
X62650186Y-53210186D01*
X62548729Y-53293448D01*
X62512991Y-53322778D01*
X62512989Y-53322779D01*
X62356467Y-53406443D01*
X62299853Y-53423616D01*
X62186627Y-53457963D01*
X62120443Y-53464481D01*
X62054260Y-53471000D01*
X61965740Y-53471000D01*
X61899557Y-53464481D01*
X61833373Y-53457963D01*
X61720147Y-53423616D01*
X61663533Y-53406443D01*
X61507011Y-53322779D01*
X61507009Y-53322778D01*
X61471271Y-53293448D01*
X61369814Y-53210186D01*
X61286552Y-53108729D01*
X61257222Y-53072991D01*
X61245467Y-53051000D01*
X61173557Y-52916467D01*
X61156384Y-52859853D01*
X61122037Y-52746627D01*
X61104641Y-52570000D01*
X61122037Y-52393373D01*
X61173557Y-52223534D01*
X61173557Y-52223533D01*
X61257221Y-52067011D01*
X61257222Y-52067009D01*
X61286552Y-52031271D01*
X61369814Y-51929814D01*
X61471271Y-51846552D01*
X61507009Y-51817222D01*
X61524913Y-51807652D01*
X61663533Y-51733557D01*
X61720147Y-51716384D01*
X61833373Y-51682037D01*
X61899558Y-51675518D01*
X61965740Y-51669000D01*
X62054260Y-51669000D01*
X62120442Y-51675518D01*
X62120442Y-51675518D01*
G37*
G36*
X67200442Y-51675518D02*
X67266627Y-51682037D01*
X67379853Y-51716384D01*
X67436467Y-51733557D01*
X67575087Y-51807652D01*
X67592991Y-51817222D01*
X67628729Y-51846552D01*
X67730186Y-51929814D01*
X67813448Y-52031271D01*
X67842778Y-52067009D01*
X67842779Y-52067011D01*
X67926443Y-52223533D01*
X67926443Y-52223534D01*
X67977963Y-52393373D01*
X67995359Y-52570000D01*
X67977963Y-52746627D01*
X67943616Y-52859853D01*
X67926443Y-52916467D01*
X67854533Y-53051000D01*
X67842778Y-53072991D01*
X67813448Y-53108729D01*
X67730186Y-53210186D01*
X67628729Y-53293448D01*
X67592991Y-53322778D01*
X67592989Y-53322779D01*
X67436467Y-53406443D01*
X67379853Y-53423616D01*
X67266627Y-53457963D01*
X67200443Y-53464481D01*
X67134260Y-53471000D01*
X67045740Y-53471000D01*
X66979557Y-53464481D01*
X66913373Y-53457963D01*
X66800147Y-53423616D01*
X66743533Y-53406443D01*
X66587011Y-53322779D01*
X66587009Y-53322778D01*
X66551271Y-53293448D01*
X66449814Y-53210186D01*
X66366552Y-53108729D01*
X66337222Y-53072991D01*
X66325467Y-53051000D01*
X66253557Y-52916467D01*
X66236384Y-52859853D01*
X66202037Y-52746627D01*
X66184641Y-52570000D01*
X66202037Y-52393373D01*
X66253557Y-52223534D01*
X66253557Y-52223533D01*
X66337221Y-52067011D01*
X66337222Y-52067009D01*
X66366552Y-52031271D01*
X66449814Y-51929814D01*
X66551271Y-51846552D01*
X66587009Y-51817222D01*
X66604913Y-51807652D01*
X66743533Y-51733557D01*
X66800147Y-51716384D01*
X66913373Y-51682037D01*
X66979558Y-51675518D01*
X67045740Y-51669000D01*
X67134260Y-51669000D01*
X67200442Y-51675518D01*
X67200442Y-51675518D01*
G37*
G36*
X50889941Y-47066248D02*
X50889943Y-47066249D01*
X50889944Y-47066249D01*
X51445190Y-47296239D01*
X51445191Y-47296240D01*
X51944902Y-47630136D01*
X52369864Y-48055098D01*
X52369866Y-48055101D01*
X52703761Y-48554810D01*
X52933751Y-49110056D01*
X52933752Y-49110059D01*
X53051000Y-49699501D01*
X53051000Y-50300499D01*
X53004755Y-50532989D01*
X52933751Y-50889944D01*
X52703761Y-51445190D01*
X52703760Y-51445191D01*
X52369864Y-51944902D01*
X51944902Y-52369864D01*
X51944899Y-52369866D01*
X51445190Y-52703761D01*
X50889944Y-52933751D01*
X50889943Y-52933751D01*
X50889941Y-52933752D01*
X50300499Y-53051000D01*
X49699501Y-53051000D01*
X49110059Y-52933752D01*
X49110057Y-52933751D01*
X49110056Y-52933751D01*
X48554810Y-52703761D01*
X48055101Y-52369866D01*
X48055098Y-52369864D01*
X47630136Y-51944902D01*
X47296240Y-51445191D01*
X47296239Y-51445190D01*
X47066249Y-50889944D01*
X46995246Y-50532989D01*
X46949000Y-50300499D01*
X46949000Y-49699501D01*
X47066248Y-49110059D01*
X47066249Y-49110056D01*
X47296239Y-48554810D01*
X47630134Y-48055101D01*
X47630136Y-48055098D01*
X48055098Y-47630136D01*
X48554809Y-47296240D01*
X48554810Y-47296239D01*
X49110056Y-47066249D01*
X49110057Y-47066249D01*
X49110059Y-47066248D01*
X49699501Y-46949000D01*
X50300499Y-46949000D01*
X50889941Y-47066248D01*
X50889941Y-47066248D01*
G37*
G36*
X114089941Y-47066248D02*
X114089943Y-47066249D01*
X114089944Y-47066249D01*
X114645190Y-47296239D01*
X114645191Y-47296240D01*
X115144902Y-47630136D01*
X115569864Y-48055098D01*
X115569866Y-48055101D01*
X115903761Y-48554810D01*
X116133751Y-49110056D01*
X116133752Y-49110059D01*
X116251000Y-49699501D01*
X116251000Y-50300499D01*
X116204755Y-50532989D01*
X116133751Y-50889944D01*
X115903761Y-51445190D01*
X115903760Y-51445191D01*
X115569864Y-51944902D01*
X115144902Y-52369864D01*
X115144899Y-52369866D01*
X114645190Y-52703761D01*
X114089944Y-52933751D01*
X114089943Y-52933751D01*
X114089941Y-52933752D01*
X113500499Y-53051000D01*
X112899501Y-53051000D01*
X112310059Y-52933752D01*
X112310057Y-52933751D01*
X112310056Y-52933751D01*
X111754810Y-52703761D01*
X111255101Y-52369866D01*
X111255098Y-52369864D01*
X110830136Y-51944902D01*
X110496240Y-51445191D01*
X110496239Y-51445190D01*
X110266249Y-50889944D01*
X110195246Y-50532989D01*
X110149000Y-50300499D01*
X110149000Y-49699501D01*
X110266248Y-49110059D01*
X110266249Y-49110056D01*
X110496239Y-48554810D01*
X110830134Y-48055101D01*
X110830136Y-48055098D01*
X111255098Y-47630136D01*
X111754809Y-47296240D01*
X111754810Y-47296239D01*
X112310056Y-47066249D01*
X112310057Y-47066249D01*
X112310059Y-47066248D01*
X112899501Y-46949000D01*
X113500499Y-46949000D01*
X114089941Y-47066248D01*
X114089941Y-47066248D01*
G37*
G36*
X79900443Y-49135519D02*
X79966627Y-49142037D01*
X80079853Y-49176384D01*
X80136467Y-49193557D01*
X80275087Y-49267652D01*
X80292991Y-49277222D01*
X80328729Y-49306552D01*
X80430186Y-49389814D01*
X80513448Y-49491271D01*
X80542778Y-49527009D01*
X80542779Y-49527011D01*
X80626443Y-49683533D01*
X80626443Y-49683534D01*
X80677963Y-49853373D01*
X80695359Y-50030000D01*
X80677963Y-50206627D01*
X80649488Y-50300497D01*
X80626443Y-50376467D01*
X80552348Y-50515087D01*
X80542778Y-50532991D01*
X80513448Y-50568729D01*
X80430186Y-50670186D01*
X80328729Y-50753448D01*
X80292991Y-50782778D01*
X80292989Y-50782779D01*
X80136467Y-50866443D01*
X80079853Y-50883616D01*
X79966627Y-50917963D01*
X79900442Y-50924482D01*
X79834260Y-50931000D01*
X79745740Y-50931000D01*
X79679558Y-50924482D01*
X79613373Y-50917963D01*
X79500147Y-50883616D01*
X79443533Y-50866443D01*
X79287011Y-50782779D01*
X79287009Y-50782778D01*
X79251271Y-50753448D01*
X79149814Y-50670186D01*
X79066552Y-50568729D01*
X79037222Y-50532991D01*
X79027652Y-50515087D01*
X78953557Y-50376467D01*
X78930512Y-50300497D01*
X78902037Y-50206627D01*
X78884641Y-50030000D01*
X78902037Y-49853373D01*
X78953557Y-49683534D01*
X78953557Y-49683533D01*
X79037221Y-49527011D01*
X79037222Y-49527009D01*
X79066552Y-49491271D01*
X79149814Y-49389814D01*
X79251271Y-49306552D01*
X79287009Y-49277222D01*
X79304913Y-49267652D01*
X79443533Y-49193557D01*
X79500147Y-49176384D01*
X79613373Y-49142037D01*
X79679557Y-49135519D01*
X79745740Y-49129000D01*
X79834260Y-49129000D01*
X79900443Y-49135519D01*
X79900443Y-49135519D01*
G37*
G36*
X77360443Y-49135519D02*
X77426627Y-49142037D01*
X77539853Y-49176384D01*
X77596467Y-49193557D01*
X77735087Y-49267652D01*
X77752991Y-49277222D01*
X77788729Y-49306552D01*
X77890186Y-49389814D01*
X77973448Y-49491271D01*
X78002778Y-49527009D01*
X78002779Y-49527011D01*
X78086443Y-49683533D01*
X78086443Y-49683534D01*
X78137963Y-49853373D01*
X78155359Y-50030000D01*
X78137963Y-50206627D01*
X78109488Y-50300497D01*
X78086443Y-50376467D01*
X78012348Y-50515087D01*
X78002778Y-50532991D01*
X77973448Y-50568729D01*
X77890186Y-50670186D01*
X77788729Y-50753448D01*
X77752991Y-50782778D01*
X77752989Y-50782779D01*
X77596467Y-50866443D01*
X77539853Y-50883616D01*
X77426627Y-50917963D01*
X77360442Y-50924482D01*
X77294260Y-50931000D01*
X77205740Y-50931000D01*
X77139558Y-50924482D01*
X77073373Y-50917963D01*
X76960147Y-50883616D01*
X76903533Y-50866443D01*
X76747011Y-50782779D01*
X76747009Y-50782778D01*
X76711271Y-50753448D01*
X76609814Y-50670186D01*
X76526552Y-50568729D01*
X76497222Y-50532991D01*
X76487652Y-50515087D01*
X76413557Y-50376467D01*
X76390512Y-50300497D01*
X76362037Y-50206627D01*
X76344641Y-50030000D01*
X76362037Y-49853373D01*
X76413557Y-49683534D01*
X76413557Y-49683533D01*
X76497221Y-49527011D01*
X76497222Y-49527009D01*
X76526552Y-49491271D01*
X76609814Y-49389814D01*
X76711271Y-49306552D01*
X76747009Y-49277222D01*
X76764913Y-49267652D01*
X76903533Y-49193557D01*
X76960147Y-49176384D01*
X77073373Y-49142037D01*
X77139557Y-49135519D01*
X77205740Y-49129000D01*
X77294260Y-49129000D01*
X77360443Y-49135519D01*
X77360443Y-49135519D01*
G37*
G36*
X74820443Y-49135519D02*
X74886627Y-49142037D01*
X74999853Y-49176384D01*
X75056467Y-49193557D01*
X75195087Y-49267652D01*
X75212991Y-49277222D01*
X75248729Y-49306552D01*
X75350186Y-49389814D01*
X75433448Y-49491271D01*
X75462778Y-49527009D01*
X75462779Y-49527011D01*
X75546443Y-49683533D01*
X75546443Y-49683534D01*
X75597963Y-49853373D01*
X75615359Y-50030000D01*
X75597963Y-50206627D01*
X75569488Y-50300497D01*
X75546443Y-50376467D01*
X75472348Y-50515087D01*
X75462778Y-50532991D01*
X75433448Y-50568729D01*
X75350186Y-50670186D01*
X75248729Y-50753448D01*
X75212991Y-50782778D01*
X75212989Y-50782779D01*
X75056467Y-50866443D01*
X74999853Y-50883616D01*
X74886627Y-50917963D01*
X74820442Y-50924482D01*
X74754260Y-50931000D01*
X74665740Y-50931000D01*
X74599558Y-50924482D01*
X74533373Y-50917963D01*
X74420147Y-50883616D01*
X74363533Y-50866443D01*
X74207011Y-50782779D01*
X74207009Y-50782778D01*
X74171271Y-50753448D01*
X74069814Y-50670186D01*
X73986552Y-50568729D01*
X73957222Y-50532991D01*
X73947652Y-50515087D01*
X73873557Y-50376467D01*
X73850512Y-50300497D01*
X73822037Y-50206627D01*
X73804641Y-50030000D01*
X73822037Y-49853373D01*
X73873557Y-49683534D01*
X73873557Y-49683533D01*
X73957221Y-49527011D01*
X73957222Y-49527009D01*
X73986552Y-49491271D01*
X74069814Y-49389814D01*
X74171271Y-49306552D01*
X74207009Y-49277222D01*
X74224913Y-49267652D01*
X74363533Y-49193557D01*
X74420147Y-49176384D01*
X74533373Y-49142037D01*
X74599557Y-49135519D01*
X74665740Y-49129000D01*
X74754260Y-49129000D01*
X74820443Y-49135519D01*
X74820443Y-49135519D01*
G37*
G36*
X72280443Y-49135519D02*
X72346627Y-49142037D01*
X72459853Y-49176384D01*
X72516467Y-49193557D01*
X72655087Y-49267652D01*
X72672991Y-49277222D01*
X72708729Y-49306552D01*
X72810186Y-49389814D01*
X72893448Y-49491271D01*
X72922778Y-49527009D01*
X72922779Y-49527011D01*
X73006443Y-49683533D01*
X73006443Y-49683534D01*
X73057963Y-49853373D01*
X73075359Y-50030000D01*
X73057963Y-50206627D01*
X73029488Y-50300497D01*
X73006443Y-50376467D01*
X72932348Y-50515087D01*
X72922778Y-50532991D01*
X72893448Y-50568729D01*
X72810186Y-50670186D01*
X72708729Y-50753448D01*
X72672991Y-50782778D01*
X72672989Y-50782779D01*
X72516467Y-50866443D01*
X72459853Y-50883616D01*
X72346627Y-50917963D01*
X72280442Y-50924482D01*
X72214260Y-50931000D01*
X72125740Y-50931000D01*
X72059558Y-50924482D01*
X71993373Y-50917963D01*
X71880147Y-50883616D01*
X71823533Y-50866443D01*
X71667011Y-50782779D01*
X71667009Y-50782778D01*
X71631271Y-50753448D01*
X71529814Y-50670186D01*
X71446552Y-50568729D01*
X71417222Y-50532991D01*
X71407652Y-50515087D01*
X71333557Y-50376467D01*
X71310512Y-50300497D01*
X71282037Y-50206627D01*
X71264641Y-50030000D01*
X71282037Y-49853373D01*
X71333557Y-49683534D01*
X71333557Y-49683533D01*
X71417221Y-49527011D01*
X71417222Y-49527009D01*
X71446552Y-49491271D01*
X71529814Y-49389814D01*
X71631271Y-49306552D01*
X71667009Y-49277222D01*
X71684913Y-49267652D01*
X71823533Y-49193557D01*
X71880147Y-49176384D01*
X71993373Y-49142037D01*
X72059557Y-49135519D01*
X72125740Y-49129000D01*
X72214260Y-49129000D01*
X72280443Y-49135519D01*
X72280443Y-49135519D01*
G37*
G36*
X69740443Y-49135519D02*
X69806627Y-49142037D01*
X69919853Y-49176384D01*
X69976467Y-49193557D01*
X70115087Y-49267652D01*
X70132991Y-49277222D01*
X70168729Y-49306552D01*
X70270186Y-49389814D01*
X70353448Y-49491271D01*
X70382778Y-49527009D01*
X70382779Y-49527011D01*
X70466443Y-49683533D01*
X70466443Y-49683534D01*
X70517963Y-49853373D01*
X70535359Y-50030000D01*
X70517963Y-50206627D01*
X70489488Y-50300497D01*
X70466443Y-50376467D01*
X70392348Y-50515087D01*
X70382778Y-50532991D01*
X70353448Y-50568729D01*
X70270186Y-50670186D01*
X70168729Y-50753448D01*
X70132991Y-50782778D01*
X70132989Y-50782779D01*
X69976467Y-50866443D01*
X69919853Y-50883616D01*
X69806627Y-50917963D01*
X69740442Y-50924482D01*
X69674260Y-50931000D01*
X69585740Y-50931000D01*
X69519558Y-50924482D01*
X69453373Y-50917963D01*
X69340147Y-50883616D01*
X69283533Y-50866443D01*
X69127011Y-50782779D01*
X69127009Y-50782778D01*
X69091271Y-50753448D01*
X68989814Y-50670186D01*
X68906552Y-50568729D01*
X68877222Y-50532991D01*
X68867652Y-50515087D01*
X68793557Y-50376467D01*
X68770512Y-50300497D01*
X68742037Y-50206627D01*
X68724641Y-50030000D01*
X68742037Y-49853373D01*
X68793557Y-49683534D01*
X68793557Y-49683533D01*
X68877221Y-49527011D01*
X68877222Y-49527009D01*
X68906552Y-49491271D01*
X68989814Y-49389814D01*
X69091271Y-49306552D01*
X69127009Y-49277222D01*
X69144913Y-49267652D01*
X69283533Y-49193557D01*
X69340147Y-49176384D01*
X69453373Y-49142037D01*
X69519557Y-49135519D01*
X69585740Y-49129000D01*
X69674260Y-49129000D01*
X69740443Y-49135519D01*
X69740443Y-49135519D01*
G37*
G36*
X67200443Y-49135519D02*
X67266627Y-49142037D01*
X67379853Y-49176384D01*
X67436467Y-49193557D01*
X67575087Y-49267652D01*
X67592991Y-49277222D01*
X67628729Y-49306552D01*
X67730186Y-49389814D01*
X67813448Y-49491271D01*
X67842778Y-49527009D01*
X67842779Y-49527011D01*
X67926443Y-49683533D01*
X67926443Y-49683534D01*
X67977963Y-49853373D01*
X67995359Y-50030000D01*
X67977963Y-50206627D01*
X67949488Y-50300497D01*
X67926443Y-50376467D01*
X67852348Y-50515087D01*
X67842778Y-50532991D01*
X67813448Y-50568729D01*
X67730186Y-50670186D01*
X67628729Y-50753448D01*
X67592991Y-50782778D01*
X67592989Y-50782779D01*
X67436467Y-50866443D01*
X67379853Y-50883616D01*
X67266627Y-50917963D01*
X67200442Y-50924482D01*
X67134260Y-50931000D01*
X67045740Y-50931000D01*
X66979558Y-50924482D01*
X66913373Y-50917963D01*
X66800147Y-50883616D01*
X66743533Y-50866443D01*
X66587011Y-50782779D01*
X66587009Y-50782778D01*
X66551271Y-50753448D01*
X66449814Y-50670186D01*
X66366552Y-50568729D01*
X66337222Y-50532991D01*
X66327652Y-50515087D01*
X66253557Y-50376467D01*
X66230512Y-50300497D01*
X66202037Y-50206627D01*
X66184641Y-50030000D01*
X66202037Y-49853373D01*
X66253557Y-49683534D01*
X66253557Y-49683533D01*
X66337221Y-49527011D01*
X66337222Y-49527009D01*
X66366552Y-49491271D01*
X66449814Y-49389814D01*
X66551271Y-49306552D01*
X66587009Y-49277222D01*
X66604913Y-49267652D01*
X66743533Y-49193557D01*
X66800147Y-49176384D01*
X66913373Y-49142037D01*
X66979557Y-49135519D01*
X67045740Y-49129000D01*
X67134260Y-49129000D01*
X67200443Y-49135519D01*
X67200443Y-49135519D01*
G37*
G36*
X64660443Y-49135519D02*
X64726627Y-49142037D01*
X64839853Y-49176384D01*
X64896467Y-49193557D01*
X65035087Y-49267652D01*
X65052991Y-49277222D01*
X65088729Y-49306552D01*
X65190186Y-49389814D01*
X65273448Y-49491271D01*
X65302778Y-49527009D01*
X65302779Y-49527011D01*
X65386443Y-49683533D01*
X65386443Y-49683534D01*
X65437963Y-49853373D01*
X65455359Y-50030000D01*
X65437963Y-50206627D01*
X65409488Y-50300497D01*
X65386443Y-50376467D01*
X65312348Y-50515087D01*
X65302778Y-50532991D01*
X65273448Y-50568729D01*
X65190186Y-50670186D01*
X65088729Y-50753448D01*
X65052991Y-50782778D01*
X65052989Y-50782779D01*
X64896467Y-50866443D01*
X64839853Y-50883616D01*
X64726627Y-50917963D01*
X64660442Y-50924482D01*
X64594260Y-50931000D01*
X64505740Y-50931000D01*
X64439558Y-50924482D01*
X64373373Y-50917963D01*
X64260147Y-50883616D01*
X64203533Y-50866443D01*
X64047011Y-50782779D01*
X64047009Y-50782778D01*
X64011271Y-50753448D01*
X63909814Y-50670186D01*
X63826552Y-50568729D01*
X63797222Y-50532991D01*
X63787652Y-50515087D01*
X63713557Y-50376467D01*
X63690512Y-50300497D01*
X63662037Y-50206627D01*
X63644641Y-50030000D01*
X63662037Y-49853373D01*
X63713557Y-49683534D01*
X63713557Y-49683533D01*
X63797221Y-49527011D01*
X63797222Y-49527009D01*
X63826552Y-49491271D01*
X63909814Y-49389814D01*
X64011271Y-49306552D01*
X64047009Y-49277222D01*
X64064913Y-49267652D01*
X64203533Y-49193557D01*
X64260147Y-49176384D01*
X64373373Y-49142037D01*
X64439557Y-49135519D01*
X64505740Y-49129000D01*
X64594260Y-49129000D01*
X64660443Y-49135519D01*
X64660443Y-49135519D01*
G37*
G36*
X62120443Y-49135519D02*
X62186627Y-49142037D01*
X62299853Y-49176384D01*
X62356467Y-49193557D01*
X62495087Y-49267652D01*
X62512991Y-49277222D01*
X62548729Y-49306552D01*
X62650186Y-49389814D01*
X62733448Y-49491271D01*
X62762778Y-49527009D01*
X62762779Y-49527011D01*
X62846443Y-49683533D01*
X62846443Y-49683534D01*
X62897963Y-49853373D01*
X62915359Y-50030000D01*
X62897963Y-50206627D01*
X62869488Y-50300497D01*
X62846443Y-50376467D01*
X62772348Y-50515087D01*
X62762778Y-50532991D01*
X62733448Y-50568729D01*
X62650186Y-50670186D01*
X62548729Y-50753448D01*
X62512991Y-50782778D01*
X62512989Y-50782779D01*
X62356467Y-50866443D01*
X62299853Y-50883616D01*
X62186627Y-50917963D01*
X62120442Y-50924482D01*
X62054260Y-50931000D01*
X61965740Y-50931000D01*
X61899558Y-50924482D01*
X61833373Y-50917963D01*
X61720147Y-50883616D01*
X61663533Y-50866443D01*
X61507011Y-50782779D01*
X61507009Y-50782778D01*
X61471271Y-50753448D01*
X61369814Y-50670186D01*
X61286552Y-50568729D01*
X61257222Y-50532991D01*
X61247652Y-50515087D01*
X61173557Y-50376467D01*
X61150512Y-50300497D01*
X61122037Y-50206627D01*
X61104641Y-50030000D01*
X61122037Y-49853373D01*
X61173557Y-49683534D01*
X61173557Y-49683533D01*
X61257221Y-49527011D01*
X61257222Y-49527009D01*
X61286552Y-49491271D01*
X61369814Y-49389814D01*
X61471271Y-49306552D01*
X61507009Y-49277222D01*
X61524913Y-49267652D01*
X61663533Y-49193557D01*
X61720147Y-49176384D01*
X61833373Y-49142037D01*
X61899557Y-49135519D01*
X61965740Y-49129000D01*
X62054260Y-49129000D01*
X62120443Y-49135519D01*
X62120443Y-49135519D01*
G37*
G36*
X59580443Y-49135519D02*
X59646627Y-49142037D01*
X59759853Y-49176384D01*
X59816467Y-49193557D01*
X59955087Y-49267652D01*
X59972991Y-49277222D01*
X60008729Y-49306552D01*
X60110186Y-49389814D01*
X60193448Y-49491271D01*
X60222778Y-49527009D01*
X60222779Y-49527011D01*
X60306443Y-49683533D01*
X60306443Y-49683534D01*
X60357963Y-49853373D01*
X60375359Y-50030000D01*
X60357963Y-50206627D01*
X60329488Y-50300497D01*
X60306443Y-50376467D01*
X60232348Y-50515087D01*
X60222778Y-50532991D01*
X60193448Y-50568729D01*
X60110186Y-50670186D01*
X60008729Y-50753448D01*
X59972991Y-50782778D01*
X59972989Y-50782779D01*
X59816467Y-50866443D01*
X59759853Y-50883616D01*
X59646627Y-50917963D01*
X59580442Y-50924482D01*
X59514260Y-50931000D01*
X59425740Y-50931000D01*
X59359558Y-50924482D01*
X59293373Y-50917963D01*
X59180147Y-50883616D01*
X59123533Y-50866443D01*
X58967011Y-50782779D01*
X58967009Y-50782778D01*
X58931271Y-50753448D01*
X58829814Y-50670186D01*
X58746552Y-50568729D01*
X58717222Y-50532991D01*
X58707652Y-50515087D01*
X58633557Y-50376467D01*
X58610512Y-50300497D01*
X58582037Y-50206627D01*
X58564641Y-50030000D01*
X58582037Y-49853373D01*
X58633557Y-49683534D01*
X58633557Y-49683533D01*
X58717221Y-49527011D01*
X58717222Y-49527009D01*
X58746552Y-49491271D01*
X58829814Y-49389814D01*
X58931271Y-49306552D01*
X58967009Y-49277222D01*
X58984913Y-49267652D01*
X59123533Y-49193557D01*
X59180147Y-49176384D01*
X59293373Y-49142037D01*
X59359557Y-49135519D01*
X59425740Y-49129000D01*
X59514260Y-49129000D01*
X59580443Y-49135519D01*
X59580443Y-49135519D01*
G37*
G36*
X82440443Y-49135519D02*
X82506627Y-49142037D01*
X82619853Y-49176384D01*
X82676467Y-49193557D01*
X82815087Y-49267652D01*
X82832991Y-49277222D01*
X82868729Y-49306552D01*
X82970186Y-49389814D01*
X83053448Y-49491271D01*
X83082778Y-49527009D01*
X83082779Y-49527011D01*
X83166443Y-49683533D01*
X83166443Y-49683534D01*
X83217963Y-49853373D01*
X83235359Y-50030000D01*
X83217963Y-50206627D01*
X83189488Y-50300497D01*
X83166443Y-50376467D01*
X83092348Y-50515087D01*
X83082778Y-50532991D01*
X83053448Y-50568729D01*
X82970186Y-50670186D01*
X82868729Y-50753448D01*
X82832991Y-50782778D01*
X82832989Y-50782779D01*
X82676467Y-50866443D01*
X82619853Y-50883616D01*
X82506627Y-50917963D01*
X82440442Y-50924482D01*
X82374260Y-50931000D01*
X82285740Y-50931000D01*
X82219558Y-50924482D01*
X82153373Y-50917963D01*
X82040147Y-50883616D01*
X81983533Y-50866443D01*
X81827011Y-50782779D01*
X81827009Y-50782778D01*
X81791271Y-50753448D01*
X81689814Y-50670186D01*
X81606552Y-50568729D01*
X81577222Y-50532991D01*
X81567652Y-50515087D01*
X81493557Y-50376467D01*
X81470512Y-50300497D01*
X81442037Y-50206627D01*
X81424641Y-50030000D01*
X81442037Y-49853373D01*
X81493557Y-49683534D01*
X81493557Y-49683533D01*
X81577221Y-49527011D01*
X81577222Y-49527009D01*
X81606552Y-49491271D01*
X81689814Y-49389814D01*
X81791271Y-49306552D01*
X81827009Y-49277222D01*
X81844913Y-49267652D01*
X81983533Y-49193557D01*
X82040147Y-49176384D01*
X82153373Y-49142037D01*
X82219557Y-49135519D01*
X82285740Y-49129000D01*
X82374260Y-49129000D01*
X82440443Y-49135519D01*
X82440443Y-49135519D01*
G37*
M02*
